<?xml version="1.0" encoding="utf-8"?>
<!-- Generator: Adobe Illustrator 20.1.0, SVG Export Plug-In . SVG Version: 6.00 Build 0)  -->
<svg version="1.1" xmlns="http://www.w3.org/2000/svg" xmlns:xlink="http://www.w3.org/1999/xlink" x="0px" y="0px"
	 viewBox="0 0 77 77" style="enable-background:new 0 0 77 77;" xml:space="preserve">
<style type="text/css">
	.st0{display:none;}
	.st1{display:inline;fill:#C2B59B;}
	.st2{fill:#77256F;}
	.st3{fill:none;stroke:#FFFFFF;stroke-width:5;}
	.st4{fill:#FFFFFF;}
	.st5{display:inline;}
	.st6{clip-path:url(#SVGID_2_);fill:#064265;}
	.st7{clip-path:url(#SVGID_2_);fill:none;stroke:#FFFFFF;stroke-width:5;}
	.st8{clip-path:url(#SVGID_2_);fill:#FFFFFF;}
	.st9{clip-path:url(#SVGID_4_);fill:#42145F;}
	.st10{clip-path:url(#SVGID_4_);fill:none;stroke:#FFFFFF;stroke-width:5;}
	.st11{clip-path:url(#SVGID_4_);fill:#FFFFFF;}
</style>
<g id="Layer_4" class="st0">
	<rect x="0.5" y="0.5" class="st1" width="76" height="76"/>
</g>
<g id="Layer_1">
	<g>
		<path class="st2" d="M38.3,74C58,74,74,58.2,74,38.7C74.1,19.1,58.2,3.2,38.5,3.1S2.9,18.9,2.9,38.5C2.8,58,18.7,73.9,38.3,74"/>
		
			<ellipse transform="matrix(2.882963e-03 -1 1 2.882963e-03 -0.2201 76.8887)" class="st3" cx="38.4" cy="38.6" rx="35.4" ry="35.6"/>
		<path class="st4" d="M27.4,46.9c0-5.9,0.1-11.6,0-17.3c0-4.1-0.1-4.1,4.4-5.4c7-2.1,14.1-4.1,21.5-6.3c0,2.7,0,5.1,0,7.5
			c0,7,0,13.9-0.1,20.9c0,2.6-2.2,4.9-4.9,5.4c-3,0.6-5.8-0.5-7.3-2.8c-2.1-3.3,0.4-7.4,4.8-7.8c0.8-0.1,1.5-0.1,2.5-0.1l0-17.2
			c-5.2,1.6-10.3,3.1-15.3,4.8c-0.5,0.2-0.8,1.3-0.8,2.1c-0.1,6.5,0,12.9-0.1,19.4c0,1.1,0,2.2-0.2,3.3c-0.6,2.8-3.8,4.9-7,4.5
			c-3.1-0.3-5.7-2.8-5.7-5.5c0-2.8,2.6-5.2,6-5.5C25.9,46.8,26.5,46.8,27.4,46.9"/>
	</g>
</g>
<g id="Layer_2" class="st0">
	<g class="st5">
		<defs>
			<rect id="SVGID_1_" x="0.5" y="0.5" width="76" height="76"/>
		</defs>
		<clipPath id="SVGID_2_">
			<use xlink:href="#SVGID_1_"  style="overflow:visible;"/>
		</clipPath>
		<path class="st6" d="M38.5,74C58.1,74,74,58.1,74,38.5S58.1,3,38.5,3S3,18.9,3,38.5S18.9,74,38.5,74"/>
		<ellipse class="st7" cx="38.5" cy="38.5" rx="35.5" ry="35.5"/>
		<path class="st8" d="M44.1,27.5c3.6,1.8,5.9,4.4,8.1,7.7c0.7-1.4,1.2-2.6,1.6-3.7c0.2-0.5,0.1-1.1,0-1.7c-0.5-2.4-2.7-4.1-6.2-3.4
			C46.6,26.6,45.5,27.1,44.1,27.5 M32.8,27.6c-2.6-1.2-3.9-1.4-5.5-1.3c-2.4,0.2-4.5,2.5-4.2,4.6c0.2,1.5,0.9,2.8,2,4.1
			C27,31.9,29.4,29.4,32.8,27.6 M45.9,60.8H31.1c-0.3-0.5-0.8-0.9-0.9-1.4c-0.1-0.5,0.2-1,0.3-1.6c-0.4-0.3-0.9-0.5-1.3-0.8
			c-0.5-0.3-1-0.7-1.4-1c-5-4.2-6.5-9.4-5-15.4c0.2-0.9,0.1-1.6-0.3-2.4c-0.8-1.4-1.6-2.8-2.2-4.3c-1.3-2.9-0.9-5.6,1.3-8
			c2.2-2.4,5-3.3,8.4-2.5c0.7,0.2,1.4,0.3,2.3,0.6c-0.2-1.2-0.4-2.2-0.6-3.2c-0.4-0.1-0.8-0.2-1.1-0.4c-1.1-0.5-1.4-1.6-0.6-2.5
			c0.2-0.2,0.5-0.4,0.7-0.5h15.5c0.8,0.5,1.3,1.2,1.1,2.1c-0.2,1-1.4,0.9-2.1,1.4c-0.1,0.6-0.3,1.1-0.3,1.6c-0.1,0.5-0.1,1-0.2,1.6
			c0.6-0.2,1.1-0.4,1.5-0.4c1.1-0.2,2.3-0.5,3.4-0.4c6.2,0.7,9.1,6.1,7,10.7c-0.4,0.9-0.9,1.9-1.4,2.8c-1.4,2.6-1.3,2.6-0.8,5.3
			c1.2,6.4-1.2,11.4-6.8,15.3c-0.4,0.3-0.9,0.6-1.3,0.9C47.3,59.1,46.7,59.9,45.9,60.8"/>
	</g>
</g>
<g id="Layer_3" class="st0">
	<g class="st5">
		<defs>
			<rect id="SVGID_3_" x="0.5" y="0.5" width="76" height="76"/>
		</defs>
		<clipPath id="SVGID_4_">
			<use xlink:href="#SVGID_3_"  style="overflow:visible;"/>
		</clipPath>
		<path class="st9" d="M38.5,74C58.1,74,74,58.1,74,38.5S58.1,3,38.5,3S3,18.9,3,38.5S18.9,74,38.5,74"/>
		<ellipse class="st10" cx="38.5" cy="38.5" rx="35.5" ry="35.5"/>
		<path class="st11" d="M50.3,43.1c2,0.5,3.9,0.9,5.8,1.4C54.8,42,52.8,41.5,50.3,43.1 M46.7,41.2c-0.3-3.5-1.9-5-4.4-4.3
			C43.7,38.2,45,39.6,46.7,41.2 M49,51c-3.5-0.4-5.2-0.9-8.5-4.7c0.1,2.4,0.8,4.3,2.9,5.3C45.3,52.5,47.2,52.4,49,51 M63.8,40.4
			c-1.3,1.9-2.6,3.8-3.9,5.7c-2.2,3.2-5,6-8.2,8.2c-2.3,1.6-4.9,2.7-7.8,2.9c-2.2,0.1-4-0.8-5.3-2.5c-1.2-1.6-2-3.4-2.2-5.4
			c-0.3-4.2,0.1-8.3,1.5-12.3c1-2.8,2.1-5.5,3.4-8.2c0.4-0.8,1-1.5,1.6-2.5c0.8,0.8,1.4,1.4,1.8,2.1c2,3.4,5.1,5.4,8.4,7.2
			c2.8,1.5,5.7,2.4,8.8,2.3c0.8,0,1.5,0.3,2.3,0.4C64.2,39,64,39.7,63.8,40.4"/>
		<path class="st11" d="M26.6,30.7c-2.1,0.5-3.9,0.9-5.8,1.4C23.1,33.8,25,33.4,26.6,30.7 M31.1,30.7c1.1,2.8,3.6,3.4,5.6,1.6
			C34.9,31.8,33,31.3,31.1,30.7 M33.3,44c-1.1-2.2-3-3.6-4.6-3.5c-2.2,0.1-3.9,1.2-5.3,3.3C26.9,42.4,30.1,42.1,33.3,44 M16.5,22.2
			c1.2-0.3,2,0.2,2.9,0.6C25.7,26,32,26,38.5,23.3c0.6-0.3,1.3-0.5,2-0.7c0.2-0.1,0.4,0,0.7,0c0.4,1.7,0.4,3.3-0.3,4.9
			c-1.1,2.4-2.5,4.7-3.2,7.1c-1,3.1-1.7,6.3-2.2,9.5c-0.2,1.2-0.5,2.2-1.4,2.9c-1,0.7-2,1.6-3.2,2c-3.1,1.2-6,0.1-8.5-2.9
			c-1.9-2.3-3.1-4.9-4-7.7C16.6,33.3,16.2,27.9,16.5,22.2"/>
	</g>
</g>
</svg>
