<?xml version="1.0" encoding="utf-8"?>
<!-- Generator: Adobe Illustrator 20.1.0, SVG Export Plug-In . SVG Version: 6.00 Build 0)  -->
<svg version="1.1" id="Layer_1" xmlns="http://www.w3.org/2000/svg" xmlns:xlink="http://www.w3.org/1999/xlink" x="0px" y="0px"
	 viewBox="0 0 24 24" style="enable-background:new 0 0 24 24;" xml:space="preserve">
<style type="text/css">
	.st0{clip-path:url(#SVGID_2_);fill:#42145F;}
</style>
<g>
	<defs>
		<rect id="SVGID_1_" x="0.1" y="0.1" width="23.9" height="23.9"/>
	</defs>
	<clipPath id="SVGID_2_">
		<use xlink:href="#SVGID_1_"  style="overflow:visible;"/>
	</clipPath>
	<path class="st0" d="M14.4,9.1v-4l7.4,6.9l-7.4,6.9v-4H2.8V9.1H14.4z M3.6,3.6C1.2,5.9,0.1,8.7,0.1,12c0,3.3,1.2,6.1,3.5,8.4
		c2.3,2.3,5.1,3.5,8.4,3.5c3.3,0,6.1-1.2,8.4-3.5c2.3-2.3,3.5-5.1,3.5-8.4c0-3.3-1.2-6.1-3.5-8.4c-2.3-2.3-5.1-3.5-8.4-3.5
		C8.7,0.1,5.9,1.2,3.6,3.6"/>
</g>
</svg>
