<?xml version="1.0" encoding="utf-8"?>
<!-- Generator: Adobe Illustrator 20.1.0, SVG Export Plug-In . SVG Version: 6.00 Build 0)  -->
<svg version="1.1" xmlns="http://www.w3.org/2000/svg" xmlns:xlink="http://www.w3.org/1999/xlink" x="0px" y="0px"
	 viewBox="0 0 71 71" style="enable-background:new 0 0 71 71;" xml:space="preserve">
<style type="text/css">
	.st0{display:none;}
	.st1{display:inline;}
	.st2{clip-path:url(#SVGID_2_);fill:#42145F;}
	.st3{clip-path:url(#SVGID_2_);fill:#FFFFFF;}
	.st4{clip-path:url(#SVGID_4_);fill:#77256F;}
	.st5{clip-path:url(#SVGID_4_);fill:#FFFFFF;}
	.st6{clip-path:url(#SVGID_4_);fill:none;stroke:#77256F;stroke-width:1.09;stroke-miterlimit:10;}
	.st7{clip-path:url(#SVGID_6_);fill:#064265;}
	.st8{clip-path:url(#SVGID_6_);fill:#FFFFFF;}
	.st9{clip-path:url(#SVGID_8_);fill:#C2952D;}
	.st10{clip-path:url(#SVGID_8_);fill:#FFFFFF;}
	.st11{clip-path:url(#SVGID_10_);fill:#00ADB2;}
	.st12{clip-path:url(#SVGID_10_);fill:#FFFFFF;}
	.st13{clip-path:url(#SVGID_12_);fill:#928B81;}
	.st14{clip-path:url(#SVGID_12_);fill:#FFFFFF;}
	.st15{display:inline;fill:#928B81;}
	.st16{clip-path:url(#SVGID_14_);fill:#FFFFFF;}
	.st17{fill:#FFFFFF;}
	.st18{clip-path:url(#SVGID_16_);fill:#FFFFFF;}
	.st19{clip-path:url(#SVGID_18_);fill:#FFFFFF;}
	.st20{clip-path:url(#SVGID_20_);fill:#FFFFFF;}
	.st21{clip-path:url(#SVGID_22_);fill:#FFFFFF;}
</style>
<g id="Layer_1" class="st0">
	<g class="st1">
		<defs>
			<rect id="SVGID_1_" x="0.5" y="0.4" width="70" height="70.2"/>
		</defs>
		<clipPath id="SVGID_2_">
			<use xlink:href="#SVGID_1_"  style="overflow:visible;"/>
		</clipPath>
		<path class="st2" d="M35.5,70.6c19.3,0,35-15.7,35-35.1S54.8,0.4,35.5,0.4s-35,15.7-35,35.1S16.2,70.6,35.5,70.6"/>
		<path class="st3" d="M44.6,57.4c0.2,0,0.3-0.1,0.4-0.1c1.2-0.4,2.4-0.7,3.6-1.1c2.6-1,5-2.3,7-4.4c1.5-1.6,2.4-3.5,2.4-5.7
			c0-2.7-0.1-5.4,0-8.2c0-1.5-0.6-2.6-1.8-3.6c-1-0.8-2.1-1.4-3.3-1.8c-0.4-0.1-0.7-0.3-0.8-0.7c-0.2-0.7-0.1-1.3,0.3-1.8
			c1.6-1.9,2.4-4.1,2.2-6.6c-0.1-1.9-1-3.4-2.7-4.2c-1.8-0.9-3.6-0.8-5.3,0.3c-2,1.3-2.4,3.4-2.1,5.6c0.2,1.9,1,3.6,2.3,5
			c0.7,0.7,0.4,1.9-0.5,2.3c-0.6,0.3-1.2,0.5-1.8,0.8c0,0-0.1,0-0.2,0c0-0.1,0-0.2,0-0.3c0.2-1.8-0.7-3-2-4c-1-0.8-2.2-1.3-3.4-1.7
			c-0.4-0.1-0.7-0.4-0.8-0.8c-0.1-0.6,0-1.2,0.4-1.7c1.6-2,2.4-4.3,2.1-6.9c-0.3-2.4-2.2-4.3-4.7-4.4c-2.7-0.2-4.8,1.4-5.3,3.9
			c-0.6,2.8,0.3,5.2,2,7.4c0.8,1,0.6,2.1-0.6,2.6c-1.2,0.5-2.3,1-3.2,1.8c-1.2,0.9-2,2.1-1.8,3.7c0,0.2,0,0.4,0,0.6
			c-0.7-0.3-1.2-0.6-1.8-0.8c-1.2-0.5-1.5-1.6-0.6-2.6c1.7-2,2.4-4.3,2.1-7c-0.4-2.7-2.5-4.4-5.2-4.3c-2.6,0.1-4.7,2-4.9,4.6
			c-0.2,2.6,0.6,4.8,2.2,6.8c0.8,0.9,0.5,2.1-0.6,2.5c-1.2,0.4-2.3,1-3.2,1.8c-1.1,0.9-1.7,2-1.7,3.5c0.1,2.7,0,5.4,0,8.1
			c0,0.5,0,1,0.1,1.6c0.3,2.1,1.5,3.6,3,5c2.2,2,4.8,3.2,7.6,4.1c0.9,0.3,1.8,0.5,2.7,0.8c0-0.8,0-1.5,0-2.3
			c-0.1-1.3,0.4-2.2,1.3-3.1c1.2-1.2,2.6-2,4.2-2.6c0.8-0.3,1-1.1,0.4-1.7c-1.5-1.7-2.3-3.7-2.4-6c-0.1-1.4,0.2-2.8,1.1-4
			c1-1.4,2.4-2.1,4.2-2.1c2-0.1,3.7,0.5,4.9,2.2c1.2,1.7,1.3,3.6,0.9,5.5c-0.3,1.6-1.1,3.1-2.1,4.4c-0.6,0.7-0.4,1.6,0.5,1.9
			c1.2,0.4,2.3,1,3.3,1.7c1.4,1,2.3,2.3,2.1,4.1C44.6,56,44.6,56.7,44.6,57.4"/>
		<path class="st3" d="M44.6,57.4c0-0.7,0-1.3,0-1.9c0.2-1.8-0.7-3.1-2.1-4.1c-1-0.8-2.1-1.3-3.3-1.7c-0.9-0.3-1.1-1.2-0.5-1.9
			c1.1-1.3,1.8-2.7,2.1-4.4c0.4-1.9,0.3-3.8-0.9-5.5c-1.2-1.7-2.9-2.3-4.9-2.2c-1.7,0.1-3.1,0.8-4.2,2.1c-0.9,1.2-1.1,2.5-1.1,4
			c0.1,2.3,0.9,4.3,2.4,6c0.5,0.6,0.4,1.4-0.4,1.7c-1.5,0.6-3,1.4-4.2,2.6c-0.8,0.9-1.4,1.9-1.3,3.1c0,0.7,0,1.5,0,2.3
			c-0.9-0.3-1.8-0.5-2.7-0.8c-2.8-0.9-5.4-2.2-7.6-4.1c-1.5-1.4-2.6-2.9-3-5c-0.1-0.5-0.1-1-0.1-1.6c0-2.7,0-5.4,0-8.1
			c0-1.5,0.6-2.6,1.7-3.5c1-0.8,2.1-1.4,3.2-1.8c1.1-0.4,1.4-1.6,0.6-2.5c-1.6-2-2.5-4.2-2.2-6.8c0.2-2.6,2.3-4.5,4.9-4.6
			c2.8-0.1,4.9,1.6,5.2,4.3c0.4,2.6-0.4,4.9-2.1,7c-0.8,1-0.6,2.1,0.6,2.6c0.6,0.3,1.2,0.5,1.8,0.8c0-0.2,0-0.4,0-0.6
			c-0.2-1.6,0.6-2.7,1.8-3.7c1-0.8,2.1-1.4,3.2-1.8c1.2-0.5,1.5-1.6,0.6-2.6c-1.7-2.2-2.6-4.6-2-7.4c0.5-2.5,2.7-4,5.3-3.9
			c2.5,0.1,4.4,2,4.7,4.4c0.3,2.6-0.5,4.9-2.1,6.9c-0.4,0.5-0.5,1.1-0.4,1.7c0.1,0.4,0.4,0.7,0.8,0.8c1.2,0.4,2.3,1,3.4,1.7
			c1.3,1,2.2,2.2,2,4c0,0.1,0,0.2,0,0.3c0.1,0,0.1,0,0.2,0c0.6-0.3,1.2-0.5,1.8-0.8c0.9-0.4,1.2-1.6,0.5-2.3c-1.3-1.5-2.1-3.1-2.3-5
			c-0.2-2.2,0.1-4.2,2.1-5.6c1.7-1.1,3.5-1.2,5.3-0.3c1.8,0.8,2.6,2.4,2.7,4.2c0.2,2.5-0.6,4.7-2.2,6.6c-0.5,0.5-0.5,1.2-0.3,1.8
			c0.1,0.4,0.5,0.6,0.8,0.7c1.2,0.4,2.3,1,3.3,1.8c1.1,0.9,1.8,2,1.8,3.6c-0.1,2.7,0,5.4,0,8.2c0,2.3-0.8,4.1-2.4,5.7
			c-1.9,2.1-4.4,3.4-7,4.4c-1.2,0.4-2.4,0.8-3.6,1.1C44.9,57.3,44.8,57.3,44.6,57.4"/>
	</g>
</g>
<g id="Layer_2" class="st0">
	<g class="st1">
		<defs>
			<rect id="SVGID_3_" x="0.5" y="0.5" width="70" height="70"/>
		</defs>
		<clipPath id="SVGID_4_">
			<use xlink:href="#SVGID_3_"  style="overflow:visible;"/>
		</clipPath>
		<path class="st4" d="M35.5,70.5c19.3,0,35-15.7,35-35s-15.7-35-35-35s-35,15.7-35,35S16.2,70.5,35.5,70.5"/>
		<path class="st4" d="M43.5,30.6c0-7.1-5.7-12.9-12.9-12.9c-7.3,0-12.9,5.8-12.8,12.9c0,7.1,5.8,12.8,12.9,12.8
			C37.7,43.5,43.5,37.7,43.5,30.6 M40.4,43c-3.9,2.9-8.3,4-13,3c-4-0.8-7.3-3-9.6-6.4c-4.4-6.3-3.7-14.8,1.8-20.3
			c5.9-5.8,14.9-6,21.1-1c6.1,5,8,14.5,2.4,21.9c0.5,0.5,0.9,0.9,1.4,1.4c0.9-0.4,1.8-0.4,2.7,0.1c0.3,0.2,0.5,0.4,0.8,0.6
			c2.4,2.3,4.7,4.7,7.1,7.1c1.4,1.4,1.4,3.1,0,4.5c-0.6,0.6-1.2,1.3-2,1.7c-1,0.6-2.1,0.4-3.1-0.3c-0.2-0.1-0.3-0.3-0.5-0.4
			c-2.3-2.3-4.7-4.7-7-7c-1-1-1.3-2.1-0.8-3.5c0-0.1,0-0.2,0-0.3C41.3,43.8,40.9,43.4,40.4,43"/>
		<path class="st4" d="M22.5,26.7c0,3.4,1.2,6.3,3.6,8.6c2.5,2.3,5.4,3.3,8.8,3c-2.6,2-7.2,2.3-10.5-0.5
			C21.1,35.2,20.2,30.2,22.5,26.7"/>
		<path class="st5" d="M64.2,31.7c-0.5,0.2-1,0.5-1.5,0.7c-3.2,1.3-6.3,2.6-9.5,3.9c-0.1,0-0.2,0.1-0.5,0.2c0-0.9,0-1.7,0-2.6
			c0-0.6,0.1-1.3-0.1-1.7c-0.2-0.4-0.9-0.4-1.4-0.6c-6.4-2.1-12.8-2.9-19.4-2.4c-1.9,0.1-3.9,0.4-5.8,0.7c0-0.1,0-0.3,0-0.4
			c0-1.9,0-3.9,0-5.8c0-0.4,0.1-0.6,0.4-0.7c2.5-1,5.1-2.1,7.6-3.1c0.8-0.3,1.6-0.3,2.3,0c9.1,3.7,18.2,7.5,27.3,11.2
			c0.2,0.1,0.4,0.2,0.6,0.3V31.7z"/>
		<path class="st6" d="M64.2,31.7c-0.5,0.2-1,0.5-1.5,0.7c-3.2,1.3-6.3,2.6-9.5,3.9c-0.1,0-0.2,0.1-0.5,0.2c0-0.9,0-1.7,0-2.6
			c0-0.6,0.1-1.3-0.1-1.7c-0.2-0.4-0.9-0.4-1.4-0.6c-6.4-2.1-12.8-2.9-19.4-2.4c-1.9,0.1-3.9,0.4-5.8,0.7c0-0.1,0-0.3,0-0.4
			c0-1.9,0-3.9,0-5.8c0-0.4,0.1-0.6,0.4-0.7c2.5-1,5.1-2.1,7.6-3.1c0.8-0.3,1.6-0.3,2.3,0c9.1,3.7,18.2,7.5,27.3,11.2
			c0.2,0.1,0.4,0.2,0.6,0.3V31.7z"/>
		<path class="st5" d="M6.9,31.3c3.4-1.4,6.8-2.8,10.2-4.2c0.1,0,0.1,0,0.2,0v9c-0.2-0.1-0.3-0.1-0.5-0.2c-3.1-1.3-6.2-2.5-9.2-3.8
			c-0.2-0.1-0.5-0.2-0.7-0.4V31.3z"/>
		<path class="st6" d="M6.9,31.3c3.4-1.4,6.8-2.8,10.2-4.2c0.1,0,0.1,0,0.2,0v9c-0.2-0.1-0.3-0.1-0.5-0.2c-3.1-1.3-6.2-2.5-9.2-3.8
			c-0.2-0.1-0.5-0.2-0.7-0.4V31.3z"/>
		<path class="st5" d="M51.5,47.2C43,49,34.6,49.4,26,48.2c0-0.2,0-0.5,0-0.7c0-5,0-10.1,0-15.1c0-0.6,0.2-0.7,0.6-0.8
			c8.2-1.7,16.3-1.4,24.4,1.4c0.3,0.1,0.5,0.2,0.5,0.7c0,4.4,0,8.8,0,13.2C51.5,47,51.5,47.1,51.5,47.2"/>
		<path class="st6" d="M51.5,47.2C43,49,34.6,49.4,26,48.2c0-0.2,0-0.5,0-0.7c0-5,0-10.1,0-15.1c0-0.6,0.2-0.7,0.6-0.8
			c8.2-1.7,16.3-1.4,24.4,1.4c0.3,0.1,0.5,0.2,0.5,0.7c0,4.4,0,8.8,0,13.2C51.5,47,51.5,47.1,51.5,47.2z"/>
		<path class="st5" d="M21.7,50.8c-1,1.6-1.9,3.1-2.9,4.7c0-0.3-0.1-0.4-0.1-0.6c0-9.7,0-19.3,0-29c0-0.2,0.2-0.6,0.3-0.7
			c1.8-0.9,3.6-1.8,5.3-2.7c0.1,0,0.1,0,0.2-0.1v32.2C23.6,53.4,22.7,52.1,21.7,50.8"/>
		<path class="st6" d="M21.7,50.8c-1,1.6-1.9,3.1-2.9,4.7c0-0.3-0.1-0.4-0.1-0.6c0-9.7,0-19.3,0-29c0-0.2,0.2-0.6,0.3-0.7
			c1.8-0.9,3.6-1.8,5.3-2.7c0.1,0,0.1,0,0.2-0.1v32.2C23.6,53.4,22.7,52.1,21.7,50.8z"/>
	</g>
</g>
<g id="Layer_3" class="st0">
	<g class="st1">
		<defs>
			<rect id="SVGID_5_" x="0.5" y="0.5" width="70" height="70"/>
		</defs>
		<clipPath id="SVGID_6_">
			<use xlink:href="#SVGID_5_"  style="overflow:visible;"/>
		</clipPath>
		<path class="st7" d="M35.5,70.5c19.3,0,35-15.7,35-35s-15.7-35-35-35s-35,15.7-35,35S16.2,70.5,35.5,70.5"/>
		<path class="st8" d="M36.6,35.8c0.2,0.3,0.4,0.7,0.7,0.9c3.4,2.7,6.8,5.4,10.3,8.1c0.3,0.2,0.5,0.4,0.7,0.7
			c0.5,0.7,0.6,1.5,0.1,2.2c-0.5,0.7-1.3,1-2.1,0.7c-0.4-0.1-0.7-0.3-1-0.6c-3.4-2.7-6.9-5.4-10.3-8.1c-0.4-0.3-0.8-0.4-1.3-0.2
			c-0.1,0.5,0.2,0.8,0.5,1c2.7,2.1,5.3,4.2,8,6.4c0.2,0.2,0.5,0.4,0.7,0.6c0.8,0.8,1,1.6,0.4,2.5c-0.5,0.8-1.3,1.2-2.2,0.7
			c-1.9-1-3.5-2.4-5-3.9c-0.2-0.2-0.3-0.5-0.3-0.8c-0.3-1.1-1.2-2-2.3-1.9c-1,0.1-1.6-0.3-2.2-1.1c-0.9-1.3-2.2-2-4.4-0.5
			c-0.6-0.7-1.2-1.6-2.2-1.8c-1.1-0.2-1.8,0.4-2.6,0.9c-2.1-2.4-3.4-2.4-5.4,0.1c-0.5-0.3-1.1-0.6-1.6-0.9c-1.5-0.9-3-1.7-4.5-2.6
			c-0.6-0.3-0.7-0.5-0.3-1.2c2.1-3.8,4.2-7.5,6.3-11.3c0.2-0.4,0.5-0.5,1-0.4c0.7,0.3,1.5,0.5,2.2,0.8c0.8,0.4,1.6,0.4,2.4,0.1
			c2.1-0.7,4.2-1.4,6.3-2c0.7-0.2,1.3-0.3,2,0.1c-0.4,0.3-0.7,0.6-1.1,0.8c-1.7,1.2-3.3,2.4-5,3.6c-0.9,0.7-1.5,1.5-1.2,2.7
			c0.3,1.4,1.7,2.6,3.2,2.6c0.8,0,1.7-0.1,2.5-0.4c2.4-0.9,4.8-2,7.2-3c0.8-0.3,1.4-0.3,2,0.3c4.9,3.9,9.9,7.8,14.8,11.7
			c1,0.8,1.2,1.6,0.8,2.5c-0.5,1.2-2,1.4-3.2,0.5c-2.3-1.8-4.5-3.5-6.8-5.3c-1.9-1.5-3.7-3-5.7-4.5c-0.3-0.2-0.8-0.2-1.2-0.4
			C36.7,35.6,36.7,35.7,36.6,35.8"/>
		<path class="st8" d="M40,21.9c0.4,0.1,0.8,0.2,1.2,0.4c2.6,1.2,5.1,2.4,7.7,3.7c0.9,0.5,1.8,0.6,2.7,0.1c0.5-0.3,1.1-0.4,1.7-0.7
			c0.8-0.3,1-0.3,1.4,0.5c1.4,2.4,2.7,4.9,4.1,7.3c0.7,1.2,1.3,2.4,2,3.6c0.4,0.6,0.3,0.9-0.3,1.3c-1.7,1.2-3.4,2.4-5,3.7
			c-1,0.7-1.1,0.7-2,0c-4.4-3.5-8.8-7-13.2-10.5c-0.7-0.5-1.4-1.1-2-1.7c-0.6-0.5-1.1-0.6-1.9-0.3c-2.5,1.1-5,2.1-7.4,3.2
			c-0.4,0.2-0.9,0.3-1.4,0.5c-1.1,0.3-2.1,0-2.9-0.7c-0.7-0.6-0.8-1.5-0.2-2.2c0.2-0.3,0.5-0.5,0.8-0.7c2.1-1.5,4.1-3,6.2-4.5
			c0.4-0.3,0.8-0.5,1.3-0.7c2.1-0.7,4.3-1.4,6.4-2.1C39.3,22,39.6,21.9,40,21.9"/>
		<path class="st8" d="M29.8,50.8c0.2-0.5,0.3-1.1,0.5-1.6c0.3-1,0.7-2,1.1-3.1c0.4-1.1,1.4-1.6,2.5-1.2c1,0.3,1.5,1.3,1.1,2.5
			c-0.4,1.4-0.9,2.8-1.4,4.1c-0.3,0.7-0.8,1.2-1.6,1.2c-0.8,0-1.5-0.3-1.8-1C30,51.4,29.9,51.1,29.8,50.8"/>
		<path class="st8" d="M30.9,44.2c-0.1,0.3-0.1,0.5-0.2,0.8c-0.4,1.3-0.9,2.6-1.4,4c-0.4,1.1-1.4,1.6-2.5,1.2
			c-1-0.4-1.5-1.4-1.1-2.5c0.5-1.4,0.9-2.7,1.4-4.1c0.5-1.3,2.2-1.7,3.1-0.6C30.6,43.3,30.7,43.7,30.9,44.2
			C30.9,44.2,30.9,44.2,30.9,44.2"/>
		<path class="st8" d="M26.2,43.3c-0.5,1.2-0.9,2.5-1.4,3.6c-0.4,0.7-1.4,0.9-2.2,0.6c-0.8-0.3-1.4-1-1.2-1.9
			c0.3-1.2,0.7-2.4,1.2-3.5c0.3-0.7,1.3-1,2.2-0.7c0.8,0.2,1.3,0.9,1.3,1.7C26.1,43.3,26.1,43.3,26.2,43.3"/>
		<path class="st8" d="M17,43.4c0.1-0.8,0.4-1.5,0.9-2.2c0.5-0.7,1.4-0.8,2.2-0.4c0.8,0.4,1.3,1.2,1.1,2.1c-0.1,0.5-0.3,0.9-0.5,1.3
			c-0.3,0.8-1,1-1.8,1c-0.7,0-1.3-0.3-1.6-0.9C17.1,44.1,17.1,43.7,17,43.4"/>
		<path class="st8" d="M35.7,48c0.7,0.6,1.4,1.1,2,1.7c0.7,0.7,0.7,1.6,0.2,2.3c-0.6,0.8-1.6,1.1-2.4,0.7c-1-0.5-1.1-0.8-0.8-1.8
			C35,50,35.3,49,35.7,48"/>
	</g>
</g>
<g id="Layer_4" class="st0">
	<g class="st1">
		<defs>
			<rect id="SVGID_7_" x="0.5" y="0.5" width="70" height="70"/>
		</defs>
		<clipPath id="SVGID_8_">
			<use xlink:href="#SVGID_7_"  style="overflow:visible;"/>
		</clipPath>
		<path class="st9" d="M35.5,70.5c19.3,0,35-15.7,35-35s-15.7-35-35-35s-35,15.7-35,35S16.2,70.5,35.5,70.5"/>
		<path class="st10" d="M35.5,51.1c-3.4,0-6.8,0-10.2,0c-0.3,0-0.6-0.1-0.9,0c-0.3,0.1-0.5,0.3-0.6,0.6c-0.4,1.1,0.1,1.7,1.2,1.8
			c0.2,0,0.4,0,0.6,0c6.6,0,13.3,0,19.9,0c0.3,0,0.6,0,0.9,0c0.7-0.1,0.9-0.4,0.9-1.3c0-0.8-0.2-1-1-1c-0.3,0-0.5,0-0.8,0
			C42.1,51.1,38.8,51.1,35.5,51.1 M35.5,49.4c3.5,0,7,0,10.5,0c1.1,0,1.3-0.2,1.3-1.2c0-0.8-0.2-1-1-1.1c-0.3,0-0.6,0-0.9,0
			c-6.6,0-13.2,0-19.8,0c-0.3,0-0.6,0-0.9,0c-0.8,0.1-1,0.4-0.9,1.3c0,0.8,0.2,1,1,1.1c0.3,0,0.5,0,0.8,0
			C28.8,49.4,32.1,49.4,35.5,49.4 M38.2,36.1c0.8,0,1.6,0,2.3,0c1.9,0.1,3.4,1.6,3.5,3.5c0,0.8,0,1.6,0,2.4c0,1.1,0.1,1.2,1.2,1.2
			c0.1,0,0.2,0,0.3,0c1.6,0,1.8-0.2,1.8-1.7c0-5.1,0-10.2,0-15.3c0-0.3,0-0.5,0-0.8c0-0.5-0.3-0.8-0.9-0.9c-0.3,0-0.6,0-0.9,0
			c-6.7,0-13.4,0-20.1,0c-0.3,0-0.5,0-0.8,0c-0.6,0.1-0.9,0.3-0.9,0.9c0,0.3,0,0.6,0,0.9c0,4.9,0,9.7,0,14.6c0,2.1-0.1,2.3,2.4,2.3
			c0.7,0,0.9-0.2,0.9-0.9c0-0.9,0-1.8,0-2.6c0.1-1.9,1.4-3.3,3.3-3.5c0.8-0.1,1.7,0,2.5,0c0.8,1.6,1.4,3.1,2.7,4.4
			C36.7,39.1,37.4,37.6,38.2,36.1 M30.9,17.1c0,0.9,0,1.6,0,2.3c0,1.9,1.4,3.3,3.3,3.4c0.9,0,1.8,0,2.6,0c1.9,0,3.3-1.4,3.3-3.4
			c0-0.7,0-1.4,0-2.2c0.3-0.1,0.5-0.1,0.8-0.1c2.8,0,5.7,0,8.5,0c1.1,0,1.1,0.1,1.1,1.2c0,12.5,0,25,0,37.5c0,1.1-0.1,1.2-1.2,1.2
			c-9.3,0-18.5,0-27.8,0c-1.1,0-1.2-0.1-1.2-1.2c0-12.5,0-25,0-37.5c0-1.1,0-1.2,1.1-1.2c2.8,0,5.7,0,8.5,0
			C30.3,17,30.5,17,30.9,17.1"/>
		<path class="st10" d="M32.8,16.7c0-0.8,0-1.7,0-2.5c0-0.9,0.4-1.3,1.3-1.3c0.9,0,1.8,0,2.7,0c0.9,0,1.3,0.4,1.3,1.3
			c0,1.8,0,3.5,0,5.3c0,0.9-0.5,1.3-1.3,1.4c-0.9,0-1.8,0-2.6,0c-0.9,0-1.4-0.5-1.4-1.4C32.8,18.4,32.8,17.6,32.8,16.7"/>
		<path class="st10" d="M35.5,35c-2.6,0-4.5-1.9-4.5-4.5c0-2.5,2-4.5,4.5-4.6c2.6,0,4.6,2,4.6,4.6C40,33.1,38,35,35.5,35"/>
	</g>
</g>
<g id="Layer_5" class="st0">
	<g class="st1">
		<defs>
			<rect id="SVGID_9_" x="0.5" y="0.5" width="70" height="70"/>
		</defs>
		<clipPath id="SVGID_10_">
			<use xlink:href="#SVGID_9_"  style="overflow:visible;"/>
		</clipPath>
		<path class="st11" d="M35.5,70.5c19.3,0,35-15.7,35-35s-15.7-35-35-35s-35,15.7-35,35S16.2,70.5,35.5,70.5"/>
		<path class="st12" d="M29.8,34.7c-3.6,0-6.6,2.9-6.6,6.5c0,3.7,2.9,6.6,6.6,6.6c3.6,0,6.6-2.9,6.6-6.6
			C36.3,37.7,33.4,34.8,29.8,34.7 M34,57.4c-0.6-1.6-1.7-2.5-3.3-2.9c-2.3-0.5-4.4,0.5-5.4,2.6c0,0.1-0.1,0.1-0.2,0.3
			c-1.3-0.6-2.6-1.1-3.9-1.7c0.7-2,0.5-3.8-0.9-5.3c-1.4-1.5-3.2-1.8-5.2-1.2c-0.2-0.3-0.3-0.6-0.5-0.9c-0.4-0.9-0.7-1.8-1.1-2.7
			c1.8-0.9,2.8-2.4,2.9-4.4c0-2-1-3.4-2.7-4.4c0.4-1.3,0.9-2.6,1.6-3.8c0.1-0.1,0.3-0.1,0.4-0.1c2.1,0.4,3.7-0.2,5-1.8
			c0.9-1.2,1.1-2.5,0.8-3.9c-0.1-0.3,0-0.4,0.2-0.5c1.2-0.5,2.5-1,3.7-1.5c0.2-0.1,0.4,0,0.5,0.2c2,3,6,3,8.1,0.1
			c0.1-0.2,0.2-0.2,0.4-0.2c1.2,0.5,2.3,1,3.5,1.5c0.3,0.1,0.2,0.3,0.2,0.5c-0.4,2,0.5,4.1,2.3,5.2c1.1,0.6,2.2,0.8,3.4,0.5
			c0.3-0.1,0.4,0,0.6,0.2c0.6,1.1,1.1,2.2,1.4,3.4c-1,0.6-1.8,1.4-2.2,2.4c-0.9,2.2,0,4.8,2.1,6c0.2,0.1,0.3,0.3,0.2,0.5
			c-0.4,1.1-0.9,2.3-1.3,3.4c-0.1,0.2-0.2,0.3-0.4,0.2c-1.8-0.5-3.5-0.1-4.8,1.3c-1.3,1.4-1.7,3.1-1,4.9c0,0.1,0,0.1,0.1,0.3
			c-1.1,0.5-2.1,0.9-3.2,1.4c-0.3,0.1-0.6,0.2-1,0.3H34z"/>
		<path class="st12" d="M48.3,26.5c2,0,3.7-1.6,3.7-3.7c0-2-1.7-3.7-3.7-3.6c-2,0-3.6,1.7-3.6,3.7C44.6,24.8,46.3,26.5,48.3,26.5
			 M57.4,24c-1,0-1.7,0.4-2.2,1.2c-0.6,0.9-0.5,1.8-0.1,2.7c0.1,0.2,0.3,0.4,0.5,0.7c-0.6,0.6-1.2,1.2-1.7,1.7
			c-2.4-1.6-4.3-0.8-4.8,1.7h-2.3c-0.1-2.6-2.8-3.6-4.5-2.1c-0.5-0.5-1-1-1.5-1.6c0.6-0.7,0.9-1.5,0.7-2.3c-0.2-1.1-1-1.9-2-2.1
			c-0.3-0.1-0.5-0.2-0.4-0.5c0-0.4,0-0.8,0-1.2c0-0.3,0.1-0.5,0.1-0.8c0.7-0.1,1.3-0.3,1.7-0.8c0.8-0.9,1-2.2,0.4-3.2
			c-0.2-0.2-0.2-0.4,0-0.6c0.5-0.5,1-1,1.6-1.5c0.7,0.5,1.4,0.8,2.2,0.6c1.1-0.2,1.9-0.9,2.2-2c0-0.1,0.1-0.2,0.1-0.3h1.9
			c0.1,0,0.3,0.1,0.4,0.1c0.6,2.2,2.2,2.9,4.2,1.9c0.1,0,0.2,0,0.3,0c0.5,0.5,1,0.9,1.5,1.4c-1.2,1.6-0.7,3.2,0.5,3.9
			c0.4,0.3,0.9,0.4,1.4,0.5V24z"/>
	</g>
</g>
<g id="Layer_6" class="st0">
	<g class="st1">
		<defs>
			<rect id="SVGID_11_" x="0.5" y="0.5" width="70" height="70"/>
		</defs>
		<clipPath id="SVGID_12_">
			<use xlink:href="#SVGID_11_"  style="overflow:visible;"/>
		</clipPath>
		<path class="st13" d="M35.5,70.5c19.3,0,35-15.7,35-35s-15.7-35-35-35s-35,15.7-35,35S16.2,70.5,35.5,70.5"/>
		<path class="st14" d="M36.2,39.7c1-0.3,1.8-0.5,2.6-0.9c0.6-0.3,1.2-0.8,1.7-1.4c0.7-0.8,0.7-1.6,0.2-2.4
			c-0.6-0.8-1.6-1.2-2.5-0.8c-0.7,0.3-1.3,0.9-1.8,1.4c-0.3,0.3-0.5,0.7-0.8,1.1c-0.3-0.4-0.5-0.8-0.8-1.1c-0.6-0.5-1.1-1.1-1.8-1.4
			C32,33.9,31,34.2,30.4,35c-0.6,0.8-0.5,1.6,0.2,2.5c0.7,0.9,1.6,1.4,2.7,1.7c0.5,0.1,1,0.3,1.6,0.4v9.3c-1.2,0-2.3,0-3.4,0
			c-0.7,0-1.1-0.5-1.3-1.1c-0.2-0.5-0.3-1-0.4-1.5c-0.2-1.4-0.8-2.5-1.5-3.7c-1-1.6-2-3.1-2.8-4.8c-3.2-6.4,0-14,6.8-16.1
			c7.3-2.2,14.6,3.1,14.7,10.7c0,2.2-0.5,4.2-1.6,6.1c-0.7,1.2-1.4,2.4-2.1,3.5c-1,1.4-1.7,3-2,4.7c-0.4,1.9-0.7,2.2-2.7,2.2
			c-0.7,0-1.4,0-2.3,0V39.7z"/>
		<path class="st14" d="M36.7,15.2c0,0.7,0,1.5,0,2.2c0,0.9-0.5,1.4-1.2,1.4c-0.6,0-1.1-0.6-1.1-1.5c0-1.5,0-3,0.1-4.5
			c0-0.9,0.4-1.2,1-1.2c0.7,0,1.1,0.3,1.2,1.2C36.7,13.7,36.7,14.5,36.7,15.2L36.7,15.2z"/>
		<path class="st14" d="M20.7,48.9c-1,0-1.5-0.9-1.1-1.7c0.1-0.3,0.4-0.5,0.7-0.8c0.9-0.9,1.9-1.9,2.8-2.8c0.6-0.6,1.2-0.6,1.7-0.1
			c0.5,0.4,0.4,1.1-0.1,1.7c-1.1,1.1-2.2,2.2-3.3,3.3C21.1,48.7,20.8,48.8,20.7,48.9"/>
		<path class="st14" d="M51.7,47.8c-0.2,0.3-0.4,0.8-0.7,0.9c-0.3,0.1-0.8,0.1-1-0.1c-1.3-1.2-2.5-2.4-3.8-3.7
			c-0.4-0.5-0.3-1.1,0.1-1.5c0.5-0.4,1-0.4,1.5,0c1.2,1.1,2.3,2.3,3.5,3.5C51.4,47.1,51.5,47.4,51.7,47.8"/>
		<path class="st14" d="M25.1,21.1c0,1-0.8,1.5-1.6,1.1c-0.2-0.1-0.4-0.3-0.6-0.5c-1-1-2-2-3-3c-0.5-0.6-0.6-1.3-0.2-1.7
			c0.4-0.4,1.2-0.4,1.7,0.1c1.1,1.1,2.2,2.2,3.3,3.3C24.9,20.6,25,21,25.1,21.1"/>
		<path class="st14" d="M47.2,22.3c-1.1,0-1.5-0.8-1.1-1.6c0.1-0.2,0.3-0.4,0.5-0.6c1-1,1.9-2,2.9-2.9c0.7-0.6,1.4-0.7,1.8-0.3
			c0.5,0.4,0.4,1.2-0.2,1.8c-1,1.1-2,2.1-3.1,3.1C47.7,22.1,47.3,22.2,47.2,22.3"/>
		<path class="st14" d="M17.9,33.9c-0.7,0-1.4,0-2.1,0c-0.9,0-1.5-0.4-1.5-1.1c0-0.7,0.5-1.1,1.4-1.1c1.5,0,2.9,0,4.4,0
			c1,0,1.3,0.3,1.3,1c0,0.8-0.4,1.1-1.4,1.2C19.4,33.9,18.7,33.9,17.9,33.9"/>
		<path class="st14" d="M53,33.9c-0.8,0-1.6,0-2.3,0c-0.8,0-1.2-0.5-1.2-1.2c0-0.7,0.4-1,1.2-1c1.6,0,3.1,0,4.7,0
			c0.8,0,1.2,0.4,1.3,1c0,0.6-0.5,1.1-1.3,1.2C54.6,33.9,53.8,33.9,53,33.9"/>
		<path class="st14" d="M35.5,50.3c1,0,2.1,0,3.1,0c0.3,0,0.6,0,0.9,0.1c0.2,0.1,0.5,0.3,0.5,0.5c0,0.2-0.1,0.6-0.3,0.7
			c-0.3,0.2-0.6,0.2-1,0.2c-2.1,0-4.2,0-6.3,0c0,0-0.1,0-0.1,0c-0.6,0-1.2,0-1.2-0.8c0-0.7,0.7-0.7,1.2-0.7
			C33.3,50.3,34.4,50.3,35.5,50.3"/>
		<path class="st14" d="M35.5,54.2c-1.2,0-2.3,0-3.5,0c-0.5,0-1,0-1-0.7c0-0.6,0.5-0.8,1-0.8c2.4,0,4.7,0,7.1,0c0.5,0,1,0.2,1,0.8
			c0,0.6-0.5,0.6-0.9,0.6C37.9,54.2,36.7,54.2,35.5,54.2L35.5,54.2z"/>
		<path class="st14" d="M35.5,56.7c-1.2,0-2.3,0-3.5,0c-0.5,0-1-0.1-1-0.7c0-0.6,0.5-0.7,1-0.7c2.3,0,4.7,0,7,0c0,0,0.1,0,0.1,0
			c0.5,0,0.9,0.2,0.9,0.7c0,0.5-0.4,0.7-0.9,0.7C37.9,56.7,36.7,56.7,35.5,56.7"/>
		<path class="st14" d="M33.1,57.9h4.7C36.7,59.8,34.5,59.8,33.1,57.9"/>
		<path class="st14" d="M34.4,38c-1.2,0.1-1.9-0.4-2.6-1c-0.4-0.3-0.7-0.8-0.2-1.2c0.3-0.2,0.9-0.2,1.3-0.1
			C33.7,36.2,34.1,37,34.4,38"/>
		<path class="st14" d="M36.6,38c0.3-1,0.7-1.7,1.5-2.2c0.5-0.3,1-0.4,1.4,0c0.4,0.5,0,1-0.4,1.3C38.4,37.6,37.7,38.1,36.6,38"/>
	</g>
</g>
<g id="Layer_13" class="st0">
	<rect x="0.5" y="0.5" class="st15" width="70" height="70"/>
</g>
<g id="Layer_1_copy" class="st0">
	<g class="st1">
		<defs>
			<rect id="SVGID_13_" x="0.5" y="0.4" width="70" height="70.2"/>
		</defs>
		<clipPath id="SVGID_14_">
			<use xlink:href="#SVGID_13_"  style="overflow:visible;"/>
		</clipPath>
		<path class="st16" d="M44.6,57.4c0.2,0,0.3-0.1,0.4-0.1c1.2-0.4,2.4-0.7,3.6-1.1c2.6-1,5-2.3,7-4.4c1.5-1.6,2.4-3.5,2.4-5.7
			c0-2.7-0.1-5.4,0-8.2c0-1.5-0.6-2.6-1.8-3.6c-1-0.8-2.1-1.4-3.3-1.8c-0.4-0.1-0.7-0.3-0.8-0.7c-0.2-0.7-0.1-1.3,0.3-1.8
			c1.6-1.9,2.4-4.1,2.2-6.6c-0.1-1.9-1-3.4-2.7-4.2c-1.8-0.9-3.6-0.8-5.3,0.3c-2,1.3-2.4,3.4-2.1,5.6c0.2,1.9,1,3.6,2.3,5
			c0.7,0.7,0.4,1.9-0.5,2.3c-0.6,0.3-1.2,0.5-1.8,0.8c0,0-0.1,0-0.2,0c0-0.1,0-0.2,0-0.3c0.2-1.8-0.7-3-2-4c-1-0.8-2.2-1.3-3.4-1.7
			c-0.4-0.1-0.7-0.4-0.8-0.8c-0.1-0.6,0-1.2,0.4-1.7c1.6-2,2.4-4.3,2.1-6.9c-0.3-2.4-2.2-4.3-4.7-4.4c-2.7-0.2-4.8,1.4-5.3,3.9
			c-0.6,2.8,0.3,5.2,2,7.4c0.8,1,0.6,2.1-0.6,2.6c-1.2,0.5-2.3,1-3.2,1.8c-1.2,0.9-2,2.1-1.8,3.7c0,0.2,0,0.4,0,0.6
			c-0.7-0.3-1.2-0.6-1.8-0.8c-1.2-0.5-1.5-1.6-0.6-2.6c1.7-2,2.4-4.3,2.1-7c-0.4-2.7-2.5-4.4-5.2-4.3c-2.6,0.1-4.7,2-4.9,4.6
			c-0.2,2.6,0.6,4.8,2.2,6.8c0.8,0.9,0.5,2.1-0.6,2.5c-1.2,0.4-2.3,1-3.2,1.8c-1.1,0.9-1.7,2-1.7,3.5c0.1,2.7,0,5.4,0,8.1
			c0,0.5,0,1,0.1,1.6c0.3,2.1,1.5,3.6,3,5c2.2,2,4.8,3.2,7.6,4.1c0.9,0.3,1.8,0.5,2.7,0.8c0-0.8,0-1.5,0-2.3
			c-0.1-1.3,0.4-2.2,1.3-3.1c1.2-1.2,2.6-2,4.2-2.6c0.8-0.3,1-1.1,0.4-1.7c-1.5-1.7-2.3-3.7-2.4-6c-0.1-1.4,0.2-2.8,1.1-4
			c1-1.4,2.4-2.1,4.2-2.1c2-0.1,3.7,0.5,4.9,2.2c1.2,1.7,1.3,3.6,0.9,5.5c-0.3,1.6-1.1,3.1-2.1,4.4c-0.6,0.7-0.4,1.6,0.5,1.9
			c1.2,0.4,2.3,1,3.3,1.7c1.4,1,2.3,2.3,2.1,4.1C44.6,56,44.6,56.7,44.6,57.4"/>
		<path class="st16" d="M44.6,57.4c0-0.7,0-1.3,0-1.9c0.2-1.8-0.7-3.1-2.1-4.1c-1-0.8-2.1-1.3-3.3-1.7c-0.9-0.3-1.1-1.2-0.5-1.9
			c1.1-1.3,1.8-2.7,2.1-4.4c0.4-1.9,0.3-3.8-0.9-5.5c-1.2-1.7-2.9-2.3-4.9-2.2c-1.7,0.1-3.1,0.8-4.2,2.1c-0.9,1.2-1.1,2.5-1.1,4
			c0.1,2.3,0.9,4.3,2.4,6c0.5,0.6,0.4,1.4-0.4,1.7c-1.5,0.6-3,1.4-4.2,2.6c-0.8,0.9-1.4,1.9-1.3,3.1c0,0.7,0,1.5,0,2.3
			c-0.9-0.3-1.8-0.5-2.7-0.8c-2.8-0.9-5.4-2.2-7.6-4.1c-1.5-1.4-2.6-2.9-3-5c-0.1-0.5-0.1-1-0.1-1.6c0-2.7,0-5.4,0-8.1
			c0-1.5,0.6-2.6,1.7-3.5c1-0.8,2.1-1.4,3.2-1.8c1.1-0.4,1.4-1.6,0.6-2.5c-1.6-2-2.5-4.2-2.2-6.8c0.2-2.6,2.3-4.5,4.9-4.6
			c2.8-0.1,4.9,1.6,5.2,4.3c0.4,2.6-0.4,4.9-2.1,7c-0.8,1-0.6,2.1,0.6,2.6c0.6,0.3,1.2,0.5,1.8,0.8c0-0.2,0-0.4,0-0.6
			c-0.2-1.6,0.6-2.7,1.8-3.7c1-0.8,2.1-1.4,3.2-1.8c1.2-0.5,1.5-1.6,0.6-2.6c-1.7-2.2-2.6-4.6-2-7.4c0.5-2.5,2.7-4,5.3-3.9
			c2.5,0.1,4.4,2,4.7,4.4c0.3,2.6-0.5,4.9-2.1,6.9c-0.4,0.5-0.5,1.1-0.4,1.7c0.1,0.4,0.4,0.7,0.8,0.8c1.2,0.4,2.3,1,3.4,1.7
			c1.3,1,2.2,2.2,2,4c0,0.1,0,0.2,0,0.3c0.1,0,0.1,0,0.2,0c0.6-0.3,1.2-0.5,1.8-0.8c0.9-0.4,1.2-1.6,0.5-2.3c-1.3-1.5-2.1-3.1-2.3-5
			c-0.2-2.2,0.1-4.2,2.1-5.6c1.7-1.1,3.5-1.2,5.3-0.3c1.8,0.8,2.6,2.4,2.7,4.2c0.2,2.5-0.6,4.7-2.2,6.6c-0.5,0.5-0.5,1.2-0.3,1.8
			c0.1,0.4,0.5,0.6,0.8,0.7c1.2,0.4,2.3,1,3.3,1.8c1.1,0.9,1.8,2,1.8,3.6c-0.1,2.7,0,5.4,0,8.2c0,2.3-0.8,4.1-2.4,5.7
			c-1.9,2.1-4.4,3.4-7,4.4c-1.2,0.4-2.4,0.8-3.6,1.1C44.9,57.3,44.8,57.3,44.6,57.4"/>
	</g>
</g>
<g id="Layer_2_copy" class="st0">
	<g class="st1">
		<path class="st17" d="M63.3,31.5c-0.3,0.1-0.5,0.3-0.8,0.4c-3,1.2-6,2.5-9.1,3.7l-0.1,0.1v0c0-0.6,0-1.2,0-1.8c0-0.2,0-0.3,0-0.5
			c0-0.5,0.1-1.1-0.2-1.5c-0.3-0.5-0.8-0.6-1.3-0.7c-0.1,0-0.3-0.1-0.4-0.1c-5.2-1.7-10.6-2.6-15.9-2.6c-1.2,0-2.5,0-3.7,0.1
			c-1.3,0.1-2.7,0.3-4,0.4c-0.4,0.1-0.9,0.1-1.3,0.2v-1.6c0-1.3,0-2.6,0-4v-0.1c0,0,0,0,0.1,0c2-0.8,3.9-1.6,5.9-2.4l1.7-0.7
			c0.6-0.3,1.3-0.3,1.9,0L63.3,31.5z"/>
		<path class="st17" d="M16.8,27.8v7.4c-3-1.2-6-2.5-9-3.7c0,0,0,0,0,0L16.8,27.8z"/>
		<path class="st17" d="M51,33.7c0,3.4,0,6.8,0,10.2v2.9c-8.3,1.7-16.3,2-24.4,0.9v-4.3c0-3.7,0-7.4,0-11c0-0.2,0-0.2,0-0.2
			c0,0,0.1,0,0.2-0.1c8.3-1.8,16.4-1.3,24.1,1.4c0.1,0,0.2,0,0.2,0C50.9,33.5,51,33.6,51,33.7z"/>
		<path class="st17" d="M24.1,23.3v29.8l-2.5-3.2l-2.4,3.8c0-9.2,0-18.5,0-27.8c0-0.1,0-0.2,0-0.2c1.4-0.8,2.8-1.5,4.3-2.2
			L24.1,23.3z"/>
	</g>
</g>
<g id="Layer_3_copy" class="st0">
	<g class="st1">
		<defs>
			<rect id="SVGID_15_" x="0.5" y="0.5" width="70" height="70"/>
		</defs>
		<clipPath id="SVGID_16_">
			<use xlink:href="#SVGID_15_"  style="overflow:visible;"/>
		</clipPath>
		<path class="st18" d="M36.6,35.8c0.2,0.3,0.4,0.7,0.7,0.9c3.4,2.7,6.8,5.4,10.3,8.1c0.3,0.2,0.5,0.4,0.7,0.7
			c0.5,0.7,0.6,1.5,0.1,2.2c-0.5,0.7-1.3,1-2.1,0.7c-0.4-0.1-0.7-0.3-1-0.6c-3.4-2.7-6.9-5.4-10.3-8.1c-0.4-0.3-0.8-0.4-1.3-0.2
			c-0.1,0.5,0.2,0.8,0.5,1c2.7,2.1,5.3,4.2,8,6.4c0.2,0.2,0.5,0.4,0.7,0.6c0.8,0.8,1,1.6,0.4,2.5c-0.5,0.8-1.3,1.2-2.2,0.7
			c-1.9-1-3.5-2.4-5-3.9c-0.2-0.2-0.3-0.5-0.3-0.8c-0.3-1.1-1.2-2-2.3-1.9c-1,0.1-1.6-0.3-2.2-1.1c-0.9-1.3-2.2-2-4.4-0.5
			c-0.6-0.7-1.2-1.6-2.2-1.8c-1.1-0.2-1.8,0.4-2.6,0.9c-2.1-2.4-3.4-2.4-5.4,0.1c-0.5-0.3-1.1-0.6-1.6-0.9c-1.5-0.9-3-1.7-4.5-2.6
			c-0.6-0.3-0.7-0.5-0.3-1.2c2.1-3.8,4.2-7.5,6.3-11.3c0.2-0.4,0.5-0.5,1-0.4c0.7,0.3,1.5,0.5,2.2,0.8c0.8,0.4,1.6,0.4,2.4,0.1
			c2.1-0.7,4.2-1.4,6.3-2c0.7-0.2,1.3-0.3,2,0.1c-0.4,0.3-0.7,0.6-1.1,0.8c-1.7,1.2-3.3,2.4-5,3.6c-0.9,0.7-1.5,1.5-1.2,2.7
			c0.3,1.4,1.7,2.6,3.2,2.6c0.8,0,1.7-0.1,2.5-0.4c2.4-0.9,4.8-2,7.2-3c0.8-0.3,1.4-0.3,2,0.3c4.9,3.9,9.9,7.8,14.8,11.7
			c1,0.8,1.2,1.6,0.8,2.5c-0.5,1.2-2,1.4-3.2,0.5c-2.3-1.8-4.5-3.5-6.8-5.3c-1.9-1.5-3.7-3-5.7-4.5c-0.3-0.2-0.8-0.2-1.2-0.4
			C36.7,35.6,36.7,35.7,36.6,35.8"/>
		<path class="st18" d="M40,21.9c0.4,0.1,0.8,0.2,1.2,0.4c2.6,1.2,5.1,2.4,7.7,3.7c0.9,0.5,1.8,0.6,2.7,0.1c0.5-0.3,1.1-0.4,1.7-0.7
			c0.8-0.3,1-0.3,1.4,0.5c1.4,2.4,2.7,4.9,4.1,7.3c0.7,1.2,1.3,2.4,2,3.6c0.4,0.6,0.3,0.9-0.3,1.3c-1.7,1.2-3.4,2.4-5,3.7
			c-1,0.7-1.1,0.7-2,0c-4.4-3.5-8.8-7-13.2-10.5c-0.7-0.5-1.4-1.1-2-1.7c-0.6-0.5-1.1-0.6-1.9-0.3c-2.5,1.1-5,2.1-7.4,3.2
			c-0.4,0.2-0.9,0.3-1.4,0.5c-1.1,0.3-2.1,0-2.9-0.7c-0.7-0.6-0.8-1.5-0.2-2.2c0.2-0.3,0.5-0.5,0.8-0.7c2.1-1.5,4.1-3,6.2-4.5
			c0.4-0.3,0.8-0.5,1.3-0.7c2.1-0.7,4.3-1.4,6.4-2.1C39.3,22,39.6,21.9,40,21.9"/>
		<path class="st18" d="M29.8,50.8c0.2-0.5,0.3-1.1,0.5-1.6c0.3-1,0.7-2,1.1-3.1c0.4-1.1,1.4-1.6,2.5-1.2c1,0.3,1.5,1.3,1.1,2.5
			c-0.4,1.4-0.9,2.8-1.4,4.1c-0.3,0.7-0.8,1.2-1.6,1.2c-0.8,0-1.5-0.3-1.8-1C30,51.4,29.9,51.1,29.8,50.8"/>
		<path class="st18" d="M30.9,44.2c-0.1,0.3-0.1,0.5-0.2,0.8c-0.4,1.3-0.9,2.6-1.4,4c-0.4,1.1-1.4,1.6-2.5,1.2
			c-1-0.4-1.5-1.4-1.1-2.5c0.5-1.4,0.9-2.7,1.4-4.1c0.5-1.3,2.2-1.7,3.1-0.6C30.6,43.3,30.7,43.7,30.9,44.2
			C30.9,44.2,30.9,44.2,30.9,44.2"/>
		<path class="st18" d="M26.2,43.3c-0.5,1.2-0.9,2.5-1.4,3.6c-0.4,0.7-1.4,0.9-2.2,0.6c-0.8-0.3-1.4-1-1.2-1.9
			c0.3-1.2,0.7-2.4,1.2-3.5c0.3-0.7,1.3-1,2.2-0.7c0.8,0.2,1.3,0.9,1.3,1.7C26.1,43.3,26.1,43.3,26.2,43.3"/>
		<path class="st18" d="M17,43.4c0.1-0.8,0.4-1.5,0.9-2.2c0.5-0.7,1.4-0.8,2.2-0.4c0.8,0.4,1.3,1.2,1.1,2.1
			c-0.1,0.5-0.3,0.9-0.5,1.3c-0.3,0.8-1,1-1.8,1c-0.7,0-1.3-0.3-1.6-0.9C17.1,44.1,17.1,43.7,17,43.4"/>
		<path class="st18" d="M35.7,48c0.7,0.6,1.4,1.1,2,1.7c0.7,0.7,0.7,1.6,0.2,2.3c-0.6,0.8-1.6,1.1-2.4,0.7c-1-0.5-1.1-0.8-0.8-1.8
			C35,50,35.3,49,35.7,48"/>
	</g>
</g>
<g id="Layer_4_copy" class="st0">
	<g class="st1">
		<defs>
			<rect id="SVGID_17_" x="0.5" y="0.5" width="70" height="70"/>
		</defs>
		<clipPath id="SVGID_18_">
			<use xlink:href="#SVGID_17_"  style="overflow:visible;"/>
		</clipPath>
		<path class="st19" d="M35.5,51.1c-3.4,0-6.8,0-10.2,0c-0.3,0-0.6-0.1-0.9,0c-0.3,0.1-0.5,0.3-0.6,0.6c-0.4,1.1,0.1,1.7,1.2,1.8
			c0.2,0,0.4,0,0.6,0c6.6,0,13.3,0,19.9,0c0.3,0,0.6,0,0.9,0c0.7-0.1,0.9-0.4,0.9-1.3c0-0.8-0.2-1-1-1c-0.3,0-0.5,0-0.8,0
			C42.1,51.1,38.8,51.1,35.5,51.1 M35.5,49.4c3.5,0,7,0,10.5,0c1.1,0,1.3-0.2,1.3-1.2c0-0.8-0.2-1-1-1.1c-0.3,0-0.6,0-0.9,0
			c-6.6,0-13.2,0-19.8,0c-0.3,0-0.6,0-0.9,0c-0.8,0.1-1,0.4-0.9,1.3c0,0.8,0.2,1,1,1.1c0.3,0,0.5,0,0.8,0
			C28.8,49.4,32.1,49.4,35.5,49.4 M38.2,36.1c0.8,0,1.6,0,2.3,0c1.9,0.1,3.4,1.6,3.5,3.5c0,0.8,0,1.6,0,2.4c0,1.1,0.1,1.2,1.2,1.2
			c0.1,0,0.2,0,0.3,0c1.6,0,1.8-0.2,1.8-1.7c0-5.1,0-10.2,0-15.3c0-0.3,0-0.5,0-0.8c0-0.5-0.3-0.8-0.9-0.9c-0.3,0-0.6,0-0.9,0
			c-6.7,0-13.4,0-20.1,0c-0.3,0-0.5,0-0.8,0c-0.6,0.1-0.9,0.3-0.9,0.9c0,0.3,0,0.6,0,0.9c0,4.9,0,9.7,0,14.6c0,2.1-0.1,2.3,2.4,2.3
			c0.7,0,0.9-0.2,0.9-0.9c0-0.9,0-1.8,0-2.6c0.1-1.9,1.4-3.3,3.3-3.5c0.8-0.1,1.7,0,2.5,0c0.8,1.6,1.4,3.1,2.7,4.4
			C36.7,39.1,37.4,37.6,38.2,36.1 M30.9,17.1c0,0.9,0,1.6,0,2.3c0,1.9,1.4,3.3,3.3,3.4c0.9,0,1.8,0,2.6,0c1.9,0,3.3-1.4,3.3-3.4
			c0-0.7,0-1.4,0-2.2c0.3-0.1,0.5-0.1,0.8-0.1c2.8,0,5.7,0,8.5,0c1.1,0,1.1,0.1,1.1,1.2c0,12.5,0,25,0,37.5c0,1.1-0.1,1.2-1.2,1.2
			c-9.3,0-18.5,0-27.8,0c-1.1,0-1.2-0.1-1.2-1.2c0-12.5,0-25,0-37.5c0-1.1,0-1.2,1.1-1.2c2.8,0,5.7,0,8.5,0
			C30.3,17,30.5,17,30.9,17.1"/>
		<path class="st19" d="M32.8,16.7c0-0.8,0-1.7,0-2.5c0-0.9,0.4-1.3,1.3-1.3c0.9,0,1.8,0,2.7,0c0.9,0,1.3,0.4,1.3,1.3
			c0,1.8,0,3.5,0,5.3c0,0.9-0.5,1.3-1.3,1.4c-0.9,0-1.8,0-2.6,0c-0.9,0-1.4-0.5-1.4-1.4C32.8,18.4,32.8,17.6,32.8,16.7"/>
		<path class="st19" d="M35.5,35c-2.6,0-4.5-1.9-4.5-4.5c0-2.5,2-4.5,4.5-4.6c2.6,0,4.6,2,4.6,4.6C40,33.1,38,35,35.5,35"/>
	</g>
</g>
<g id="Layer_5_copy" class="st0">
	<g class="st1">
		<defs>
			<rect id="SVGID_19_" x="0.5" y="0.5" width="70" height="70"/>
		</defs>
		<clipPath id="SVGID_20_">
			<use xlink:href="#SVGID_19_"  style="overflow:visible;"/>
		</clipPath>
		<path class="st20" d="M29.8,34.7c-3.6,0-6.6,2.9-6.6,6.5c0,3.7,2.9,6.6,6.6,6.6c3.6,0,6.6-2.9,6.6-6.6
			C36.3,37.7,33.4,34.8,29.8,34.7 M34,57.4c-0.6-1.6-1.7-2.5-3.3-2.9c-2.3-0.5-4.4,0.5-5.4,2.6c0,0.1-0.1,0.1-0.2,0.3
			c-1.3-0.6-2.6-1.1-3.9-1.7c0.7-2,0.5-3.8-0.9-5.3c-1.4-1.5-3.2-1.8-5.2-1.2c-0.2-0.3-0.3-0.6-0.5-0.9c-0.4-0.9-0.7-1.8-1.1-2.7
			c1.8-0.9,2.8-2.4,2.9-4.4c0-2-1-3.4-2.7-4.4c0.4-1.3,0.9-2.6,1.6-3.8c0.1-0.1,0.3-0.1,0.4-0.1c2.1,0.4,3.7-0.2,5-1.8
			c0.9-1.2,1.1-2.5,0.8-3.9c-0.1-0.3,0-0.4,0.2-0.5c1.2-0.5,2.5-1,3.7-1.5c0.2-0.1,0.4,0,0.5,0.2c2,3,6,3,8.1,0.1
			c0.1-0.2,0.2-0.2,0.4-0.2c1.2,0.5,2.3,1,3.5,1.5c0.3,0.1,0.2,0.3,0.2,0.5c-0.4,2,0.5,4.1,2.3,5.2c1.1,0.6,2.2,0.8,3.4,0.5
			c0.3-0.1,0.4,0,0.6,0.2c0.6,1.1,1.1,2.2,1.4,3.4c-1,0.6-1.8,1.4-2.2,2.4c-0.9,2.2,0,4.8,2.1,6c0.2,0.1,0.3,0.3,0.2,0.5
			c-0.4,1.1-0.9,2.3-1.3,3.4c-0.1,0.2-0.2,0.3-0.4,0.2c-1.8-0.5-3.5-0.1-4.8,1.3c-1.3,1.4-1.7,3.1-1,4.9c0,0.1,0,0.1,0.1,0.3
			c-1.1,0.5-2.1,0.9-3.2,1.4c-0.3,0.1-0.6,0.2-1,0.3H34z"/>
		<path class="st20" d="M48.3,26.5c2,0,3.7-1.6,3.7-3.7c0-2-1.7-3.7-3.7-3.6c-2,0-3.6,1.7-3.6,3.7C44.6,24.8,46.3,26.5,48.3,26.5
			 M57.4,24c-1,0-1.7,0.4-2.2,1.2c-0.6,0.9-0.5,1.8-0.1,2.7c0.1,0.2,0.3,0.4,0.5,0.7c-0.6,0.6-1.2,1.2-1.7,1.7
			c-2.4-1.6-4.3-0.8-4.8,1.7h-2.3c-0.1-2.6-2.8-3.6-4.5-2.1c-0.5-0.5-1-1-1.5-1.6c0.6-0.7,0.9-1.5,0.7-2.3c-0.2-1.1-1-1.9-2-2.1
			c-0.3-0.1-0.5-0.2-0.4-0.5c0-0.4,0-0.8,0-1.2c0-0.3,0.1-0.5,0.1-0.8c0.7-0.1,1.3-0.3,1.7-0.8c0.8-0.9,1-2.2,0.4-3.2
			c-0.2-0.2-0.2-0.4,0-0.6c0.5-0.5,1-1,1.6-1.5c0.7,0.5,1.4,0.8,2.2,0.6c1.1-0.2,1.9-0.9,2.2-2c0-0.1,0.1-0.2,0.1-0.3h1.9
			c0.1,0,0.3,0.1,0.4,0.1c0.6,2.2,2.2,2.9,4.2,1.9c0.1,0,0.2,0,0.3,0c0.5,0.5,1,0.9,1.5,1.4c-1.2,1.6-0.7,3.2,0.5,3.9
			c0.4,0.3,0.9,0.4,1.4,0.5V24z"/>
	</g>
</g>
<g id="Layer_6_copy">
	<g>
		<defs>
			<rect id="SVGID_21_" x="0.5" y="0.5" width="70" height="70"/>
		</defs>
		<clipPath id="SVGID_22_">
			<use xlink:href="#SVGID_21_"  style="overflow:visible;"/>
		</clipPath>
		<path class="st21" d="M36.2,39.7c1-0.3,1.8-0.5,2.6-0.9c0.6-0.3,1.2-0.8,1.7-1.4c0.7-0.8,0.7-1.6,0.2-2.4
			c-0.6-0.8-1.6-1.2-2.5-0.8c-0.7,0.3-1.3,0.9-1.8,1.4c-0.3,0.3-0.5,0.7-0.8,1.1c-0.3-0.4-0.5-0.8-0.8-1.1c-0.6-0.5-1.1-1.1-1.8-1.4
			C32,33.9,31,34.2,30.4,35c-0.6,0.8-0.5,1.6,0.2,2.5c0.7,0.9,1.6,1.4,2.7,1.7c0.5,0.1,1,0.3,1.6,0.4v9.3c-1.2,0-2.3,0-3.4,0
			c-0.7,0-1.1-0.5-1.3-1.1c-0.2-0.5-0.3-1-0.4-1.5c-0.2-1.4-0.8-2.5-1.5-3.7c-1-1.6-2-3.1-2.8-4.8c-3.2-6.4,0-14,6.8-16.1
			c7.3-2.2,14.6,3.1,14.7,10.7c0,2.2-0.5,4.2-1.6,6.1c-0.7,1.2-1.4,2.4-2.1,3.5c-1,1.4-1.7,3-2,4.7c-0.4,1.9-0.7,2.2-2.7,2.2
			c-0.7,0-1.4,0-2.3,0V39.7z"/>
		<path class="st21" d="M36.7,15.2c0,0.7,0,1.5,0,2.2c0,0.9-0.5,1.4-1.2,1.4c-0.6,0-1.1-0.6-1.1-1.5c0-1.5,0-3,0.1-4.5
			c0-0.9,0.4-1.2,1-1.2c0.7,0,1.1,0.3,1.2,1.2C36.7,13.7,36.7,14.5,36.7,15.2L36.7,15.2z"/>
		<path class="st21" d="M20.7,48.9c-1,0-1.5-0.9-1.1-1.7c0.1-0.3,0.4-0.5,0.7-0.8c0.9-0.9,1.9-1.9,2.8-2.8c0.6-0.6,1.2-0.6,1.7-0.1
			c0.5,0.4,0.4,1.1-0.1,1.7c-1.1,1.1-2.2,2.2-3.3,3.3C21.1,48.7,20.8,48.8,20.7,48.9"/>
		<path class="st21" d="M51.7,47.8c-0.2,0.3-0.4,0.8-0.7,0.9c-0.3,0.1-0.8,0.1-1-0.1c-1.3-1.2-2.5-2.4-3.8-3.7
			c-0.4-0.5-0.3-1.1,0.1-1.5c0.5-0.4,1-0.4,1.5,0c1.2,1.1,2.3,2.3,3.5,3.5C51.4,47.1,51.5,47.4,51.7,47.8"/>
		<path class="st21" d="M25.1,21.1c0,1-0.8,1.5-1.6,1.1c-0.2-0.1-0.4-0.3-0.6-0.5c-1-1-2-2-3-3c-0.5-0.6-0.6-1.3-0.2-1.7
			c0.4-0.4,1.2-0.4,1.7,0.1c1.1,1.1,2.2,2.2,3.3,3.3C24.9,20.6,25,21,25.1,21.1"/>
		<path class="st21" d="M47.2,22.3c-1.1,0-1.5-0.8-1.1-1.6c0.1-0.2,0.3-0.4,0.5-0.6c1-1,1.9-2,2.9-2.9c0.7-0.6,1.4-0.7,1.8-0.3
			c0.5,0.4,0.4,1.2-0.2,1.8c-1,1.1-2,2.1-3.1,3.1C47.7,22.1,47.3,22.2,47.2,22.3"/>
		<path class="st21" d="M17.9,33.9c-0.7,0-1.4,0-2.1,0c-0.9,0-1.5-0.4-1.5-1.1c0-0.7,0.5-1.1,1.4-1.1c1.5,0,2.9,0,4.4,0
			c1,0,1.3,0.3,1.3,1c0,0.8-0.4,1.1-1.4,1.2C19.4,33.9,18.7,33.9,17.9,33.9"/>
		<path class="st21" d="M53,33.9c-0.8,0-1.6,0-2.3,0c-0.8,0-1.2-0.5-1.2-1.2c0-0.7,0.4-1,1.2-1c1.6,0,3.1,0,4.7,0
			c0.8,0,1.2,0.4,1.3,1c0,0.6-0.5,1.1-1.3,1.2C54.6,33.9,53.8,33.9,53,33.9"/>
		<path class="st21" d="M35.5,50.3c1,0,2.1,0,3.1,0c0.3,0,0.6,0,0.9,0.1c0.2,0.1,0.5,0.3,0.5,0.5c0,0.2-0.1,0.6-0.3,0.7
			c-0.3,0.2-0.6,0.2-1,0.2c-2.1,0-4.2,0-6.3,0c0,0-0.1,0-0.1,0c-0.6,0-1.2,0-1.2-0.8c0-0.7,0.7-0.7,1.2-0.7
			C33.3,50.3,34.4,50.3,35.5,50.3"/>
		<path class="st21" d="M35.5,54.2c-1.2,0-2.3,0-3.5,0c-0.5,0-1,0-1-0.7c0-0.6,0.5-0.8,1-0.8c2.4,0,4.7,0,7.1,0c0.5,0,1,0.2,1,0.8
			c0,0.6-0.5,0.6-0.9,0.6C37.9,54.2,36.7,54.2,35.5,54.2L35.5,54.2z"/>
		<path class="st21" d="M35.5,56.7c-1.2,0-2.3,0-3.5,0c-0.5,0-1-0.1-1-0.7c0-0.6,0.5-0.7,1-0.7c2.3,0,4.7,0,7,0c0,0,0.1,0,0.1,0
			c0.5,0,0.9,0.2,0.9,0.7c0,0.5-0.4,0.7-0.9,0.7C37.9,56.7,36.7,56.7,35.5,56.7"/>
		<path class="st21" d="M33.1,57.9h4.7C36.7,59.8,34.5,59.8,33.1,57.9"/>
		<path class="st21" d="M34.4,38c-1.2,0.1-1.9-0.4-2.6-1c-0.4-0.3-0.7-0.8-0.2-1.2c0.3-0.2,0.9-0.2,1.3-0.1
			C33.7,36.2,34.1,37,34.4,38"/>
		<path class="st21" d="M36.6,38c0.3-1,0.7-1.7,1.5-2.2c0.5-0.3,1-0.4,1.4,0c0.4,0.5,0,1-0.4,1.3C38.4,37.6,37.7,38.1,36.6,38"/>
	</g>
</g>
</svg>
