<?xml version="1.0" encoding="utf-8"?>
<!-- Generator: Adobe Illustrator 20.1.0, SVG Export Plug-In . SVG Version: 6.00 Build 0)  -->
<svg version="1.1" xmlns="http://www.w3.org/2000/svg" xmlns:xlink="http://www.w3.org/1999/xlink" x="0px" y="0px"
	 viewBox="0 0 36 36" style="enable-background:new 0 0 36 36;" xml:space="preserve">
<style type="text/css">
	.st0{clip-path:url(#SVGID_2_);fill:#FFFFFF;}
	.st1{display:none;}
	.st2{display:inline;}
	.st3{clip-path:url(#SVGID_4_);fill:#42145F;}
	.st4{clip-path:url(#SVGID_6_);fill:none;stroke:#EFEEEC;stroke-width:1.982;}
	.st5{clip-path:url(#SVGID_6_);fill:none;stroke:#EFEEEC;stroke-width:1.397;}
</style>
<g id="Layer_1">
	<g>
		<defs>
			<rect id="SVGID_1_" x="0.2" y="4.4" width="35.5" height="27.2"/>
		</defs>
		<clipPath id="SVGID_2_">
			<use xlink:href="#SVGID_1_"  style="overflow:visible;"/>
		</clipPath>
		<path class="st0" d="M17.2,24.9h10.5v-1.5H17.2V24.9z M17.2,28.1h10.5v-1.7H17.2V28.1z M17.2,21.9h10.5V20H17.2V21.9z M24.8,13.4
			H4.3V17h20.5V13.4z M4.3,28h9.8v-8H4.3V28z M4.3,11.7h23.6V8.3H4.3V11.7z M32.9,4.4v3.2h2.9c-0.3,1.9-0.5,3.8-0.8,5.6
			c-0.6,4.3-1.2,8.6-1.8,12.9c-0.2,1.7-0.4,3.4-0.7,5.1c0,0.2-0.4,0.4-0.6,0.5c-0.1,0.1-0.2,0-0.3,0c-10.2,0-20.4,0-30.6,0H0.2V4.4
			H32.9z"/>
	</g>
</g>
<g id="Layer_2" class="st1">
	<g class="st2">
		<defs>
			<rect id="SVGID_3_" x="3.6" y="1.2" width="28.7" height="33.6"/>
		</defs>
		<clipPath id="SVGID_4_">
			<use xlink:href="#SVGID_3_"  style="overflow:visible;"/>
		</clipPath>
		<path class="st3" d="M20.5,9.7c0,0,0.1,0.1,0.1,0.1c0.8-0.6,1.7-1.2,2.5-1.8c0.4-0.3,0.7-0.7,1-1.1C24.4,6.6,24.3,6.3,24,6
			c-0.8-0.8-1.4-0.7-2.1,0.2C21.2,7.3,20.8,8.5,20.5,9.7 M16.4,9.8c-0.5-2-1.1-3.8-2.1-5.3c-0.2-0.3-0.4-0.5-0.7-0.7
			c-0.3-0.3-0.7-0.3-1-0.1c-0.4,0.3-0.9,0.6-1.2,1.1c-0.2,0.2-0.2,0.6-0.1,0.9c0.1,0.3,0.3,0.7,0.5,0.9C13.1,8,14.7,8.8,16.4,9.8
			 M20.3,13.3v3.9H30v-3.9 M15.9,13.3H6v3.9h9.8V13.3z M20.3,32.4h8.3V18.6h-8.3V32.4z M7.5,32.4h8.4V18.6H7.5V32.4z M5.1,19.7
			c-1.2-0.2-1.5-0.5-1.5-1.7c0-1.9,0-3.8,0-5.7c0-1,0.4-1.4,1.4-1.4c2.8,0,5.6,0,8.4-0.1c-0.1-0.1-0.3-0.2-0.4-0.3
			c-1.3-0.8-2.5-1.7-3.4-3C8.8,6.3,8.6,4.9,9.3,3.6c0.8-1.4,2-2.4,3.8-2.4c1.2,0,2.1,0.7,2.8,1.6c1.2,1.5,1.8,3.2,2.4,5
			c0,0.1,0.1,0.2,0.1,0.4c0.2-0.6,0.4-1.1,0.6-1.6c0.4-1,1-2,1.8-2.7c1.1-0.9,2.4-1,3.7-0.3c1.5,0.8,2.3,2,2,3.4
			c-0.1,0.6-0.5,1.3-0.9,1.8c-0.6,0.7-1.3,1.2-2,1.8c-0.1,0.1-0.2,0.2-0.5,0.4h0.6c2.4,0,4.7,0,7.1,0c1,0,1.4,0.4,1.5,1.4
			c0,2,0,4,0,6c0,0.9-0.3,1.2-1.5,1.4v0.6c0,4.3,0,8.7,0,13c0,1-0.4,1.5-1.5,1.5c-7.7,0-15.3,0-23,0c-0.9,0-1.3-0.5-1.3-1.4
			c0-3.6,0-7.2,0-10.8C5.1,21.6,5.1,20.7,5.1,19.7"/>
	</g>
</g>
<g id="Layer_3" class="st1">
	<g class="st2">
		<defs>
			<rect id="SVGID_5_" x="1.4" y="7.1" width="33.2" height="21.8"/>
		</defs>
		<clipPath id="SVGID_6_">
			<use xlink:href="#SVGID_5_"  style="overflow:visible;"/>
		</clipPath>
		<path class="st4" d="M3.4,8.1c-0.5,0-1,0.2-1,1v17.8c0,0.4,0.2,1,1,1h29.2c0.4,0,1-0.2,1-1V9.1c0-0.4-0.2-1-1-1H3.4z"/>
		<polygon class="st5" points="3.3,8.9 17.8,23 32.1,8.9 		"/>
		<line class="st5" x1="11.2" y1="16.4" x2="2.5" y2="28"/>
		<line class="st5" x1="25.2" y1="16.4" x2="33.9" y2="28"/>
	</g>
</g>
</svg>
