<?xml version="1.0" encoding="utf-8"?>
<!-- Generator: Adobe Illustrator 20.1.0, SVG Export Plug-In . SVG Version: 6.00 Build 0)  -->
<svg version="1.1" id="Layer_1" xmlns="http://www.w3.org/2000/svg" xmlns:xlink="http://www.w3.org/1999/xlink" x="0px" y="0px"
	 viewBox="0 0 35 35" style="enable-background:new 0 0 35 35;" xml:space="preserve">
<style type="text/css">
	.st0{clip-path:url(#SVGID_2_);fill:#4F2683;}
</style>
<g>
	<defs>
		<rect id="SVGID_1_" x="0.2" y="0.6" width="34.6" height="33.8"/>
	</defs>
	<clipPath id="SVGID_2_">
		<use xlink:href="#SVGID_1_"  style="overflow:visible;"/>
	</clipPath>
	<path class="st0" d="M24.5,34.4c0.2,0,0.2,0,0.3-0.1c0.9-0.3,1.8-0.5,2.7-0.9c2-0.8,3.9-1.8,5.4-3.4c1.2-1.2,1.8-2.7,1.8-4.4
		c0-2.1,0-4.2,0-6.3c0-1.2-0.5-2-1.4-2.7c-0.8-0.6-1.6-1.1-2.5-1.4c-0.3-0.1-0.5-0.2-0.6-0.5c-0.2-0.5-0.1-1,0.2-1.4
		c1.2-1.5,1.9-3.1,1.7-5.1c-0.1-1.5-0.7-2.6-2.1-3.3c-1.4-0.7-2.8-0.6-4.1,0.3c-1.5,1-1.8,2.6-1.6,4.3c0.2,1.5,0.8,2.8,1.7,3.9
		c0.5,0.6,0.3,1.5-0.4,1.8c-0.5,0.2-0.9,0.4-1.4,0.6c0,0-0.1,0-0.1,0c0-0.1,0-0.2,0-0.3c0.2-1.4-0.5-2.3-1.6-3.1
		c-0.8-0.6-1.7-1-2.6-1.3c-0.3-0.1-0.5-0.3-0.6-0.6c-0.1-0.5,0-0.9,0.3-1.3C21,7.7,21.6,6,21.4,4c-0.2-1.9-1.7-3.3-3.6-3.4
		c-2.1-0.1-3.7,1.1-4.1,3c-0.4,2.1,0.2,4,1.5,5.7c0.6,0.8,0.5,1.6-0.5,2c-0.9,0.4-1.7,0.8-2.5,1.4c-0.9,0.7-1.5,1.6-1.4,2.8
		c0,0.1,0,0.3,0,0.5c-0.5-0.2-1-0.4-1.4-0.6c-0.9-0.4-1.1-1.2-0.5-2c1.3-1.6,1.9-3.3,1.6-5.3c-0.3-2.1-1.9-3.4-4-3.3
		C4.5,4.7,3,6.1,2.8,8.2c-0.2,2,0.4,3.7,1.7,5.2c0.6,0.7,0.4,1.6-0.5,2c-0.9,0.3-1.8,0.8-2.5,1.4c-0.8,0.7-1.3,1.5-1.3,2.7
		c0.1,2.1,0,4.2,0,6.2c0,0.4,0,0.8,0.1,1.2c0.3,1.6,1.1,2.8,2.3,3.8c1.7,1.5,3.7,2.5,5.8,3.2c0.7,0.2,1.4,0.4,2.1,0.6
		c0-0.6,0-1.2,0-1.7c0-1,0.3-1.7,1-2.4c0.9-0.9,2-1.5,3.2-2c0.6-0.2,0.7-0.8,0.3-1.3c-1.1-1.3-1.8-2.9-1.8-4.6c0-1.1,0.2-2.1,0.8-3
		c0.8-1.1,1.9-1.6,3.2-1.6c1.5-0.1,2.8,0.4,3.8,1.7c0.9,1.3,1,2.7,0.7,4.2c-0.3,1.3-0.8,2.4-1.6,3.3c-0.5,0.6-0.3,1.2,0.4,1.5
		c0.9,0.3,1.8,0.8,2.5,1.3c1.1,0.8,1.8,1.7,1.6,3.2C24.5,33.4,24.5,33.8,24.5,34.4"/>
	<path class="st0" d="M24.5,34.4c0-0.5,0-1,0-1.5c0.1-1.4-0.6-2.4-1.6-3.2c-0.8-0.6-1.6-1-2.5-1.3c-0.7-0.3-0.9-0.9-0.4-1.5
		c0.8-1,1.4-2.1,1.6-3.3c0.3-1.5,0.2-2.9-0.7-4.2c-0.9-1.3-2.2-1.8-3.8-1.7c-1.3,0.1-2.4,0.6-3.2,1.6c-0.7,0.9-0.9,1.9-0.8,3
		c0.1,1.7,0.7,3.3,1.8,4.6c0.4,0.5,0.3,1.1-0.3,1.3c-1.2,0.5-2.3,1.1-3.2,2c-0.7,0.7-1,1.4-1,2.4c0,0.6,0,1.1,0,1.7
		c-0.7-0.2-1.4-0.4-2.1-0.6c-2.1-0.7-4.2-1.7-5.8-3.2c-1.2-1-2-2.3-2.3-3.8c-0.1-0.4-0.1-0.8-0.1-1.2c0-2.1,0-4.2,0-6.2
		c0-1.1,0.5-2,1.3-2.7c0.7-0.6,1.6-1.1,2.5-1.4c0.9-0.3,1.1-1.2,0.5-2c-1.3-1.5-1.9-3.2-1.7-5.2c0.2-2,1.7-3.5,3.8-3.5
		c2.1-0.1,3.7,1.3,4,3.3c0.3,2-0.3,3.8-1.6,5.3c-0.6,0.8-0.5,1.6,0.5,2c0.5,0.2,0.9,0.4,1.4,0.6c0-0.2,0-0.3,0-0.5
		c-0.1-1.2,0.5-2.1,1.4-2.8c0.8-0.6,1.6-1,2.5-1.4c1-0.4,1.1-1.2,0.5-2c-1.3-1.7-2-3.5-1.5-5.7c0.4-1.9,2-3.1,4.1-3
		c1.9,0.1,3.4,1.5,3.6,3.4c0.2,2-0.4,3.8-1.6,5.3c-0.3,0.4-0.4,0.8-0.3,1.3c0,0.3,0.3,0.5,0.6,0.6c0.9,0.3,1.8,0.7,2.6,1.3
		c1,0.8,1.7,1.7,1.6,3.1c0,0.1,0,0.2,0,0.3c0.1,0,0.1,0,0.1,0c0.5-0.2,0.9-0.4,1.4-0.6c0.7-0.3,0.9-1.2,0.4-1.8
		c-1-1.1-1.6-2.4-1.7-3.9c-0.2-1.7,0.1-3.2,1.6-4.3c1.3-0.9,2.7-0.9,4.1-0.3c1.4,0.6,2,1.8,2.1,3.3c0.1,1.9-0.5,3.6-1.7,5.1
		c-0.4,0.4-0.4,0.9-0.2,1.4c0.1,0.3,0.4,0.4,0.6,0.5c0.9,0.3,1.8,0.8,2.5,1.4c0.9,0.7,1.4,1.5,1.4,2.7c-0.1,2.1,0,4.2,0,6.3
		c0,1.7-0.6,3.2-1.8,4.4c-1.5,1.6-3.4,2.6-5.4,3.4c-0.9,0.3-1.8,0.6-2.7,0.9C24.8,34.3,24.7,34.3,24.5,34.4"/>
</g>
</svg>
