<?xml version="1.0" encoding="utf-8"?>
<!-- Generator: Adobe Illustrator 20.1.0, SVG Export Plug-In . SVG Version: 6.00 Build 0)  -->
<svg version="1.1" xmlns="http://www.w3.org/2000/svg" xmlns:xlink="http://www.w3.org/1999/xlink" x="0px" y="0px"
	 viewBox="0 0 50 50" style="enable-background:new 0 0 50 50;" xml:space="preserve">
<style type="text/css">
	.st0{display:none;}
	.st1{display:inline;fill:#C2B59B;}
	.st2{clip-path:url(#SVGID_2_);fill:#FFFFFF;}
	.st3{display:inline;}
	.st4{clip-path:url(#SVGID_4_);fill:#FFFFFF;}
	.st5{clip-path:url(#SVGID_6_);fill:#FFFFFF;}
	.st6{clip-path:url(#SVGID_8_);fill:#FFFFFF;}
	.st7{clip-path:url(#SVGID_10_);fill:#FFFFFF;}
	.st8{clip-path:url(#SVGID_12_);fill:#FFFFFF;}
	.st9{clip-path:url(#SVGID_14_);fill:#FFFFFF;}
</style>
<g id="Layer_8" class="st0">
	<rect class="st1" width="50" height="50"/>
</g>
<g id="Layer_1">
	<g>
		<g>
			<defs>
				<rect id="SVGID_1_" x="2.9" y="2.9" width="44.2" height="44.1"/>
			</defs>
			<clipPath id="SVGID_2_">
				<use xlink:href="#SVGID_1_"  style="overflow:visible;"/>
			</clipPath>
			<path class="st2" d="M34.3,2.9c0.5,0.3,1,0.5,1.4,0.8c1,0.9,1.2,2.2,0.6,3.4c-0.6,1.1-1.9,1.7-3.1,1.4C31.9,8.3,31,7.1,31,5.9
				c-0.1-1.2,0.8-2.4,2-2.8c0.1,0,0.3-0.1,0.4-0.2H34.3z"/>
			<path class="st2" d="M35.8,14.2c-0.9,0.8-1.7,1.5-2.6,2.2c-0.8,0.7-1.7,1.5-2.6,2.2c-1.5-1.8-3.5-2.8-5.8-3.1
				c0.2-1.8,0.4-3.5,0.7-5.2c0.2-1.5,0.1-2.9-1.1-3.9c-1.1-0.9-2.4-0.8-3.7-0.6c-1.1,0.2-2.1,0.4-3.2,0.6c-0.7,0.1-1.3-0.1-1.5-0.7
				c-0.2-0.6,0.1-1.4,0.7-1.6c1-0.3,2.1-0.6,3.2-0.7c3.4-0.3,6.7,0.3,9.7,1.9c0.4,0.2,0.6,0.5,0.7,1c0.2,1.9,2.2,3.4,4.1,2.9
				c0.5-0.1,0.8,0,1.1,0.3c1.7,2.1,3.1,4.3,4.1,6.8c0.7,1.7,0,3.1-1.8,3.5c-1.4,0.3-2.8,0.5-4.1,0.8c-0.8,0.1-1.5-0.2-1.6-0.9
				c-0.1-0.8,0.3-1.3,1.1-1.5c1.1-0.2,2.1-0.4,3.2-0.6c0.7-0.1,0.9-0.5,0.6-1.2C36.6,15.7,36.2,15,35.8,14.2"/>
			<path class="st2" d="M9,24.9c2.3-0.2,4.5-0.4,6.8-0.6c0.2,2.4,1.2,4.3,2.9,5.9c-1.3,1.4-2.6,2.8-3.9,4.2
				c-1.8,1.9-1.5,4.3,0.8,5.6c1.2,0.7,2.5,1.3,3.8,1.9c0.7,0.3,0.9,0.7,0.8,1.4c-0.2,0.7-0.6,1-1.3,0.9c-0.3,0-0.5-0.1-0.8-0.2
				c-4.2-1.7-7.2-4.5-9.2-8.5c-0.1-0.2-0.1-0.7,0-0.9c1-2,0.3-4.1-1.7-5c-0.2-0.1-0.5-0.4-0.5-0.7c-0.2-2.8,0-5.6,0.7-8.4
				c0.4-1.4,1.8-2.2,3.2-1.6c1.4,0.6,2.8,1.3,4.1,2c0.7,0.3,1,1.1,0.6,1.7c-0.3,0.6-1,0.8-1.7,0.5c-1-0.4-1.9-0.9-2.9-1.4
				c-0.7-0.3-1.1-0.1-1.2,0.5C9.2,23.1,9.1,24,9,24.9"/>
			<path class="st2" d="M18.5,9.8c0.9,2.1,1.8,4.2,2.7,6.3c-2.2,0.9-3.7,2.4-4.7,4.6c-0.9-0.4-1.8-0.9-2.8-1.3
				c-0.9-0.4-1.8-0.9-2.7-1.3c-2.1-0.9-4.3,0.1-4.8,2.3c-0.3,1.5-0.5,3-0.7,4.4C5.4,25.5,5,25.9,4.4,26c-0.6,0-1.3-0.4-1.3-1.1
				c0-1.1,0.1-2.3,0.3-3.4c0.7-3.3,2.3-6.2,4.8-8.6c0.3-0.3,0.6-0.5,1.1-0.4c2.1,0.4,3.9-1,4.2-3.2c0-0.2,0.2-0.6,0.4-0.6
				c2.6-1.1,5.3-1.8,8.2-1.9c1.6-0.1,2.7,0.9,2.5,2.5c-0.1,1.6-0.4,3.1-0.6,4.7c-0.1,0.7-0.7,1.1-1.4,0.9c-0.7-0.1-1-0.6-1-1.3
				c0.1-1.1,0.3-2.1,0.4-3.2c0.1-0.8-0.3-1.2-1.1-1.1C20.2,9.5,19.4,9.6,18.5,9.8"/>
			<path class="st2" d="M20.4,38.6c0.3-1.2,0.5-2.3,0.8-3.3c0.2-1.1,0.5-2.2,0.8-3.3c1.5,0.3,2.9,0.4,4.3,0c0.5-0.2,1.1-0.4,1.6-0.6
				c0.5-0.2,0.7-0.2,0.9,0.3c0.8,1.5,1.6,2.9,2.4,4.4c1.4,2.5,3.7,2.9,5.8,1c1-0.9,1.9-1.9,2.8-2.8c0.6-0.6,1.1-0.7,1.7-0.3
				c0.6,0.4,0.8,1.2,0.2,1.8c-1.1,1.2-2.2,2.4-3.4,3.3c-2.1,1.7-4.7,2.6-7.4,3.1c-0.6,0.1-1,0-1.5-0.5c-1.4-1.4-3.6-1.3-5,0.2
				c-0.3,0.3-0.5,0.4-0.9,0.3c-2.6-0.7-5.1-1.7-7.5-3.1c-1.5-0.9-1.7-2.6-0.5-3.9c0.9-1,1.9-2,2.8-3c0.6-0.6,1.3-0.7,1.9-0.2
				c0.6,0.5,0.5,1.2-0.1,1.9c-0.7,0.7-1.4,1.5-2.1,2.2c-0.6,0.6-0.5,1,0.2,1.4C18.9,37.9,19.6,38.2,20.4,38.6"/>
			<path class="st2" d="M36.9,31.9c-1.9-1.1-3.8-2.3-5.7-3.4c0.1-0.2,0.1-0.3,0.2-0.4c0.9-1.7,1.4-3.5,1-5.4
				c-0.1-0.6,0.1-0.7,0.7-0.8c1.7-0.3,3.5-0.6,5.2-1c2.2-0.5,3.3-2.6,2.4-4.7c-0.6-1.3-1.3-2.6-2-3.9c-0.4-0.8-0.4-1.4,0.2-1.8
				c0.6-0.4,1.4-0.2,1.9,0.5c1.4,2.1,2.4,4.3,2.6,6.8c0.2,1.8,0,3.6,0,5.4c0,0.5-0.2,0.9-0.8,1.1c-1.9,0.9-2.5,3.1-1.5,4.9
				c0.2,0.4,0.2,0.6,0,1c-1.5,2.4-3.3,4.4-5.4,6.3c-1.2,1-2.8,0.8-3.6-0.6c-0.7-1.3-1.4-2.6-2.1-3.9c-0.4-0.7-0.2-1.5,0.4-1.8
				c0.7-0.4,1.3-0.1,1.8,0.7c0.5,0.9,1,1.8,1.5,2.7c0.4,0.7,0.8,0.7,1.4,0.2c0.6-0.5,1.2-1.1,1.9-1.6C37,32.1,36.9,32,36.9,31.9"/>
			<path class="st2" d="M2.9,32.8c0-1.6,1.2-2.8,2.8-2.8c1.6,0,2.8,1.3,2.8,2.9c0,1.6-1.3,2.8-2.9,2.8C4.1,35.7,2.9,34.4,2.9,32.8"
				/>
			<path class="st2" d="M12.7,9.1c0,1.6-1.2,2.8-2.8,2.8c-1.5,0-2.8-1.3-2.8-2.8c0-1.5,1.3-2.8,2.8-2.8C11.5,6.2,12.7,7.5,12.7,9.1"
				/>
			<path class="st2" d="M47.1,27.5c0,1.6-1.2,2.8-2.8,2.8c-1.5,0-2.8-1.3-2.8-2.8c0-1.6,1.3-2.8,2.9-2.8
				C45.9,24.7,47.1,25.9,47.1,27.5"/>
			<path class="st2" d="M29.7,44.3c0,1.6-1.3,2.8-2.8,2.8c-1.5,0-2.8-1.3-2.8-2.9c0-1.6,1.2-2.8,2.9-2.8
				C28.6,41.4,29.8,42.6,29.7,44.3"/>
		</g>
	</g>
</g>
<g id="Layer_2" class="st0">
	<g class="st3">
		<defs>
			<rect id="SVGID_3_" x="3.1" y="4.6" width="43.9" height="40.8"/>
		</defs>
		<clipPath id="SVGID_4_">
			<use xlink:href="#SVGID_3_"  style="overflow:visible;"/>
		</clipPath>
		<path class="st4" d="M27.8,13.1c-0.6,0.6-1.2,1.2-1.7,1.7c-0.9,0.9-1.8,1.8-2.8,2.8c-1.2,1.1-2.9,1.5-4.4,0.9l0.4-0.4
			c0.5-0.5,1-1,1.5-1.5c0.5-0.5,1-1,1.4-1.5l0.2-0.2c1-1,1.9-2,2.9-2.9c3.7-3.4,7.9-4.3,12.3-2.7c3.5,1.3,5.5,4,6.2,8
			c0.4,2.6-0.2,5.1-1.8,7.4l-10-10c-0.6-0.6-1.1-1.1-1.7-1.7c-0.5-0.4-0.9-0.7-1.3-0.7C28.7,12.4,28.3,12.6,27.8,13.1 M23,41.2
			l0.1-0.3c0.1-0.2,0.2-0.3,0.3-0.4c0.9-0.9,1.8-1.8,2.7-2.7c0.5-0.5,1.2-0.4,1.6,0.1c0.5,0.5,0.5,1.1,0,1.6
			c-0.9,0.9-1.8,1.8-2.7,2.7c-0.3,0.3-0.7,0.4-1.2,0.2c-0.4-0.2-0.7-0.6-0.8-1.1C22.9,41.3,22.9,41.2,23,41.2 M19.3,36.8
			c1-1.1,2-2.1,3-3c0.4-0.3,1-0.3,1.5,0.1c0.4,0.4,0.5,1.1,0.2,1.4c-1,1.1-2.1,2.2-3.1,3.1c-0.1,0.1-0.3,0.1-0.4,0.1l-0.1,0
			c-0.6-0.1-0.9-0.3-1.1-0.7C19,37.5,19,37.1,19.3,36.8 M15.5,32.9c0.9-0.9,1.8-1.9,2.9-2.9c0.1-0.1,0.3-0.2,0.5-0.2l0.1,0
			c0.6,0.1,1,0.3,1.2,0.7c0.2,0.5,0.1,0.9-0.2,1.2c-1,1-1.9,2-2.8,2.8c-0.4,0.4-1.1,0.3-1.5-0.1C15.1,33.9,15.1,33.3,15.5,32.9
			 M11.4,29.4L11.4,29.4c0.1-0.2,0.2-0.4,0.3-0.5c0.9-1,1.8-1.9,2.7-2.7c0.5-0.4,1.2-0.4,1.6,0c0.5,0.5,0.5,1.1,0,1.6
			c-0.8,0.8-1.7,1.7-2.7,2.7c-0.4,0.4-0.8,0.4-1.3,0.2c-0.5-0.2-0.7-0.6-0.7-1.2L11.4,29.4z M30.4,20.8c-0.3-0.3-0.9-0.6-1.4-0.6
			c-0.5,0.1-1,0.5-1.2,0.9c-0.2,0.3-0.5,1,0.4,1.8l7.8,7.8c0.3,0.3,0.5,0.6,0.5,1c0,0.3-0.1,0.6-0.4,0.8c-0.2,0.2-0.5,0.4-0.8,0.3
			c-0.3,0-0.6-0.2-0.9-0.5l-7.6-7.6l0,0c-0.1-0.1-0.1-0.1-0.2-0.2c-0.7-0.7-1.6-0.7-2.2-0.1c-0.3,0.3-0.5,0.7-0.5,1.1
			c0,0.4,0.2,0.9,0.5,1.2c0.7,0.7,1.4,1.4,2.1,2.1l2.4,2.4c1.1,1.1,2.2,2.2,3.2,3.2c0.4,0.4,0.7,0.9,0.2,1.6
			c-0.2,0.3-0.5,0.5-0.8,0.5c-0.3,0.1-0.6,0-0.9-0.2c-0.2-0.2-0.4-0.4-0.7-0.6c-0.8-0.9-1.7-1.4-2.9-1.5c-0.3-2.2-1.6-3.5-3.8-3.9
			c-0.3-2.1-1.7-3.6-3.9-3.9c0-0.3-0.1-0.6-0.2-0.9c-0.4-1.4-1.6-2.5-3-2.9c-1.5-0.4-3,0-4,1.1c-0.7,0.6-1.3,1.3-2,2l-0.5,0.5
			c-1.9-1.8-3-3.8-3.5-6.3c-0.7-3.4-0.1-6.2,1.6-8.5c2.5-3.2,5.9-4.6,10.1-3.9c1.9,0.3,3.5,1.1,5.1,2.4l-8.3,8.2l-0.3,0.3l0.3,0.4
			c1.3,1.7,3.1,2.7,5.2,2.8c2.1,0.2,4.1-0.6,5.7-2.1c0.9-0.9,1.7-1.7,2.5-2.5l0.3-0.3c0.3-0.3,0.6-0.6,0.8-0.9l0.2,0.3
			c0.3,0.3,0.7,0.7,1,1l4.2,4.2c1.8,1.8,3.6,3.6,5.3,5.3c0.4,0.4,0.5,0.9,0.3,1.4C40,28.8,39.5,29,39.1,29c-0.3-0.1-0.7-0.3-1-0.5
			c-1.3-1.3-2.6-2.6-4.2-4.2L33,23.4C32.2,22.5,31.3,21.7,30.4,20.8 M46.8,16.7c-1.1-7.4-7.4-12-14.9-10.9c-2.3,0.3-4.5,1.2-6.5,2.5
			c0,0,0,0,0,0c-2.6-2.4-5.6-3.6-9-3.7l-0.2,0c-4.4,0-8,1.7-10.6,5.1C3.1,13,2.5,17,3.6,21.5c0.7,2.9,2.3,5.4,4.7,7.7
			c0.1,0,0.1,0.2,0.1,0.3c0,2.1,1.2,3.7,3.1,4.2c0.2,0.1,0.5,0.1,0.7,0.1c0.1,1.1,0.5,2,1.2,2.7c0.7,0.7,1.6,1.1,2.7,1.2
			c0.1,1.1,0.5,2,1.2,2.7c0.7,0.7,1.6,1.1,2.7,1.2c0.1,1.7,1,2.9,2.6,3.6c0.5,0.2,1.1,0.3,1.6,0.3c1,0,2-0.4,2.8-1.2
			c0.3-0.3,0.7-0.7,1-1c0.2-0.2,0.4-0.4,0.6-0.6l0.3-0.3c0.8-0.8,1.6-1.5,1.8-2.7c1.2,0.2,2.3-0.1,3.2-0.9c0.9-0.7,1.4-1.7,1.5-2.9
			c2.1-0.2,3.6-1.6,3.9-3.9c2-0.1,3.6-1.8,3.8-3.8c0,0,0-0.1,0.2-0.3C46.3,24.6,47.4,20.9,46.8,16.7"/>
	</g>
</g>
<g id="Layer_3" class="st0">
	<g class="st3">
		<defs>
			<rect id="SVGID_5_" x="8.6" y="3.1" width="32.8" height="43.9"/>
		</defs>
		<clipPath id="SVGID_6_">
			<use xlink:href="#SVGID_5_"  style="overflow:visible;"/>
		</clipPath>
		<path class="st5" d="M15.2,46.9c-2-1.7-4.1-3.4-6.2-5c-0.5-0.4-0.6-0.7-0.2-1.3c3.3-4,6.6-8.1,9.9-12.1c0.4-0.5,0.4-0.8,0-1.3
			c-1.1-1.4-2.3-2.8-3.3-4.2c-2.2-3-3.2-6.2-1.2-9.9c1.3-2.3,2.3-4.8,3.4-7.3c0.1-0.2,0.2-0.3,0.4-0.4c0,0.2,0,0.3,0,0.5
			c-0.4,3.5,0.8,6.5,2.8,9.1c5.1,6.6,10.4,13.2,15.6,19.8c1.5,1.9,3.1,3.9,4.7,5.8c0.4,0.4,0.4,0.7-0.1,1.1
			c-2.1,1.7-4.2,3.5-6.3,5.3h-0.3c-0.1-0.1-0.1-0.3-0.2-0.4c-2.9-3.6-5.9-7.2-8.8-10.9c-0.4-0.5-0.6-0.5-0.9,0
			c-1.9,2.4-3.9,4.8-5.8,7.2c-1.1,1.3-2.1,2.7-3.1,4H15.2z"/>
		<path class="st5" d="M27.9,3.1C27.9,3.1,27.9,3.1,27.9,3.1c2.9,0.3,4.3,2.2,5.3,4.7c0.8,1.9,1.6,3.7,2.6,5.5c1.7,3.1,1,6-0.9,8.8
			c-0.9,1.3-1.9,2.5-2.8,3.8c-0.4,0.5-0.5,0.4-0.8,0c-1.6-2.1-3.3-4.2-4.9-6.3c-0.1-0.2-0.1-0.7,0.1-0.9c1.3-1.9,2.6-3.7,3.9-5.6
			c0.4-0.6,0.4-1.1-0.5-1.1c-2.6,0-5.2-0.1-7.8,0c-0.6,0-0.9-0.1-1.1-0.6c-0.9-2.2-1.1-4.4-1-6.7c0-0.9,0.4-1.2,1.2-1.3
			c0.2,0,0.4-0.1,0.6-0.2H27.9z"/>
	</g>
</g>
<g id="Layer_4" class="st0">
	<g class="st3">
		<defs>
			<rect id="SVGID_7_" x="5.4" y="2.5" width="39.2" height="44.2"/>
		</defs>
		<clipPath id="SVGID_8_">
			<use xlink:href="#SVGID_7_"  style="overflow:visible;"/>
		</clipPath>
		<path class="st6" d="M5.8,17.6c1.3-0.5,2.5-0.9,3.7-1.3c3.8-1.3,6.5-4,8.3-7.5c1-1.9,1.8-3.9,2.1-6c0-0.1,0-0.2,0.1-0.3
			c0.1,0.1,0.2,0.2,0.3,0.3c5.9,7.4,11.8,14.7,17.8,22.1c0.2,0.3,0.3,0.5,0.1,0.9c-1,2.7-2.6,5-4.5,7.1c-2.7,2.9-6.1,4.7-9.7,6.2
			c-0.3,0.1-0.5,0-0.7-0.3c-3.1-3.8-6.2-7.5-9.3-11.3c-2.6-3.2-5.2-6.3-7.8-9.5C6.1,17.9,6,17.8,5.8,17.6"/>
		<path class="st6" d="M23,46.5c-0.7-0.8-1.4-1.7-2.1-2.5c-5-6.2-10.1-12.4-15.1-18.6C5.5,25,5.4,24.6,5.4,24c0-1.7,0-3.4,0-5.1
			v-0.6c0.8,1,1.5,1.8,2.2,2.6c5.1,6.2,10.2,12.3,15.2,18.5c0.2,0.2,0.3,0.6,0.3,0.9c0,2.1,0,4.1,0,6.2C23.1,46.5,23.1,46.5,23,46.5
			"/>
		<path class="st6" d="M23.9,46.7v-2.3c3.3-1.2,6.7-2.3,10-3.5c3.3-1.2,6.5-2.8,9.6-4.6c0,1.1,0,2.1,0,3.1c0,0.1-0.3,0.3-0.4,0.4
			c-3.5,1.3-6.9,2.5-10.4,3.7c-2.8,1-5.6,2-8.3,3C24.2,46.6,24.1,46.6,23.9,46.7"/>
		<path class="st6" d="M24,6.2c0.4-0.4,0.7-0.9,1.1-1.3c6.2,7.1,12.3,14.2,18.5,21.3c-2.2,3.3-5,6.1-8.1,8.6
			c-3.4,2.8-7.4,4.7-11.6,6.2c0-0.2,0-0.4,0-0.5c-0.1-0.4,0.1-0.5,0.5-0.6c3-1.2,5.9-2.7,8.4-4.9c2.9-2.6,5.1-5.6,6.4-9.3
			c0.1-0.3,0-0.5-0.2-0.8C34,18.6,29.1,12.5,24.2,6.4C24.1,6.3,24,6.2,24,6.2"/>
		<path class="st6" d="M42.1,29.3c0.8,0.8,1.6,1.5,2.5,2.2c-5.9,5.5-13,8.6-20.7,10.7c-0.2-0.4,0-0.7,0.5-0.8c3-1,6-2.3,8.7-4
			c2.2-1.4,4.1-3.3,6-5.1C40.1,31.3,41.1,30.3,42.1,29.3"/>
		<path class="st6" d="M42.8,34.1c0.3,0.3,0.6,0.6,0.9,1c-6,4.1-12.7,6.6-19.7,8.5c-0.1-0.5-0.1-0.4,0.3-0.6
			c2.6-0.9,5.1-1.7,7.7-2.6c3.8-1.4,7.1-3.5,10.4-5.9C42.5,34.3,42.6,34.2,42.8,34.1"/>
	</g>
</g>
<g id="Layer_5" class="st0">
	<g class="st3">
		<defs>
			<rect id="SVGID_9_" x="7" y="4.2" width="35.9" height="41.6"/>
		</defs>
		<clipPath id="SVGID_10_">
			<use xlink:href="#SVGID_9_"  style="overflow:visible;"/>
		</clipPath>
		<path class="st7" d="M34.9,26.5c0,0.4,0.1,0.7,0.1,1c0,5.2,0,10.4,0,15.6c0,1,0,1.5-0.1,2.6c-7.9-1.5-17.9-3.5-26.2-5
			c-1-0.2-1.4-0.7-1.5-1.4c0-0.2,0-0.4,0-0.6c0-4.3,0-8.5-0.1-12.8c0-0.2,0-0.4,0.1-0.7c3.3,1.9,6.8,3.1,10.5,3.5
			c0.6,0.6,1,1.2,1.4,1.7c1.3-0.1,1.4-0.8,1.9-1.5C25.8,29.1,30.4,28.2,34.9,26.5"/>
		<path class="st7" d="M34.9,10.7v14c-4.3,1.8-8.9,2.8-13.8,2.8c-0.3-0.9-0.4-1.8-1.6-2.1c-1,0.4-1,0.4-1.7,1.9
			c-3.4-0.1-7.6-1.5-10.6-3.4c0-0.2-0.1-0.4-0.1-0.6c0-2.8-0.1-5.6-0.1-8.3c0-1.4,0.2-1.6,1.9-1.7c7.1-0.7,14.2-1.3,21.3-2
			C31.7,11,33.2,10.9,34.9,10.7"/>
		<path class="st7" d="M34.9,45.8V26.6h8c0,0.2,0.1,0.4,0.1,0.7c0,5.3,0,10.7,0,16c0,1.1-0.3,1.4-1.6,1.6
			C39.3,45.2,37.1,45.4,34.9,45.8"/>
		<path class="st7" d="M34.9,24.7v-14c2.3,0.1,4.5,0.1,6.7,0.3c0.4,0,0.8,0.4,1.1,0.8c0.2,0.3,0.2,0.7,0.3,1.1c0,3.7,0,7.4,0,11.1
			c0,0.2,0,0.4-0.1,0.7H34.9z"/>
		<path class="st7" d="M18.6,12.8c-0.6,0.1-1.1,0.1-1.8,0.2c0-0.4-0.1-0.7,0-1c0.5-2.4,1.7-4.5,3.8-6.2c2.7-2.1,5.7-2.1,8.4,0
			c1.8,1.4,3.1,3.7,3.1,5.7c-0.7,0.1-1.5,0.2-2.4,0.3c-0.1-0.4-0.2-0.8-0.4-1.2c-0.5-0.9-0.9-1.9-1.7-2.7c-1.6-1.6-4-1.7-6-0.4
			c-1.8,1.2-2.6,2.8-3,4.5C18.7,12.3,18.6,12.6,18.6,12.8"/>
	</g>
</g>
<g id="Layer_6" class="st0">
	<g class="st3">
		<defs>
			<rect id="SVGID_11_" x="1.1" y="4.4" width="47.8" height="41.1"/>
		</defs>
		<clipPath id="SVGID_12_">
			<use xlink:href="#SVGID_11_"  style="overflow:visible;"/>
		</clipPath>
		<path class="st8" d="M8.7,23.2c0-0.6,0.4-1,0.9-1c0.6,0,1.1,0.4,1.1,1c0,0.6-0.3,0.9-0.8,1C9.2,24.2,8.7,23.8,8.7,23.2 M46.9,28.3
			c0.1,1.1-0.7,2.1-1.9,2.1c-1,0-1.9-0.7-2-1.7c-0.1-1.1,0.6-2,1.7-2.1C45.9,26.6,46.8,27.3,46.9,28.3 M41.7,29.3
			c0.6,1.7,1.7,2.6,3.5,2.6c1.4,0,2.6-1,3-2.4c0.5-1.8-0.3-3.1-1.8-4.1c0.7-0.1,1.4-0.1,1.9-0.3c0.2-0.1,0.4-0.5,0.6-0.7
			c-0.2-0.2-0.5-0.5-0.7-0.5c-1.9-0.1-3.7,0.3-5.2,1.6c-0.7,0.6-1.3,1.3-2.1,2c-0.2-4.1-1.8-7.2-4.8-9.6c-2.9-2.4-6.3-3.6-10.2-4.1
			c-0.2,0.6-0.4,1.1-0.6,1.8c0.5,0.1,0.9,0.2,1.3,0.3c0.5,0.1,1,0.3,0.9,0.9c-0.1,0.6-0.6,0.5-1,0.5c-1.4-0.1-2.8-0.2-4.2-0.3
			c-1.1,0-2.1,0.1-3.2,0.2c-0.3,0-0.6,0.1-0.8,0c-0.3-0.1-0.7-0.4-0.7-0.6c0-0.2,0.3-0.6,0.6-0.7c0.4-0.2,0.9-0.2,1.5-0.3
			c-0.2-0.6-0.3-1.2-0.5-1.7C18,13.8,17,14.1,16,14.5c-1.1,0.4-1.9,0.2-2.8-0.7c-0.8-0.9-1.8-1.6-2.7-2.3c-0.3-0.3-0.7-0.4-1.1-0.6
			c-1.1,1.3-1.5,4-0.3,7.2c-0.2,0.1-0.6,0.3-1,0.6c-1.6,1.4-2.8,3.2-3.5,5.3C4.4,24.7,4,25.1,3.2,25c-0.2,0-0.4,0-0.5,0
			c-1.3,0.2-1.7,0.7-1.5,2c0.2,1.4,0.6,2.8,0.9,4.2c0,0.1,0.1,0.3,0.1,0.4c0.5,2.2,0.8,2.5,3,2.5c0.6,0,1.1,0.2,1.5,0.7
			c1.8,2.4,4.2,4,7,5.1c0.8,0.3,1.2,0.8,1.4,1.6c0.3,1.1,0.6,2.2,0.9,3.3c0.1,0.6,0.5,0.8,1,0.8c0,0,0.1,0,0.1,0
			c2.8,0.1,2.8,0.1,3.6-2.5c0.4-1.5,0.4-1.5,2-1.5c2.4-0.1,4.8-0.4,7.2-1.1c0.3-0.1,0.6-0.2,1-0.3c0.4,1.3,0.8,2.6,1.1,4
			c0.4,1.5,0.4,1.5,2,1.5c2.5,0,2.1,0.4,2.9-2.2c1-3.6,2-7.2,3.1-10.9c0.3-1.1,0.9-2.1,1.3-3.1C41.4,29.3,41.5,29.3,41.7,29.3"/>
		<path class="st8" d="M26,9.9c1.6,0,2.7-1.2,2.7-2.8c0-1.5-1.3-2.7-2.7-2.6c-1.5,0-2.7,1.3-2.7,2.7C23.2,8.7,24.4,9.9,26,9.9"/>
		<path class="st8" d="M22.5,11.1c-1.6,0-2.8,1.2-2.8,2.7c0,1.5,1.2,2.7,2.7,2.7c1.5,0,2.7-1.2,2.8-2.6
			C25.2,12.3,24.1,11.1,22.5,11.1"/>
	</g>
</g>
<g id="Layer_7" class="st0">
	<g class="st3">
		<defs>
			<rect id="SVGID_13_" x="9.4" y="1.6" width="31.2" height="45.6"/>
		</defs>
		<clipPath id="SVGID_14_">
			<use xlink:href="#SVGID_13_"  style="overflow:visible;"/>
		</clipPath>
		<path class="st9" d="M25,41.2c-3.5,0-7,0-10.5,0c-0.3,0-0.7-0.1-0.9,0c-0.3,0.1-0.6,0.3-0.7,0.6c-0.4,1.1,0.1,1.8,1.2,1.8
			c0.2,0,0.4,0,0.6,0c6.9,0,13.7,0,20.6,0c0.3,0,0.6,0,0.9,0c0.8-0.1,1-0.4,0.9-1.3c0-0.8-0.2-1-1.1-1.1c-0.3,0-0.6,0-0.8,0
			C31.9,41.2,28.4,41.2,25,41.2 M25,39.5c3.6,0,7.3,0,10.9,0c1.1,0,1.4-0.2,1.3-1.3c0-0.8-0.2-1.1-1-1.1c-0.3,0-0.6,0-0.9,0
			c-6.8,0-13.7,0-20.5,0c-0.3,0-0.6,0-0.9,0c-0.8,0.1-1,0.4-1,1.3c0,0.8,0.2,1.1,1,1.1c0.3,0,0.6,0,0.8,0
			C18.1,39.5,21.5,39.5,25,39.5 M27.8,25.7c0.9,0,1.6,0,2.4,0c2,0.1,3.5,1.6,3.6,3.6c0,0.8,0,1.7,0,2.5c0,1.1,0.1,1.2,1.2,1.2
			c0.1,0,0.2,0,0.4,0c1.7,0,1.9-0.2,1.9-1.8c0-5.3,0-10.5,0-15.8c0-0.3,0-0.6,0-0.8c0-0.6-0.3-0.9-0.9-0.9c-0.3,0-0.6,0-0.9,0
			c-6.9,0-13.8,0-20.8,0c-0.3,0-0.6,0-0.8,0c-0.7,0.1-0.9,0.3-1,1c0,0.3,0,0.6,0,0.9c0,5,0,10,0,15.1c0,2.1-0.1,2.4,2.5,2.3
			c0.7,0,0.9-0.2,0.9-0.9c0-0.9,0-1.8,0-2.7c0.1-1.9,1.5-3.5,3.4-3.6c0.9-0.1,1.7,0,2.6,0c0.8,1.6,1.5,3.2,2.8,4.5
			C26.3,28.9,27,27.3,27.8,25.7 M20.2,6.1c0,0.9,0,1.6,0,2.4c0,2,1.4,3.4,3.4,3.5c0.9,0,1.8,0,2.7,0c2-0.1,3.4-1.5,3.4-3.5
			c0-0.7,0-1.5,0-2.3C30.1,6.1,30.4,6,30.6,6c2.9,0,5.9,0,8.8,0c1.1,0,1.2,0.1,1.2,1.2c0,12.9,0,25.9,0,38.8c0,1.1-0.1,1.2-1.2,1.2
			c-9.6,0-19.1,0-28.7,0c-1.2,0-1.2-0.1-1.2-1.2c0-12.9,0-25.9,0-38.8C9.4,6,9.5,6,10.6,6c2.9,0,5.9,0,8.8,0C19.6,6,19.8,6,20.2,6.1
			"/>
		<path class="st9" d="M22.2,5.7c0-0.9,0-1.7,0-2.6c0-1,0.4-1.4,1.4-1.4c0.9,0,1.9,0,2.8,0c0.9,0,1.3,0.4,1.3,1.3c0,1.8,0,3.6,0,5.4
			c0,0.9-0.5,1.4-1.4,1.4c-0.9,0-1.8,0-2.7,0c-1,0-1.4-0.5-1.4-1.5C22.2,7.5,22.2,6.6,22.2,5.7"/>
		<path class="st9" d="M25,24.6c-2.6,0-4.7-2-4.7-4.6c0-2.6,2.1-4.7,4.6-4.7c2.6,0,4.8,2.1,4.7,4.7C29.7,22.6,27.6,24.6,25,24.6"/>
	</g>
</g>
</svg>
