<?xml version="1.0" encoding="utf-8"?>
<!-- Generator: Adobe Illustrator 20.1.0, SVG Export Plug-In . SVG Version: 6.00 Build 0)  -->
<svg version="1.1" xmlns="http://www.w3.org/2000/svg" xmlns:xlink="http://www.w3.org/1999/xlink" x="0px" y="0px"
	 viewBox="0 0 71 71" style="enable-background:new 0 0 71 71;" xml:space="preserve">
<style type="text/css">
	.st0{display:none;}
	.st1{display:inline;}
	.st2{clip-path:url(#SVGID_2_);fill:#42145F;}
	.st3{clip-path:url(#SVGID_2_);fill:#FFFFFF;}
	.st4{clip-path:url(#SVGID_4_);fill:#77256F;}
	.st5{clip-path:url(#SVGID_4_);fill:#FFFFFF;}
	.st6{clip-path:url(#SVGID_4_);fill:none;stroke:#FFFFFF;stroke-width:6.43;}
	.st7{clip-path:url(#SVGID_6_);fill:#C2952D;}
	.st8{clip-path:url(#SVGID_6_);fill:#FFFFFF;}
	.st9{display:inline;fill:#C2B59B;}
	.st10{clip-path:url(#SVGID_8_);fill:#FFFFFF;}
	.st11{clip-path:url(#SVGID_10_);fill:#77256F;}
	.st12{clip-path:url(#SVGID_10_);fill:#FFFFFF;}
	.st13{clip-path:url(#SVGID_10_);fill:none;stroke:#FFFFFF;stroke-width:6.43;}
	.st14{clip-path:url(#SVGID_12_);fill:#FFFFFF;}
</style>
<g id="Layer_1" class="st0">
	<g class="st1">
		<defs>
			<rect id="SVGID_1_" x="0.5" y="0.5" width="70" height="70"/>
		</defs>
		<clipPath id="SVGID_2_">
			<use xlink:href="#SVGID_1_"  style="overflow:visible;"/>
		</clipPath>
		<path class="st2" d="M35.5,70.5c19.3,0,35-15.7,35-35s-15.7-35-35-35s-35,15.7-35,35S16.2,70.5,35.5,70.5"/>
		<path class="st3" d="M44.1,56c0.2,0,0.3,0,0.4-0.1c1.1-0.3,2.2-0.6,3.3-1c2.4-0.9,4.7-2.2,6.5-4.1c1.4-1.5,2.2-3.2,2.2-5.4
			c0-2.5-0.1-5.1,0-7.6c0-1.4-0.6-2.5-1.6-3.3c-0.9-0.8-2-1.3-3.1-1.7c-0.3-0.1-0.7-0.3-0.8-0.6c-0.2-0.6-0.1-1.2,0.3-1.7
			c1.5-1.8,2.3-3.8,2.1-6.1c-0.1-1.8-0.9-3.2-2.6-4c-1.7-0.8-3.4-0.7-5,0.3c-1.9,1.2-2.2,3.1-2,5.2c0.2,1.8,0.9,3.4,2.1,4.7
			c0.6,0.7,0.4,1.8-0.5,2.2c-0.6,0.3-1.1,0.5-1.7,0.8c0,0-0.1,0-0.2,0c0-0.1,0-0.2,0-0.3c0.2-1.7-0.6-2.8-1.9-3.7
			c-1-0.7-2-1.2-3.2-1.6c-0.4-0.1-0.7-0.4-0.7-0.8c-0.1-0.6,0-1.1,0.4-1.6c1.5-1.9,2.3-4,2-6.4c-0.3-2.3-2.1-4-4.4-4.1
			c-2.5-0.1-4.5,1.3-5,3.6c-0.5,2.6,0.2,4.9,1.9,6.9c0.8,1,0.6,2-0.6,2.4c-1.1,0.4-2.1,1-3,1.7c-1.1,0.9-1.9,1.9-1.7,3.4
			c0,0.2,0,0.3,0,0.6c-0.6-0.3-1.2-0.5-1.7-0.8c-1.2-0.5-1.4-1.5-0.6-2.5c1.5-1.9,2.3-4,1.9-6.5c-0.3-2.5-2.3-4.1-4.9-4
			c-2.5,0.1-4.4,1.8-4.6,4.3c-0.2,2.4,0.5,4.5,2.1,6.3c0.7,0.9,0.5,2-0.6,2.4c-1.1,0.4-2.1,0.9-3,1.7c-1,0.8-1.6,1.8-1.6,3.2
			c0.1,2.5,0,5.1,0,7.6c0,0.5,0,1,0.1,1.5c0.3,1.9,1.4,3.4,2.8,4.7c2.1,1.9,4.5,3,7.1,3.9c0.8,0.3,1.7,0.5,2.6,0.7
			c0-0.8,0-1.4,0-2.1c-0.1-1.2,0.4-2.1,1.2-2.9c1.1-1.1,2.5-1.8,3.9-2.4c0.7-0.3,0.9-1,0.4-1.6c-1.4-1.6-2.1-3.5-2.2-5.6
			c-0.1-1.3,0.2-2.6,1-3.7c1-1.3,2.3-1.9,3.9-2c1.9-0.1,3.5,0.5,4.6,2.1c1.1,1.6,1.2,3.3,0.8,5.1c-0.3,1.5-1,2.9-2,4.1
			c-0.6,0.7-0.4,1.5,0.4,1.8c1.1,0.4,2.1,0.9,3.1,1.6c1.3,1,2.1,2.1,2,3.8C44,54.8,44.1,55.4,44.1,56"/>
		<path class="st3" d="M44.1,56c0-0.6,0-1.2,0-1.8c0.1-1.7-0.7-2.9-2-3.8c-0.9-0.7-2-1.2-3.1-1.6c-0.8-0.3-1-1.1-0.4-1.8
			c1-1.2,1.7-2.5,2-4.1c0.4-1.8,0.3-3.6-0.8-5.1c-1.1-1.6-2.7-2.1-4.6-2.1c-1.6,0.1-2.9,0.7-3.9,2c-0.8,1.1-1.1,2.4-1,3.7
			c0.1,2.1,0.9,4,2.2,5.6c0.5,0.6,0.3,1.3-0.4,1.6c-1.4,0.6-2.8,1.3-3.9,2.4c-0.8,0.8-1.3,1.7-1.2,2.9c0,0.7,0,1.4,0,2.1
			c-0.9-0.3-1.7-0.5-2.6-0.7c-2.6-0.9-5.1-2-7.1-3.9c-1.4-1.3-2.5-2.7-2.8-4.7c-0.1-0.5-0.1-1-0.1-1.5c0-2.5,0-5.1,0-7.6
			c0-1.4,0.6-2.4,1.6-3.2c0.9-0.8,1.9-1.3,3-1.7c1-0.4,1.3-1.5,0.6-2.4c-1.5-1.8-2.3-3.9-2.1-6.3c0.2-2.5,2.1-4.2,4.6-4.3
			c2.6-0.1,4.5,1.5,4.9,4c0.3,2.5-0.4,4.6-1.9,6.5c-0.8,1-0.6,2,0.6,2.5c0.6,0.2,1.1,0.5,1.7,0.8c0-0.2,0-0.4,0-0.6
			c-0.2-1.5,0.6-2.5,1.7-3.4c0.9-0.7,1.9-1.3,3-1.7c1.2-0.5,1.4-1.5,0.6-2.4c-1.6-2-2.4-4.3-1.9-6.9c0.5-2.4,2.5-3.8,5-3.6
			c2.3,0.1,4.1,1.8,4.4,4.1c0.3,2.4-0.5,4.6-2,6.4c-0.4,0.5-0.5,1-0.4,1.6c0.1,0.4,0.3,0.6,0.7,0.8c1.1,0.4,2.2,0.9,3.2,1.6
			c1.3,0.9,2.1,2.1,1.9,3.7c0,0.1,0,0.2,0,0.3c0.1,0,0.1,0,0.2,0c0.6-0.3,1.1-0.5,1.7-0.8c0.8-0.4,1.1-1.5,0.5-2.2
			c-1.2-1.4-1.9-2.9-2.1-4.7c-0.2-2,0.1-4,2-5.2c1.6-1.1,3.3-1.1,5-0.3c1.6,0.8,2.4,2.2,2.6,4c0.2,2.3-0.6,4.4-2.1,6.1
			c-0.4,0.5-0.5,1.1-0.3,1.7c0.1,0.4,0.4,0.5,0.8,0.6c1.1,0.4,2.2,0.9,3.1,1.7c1,0.9,1.7,1.9,1.6,3.3c-0.1,2.5,0,5.1,0,7.6
			c0,2.1-0.8,3.9-2.2,5.4c-1.8,1.9-4.1,3.2-6.5,4.1c-1.1,0.4-2.2,0.7-3.3,1C44.3,56,44.2,56,44.1,56"/>
	</g>
</g>
<g id="Layer_2" class="st0">
	<g class="st1">
		<defs>
			<rect id="SVGID_3_" x="0.5" y="0.5" width="70" height="70"/>
		</defs>
		<clipPath id="SVGID_4_">
			<use xlink:href="#SVGID_3_"  style="overflow:visible;"/>
		</clipPath>
		<path class="st4" d="M35.5,70.5c19.3,0,35-15.7,35-35s-15.7-35-35-35s-35,15.7-35,35S16.2,70.5,35.5,70.5"/>
		<path class="st4" d="M43.5,30.6c0-7.1-5.7-12.9-12.9-12.9c-7.3,0-12.9,5.8-12.8,12.9c0,7.1,5.8,12.8,12.9,12.8
			C37.7,43.5,43.5,37.7,43.5,30.6 M40.4,43c-3.9,2.9-8.3,4-13,3c-4-0.8-7.3-3-9.6-6.4c-4.4-6.3-3.7-14.8,1.8-20.3
			c5.9-5.8,14.9-6,21.1-1c6.1,5,8,14.5,2.4,21.9c0.5,0.5,0.9,0.9,1.4,1.4c0.9-0.4,1.8-0.4,2.7,0.1c0.3,0.2,0.5,0.4,0.8,0.6
			c2.4,2.3,4.7,4.7,7.1,7.1c1.4,1.4,1.4,3.1,0,4.5c-0.6,0.6-1.2,1.3-2,1.7c-1,0.6-2.1,0.4-3.1-0.3c-0.2-0.1-0.3-0.3-0.5-0.4
			c-2.3-2.3-4.7-4.7-7-7c-1-1-1.3-2.1-0.8-3.5c0-0.1,0-0.2,0-0.3C41.3,43.8,40.9,43.4,40.4,43"/>
		<path class="st4" d="M22.5,26.7c0,3.4,1.2,6.3,3.6,8.6c2.5,2.3,5.4,3.3,8.8,3c-2.6,2-7.2,2.3-10.5-0.5
			C21.1,35.2,20.2,30.2,22.5,26.7"/>
		<path class="st5" d="M44.4,27.7c0,4.9-4,8.9-8.9,8.9s-8.9-4-8.9-8.9c0-4.9,4-8.9,8.9-8.9S44.4,22.8,44.4,27.7 M49.9,29.9
			c0-9-6.4-16.3-14.4-16.3s-14.4,7.3-14.4,16.3c0,0.4,0,0.7,0,1.1c0,0.3,0.1,0.5,0.1,0.8c0,0-0.1,0.8,0.3,2.3c0,0,0.5,1.6,0.9,2.7
			c0,0.1,0.1,0.2,0.1,0.3c1.6,4.4,5.1,11.6,12.7,22.4c0,0,12.1-16.4,14.2-25.8c0-0.2,0.1-0.4,0.1-0.6c0.1-0.4,0.1-1.3,0.1-1.3
			C49.8,31.1,49.9,30.5,49.9,29.9"/>
		<circle class="st6" cx="35.5" cy="28.3" r="9.6"/>
	</g>
</g>
<g id="Layer_3" class="st0">
	<g class="st1">
		<defs>
			<rect id="SVGID_5_" x="0.5" y="0.5" width="70" height="70"/>
		</defs>
		<clipPath id="SVGID_6_">
			<use xlink:href="#SVGID_5_"  style="overflow:visible;"/>
		</clipPath>
		<path class="st7" d="M35.5,70.5c19.3,0,35-15.7,35-35s-15.7-35-35-35s-35,15.7-35,35S16.2,70.5,35.5,70.5"/>
		<path class="st8" d="M51.7,44.5c0,1.3-1.1,1.3-1.1,1.3H20.4c-1.1,0-1.1-1.3-1.1-1.3V22.7c0-1.3,1.1-1.3,1.1-1.3h30.2
			c1.1,0,1.1,1.3,1.1,1.3V44.5z M29.2,48.3h12.7v1.5H29.2V48.3z M58.8,52.2v-3.8c0-1.3-1.1-1.3-1.1-1.3h-2.3V20.1c0,0,0-2.6-2.3-2.6
			H17.9c0,0-2.3,0-2.3,2.6V47h-2.3c-1.1,0-1.1,1.3-1.1,1.3v3.8c0,1.3,1.1,1.3,1.1,1.3h44.4C58.8,53.4,58.8,52.2,58.8,52.2"/>
	</g>
</g>
<g id="Layer_7" class="st0">
	<rect x="0.5" y="0.5" class="st9" width="70" height="70"/>
</g>
<g id="Layer_1_copy" class="st0">
	<g class="st1">
		<defs>
			<rect id="SVGID_7_" x="0.5" y="0.5" width="70" height="70"/>
		</defs>
		<clipPath id="SVGID_8_">
			<use xlink:href="#SVGID_7_"  style="overflow:visible;"/>
		</clipPath>
		<path class="st10" d="M44.1,56c0.2,0,0.3,0,0.4-0.1c1.1-0.3,2.2-0.6,3.3-1c2.4-0.9,4.7-2.2,6.5-4.1c1.4-1.5,2.2-3.2,2.2-5.4
			c0-2.5-0.1-5.1,0-7.6c0-1.4-0.6-2.5-1.6-3.3c-0.9-0.8-2-1.3-3.1-1.7c-0.3-0.1-0.7-0.3-0.8-0.6c-0.2-0.6-0.1-1.2,0.3-1.7
			c1.5-1.8,2.3-3.8,2.1-6.1c-0.1-1.8-0.9-3.2-2.6-4c-1.7-0.8-3.4-0.7-5,0.3c-1.9,1.2-2.2,3.1-2,5.2c0.2,1.8,0.9,3.4,2.1,4.7
			c0.6,0.7,0.4,1.8-0.5,2.2c-0.6,0.3-1.1,0.5-1.7,0.8c0,0-0.1,0-0.2,0c0-0.1,0-0.2,0-0.3c0.2-1.7-0.6-2.8-1.9-3.7
			c-1-0.7-2-1.2-3.2-1.6c-0.4-0.1-0.7-0.4-0.7-0.8c-0.1-0.6,0-1.1,0.4-1.6c1.5-1.9,2.3-4,2-6.4c-0.3-2.3-2.1-4-4.4-4.1
			c-2.5-0.1-4.5,1.3-5,3.6c-0.5,2.6,0.2,4.9,1.9,6.9c0.8,1,0.6,2-0.6,2.4c-1.1,0.4-2.1,1-3,1.7c-1.1,0.9-1.9,1.9-1.7,3.4
			c0,0.2,0,0.3,0,0.6c-0.6-0.3-1.2-0.5-1.7-0.8c-1.2-0.5-1.4-1.5-0.6-2.5c1.5-1.9,2.3-4,1.9-6.5c-0.3-2.5-2.3-4.1-4.9-4
			c-2.5,0.1-4.4,1.8-4.6,4.3c-0.2,2.4,0.5,4.5,2.1,6.3c0.7,0.9,0.5,2-0.6,2.4c-1.1,0.4-2.1,0.9-3,1.7c-1,0.8-1.6,1.8-1.6,3.2
			c0.1,2.5,0,5.1,0,7.6c0,0.5,0,1,0.1,1.5c0.3,1.9,1.4,3.4,2.8,4.7c2.1,1.9,4.5,3,7.1,3.9c0.8,0.3,1.7,0.5,2.6,0.7
			c0-0.8,0-1.4,0-2.1c-0.1-1.2,0.4-2.1,1.2-2.9c1.1-1.1,2.5-1.8,3.9-2.4c0.7-0.3,0.9-1,0.4-1.6c-1.4-1.6-2.1-3.5-2.2-5.6
			c-0.1-1.3,0.2-2.6,1-3.7c1-1.3,2.3-1.9,3.9-2c1.9-0.1,3.5,0.5,4.6,2.1c1.1,1.6,1.2,3.3,0.8,5.1c-0.3,1.5-1,2.9-2,4.1
			c-0.6,0.7-0.4,1.5,0.4,1.8c1.1,0.4,2.1,0.9,3.1,1.6c1.3,1,2.1,2.1,2,3.8C44,54.8,44.1,55.4,44.1,56"/>
		<path class="st10" d="M44.1,56c0-0.6,0-1.2,0-1.8c0.1-1.7-0.7-2.9-2-3.8c-0.9-0.7-2-1.2-3.1-1.6c-0.8-0.3-1-1.1-0.4-1.8
			c1-1.2,1.7-2.5,2-4.1c0.4-1.8,0.3-3.6-0.8-5.1c-1.1-1.6-2.7-2.1-4.6-2.1c-1.6,0.1-2.9,0.7-3.9,2c-0.8,1.1-1.1,2.4-1,3.7
			c0.1,2.1,0.9,4,2.2,5.6c0.5,0.6,0.3,1.3-0.4,1.6c-1.4,0.6-2.8,1.3-3.9,2.4c-0.8,0.8-1.3,1.7-1.2,2.9c0,0.7,0,1.4,0,2.1
			c-0.9-0.3-1.7-0.5-2.6-0.7c-2.6-0.9-5.1-2-7.1-3.9c-1.4-1.3-2.5-2.7-2.8-4.7c-0.1-0.5-0.1-1-0.1-1.5c0-2.5,0-5.1,0-7.6
			c0-1.4,0.6-2.4,1.6-3.2c0.9-0.8,1.9-1.3,3-1.7c1-0.4,1.3-1.5,0.6-2.4c-1.5-1.8-2.3-3.9-2.1-6.3c0.2-2.5,2.1-4.2,4.6-4.3
			c2.6-0.1,4.5,1.5,4.9,4c0.3,2.5-0.4,4.6-1.9,6.5c-0.8,1-0.6,2,0.6,2.5c0.6,0.2,1.1,0.5,1.7,0.8c0-0.2,0-0.4,0-0.6
			c-0.2-1.5,0.6-2.5,1.7-3.4c0.9-0.7,1.9-1.3,3-1.7c1.2-0.5,1.4-1.5,0.6-2.4c-1.6-2-2.4-4.3-1.9-6.9c0.5-2.4,2.5-3.8,5-3.6
			c2.3,0.1,4.1,1.8,4.4,4.1c0.3,2.4-0.5,4.6-2,6.4c-0.4,0.5-0.5,1-0.4,1.6c0.1,0.4,0.3,0.6,0.7,0.8c1.1,0.4,2.2,0.9,3.2,1.6
			c1.3,0.9,2.1,2.1,1.9,3.7c0,0.1,0,0.2,0,0.3c0.1,0,0.1,0,0.2,0c0.6-0.3,1.1-0.5,1.7-0.8c0.8-0.4,1.1-1.5,0.5-2.2
			c-1.2-1.4-1.9-2.9-2.1-4.7c-0.2-2,0.1-4,2-5.2c1.6-1.1,3.3-1.1,5-0.3c1.6,0.8,2.4,2.2,2.6,4c0.2,2.3-0.6,4.4-2.1,6.1
			c-0.4,0.5-0.5,1.1-0.3,1.7c0.1,0.4,0.4,0.5,0.8,0.6c1.1,0.4,2.2,0.9,3.1,1.7c1,0.9,1.7,1.9,1.6,3.3c-0.1,2.5,0,5.1,0,7.6
			c0,2.1-0.8,3.9-2.2,5.4c-1.8,1.9-4.1,3.2-6.5,4.1c-1.1,0.4-2.2,0.7-3.3,1C44.3,56,44.2,56,44.1,56"/>
	</g>
</g>
<g id="Layer_2_copy">
	<g>
		<defs>
			<rect id="SVGID_9_" x="0.5" y="0.5" width="70" height="70"/>
		</defs>
		<clipPath id="SVGID_10_">
			<use xlink:href="#SVGID_9_"  style="overflow:visible;"/>
		</clipPath>
		<path class="st11" d="M22.5,26.7c0,3.4,1.2,6.3,3.6,8.6c2.5,2.3,5.4,3.3,8.8,3c-2.6,2-7.2,2.3-10.5-0.5
			C21.1,35.2,20.2,30.2,22.5,26.7"/>
		<path class="st12" d="M44.4,27.7c0,4.9-4,8.9-8.9,8.9s-8.9-4-8.9-8.9c0-4.9,4-8.9,8.9-8.9S44.4,22.8,44.4,27.7 M49.9,29.9
			c0-9-6.4-16.3-14.4-16.3s-14.4,7.3-14.4,16.3c0,0.4,0,0.7,0,1.1c0,0.3,0.1,0.5,0.1,0.8c0,0-0.1,0.8,0.3,2.3c0,0,0.5,1.6,0.9,2.7
			c0,0.1,0.1,0.2,0.1,0.3c1.6,4.4,5.1,11.6,12.7,22.4c0,0,12.1-16.4,14.2-25.8c0-0.2,0.1-0.4,0.1-0.6c0.1-0.4,0.1-1.3,0.1-1.3
			C49.8,31.1,49.9,30.5,49.9,29.9"/>
		<circle class="st13" cx="35.5" cy="28.3" r="9.6"/>
	</g>
</g>
<g id="Layer_3_copy" class="st0">
	<g class="st1">
		<defs>
			<rect id="SVGID_11_" x="0.5" y="0.5" width="70" height="70"/>
		</defs>
		<clipPath id="SVGID_12_">
			<use xlink:href="#SVGID_11_"  style="overflow:visible;"/>
		</clipPath>
		<path class="st14" d="M51.7,44.5c0,1.3-1.1,1.3-1.1,1.3H20.4c-1.1,0-1.1-1.3-1.1-1.3V22.7c0-1.3,1.1-1.3,1.1-1.3h30.2
			c1.1,0,1.1,1.3,1.1,1.3V44.5z M29.2,48.3h12.7v1.5H29.2V48.3z M58.8,52.2v-3.8c0-1.3-1.1-1.3-1.1-1.3h-2.3V20.1c0,0,0-2.6-2.3-2.6
			H17.9c0,0-2.3,0-2.3,2.6V47h-2.3c-1.1,0-1.1,1.3-1.1,1.3v3.8c0,1.3,1.1,1.3,1.1,1.3h44.4C58.8,53.4,58.8,52.2,58.8,52.2"/>
	</g>
</g>
</svg>
