<?xml version="1.0" encoding="utf-8"?>
<!-- Generator: Adobe Illustrator 20.1.0, SVG Export Plug-In . SVG Version: 6.00 Build 0)  -->
<svg version="1.1" xmlns="http://www.w3.org/2000/svg" xmlns:xlink="http://www.w3.org/1999/xlink" x="0px" y="0px"
	 viewBox="0 0 65 45" style="enable-background:new 0 0 65 45;" xml:space="preserve">
<style type="text/css">
	.st0{display:none;}
	.st1{display:inline;fill:#C2B59B;}
	.st2{clip-path:url(#SVGID_2_);fill:#FFFFFF;}
	.st3{display:inline;}
	.st4{clip-path:url(#SVGID_4_);fill:#FFFFFF;}
	.st5{clip-path:url(#SVGID_6_);fill:#FFFFFF;}
	.st6{fill:#FFFFFF;}
	.st7{fill:none;}
	.st8{clip-path:url(#SVGID_8_);fill:#FFFFFF;}
	.st9{clip-path:url(#SVGID_8_);fill:none;stroke:#FFFFFF;stroke-miterlimit:10;}
	.st10{clip-path:url(#SVGID_10_);fill:#FFFFFF;}
</style>
<g id="Layer_7" class="st0">
	<rect class="st1" width="65" height="45"/>
</g>
<g id="Layer_1">
	<g>
		<defs>
			<rect id="SVGID_1_" x="12.5" y="0" width="39.9" height="45"/>
		</defs>
		<clipPath id="SVGID_2_">
			<use xlink:href="#SVGID_1_"  style="overflow:visible;"/>
		</clipPath>
		<path class="st2" d="M13,15.4c1.3-0.5,2.5-0.9,3.8-1.4c3.9-1.4,6.6-4.1,8.5-7.6c1-1.9,1.8-3.9,2.1-6.1c0-0.1,0-0.2,0.1-0.3
			c0.1,0.1,0.2,0.2,0.3,0.3c6,7.5,12.1,15,18.1,22.5c0.2,0.3,0.3,0.5,0.1,0.9c-1,2.8-2.6,5.1-4.6,7.2c-2.7,3-6.2,4.8-9.9,6.3
			c-0.4,0.1-0.5,0-0.7-0.3c-3.2-3.8-6.3-7.6-9.5-11.5c-2.7-3.2-5.3-6.5-8-9.7C13.2,15.7,13.1,15.6,13,15.4"/>
		<path class="st2" d="M30.5,44.8c-0.7-0.9-1.4-1.7-2.1-2.6c-5.1-6.3-10.2-12.6-15.4-19c-0.3-0.4-0.5-0.8-0.5-1.3c0-1.7,0-3.5,0-5.2
			v-0.6c0.8,1,1.5,1.8,2.2,2.7c5.2,6.3,10.3,12.5,15.5,18.8c0.2,0.2,0.3,0.6,0.3,0.9c0,2.1,0,4.2,0,6.3
			C30.6,44.8,30.5,44.8,30.5,44.8"/>
		<path class="st2" d="M31.4,45v-2.3c3.4-1.2,6.8-2.4,10.2-3.6c3.4-1.2,6.6-2.8,9.8-4.7c0,1.1,0,2.1,0,3.1c0,0.1-0.3,0.3-0.4,0.4
			c-3.5,1.3-7,2.5-10.6,3.8c-2.8,1-5.7,2-8.5,3C31.7,44.9,31.6,44.9,31.4,45"/>
		<path class="st2" d="M31.5,3.8c0.4-0.5,0.7-0.9,1.1-1.3c6.3,7.2,12.6,14.4,18.9,21.7c-2.3,3.3-5.1,6.2-8.2,8.7
			c-3.5,2.9-7.5,4.8-11.8,6.3c0-0.2,0-0.4,0-0.6c-0.1-0.4,0.1-0.5,0.5-0.6c3.1-1.3,6-2.7,8.5-4.9c2.9-2.6,5.2-5.7,6.5-9.5
			c0.1-0.3,0.1-0.6-0.2-0.8c-5-6.2-10-12.4-15-18.7C31.6,3.9,31.5,3.8,31.5,3.8"/>
		<path class="st2" d="M49.9,27.3c0.9,0.8,1.7,1.5,2.5,2.3c-6,5.6-13.3,8.8-21.1,10.9c-0.2-0.5,0-0.7,0.5-0.8c3.1-1,6.1-2.3,8.8-4.1
			c2.3-1.5,4.2-3.3,6.1-5.2C47.9,29.4,48.9,28.3,49.9,27.3"/>
		<path class="st2" d="M50.6,32.2c0.3,0.3,0.6,0.6,0.9,1c-6.1,4.2-13,6.7-20,8.7c-0.1-0.5-0.1-0.5,0.3-0.6c2.6-0.9,5.2-1.7,7.8-2.7
			c3.8-1.4,7.3-3.6,10.5-6C50.3,32.4,50.4,32.3,50.6,32.2"/>
	</g>
</g>
<g id="Layer_2" class="st0">
	<g class="st3">
		<defs>
			<rect id="SVGID_3_" x="1" y="1" width="63.1" height="43.1"/>
		</defs>
		<clipPath id="SVGID_4_">
			<use xlink:href="#SVGID_3_"  style="overflow:visible;"/>
		</clipPath>
		<path class="st4" d="M54.4,33.3c0,1.5-1.5,1.5-1.5,1.5H12.1c-1.5,0-1.5-1.5-1.5-1.5V7.1c0-1.5,1.5-1.5,1.5-1.5h40.8
			c1.5,0,1.5,1.5,1.5,1.5V33.3z M23.9,37.9H41v1.9H23.9V37.9z M64,42.5v-4.6c0-1.5-1.5-1.5-1.5-1.5h-3.1V4c0,0,0-3.1-3.1-3.1H8.7
			c0,0-3.1,0-3.1,3.1v32.3H2.5C1,36.3,1,37.9,1,37.9v4.6C1,44,2.5,44,2.5,44h60C64,44,64,42.5,64,42.5"/>
		<path class="st4" d="M37.2,28.5c-1.3,0.7-2.8,1.1-4.3,1c0,0-0.1,0-0.1,0c-0.2,0-0.3-0.2-0.3-0.4c0-0.2,0.2-0.4,0.4-0.4
			c1.4,0.1,2.7-0.3,3.9-0.9s2.2-1.6,2.9-2.8c0.1-0.2,0.3-0.2,0.5-0.1c0.2,0.1,0.2,0.3,0.1,0.5C39.6,26.7,38.5,27.8,37.2,28.5
			 M32.8,27.6c-0.2,0-0.3-0.2-0.3-0.4c0-0.2,0.2-0.4,0.4-0.4c1,0.1,2.1-0.2,3-0.7c0.9-0.5,1.7-1.3,2.2-2.2c0.1-0.2,0.3-0.2,0.5-0.1
			c0.2,0.1,0.2,0.3,0.1,0.5c-0.6,1-1.4,1.9-2.5,2.5C35.3,27.5,34.1,27.7,32.8,27.6C32.9,27.7,32.9,27.7,32.8,27.6 M32.9,25.8
			c-0.2,0-0.3-0.2-0.3-0.4c0-0.2,0.2-0.4,0.4-0.3c1.4,0.1,2.8-0.7,3.5-1.9c0.1-0.2,0.3-0.2,0.5-0.2c0.2,0.1,0.2,0.3,0.2,0.5
			C36.3,25,34.7,25.9,32.9,25.8C32.9,25.8,32.9,25.8,32.9,25.8 M29.8,19.5c0.5-1.6,2.1-2.5,3.7-2.1c1.6,0.5,2.5,2.1,2.1,3.7
			c-0.5,1.6-2.1,2.5-3.7,2.1C30.3,22.8,29.3,21.1,29.8,19.5 M28.9,17.6c-0.1,0.2-0.3,0.2-0.4,0.2c0,0,0,0-0.1,0
			c-0.2-0.1-0.2-0.3-0.2-0.5c0.8-1.5,2.5-2.4,4.2-2.3c0.2,0,0.4,0.2,0.3,0.4c0,0.2-0.2,0.4-0.4,0.3C30.9,15.6,29.6,16.3,28.9,17.6
			 M26.8,16.8C26.8,16.8,26.8,16.8,26.8,16.8c-0.3-0.1-0.3-0.4-0.2-0.5c0.6-1,1.4-1.9,2.5-2.5c1-0.6,2.2-0.8,3.4-0.8
			c0.2,0,0.4,0.2,0.4,0.4c0,0.2-0.2,0.4-0.4,0.4c-1-0.1-2.1,0.2-3,0.7c-0.9,0.5-1.7,1.3-2.2,2.2C27.2,16.8,27,16.9,26.8,16.8
			 M25.7,15.7c-0.1,0.2-0.3,0.2-0.4,0.2c0,0-0.1,0-0.1,0c-0.2-0.1-0.2-0.3-0.1-0.5c0.7-1.3,1.8-2.4,3.1-3.1c1.3-0.7,2.8-1.1,4.3-1
			c0.2,0,0.4,0.2,0.4,0.4c0,0.2-0.2,0.4-0.4,0.4c-1.4-0.1-2.7,0.3-3.9,0.9C27.3,13.5,26.3,14.5,25.7,15.7 M35.8,9.6
			c-5.9-1.7-12.1,1.7-13.8,7.7c-1.7,5.9,1.7,12.1,7.7,13.8c5.9,1.7,12.1-1.7,13.8-7.7C45.1,17.5,41.7,11.3,35.8,9.6"/>
	</g>
</g>
<g id="Layer_3" class="st0">
	<g class="st3">
		<defs>
			<rect id="SVGID_5_" x="11.7" y="1" width="41.5" height="43"/>
		</defs>
		<clipPath id="SVGID_6_">
			<use xlink:href="#SVGID_5_"  style="overflow:visible;"/>
		</clipPath>
		<path class="st5" d="M37.4,3.8c0.9,0,1.9,0,2.8,0c0.1,0,0.3,0,0.4-0.1c0.1-0.1,0.2-0.2,0.2-0.3c0-0.1-0.1-0.2-0.2-0.3
			c-0.1-0.1-0.2-0.1-0.4-0.1c-1.9,0-3.7,0-5.6,0c-0.1,0-0.3,0-0.4,0.1C34.2,3.2,34,3.3,34,3.5c0,0.1,0.1,0.2,0.3,0.3
			c0.1,0.1,0.2,0,0.3,0C35.6,3.8,36.5,3.8,37.4,3.8 M38.9,41.1c0-0.8-0.6-1.4-1.4-1.5c-0.8,0-1.5,0.7-1.5,1.5c0,0.8,0.7,1.5,1.5,1.4
			C38.3,42.5,38.9,41.9,38.9,41.1 M27.4,1h20.1c0.1,0,0.3,0.1,0.4,0.1c0.8,0.3,1.4,0.8,1.8,1.5c0.2,0.5,0.3,1,0.3,1.5
			c0,3.4,0,6.9,0,10.3V15c0.3,0,0.6,0,0.9,0c0.6,0,1.1,0.1,1.6,0.5c0.8,0.7,1.1,1.8,0.8,2.7c-0.3,1-1.1,1.6-2.2,1.6
			c-1.6,0-3.2,0-4.7,0c-1,0-1.7-0.4-2.1-1.4c-0.4-0.9-0.3-1.8,0.3-2.7c0.5-0.6,1.2-0.8,1.9-0.8c0.5,0,1.1,0,1.7,0V5.6H27v5.1
			c0.1,0,0.1,0,0.2,0c1-0.5,2-1.1,2.9-1.6c0.8-0.4,1.5-0.8,2.3-1.1c0.7-0.3,1.4-0.3,2.1,0.1c0.9,0.6,1.3,1.8,0.8,2.9
			c-0.4,0.9-1.1,1.6-1.8,2.2c-2,1.6-4,3.2-6.2,4.6C27,17.7,27,17.8,27,18.1c0,6.7,0,13.4,0,20.2c0,0.1,0,0.2,0,0.4h20.9
			c0-0.4,0-0.8,0-1.3c0-0.2-0.1-0.3-0.3-0.3c-0.5,0-1,0-1.4,0c-1.4,0-2.3-0.9-2.4-2.3c-0.1-1.5,0.9-2.5,2.3-2.6c1.6,0,3.2,0,4.7,0
			c0.8,0,1.4,0.3,1.9,0.9c0.9,1.1,0.6,3.3-1.1,3.8c-0.4,0.1-0.9,0.1-1.4,0.1c-0.3,0-0.4,0.1-0.4,0.4c0,1.2,0,2.3,0,3.5
			c0,1-0.3,1.9-1.1,2.4c-0.4,0.3-0.9,0.4-1.3,0.6h-20c0,0-0.1,0-0.1,0c-1.6-0.4-2.4-1.5-2.4-3.1c0-0.6,0-1.1,0-1.7v-1.3h-0.4
			c-0.7,0-1.4,0-2.2,0c-2.2,0-4.4-0.5-6.3-1.7c-1.2-0.8-2.1-1.8-2.8-3c-0.7-1.2-1.1-2.4-1.3-3.7c-0.5-3.2-0.2-6.4,1.3-9.4
			c0.6-1.1,1.4-2.2,2.4-2.9c1.2-0.8,2.6-1.5,3.9-2.2c1.7-1,3.4-2,5.2-2.9c0.2-0.1,0.2-0.3,0.2-0.5c0-2.5,0-5,0-7.5
			c0-1,0.3-1.9,1.2-2.5C26.5,1.3,27,1.2,27.4,1"/>
		<path class="st5" d="M48.5,31.3c-0.9,0-1.7,0.1-2.6,0c-1.3-0.1-2.2-1.2-2.1-2.5c0.1-1.4,1-2.3,2.4-2.3c1.5,0,3.1,0,4.6,0
			c1.2,0,2,0.6,2.4,1.8c0.3,1.1-0.1,2.2-1.1,2.7c-0.4,0.2-0.9,0.3-1.3,0.3C50,31.4,49.2,31.3,48.5,31.3
			C48.5,31.3,48.5,31.3,48.5,31.3"/>
		<path class="st5" d="M48.5,25.6c-0.8,0-1.5,0-2.3,0c-1.1,0-2-0.6-2.3-1.6c-0.3-1-0.1-2.1,0.9-2.8c0.4-0.2,0.8-0.4,1.3-0.4
			c1.6,0,3.3,0,4.9,0c1.1,0,2,0.8,2.2,1.9c0.2,1.2-0.3,2.3-1.4,2.8c-0.3,0.1-0.7,0.2-1,0.2C50,25.6,49.3,25.6,48.5,25.6"/>
		<path class="st5" d="M41.5,30.6c-0.4,0-0.9,0-1.3,0c-0.3,0-0.2-0.2-0.2-0.4c0-1.1-0.3-2.2-0.8-3.3c-0.9-2-2.3-3.5-4.3-4.5
			c-1.1-0.6-2.4-0.9-3.6-0.9c-0.3,0-0.4-0.1-0.4-0.4c0-0.4,0-0.7,0-1.1C37,20,41.6,25.1,41.5,30.6"/>
		<path class="st5" d="M30.9,24.1c0-0.5,0-0.9,0-1.3c0-0.1,0.2-0.2,0.3-0.2c0.7,0.1,1.4,0.1,2.1,0.4c1.8,0.6,3.3,1.7,4.3,3.3
			c0.8,1.3,1.2,2.7,1.3,4.2h-1.5c-0.1-1.7-0.7-3.3-1.9-4.5C34.2,24.8,32.7,24.2,30.9,24.1"/>
		<path class="st5" d="M36.1,30.6c-0.4,0-0.9,0-1.3,0c-0.1,0-0.2-0.2-0.2-0.3c-0.1-0.8-0.4-1.4-0.8-2c-0.6-0.8-1.4-1.2-2.4-1.3
			c-0.3,0-0.5-0.1-0.4-0.5c0-0.3,0-0.7,0-1C33.5,25.2,36.2,27.6,36.1,30.6"/>
	</g>
</g>
<g id="Layer_4" class="st0">
	<g class="st3">
		<path class="st6" d="M13.2,12.7c0.8,0.4,1.6,0.6,2.5,0.6c0.9,0,1.8-0.2,2.5-0.6c1.8-0.9,3-2.8,3-4.9c0-3.1-2.5-5.5-5.5-5.5
			c-3.1,0-5.5,2.5-5.5,5.5C10.2,10,11.4,11.8,13.2,12.7"/>
	</g>
	<g class="st3">
		<rect x="15.6" y="39.3" class="st7" width="1.9" height="5.7"/>
		<polygon class="st7" points="45.6,34 42.6,34 40.1,45 48,45 		"/>
		<path class="st6" d="M59.2,2.7H28.8c-1,0-1.8,0.8-1.8,1.8v12.9l1.3-1.5c0.6-0.7,1.5-1.2,2.3-1.4V6.4h26.7v23.9H30.7v-4l-0.8,1
			c-0.7,0.8-1.7,1.4-2.8,1.5v3.4c0,1,0.8,1.8,1.8,1.8h9.9l-2.4,11h3.9l2.4-11h3L48,45h3.9l-2.4-11h9.8c1,0,1.8-0.8,1.8-1.8V4.6
			C61.1,3.6,60.2,2.7,59.2,2.7z"/>
		<path class="st6" d="M23.4,24.8l1.7,1.4c1,0.9,2.5,0.7,3.3-0.3l4.1-4.8l3.3-1.9l8.6-5.1c0.3-0.2,0.4-0.5,0.3-0.9
			c-0.1-0.4-0.6-0.5-0.9-0.4L33,16.8c-1-0.8-2.4-0.6-3.2,0.3l-3.4,4l-3-2.6c0,0.2,0.1,0.4,0.1,0.6V24.8z"/>
		<path class="st6" d="M15.6,39.3h1.9V45h4c0-4,0-10.2,0-25.8c0-2.6-2.1-4.8-4.8-4.8h-2c-1.6,0-2.9,0.8-3.8,1.9l-6.2,5.7
			c-1,0.9-1.1,2.4-0.2,3.3l5.1,5.7c0.9,1,2.4,1.1,3.3,0.2c1-0.9,1.1-2.4,0.2-3.3L9.6,24l5-4.5l-2.9,3.9l2.8,3.2
			c1.6,1.8,1.4,4.4-0.3,6c-1.2,1.1-2.8,1.3-4.2,0.8c0,0,0,4.8,0,11.5h5.7V39.3z"/>
	</g>
</g>
<g id="Layer_5" class="st0">
	<g class="st3">
		<defs>
			<rect id="SVGID_7_" x="6.9" y="0.6" width="51.2" height="43.8"/>
		</defs>
		<clipPath id="SVGID_8_">
			<use xlink:href="#SVGID_7_"  style="overflow:visible;"/>
		</clipPath>
		<path class="st8" d="M14.4,43.8c0.1,0.1,0.2,0.1,0.4,0.1c0.2,0,0.5-0.1,0.6-0.3l6.4-6H34c2.5,0,4.6-2,4.6-4.4v-6.7
			c0-0.5-0.4-0.9-0.9-0.9s-0.9,0.4-0.9,0.9v6.7c0,1.5-1.2,2.6-2.7,2.6H21.5c-0.2,0-0.5,0.1-0.6,0.3l-5.1,4.8v-4.1
			c0-0.5-0.4-0.9-0.9-0.9h-2.8c-1.5,0-2.7-1.2-2.7-2.6V20.1c0-1.5,1.2-2.6,2.7-2.6h11c0.5,0,0.9-0.4,0.9-0.9c0-0.5-0.4-0.9-0.9-0.9
			h-11c-2.5,0-4.6,2-4.6,4.4v13.1c0,2.5,2,4.4,4.6,4.4h1.9V43C13.9,43.4,14.1,43.7,14.4,43.8"/>
		<path class="st9" d="M14.4,43.8c0.1,0.1,0.2,0.1,0.4,0.1c0.2,0,0.5-0.1,0.6-0.3l6.4-6H34c2.5,0,4.6-2,4.6-4.4v-6.7
			c0-0.5-0.4-0.9-0.9-0.9s-0.9,0.4-0.9,0.9v6.7c0,1.5-1.2,2.6-2.7,2.6H21.5c-0.2,0-0.5,0.1-0.6,0.3l-5.1,4.8v-4.1
			c0-0.5-0.4-0.9-0.9-0.9h-2.8c-1.5,0-2.7-1.2-2.7-2.6V20.1c0-1.5,1.2-2.6,2.7-2.6h11c0.5,0,0.9-0.4,0.9-0.9c0-0.5-0.4-0.9-0.9-0.9
			h-11c-2.5,0-4.6,2-4.6,4.4v13.1c0,2.5,2,4.4,4.6,4.4h1.9V43C13.9,43.4,14.1,43.7,14.4,43.8z"/>
		<path class="st8" d="M28.1,18.8V5.6c0-1.5,1.2-2.7,2.7-2.7H53c1.5,0,2.7,1.2,2.7,2.7v13.2c0,1.5-1.2,2.7-2.7,2.7h-2.9
			c-0.5,0-0.9,0.4-0.9,0.9v4.2L44,21.7c-0.2-0.2-0.4-0.3-0.6-0.3H30.8C29.3,21.5,28.1,20.3,28.1,18.8 M43,23.3l6.5,6.1
			c0.2,0.2,0.4,0.3,0.6,0.3c0.1,0,0.2,0,0.4-0.1c0.3-0.1,0.6-0.5,0.6-0.8v-5.4H53c2.5,0,4.6-2,4.6-4.5V5.6c0-2.5-2.1-4.5-4.6-4.5
			H30.8c-2.5,0-4.6,2-4.6,4.5v13.2c0,2.5,2.1,4.5,4.6,4.5H43z"/>
		<path class="st9" d="M28.1,18.8V5.6c0-1.5,1.2-2.7,2.7-2.7H53c1.5,0,2.7,1.2,2.7,2.7v13.2c0,1.5-1.2,2.7-2.7,2.7h-2.9
			c-0.5,0-0.9,0.4-0.9,0.9v4.2L44,21.7c-0.2-0.2-0.4-0.3-0.6-0.3H30.8C29.3,21.5,28.1,20.3,28.1,18.8z M43,23.3l6.5,6.1
			c0.2,0.2,0.4,0.3,0.6,0.3c0.1,0,0.2,0,0.4-0.1c0.3-0.1,0.6-0.5,0.6-0.8v-5.4H53c2.5,0,4.6-2,4.6-4.5V5.6c0-2.5-2.1-4.5-4.6-4.5
			H30.8c-2.5,0-4.6,2-4.6,4.5v13.2c0,2.5,2.1,4.5,4.6,4.5H43z"/>
		<path class="st8" d="M41.9,13.3c0.2,0,0.5-0.1,0.7-0.3c0.2-0.2,0.3-0.4,0.3-0.6c0-0.2-0.1-0.5-0.3-0.6c-0.2-0.2-0.4-0.3-0.7-0.3
			c-0.2,0-0.5,0.1-0.7,0.3c-0.2,0.2-0.3,0.4-0.3,0.6c0,0.2,0.1,0.5,0.3,0.6C41.4,13.2,41.7,13.3,41.9,13.3"/>
		<path class="st9" d="M41.9,13.3c0.2,0,0.5-0.1,0.7-0.3c0.2-0.2,0.3-0.4,0.3-0.6c0-0.2-0.1-0.5-0.3-0.6c-0.2-0.2-0.4-0.3-0.7-0.3
			c-0.2,0-0.5,0.1-0.7,0.3c-0.2,0.2-0.3,0.4-0.3,0.6c0,0.2,0.1,0.5,0.3,0.6C41.4,13.2,41.7,13.3,41.9,13.3z"/>
		<path class="st8" d="M45.4,13.3c0.2,0,0.5-0.1,0.7-0.3c0.2-0.2,0.3-0.4,0.3-0.6c0-0.2-0.1-0.5-0.3-0.6c-0.2-0.2-0.4-0.3-0.7-0.3
			c-0.2,0-0.5,0.1-0.7,0.3c-0.2,0.2-0.3,0.4-0.3,0.6c0,0.2,0.1,0.5,0.3,0.6C44.9,13.2,45.1,13.3,45.4,13.3"/>
		<path class="st9" d="M45.4,13.3c0.2,0,0.5-0.1,0.7-0.3c0.2-0.2,0.3-0.4,0.3-0.6c0-0.2-0.1-0.5-0.3-0.6c-0.2-0.2-0.4-0.3-0.7-0.3
			c-0.2,0-0.5,0.1-0.7,0.3c-0.2,0.2-0.3,0.4-0.3,0.6c0,0.2,0.1,0.5,0.3,0.6C44.9,13.2,45.1,13.3,45.4,13.3z"/>
		<path class="st8" d="M38.5,13.3c0.2,0,0.5-0.1,0.7-0.3c0.2-0.2,0.3-0.4,0.3-0.6c0-0.2-0.1-0.5-0.3-0.6c-0.2-0.2-0.4-0.3-0.7-0.3
			c-0.2,0-0.5,0.1-0.7,0.3c-0.2,0.2-0.3,0.4-0.3,0.6c0,0.2,0.1,0.5,0.3,0.6C38,13.2,38.2,13.3,38.5,13.3"/>
		<path class="st9" d="M38.5,13.3c0.2,0,0.5-0.1,0.7-0.3c0.2-0.2,0.3-0.4,0.3-0.6c0-0.2-0.1-0.5-0.3-0.6c-0.2-0.2-0.4-0.3-0.7-0.3
			c-0.2,0-0.5,0.1-0.7,0.3c-0.2,0.2-0.3,0.4-0.3,0.6c0,0.2,0.1,0.5,0.3,0.6C38,13.2,38.2,13.3,38.5,13.3z"/>
	</g>
</g>
<g id="Layer_6" class="st0">
	<g class="st3">
		<defs>
			<rect id="SVGID_9_" x="12.1" y="2.1" width="40.8" height="40.8"/>
		</defs>
		<clipPath id="SVGID_10_">
			<use xlink:href="#SVGID_9_"  style="overflow:visible;"/>
		</clipPath>
		<path class="st10" d="M40.4,17.7c0-7.1-5.7-12.7-12.7-12.7C20.5,5,15,10.7,15,17.7c0,7.1,5.7,12.7,12.7,12.7
			C34.7,30.4,40.4,24.7,40.4,17.7 M37.4,29.9c-3.9,2.9-8.2,4-12.9,3c-4-0.8-7.2-3-9.5-6.3c-4.4-6.2-3.7-14.7,1.8-20
			c5.8-5.7,14.7-5.9,20.8-0.9c6,4.9,8,14.4,2.4,21.6c0.5,0.5,0.9,0.9,1.4,1.4c0.9-0.4,1.8-0.4,2.7,0.1c0.3,0.2,0.5,0.4,0.8,0.6
			c2.3,2.3,4.7,4.7,7,7c1.4,1.4,1.4,3.1,0,4.4c-0.6,0.6-1.2,1.2-1.9,1.7c-1,0.6-2.1,0.4-3.1-0.3c-0.2-0.1-0.3-0.3-0.5-0.4
			c-2.3-2.3-4.6-4.6-7-7c-1-1-1.3-2.1-0.8-3.4c0-0.1,0-0.2,0-0.3C38.2,30.8,37.8,30.3,37.4,29.9"/>
		<path class="st10" d="M19.6,13.8c0,3.4,1.2,6.3,3.6,8.5c2.4,2.3,5.4,3.2,8.7,3c-2.6,1.9-7.1,2.3-10.4-0.5
			C18.2,22.2,17.4,17.3,19.6,13.8"/>
	</g>
</g>
</svg>
