<?xml version="1.0" encoding="utf-8"?>
<!-- Generator: Adobe Illustrator 20.1.0, SVG Export Plug-In . SVG Version: 6.00 Build 0)  -->
<svg version="1.1" xmlns="http://www.w3.org/2000/svg" xmlns:xlink="http://www.w3.org/1999/xlink" x="0px" y="0px"
	 viewBox="0 0 71 71" style="enable-background:new 0 0 71 71;" xml:space="preserve">
<style type="text/css">
	.st0{display:none;}
	.st1{display:inline;}
	.st2{clip-path:url(#SVGID_2_);fill:#42145F;}
	.st3{clip-path:url(#SVGID_2_);fill:#FFFFFF;}
	.st4{clip-path:url(#SVGID_4_);fill:#42145F;}
	.st5{clip-path:url(#SVGID_4_);fill:#FFFFFF;}
	.st6{clip-path:url(#SVGID_6_);fill:#42145F;}
	.st7{clip-path:url(#SVGID_6_);fill:#FFFFFF;}
	.st8{clip-path:url(#SVGID_8_);fill:#77256F;}
	.st9{clip-path:url(#SVGID_8_);fill:#FFFFFF;}
	.st10{clip-path:url(#SVGID_10_);fill:#42145F;}
	.st11{fill:#FFFFFF;}
	.st12{clip-path:url(#SVGID_12_);fill:#42145F;}
	.st13{clip-path:url(#SVGID_12_);fill:#FFFFFF;}
	.st14{clip-path:url(#SVGID_12_);fill:#3B2060;}
	.st15{clip-path:url(#SVGID_12_);}
	.st16{display:inline;fill:#C2B59B;}
	.st17{clip-path:url(#SVGID_14_);fill:#FFFFFF;}
	.st18{clip-path:url(#SVGID_16_);fill:#FFFFFF;}
	.st19{clip-path:url(#SVGID_18_);fill:#FFFFFF;}
	.st20{clip-path:url(#SVGID_20_);fill:#FFFFFF;}
	.st21{clip-path:url(#SVGID_24_);fill:#FFFFFF;}
	.st22{clip-path:url(#SVGID_24_);}
</style>
<g id="Layer_1" class="st0">
	<g class="st1">
		<defs>
			<rect id="SVGID_1_" x="0.5" y="0.5" width="70" height="70"/>
		</defs>
		<clipPath id="SVGID_2_">
			<use xlink:href="#SVGID_1_"  style="overflow:visible;"/>
		</clipPath>
		<path class="st2" d="M35.5,70.5c19.3,0,35-15.7,35-35s-15.7-35-35-35s-35,15.7-35,35S16.2,70.5,35.5,70.5"/>
		<path class="st3" d="M29.4,28.6c-0.7,0-1.3-0.6-1.3-1.3c0-0.7,0.6-1.4,1.4-1.3c0.7,0,1.3,0.6,1.3,1.4C30.7,28,30.1,28.6,29.4,28.6
			 M37.3,33.5c1.3-1.3,2.6-2.6,3.9-3.9c0.7,0.7,1.4,1.4,2.1,2.1c0.3,0.3,0.2,0.6,0,0.9c-1,1-2,2-3,3c-0.3,0.3-0.6,0.3-0.9,0
			C38.7,34.9,38,34.2,37.3,33.5 M23.5,19.7C23.5,19.7,23.4,19.7,23.5,19.7c-1.5-1.4-2.9-2.8-4.3-4.2c-0.4-0.4-0.4-0.7,0-1.1
			c0.9-0.9,1.9-1.9,2.8-2.8c0.4-0.4,0.8-0.4,1.2,0c0.8,0.8,1.7,1.7,2.5,2.5c0.6,0.6,1.1,1.1,1.7,1.7C26.1,17.1,24.8,18.4,23.5,19.7
			 M51,55.5c0,0.6,0,1.2,0,1.7c0,0.4-0.1,0.6-0.6,0.6c-8.9,0-17.8,0-26.7,0h-0.5c0-0.6,0-1.1,0-1.6c0-0.8-0.1-0.7,0.7-0.7
			c8.7,0,17.4,0,26.1,0H51z M30.8,28.4c0.1-0.1,0.1-0.2,0.1-0.2c0.5-0.9,0.4-1.7-0.3-2.3c-0.6-0.6-1.4-0.7-2.2-0.3
			c-0.3,0.1-0.4,0-0.5-0.1c-1.2-1.2-2.3-2.3-3.5-3.5c-0.5-0.5-0.5-0.8,0-1.4c1.3-1.3,2.6-2.6,3.9-3.9c0.6-0.6,0.8-0.6,1.4,0
			c3.2,3.2,6.3,6.3,9.5,9.5c0.4,0.4,0.8,0.8,1.2,1.3c0.3,0.4,0.4,0.7,0,1c-1.4,1.5-2.9,2.9-4.3,4.3c-0.3,0.3-0.7,0.3-1,0
			C33.7,31.3,32.3,29.9,30.8,28.4 M51,54.4H23.2c1.6-2.4,3.7-4.2,6.2-5.6c-4.3-2.3-7.1-5.7-7.7-10.6c-0.5-4.9,1.5-8.8,5.4-12
			c0.1,0.3,0.3,0.6,0.3,0.9c0.1,1.1,0.9,1.9,2,1.9c0.2,0,0.4,0.1,0.6,0.2c-0.2,0.2-0.3,0.3-0.5,0.4c-4.4,3.5-4.8,9.7-0.7,13.7
			c3.2,3.2,8.6,4,12.7,2c0.6-0.3,1.2-0.7,1.9-1.1c0-0.1,0-0.1-0.1-0.2h-5.3V41h17.4v3.2c-0.2,0-0.4,0-0.5,0c-1.7,0-3.4,0-5.1,0
			c-0.3,0-0.5,0.1-0.7,0.3c-1.1,1.5-2.5,2.7-4.1,3.7c-0.2,0.1-0.4,0.3-0.7,0.4C47.2,50,49.3,51.9,51,54.4"/>
		<path class="st3" d="M51,54.4c-1.7-2.5-3.8-4.4-6.5-5.7c0.3-0.2,0.5-0.3,0.7-0.4c1.6-1,3-2.2,4.1-3.7c0.2-0.2,0.4-0.3,0.7-0.3
			c1.7,0,3.4,0,5.1,0c0.2,0,0.3,0,0.5,0V41H38.2v3.2h5.3c0,0.1,0,0.1,0.1,0.2c-0.6,0.4-1.2,0.7-1.9,1.1c-4.2,2-9.5,1.2-12.7-2
			c-4-4-3.7-10.2,0.7-13.7c0.1-0.1,0.2-0.2,0.5-0.4c-0.3-0.1-0.4-0.2-0.6-0.2c-1.1,0-2-0.8-2-1.9c0-0.3-0.2-0.5-0.3-0.9
			c-3.9,3.2-6,7-5.4,12c0.5,4.9,3.4,8.2,7.7,10.6c-2.5,1.4-4.6,3.2-6.2,5.6H51z"/>
		<path class="st3" d="M30.8,28.4c1.5,1.5,2.9,2.9,4.3,4.3c0.3,0.3,0.7,0.3,1,0c1.5-1.4,2.9-2.9,4.3-4.3c0.3-0.3,0.3-0.7,0-1
			c-0.4-0.4-0.8-0.8-1.2-1.3c-3.2-3.2-6.3-6.3-9.5-9.5c-0.6-0.6-0.8-0.6-1.4,0c-1.3,1.3-2.6,2.6-3.9,3.9c-0.5,0.6-0.6,0.8,0,1.4
			c1.2,1.2,2.3,2.3,3.5,3.5c0.2,0.2,0.3,0.3,0.5,0.1c0.8-0.4,1.6-0.3,2.2,0.3c0.6,0.6,0.7,1.4,0.3,2.3
			C30.9,28.3,30.9,28.3,30.8,28.4"/>
		<path class="st3" d="M51,55.5h-1c-8.7,0-17.4,0-26.1,0c-0.8,0-0.7-0.1-0.7,0.7c0,0.5,0,1,0,1.6h0.5c8.9,0,17.8,0,26.7,0
			c0.5,0,0.6-0.1,0.6-0.6C51,56.6,51,56.1,51,55.5"/>
		<path class="st3" d="M23.5,19.7c1.3-1.3,2.6-2.6,3.9-3.9c-0.5-0.5-1.1-1.1-1.7-1.7c-0.8-0.8-1.7-1.7-2.5-2.5
			c-0.4-0.4-0.7-0.4-1.2,0c-0.9,0.9-1.9,1.9-2.8,2.8c-0.4,0.4-0.4,0.7,0,1.1C20.6,16.9,22,18.3,23.5,19.7
			C23.4,19.7,23.5,19.7,23.5,19.7"/>
		<path class="st3" d="M37.3,33.5c0.7,0.7,1.4,1.4,2.1,2.1c0.3,0.3,0.6,0.3,0.9,0c1-1,2-2,3-3c0.3-0.3,0.3-0.6,0-0.9
			c-0.7-0.7-1.4-1.4-2.1-2.1C39.9,30.9,38.6,32.2,37.3,33.5"/>
		<path class="st3" d="M29.4,28.6c0.8,0,1.3-0.6,1.3-1.3c0-0.7-0.6-1.3-1.3-1.4c-0.7,0-1.4,0.6-1.4,1.3C28,28,28.6,28.6,29.4,28.6"
			/>
	</g>
</g>
<g id="Layer_2" class="st0">
	<g class="st1">
		<defs>
			<rect id="SVGID_3_" x="0.5" y="0.5" width="70" height="70"/>
		</defs>
		<clipPath id="SVGID_4_">
			<use xlink:href="#SVGID_3_"  style="overflow:visible;"/>
		</clipPath>
		<path class="st4" d="M35.5,70.5c19.3,0,35-15.7,35-35s-15.7-35-35-35s-35,15.7-35,35S16.2,70.5,35.5,70.5"/>
		<path class="st5" d="M45.9,13.9c0.5,0.3,1,0.5,1.4,0.8c1,0.9,1.2,2.3,0.6,3.5c-0.6,1.2-1.9,1.8-3.2,1.5c-1.2-0.3-2.2-1.4-2.3-2.8
			c-0.1-1.2,0.8-2.5,2-2.9c0.1,0,0.3-0.1,0.4-0.2H45.9z"/>
		<path class="st5" d="M47.4,25.5c-0.9,0.8-1.8,1.6-2.7,2.3c-0.9,0.8-1.7,1.5-2.6,2.3c-1.6-1.8-3.6-2.9-6-3.2
			c0.2-1.8,0.4-3.6,0.7-5.4c0.2-1.5,0.1-3-1.2-4c-1.2-1-2.5-0.8-3.9-0.6c-1.1,0.2-2.2,0.4-3.3,0.6c-0.8,0.1-1.3-0.1-1.5-0.8
			c-0.2-0.7,0.1-1.4,0.8-1.6c1.1-0.3,2.2-0.6,3.3-0.7c3.5-0.3,6.9,0.3,10.1,1.9c0.4,0.2,0.7,0.5,0.7,1c0.2,2,2.3,3.5,4.3,3
			c0.5-0.1,0.8,0,1.1,0.4c1.8,2.2,3.2,4.5,4.3,7c0.8,1.8,0,3.2-1.9,3.6c-1.4,0.3-2.8,0.6-4.3,0.8c-0.8,0.2-1.5-0.3-1.6-1
			c-0.1-0.8,0.3-1.4,1.1-1.5c1.1-0.2,2.2-0.4,3.3-0.6c0.7-0.1,0.9-0.6,0.6-1.2C48.3,27.1,47.9,26.3,47.4,25.5"/>
		<path class="st5" d="M19.7,36.6c2.4-0.2,4.7-0.4,7-0.6c0.2,2.4,1.2,4.5,3,6.1c-1.4,1.5-2.7,2.9-4.1,4.3c-1.9,2-1.5,4.5,0.8,5.8
			c1.3,0.7,2.6,1.4,3.9,2c0.7,0.3,0.9,0.8,0.8,1.4c-0.2,0.7-0.6,1-1.4,1c-0.3,0-0.6-0.1-0.8-0.2c-4.3-1.7-7.5-4.7-9.5-8.8
			c-0.1-0.3-0.1-0.7,0-1c1-2,0.3-4.2-1.8-5.2c-0.2-0.1-0.5-0.4-0.5-0.7c-0.2-2.9,0-5.8,0.7-8.7c0.4-1.5,1.9-2.3,3.3-1.6
			c1.4,0.6,2.9,1.3,4.3,2c0.7,0.4,1,1.1,0.6,1.8c-0.3,0.6-1,0.8-1.8,0.5c-1-0.5-2-0.9-3-1.4c-0.7-0.3-1.1-0.1-1.3,0.6
			C19.9,34.8,19.8,35.6,19.7,36.6"/>
		<path class="st5" d="M29.5,21c0.9,2.2,1.8,4.3,2.8,6.5c-2.2,0.9-3.9,2.4-4.9,4.7c-1-0.5-1.9-0.9-2.8-1.3c-0.9-0.4-1.9-0.9-2.8-1.3
			c-2.2-1-4.4,0.1-4.9,2.4c-0.3,1.5-0.5,3.1-0.7,4.6c-0.1,0.7-0.5,1.2-1.1,1.2c-0.6,0-1.3-0.4-1.3-1.1c0-1.2,0.1-2.4,0.3-3.5
			c0.7-3.5,2.4-6.4,4.9-8.9c0.3-0.3,0.6-0.5,1.1-0.4c2.2,0.4,4-1,4.3-3.3c0-0.2,0.2-0.6,0.4-0.7c2.7-1.1,5.5-1.8,8.4-2
			c1.7-0.1,2.7,0.9,2.6,2.6c-0.1,1.6-0.4,3.2-0.6,4.8c-0.1,0.7-0.7,1.1-1.5,1c-0.7-0.1-1.1-0.6-1-1.4c0.1-1.1,0.3-2.2,0.4-3.3
			c0.1-0.8-0.3-1.2-1.1-1.1C31.2,20.6,30.5,20.8,29.5,21"/>
		<path class="st5" d="M31.5,50.8c0.3-1.2,0.5-2.4,0.8-3.5c0.3-1.1,0.5-2.2,0.8-3.4c1.5,0.3,3,0.4,4.5,0c0.6-0.2,1.1-0.4,1.6-0.6
			c0.5-0.2,0.7-0.2,1,0.3c0.8,1.5,1.6,3,2.4,4.5c1.4,2.6,3.8,3,6,1c1-0.9,2-1.9,2.9-2.9c0.6-0.6,1.1-0.7,1.7-0.3
			c0.6,0.5,0.8,1.3,0.2,1.9c-1.1,1.2-2.3,2.4-3.5,3.5c-2.2,1.7-4.8,2.7-7.6,3.2c-0.6,0.1-1.1,0-1.6-0.5c-1.4-1.5-3.8-1.4-5.2,0.2
			c-0.3,0.3-0.5,0.4-1,0.3c-2.7-0.7-5.3-1.7-7.7-3.2c-1.6-1-1.8-2.6-0.5-4c1-1,2-2.1,2.9-3.1c0.6-0.7,1.4-0.7,1.9-0.2
			c0.6,0.5,0.5,1.3-0.1,2c-0.7,0.8-1.4,1.5-2.2,2.3c-0.6,0.6-0.5,1.1,0.2,1.5C30,50.1,30.7,50.4,31.5,50.8"/>
		<path class="st5" d="M48.5,43.9c-1.9-1.2-3.9-2.3-5.9-3.5c0.1-0.2,0.1-0.3,0.2-0.4c1-1.7,1.4-3.6,1.1-5.6
			c-0.1-0.6,0.1-0.8,0.7-0.9c1.8-0.3,3.6-0.6,5.4-1c2.3-0.5,3.4-2.7,2.5-4.8c-0.6-1.4-1.3-2.7-2-4c-0.4-0.8-0.4-1.4,0.2-1.9
			c0.6-0.4,1.4-0.2,1.9,0.5c1.4,2.2,2.5,4.5,2.7,7.1c0.2,1.9,0,3.8,0,5.6c0,0.5-0.2,0.9-0.8,1.2c-1.9,0.9-2.6,3.2-1.5,5.1
			c0.2,0.4,0.2,0.6,0,1c-1.5,2.4-3.4,4.6-5.6,6.5c-1.2,1.1-2.9,0.8-3.7-0.6c-0.8-1.3-1.5-2.7-2.2-4c-0.4-0.8-0.2-1.5,0.4-1.9
			c0.7-0.4,1.4-0.1,1.8,0.7c0.5,0.9,1,1.9,1.5,2.8c0.4,0.7,0.8,0.8,1.4,0.2c0.6-0.6,1.3-1.1,1.9-1.6C48.7,44.1,48.6,44,48.5,43.9"/>
		<path class="st5" d="M13.4,44.8c0-1.6,1.3-2.9,2.9-2.9c1.6,0,2.9,1.4,2.9,3c0,1.6-1.4,2.9-3,2.9C14.6,47.7,13.4,46.4,13.4,44.8"/>
		<path class="st5" d="M23.6,20.3c0,1.6-1.3,2.9-2.9,2.9c-1.6,0-2.9-1.4-2.9-2.9c0-1.6,1.3-2.9,2.9-2.9
			C22.3,17.3,23.6,18.6,23.6,20.3"/>
		<path class="st5" d="M59.1,39.3c0,1.6-1.3,2.9-2.9,2.9c-1.6,0-2.9-1.4-2.9-2.9c0-1.6,1.3-2.9,3-2.9C57.9,36.4,59.1,37.7,59.1,39.3
			"/>
		<path class="st5" d="M41.2,56.6c0,1.6-1.3,2.9-2.9,2.9c-1.6,0-2.9-1.4-2.9-3c0-1.6,1.3-2.9,2.9-2.9C40,53.7,41.2,55,41.2,56.6"/>
	</g>
</g>
<g id="Layer_3" class="st0">
	<g class="st1">
		<defs>
			<rect id="SVGID_5_" x="0.5" y="0.5" width="70" height="70"/>
		</defs>
		<clipPath id="SVGID_6_">
			<use xlink:href="#SVGID_5_"  style="overflow:visible;"/>
		</clipPath>
		<path class="st6" d="M35.5,70.5c19.3,0,35-15.7,35-35s-15.7-35-35-35s-35,15.7-35,35S16.2,70.5,35.5,70.5"/>
		<path class="st7" d="M36.6,39.3v6c0.6-0.4,1.2-0.8,1.8-1.2c1.1-0.7,1.2-1.7,0.7-2.9C38.6,40.2,37.7,39.7,36.6,39.3 M34.3,39.2
			c-1.1,0.4-2,0.8-2.6,1.8c-0.4,0.7-0.6,1.5-0.2,2.3c0.2,0.3,0.5,0.6,0.8,0.8c0.6,0.4,1.3,0.8,1.9,1.3V39.2z M13.6,24.6L13.6,24.6
			c1.3,0.1,2.7-0.1,3.9-0.5c2.4-0.7,4.4-2,6.3-3.6c1.1-0.9,2.1-2,3.2-2.9c0.5-0.5,1.1-0.9,1.8-0.7c0.6,0.1,0.9,0.6,1.2,1
			c0.4,0.5,0.7,1,1,1.5c0.7,1,1.7,1.5,3.1,1.4c-0.1-0.2-0.2-0.3-0.3-0.4c-0.2-0.2-0.4-0.3-0.6-0.4c-1.3-1.2-1.3-3.5,0.1-4.6
			c0.5-0.4,1.1-0.6,1.7-0.8h0.8c0.2,0.1,0.5,0.1,0.7,0.2c1.1,0.4,1.8,1.2,2,2.3c0.3,1.4-0.3,2.5-1.5,3.3c-0.1,0.1-0.2,0.2-0.3,0.4
			c1.6,0.1,2.6-0.5,3.3-1.8c0.3-0.5,0.7-1.1,1.1-1.6c0.2-0.3,0.6-0.5,0.9-0.6c0.6-0.2,1.1,0.1,1.5,0.4c0.6,0.5,1.2,1.1,1.8,1.6
			c1.7,1.7,3.6,3.2,5.8,4.3c2,1,4,1.5,6.2,1.3v0.1c0,0-0.1,0.1-0.1,0.1c-1,1.7-2.5,2.4-4.4,2.2c-0.3,0-0.5,0-0.7,0.2
			c-0.2,0.2-0.4,0.3-0.7,0.4c-1.3,0.6-2.5,0.5-3.8,0.1c-0.1,0-0.3-0.1-0.4,0c-1.2,0.8-2.5,0.7-3.8,0.2c-0.3-0.1-0.4-0.1-0.7,0
			c-1.1,0.6-2.3,0.7-3.5,0.1c-0.1,0-0.3,0-0.4,0c-0.6,0.3-1.2,0.6-1.9,0.5c-0.1,0-0.2,0-0.4,0v7.5c0.2,0,0.3-0.1,0.5-0.1
			c1.7-0.4,3.4-0.8,5.1-1.3c1.3-0.4,2.6-0.8,3.8-1.5c0.2-0.1,0.3-0.2,0.6-0.4c-0.5-0.1-0.8-0.3-1.2-0.4c-1.9-0.3-3.8-0.4-5.7-0.3
			c-0.9,0-1.5-0.3-1.7-1c-0.2-0.5,0-1,0.5-1.1c0.3-0.1,0.7-0.2,1.1-0.2c1.6,0,3.1,0,4.7,0.1c1.1,0.1,2.2,0.3,3.2,0.5
			c0.8,0.2,1.6,0.5,2.1,1.2c0.8,0.9,0.9,1.5,0.3,2.4c-0.3,0.4-0.7,0.8-1.1,1.1c-1,0.7-2.2,1.2-3.4,1.5c-1.7,0.5-3.5,0.9-5.3,1.3
			c-0.2,0-0.3,0.1-0.6,0.2c0.1,0.1,0.2,0.2,0.3,0.2c1,0.8,1.7,1.8,2.1,3.1c0.3,1.1,0.1,2.1-0.6,3.1c-0.6,0.9-1.5,1.6-2.4,2.2
			c-0.5,0.3-1,0.7-1.5,1c0,0,0,0.1,0,0.1c0,0,0.1,0.1,0.1,0.1c1.1,0.8,2.2,1.6,3,2.8c1,1.3,1.2,2.6,0.5,4.1
			c-0.7,1.3-1.7,2.3-2.9,3.1c-0.4,0.3-0.8,0.5-1.2,0.8H37c0.2-0.4,0.4-0.8,0.6-1.1c0.6-1.1,1.2-2.1,1.4-3.4c0.1-0.5,0.1-0.9-0.1-1.3
			c-0.4-1.1-1.1-1.8-1.9-2.5c-0.2-0.2-0.4-0.3-0.6-0.5c0,0.2,0,0.3,0,0.4c0,1.8,0,3.5-0.1,5.3c0,0.2,0,0.4-0.1,0.6
			c-0.1,0.4-0.4,0.7-0.8,0.7c-0.4,0-0.8-0.2-0.9-0.7c-0.1-0.2-0.1-0.4-0.1-0.6c0-1.8,0-3.7-0.1-5.5c0-0.1,0-0.2,0-0.3
			c0,0-0.1,0-0.1-0.1c-0.6,0.6-1.3,1.1-1.8,1.8c-1,1-1.2,2.3-0.7,3.6c0.4,0.9,0.8,1.7,1.2,2.6c0.2,0.4,0.4,0.7,0.6,1.1
			c-0.2-0.1-0.3-0.2-0.5-0.3c-1.5-0.9-2.8-2-3.6-3.6c-0.6-1.1-0.6-2.2,0-3.4c0.5-1,1.2-1.7,2-2.4c0.5-0.4,1.1-0.8,1.6-1.3
			c0,0,0-0.1,0-0.1c-0.2-0.1-0.3-0.2-0.5-0.3c-1.3-0.8-2.6-1.7-3.5-3c-0.5-0.7-0.8-1.5-0.6-2.4c0.3-1.5,1-2.7,2.2-3.6
			c0.1-0.1,0.2-0.2,0.3-0.3c-0.8-0.2-1.4-0.3-2.1-0.4c-2-0.4-3.9-0.9-5.8-1.7c-0.8-0.4-1.6-0.8-2.2-1.5c-0.4-0.5-0.7-1-0.6-1.7
			c0.1-0.6,0.5-1.1,1-1.5c0.9-0.7,2-1,3.2-1.1c2-0.2,3.9-0.3,5.9-0.3c0.5,0,1.1,0.1,1.6,0.3c0.5,0.1,0.7,0.7,0.5,1.2
			c-0.3,0.6-0.8,1-1.6,0.9c-1.9-0.1-3.8,0-5.7,0.3c-0.4,0.1-0.8,0.2-1.1,0.3c0,0.1,0,0.1,0,0.2c3.2,1.7,6.7,2.3,10.1,3.2v-7.6
			c-0.9,0.1-1.7-0.1-2.4-0.6c-0.1,0-0.2,0-0.3,0.1c-1.2,0.6-2.3,0.5-3.4-0.1c-0.3-0.1-0.5-0.2-0.8,0c-1.2,0.5-2.4,0.5-3.6-0.1
			c-0.2-0.1-0.4-0.1-0.6,0c-1.5,0.6-2.9,0.5-4.3-0.4c-0.4-0.3-0.7-0.3-1.2-0.3c-1.2,0.1-2.4-0.2-3.3-1.1
			C14.2,25.4,13.9,25,13.6,24.6"/>
	</g>
</g>
<g id="Layer_4" class="st0">
	<g class="st1">
		<defs>
			<rect id="SVGID_7_" x="0.5" y="0.5" width="70" height="70"/>
		</defs>
		<clipPath id="SVGID_8_">
			<use xlink:href="#SVGID_7_"  style="overflow:visible;"/>
		</clipPath>
		<path class="st8" d="M35.5,70.5c19.3,0,35-15.7,35-35s-15.7-35-35-35s-35,15.7-35,35S16.2,70.5,35.5,70.5"/>
		<path class="st9" d="M43.3,30.7c0-7-5.6-12.6-12.6-12.6c-7.1,0-12.6,5.7-12.6,12.6c0,7,5.6,12.6,12.6,12.6
			C37.7,43.3,43.4,37.6,43.3,30.7 M40.3,42.8c-3.8,2.9-8.1,3.9-12.7,3c-3.9-0.8-7.1-2.9-9.4-6.2c-4.3-6.1-3.6-14.5,1.8-19.8
			c5.8-5.7,14.6-5.9,20.6-0.9c6,4.9,7.9,14.2,2.4,21.4c0.5,0.5,0.9,0.9,1.4,1.4c0.8-0.4,1.8-0.4,2.7,0.1c0.3,0.2,0.5,0.4,0.7,0.6
			c2.3,2.3,4.6,4.6,6.9,6.9c1.4,1.4,1.4,3,0,4.4c-0.6,0.6-1.2,1.2-1.9,1.7c-1,0.6-2.1,0.4-3-0.3c-0.2-0.1-0.3-0.3-0.4-0.4
			c-2.3-2.3-4.6-4.6-6.9-6.9c-1-1-1.3-2.1-0.8-3.4c0-0.1,0-0.2,0-0.3C41.2,43.7,40.7,43.3,40.3,42.8"/>
		<path class="st9" d="M22.7,26.9c0,3.4,1.1,6.2,3.6,8.5c2.4,2.3,5.3,3.2,8.6,3c-2.6,1.9-7,2.2-10.3-0.5
			C21.4,35.2,20.5,30.3,22.7,26.9"/>
	</g>
</g>
<g id="Layer_5" class="st0">
	<g class="st1">
		<g>
			<defs>
				<rect id="SVGID_9_" x="0.5" y="0.5" width="70" height="70"/>
			</defs>
			<clipPath id="SVGID_10_">
				<use xlink:href="#SVGID_9_"  style="overflow:visible;"/>
			</clipPath>
			<path class="st10" d="M35.5,70.5c19.3,0,35-15.7,35-35s-15.7-35-35-35s-35,15.7-35,35S16.2,70.5,35.5,70.5"/>
		</g>
		<polygon class="st11" points="55.4,29.9 41.1,29.9 41.1,15.6 29.9,15.6 29.9,29.9 15.6,29.9 15.6,41.1 29.9,41.1 29.9,55.4 
			41.1,55.4 41.1,41.1 55.4,41.1 		"/>
	</g>
</g>
<g id="Layer_6" class="st0">
	<g class="st1">
		<defs>
			<rect id="SVGID_11_" x="0.5" y="0.5" width="70" height="70"/>
		</defs>
		<clipPath id="SVGID_12_">
			<use xlink:href="#SVGID_11_"  style="overflow:visible;"/>
		</clipPath>
		<path class="st12" d="M35.5,70.5c19.3,0,35-15.7,35-35s-15.7-35-35-35s-35,15.7-35,35S16.2,70.5,35.5,70.5"/>
		<path class="st13" d="M28.3,18c-4-0.1-6.7,6.2-4.7,10.5C23.9,24.4,25.6,21.1,28.3,18 M29.5,14.9c1.4,0.5,2.8,1,4.2,1.6
			c1.4,1,2.7,0.5,4-0.1c2.1-0.9,4.2-1.8,6.5-1.7c0.1,0,0.2,0,0.3,0c0.1,0.1,0.3,0.1,0.4,0.2c2,1,3.4,2.5,4.5,4.5
			c2.2,4.7,0.9,9.3-0.8,13.8c-0.1,0.2-0.1,0.3-0.2,0.5c-1.7,2.6-1.5,5.4-1.2,8.3c0.5,3.8,0.7,7.7-0.1,11.5c-0.2,0.9-0.6,1.9-1.1,2.7
			c-0.8,1.1-1.9,1-2.5-0.3c-0.8-1.9-1.3-3.9-2.1-5.8c-0.8-1.9-1.5-3.8-2.5-5.5c-2.1-3.2-5.3-3.3-7.2,0c-1.3,2.2-2.1,4.8-3.1,7.2
			c-0.6,1.4-0.9,2.8-1.6,4.1c-0.6,1.4-1.7,1.5-2.7,0.3c-1.4-1.6-1.6-3.7-1.6-5.7c0-3.1,0.3-6.2,0.5-9.3c0.1-1.2,0.4-2.4,0.5-3.5
			c0-0.3-0.1-0.6-0.2-0.8c-1.5-3.4-3-6.9-3.4-10.7c-0.4-4.2,0.7-7.8,4.1-10.4C26,14.4,27.8,14.6,29.5,14.9"/>
		<path class="st14" d="M44.3,14.6c-2.4-0.1-4.4,0.8-6.5,1.7c-1.3,0.6-2.6,1.1-4,0.1c1.4-0.4,2.9-0.7,4.3-1.2c1.9-0.6,3.7-1.6,5.7-1
			C44,14.4,44.1,14.5,44.3,14.6"/>
		<path class="st15" d="M45.1,14.9c-0.1-0.1-0.3-0.1-0.4-0.2C44.8,14.7,44.9,14.8,45.1,14.9"/>
		<path class="st12" d="M28.3,18c-2.7,3.1-4.4,6.4-4.7,10.5C21.6,24.2,24.4,17.9,28.3,18"/>
	</g>
</g>
<g id="Layer_13" class="st0">
	<rect class="st16" width="71" height="71"/>
</g>
<g id="Layer_1_copy" class="st0">
	<g class="st1">
		<defs>
			<rect id="SVGID_13_" x="0.5" y="0.5" width="70" height="70"/>
		</defs>
		<clipPath id="SVGID_14_">
			<use xlink:href="#SVGID_13_"  style="overflow:visible;"/>
		</clipPath>
		<path class="st17" d="M29.4,28.6c-0.7,0-1.3-0.6-1.3-1.3c0-0.7,0.6-1.4,1.4-1.3c0.7,0,1.3,0.6,1.3,1.4
			C30.7,28,30.1,28.6,29.4,28.6 M37.3,33.5c1.3-1.3,2.6-2.6,3.9-3.9c0.7,0.7,1.4,1.4,2.1,2.1c0.3,0.3,0.2,0.6,0,0.9c-1,1-2,2-3,3
			c-0.3,0.3-0.6,0.3-0.9,0C38.7,34.9,38,34.2,37.3,33.5 M23.5,19.7C23.5,19.7,23.4,19.7,23.5,19.7c-1.5-1.4-2.9-2.8-4.3-4.2
			c-0.4-0.4-0.4-0.7,0-1.1c0.9-0.9,1.9-1.9,2.8-2.8c0.4-0.4,0.8-0.4,1.2,0c0.8,0.8,1.7,1.7,2.5,2.5c0.6,0.6,1.1,1.1,1.7,1.7
			C26.1,17.1,24.8,18.4,23.5,19.7 M51,55.5c0,0.6,0,1.2,0,1.7c0,0.4-0.1,0.6-0.6,0.6c-8.9,0-17.8,0-26.7,0h-0.5c0-0.6,0-1.1,0-1.6
			c0-0.8-0.1-0.7,0.7-0.7c8.7,0,17.4,0,26.1,0H51z M30.8,28.4c0.1-0.1,0.1-0.2,0.1-0.2c0.5-0.9,0.4-1.7-0.3-2.3
			c-0.6-0.6-1.4-0.7-2.2-0.3c-0.3,0.1-0.4,0-0.5-0.1c-1.2-1.2-2.3-2.3-3.5-3.5c-0.5-0.5-0.5-0.8,0-1.4c1.3-1.3,2.6-2.6,3.9-3.9
			c0.6-0.6,0.8-0.6,1.4,0c3.2,3.2,6.3,6.3,9.5,9.5c0.4,0.4,0.8,0.8,1.2,1.3c0.3,0.4,0.4,0.7,0,1c-1.4,1.5-2.9,2.9-4.3,4.3
			c-0.3,0.3-0.7,0.3-1,0C33.7,31.3,32.3,29.9,30.8,28.4 M51,54.4H23.2c1.6-2.4,3.7-4.2,6.2-5.6c-4.3-2.3-7.1-5.7-7.7-10.6
			c-0.5-4.9,1.5-8.8,5.4-12c0.1,0.3,0.3,0.6,0.3,0.9c0.1,1.1,0.9,1.9,2,1.9c0.2,0,0.4,0.1,0.6,0.2c-0.2,0.2-0.3,0.3-0.5,0.4
			c-4.4,3.5-4.8,9.7-0.7,13.7c3.2,3.2,8.6,4,12.7,2c0.6-0.3,1.2-0.7,1.9-1.1c0-0.1,0-0.1-0.1-0.2h-5.3V41h17.4v3.2
			c-0.2,0-0.4,0-0.5,0c-1.7,0-3.4,0-5.1,0c-0.3,0-0.5,0.1-0.7,0.3c-1.1,1.5-2.5,2.7-4.1,3.7c-0.2,0.1-0.4,0.3-0.7,0.4
			C47.2,50,49.3,51.9,51,54.4"/>
		<path class="st17" d="M51,54.4c-1.7-2.5-3.8-4.4-6.5-5.7c0.3-0.2,0.5-0.3,0.7-0.4c1.6-1,3-2.2,4.1-3.7c0.2-0.2,0.4-0.3,0.7-0.3
			c1.7,0,3.4,0,5.1,0c0.2,0,0.3,0,0.5,0V41H38.2v3.2h5.3c0,0.1,0,0.1,0.1,0.2c-0.6,0.4-1.2,0.7-1.9,1.1c-4.2,2-9.5,1.2-12.7-2
			c-4-4-3.7-10.2,0.7-13.7c0.1-0.1,0.2-0.2,0.5-0.4c-0.3-0.1-0.4-0.2-0.6-0.2c-1.1,0-2-0.8-2-1.9c0-0.3-0.2-0.5-0.3-0.9
			c-3.9,3.2-6,7-5.4,12c0.5,4.9,3.4,8.2,7.7,10.6c-2.5,1.4-4.6,3.2-6.2,5.6H51z"/>
		<path class="st17" d="M30.8,28.4c1.5,1.5,2.9,2.9,4.3,4.3c0.3,0.3,0.7,0.3,1,0c1.5-1.4,2.9-2.9,4.3-4.3c0.3-0.3,0.3-0.7,0-1
			c-0.4-0.4-0.8-0.8-1.2-1.3c-3.2-3.2-6.3-6.3-9.5-9.5c-0.6-0.6-0.8-0.6-1.4,0c-1.3,1.3-2.6,2.6-3.9,3.9c-0.5,0.6-0.6,0.8,0,1.4
			c1.2,1.2,2.3,2.3,3.5,3.5c0.2,0.2,0.3,0.3,0.5,0.1c0.8-0.4,1.6-0.3,2.2,0.3c0.6,0.6,0.7,1.4,0.3,2.3
			C30.9,28.3,30.9,28.3,30.8,28.4"/>
		<path class="st17" d="M51,55.5h-1c-8.7,0-17.4,0-26.1,0c-0.8,0-0.7-0.1-0.7,0.7c0,0.5,0,1,0,1.6h0.5c8.9,0,17.8,0,26.7,0
			c0.5,0,0.6-0.1,0.6-0.6C51,56.6,51,56.1,51,55.5"/>
		<path class="st17" d="M23.5,19.7c1.3-1.3,2.6-2.6,3.9-3.9c-0.5-0.5-1.1-1.1-1.7-1.7c-0.8-0.8-1.7-1.7-2.5-2.5
			c-0.4-0.4-0.7-0.4-1.2,0c-0.9,0.9-1.9,1.9-2.8,2.8c-0.4,0.4-0.4,0.7,0,1.1C20.6,16.9,22,18.3,23.5,19.7
			C23.4,19.7,23.5,19.7,23.5,19.7"/>
		<path class="st17" d="M37.3,33.5c0.7,0.7,1.4,1.4,2.1,2.1c0.3,0.3,0.6,0.3,0.9,0c1-1,2-2,3-3c0.3-0.3,0.3-0.6,0-0.9
			c-0.7-0.7-1.4-1.4-2.1-2.1C39.9,30.9,38.6,32.2,37.3,33.5"/>
		<path class="st17" d="M29.4,28.6c0.8,0,1.3-0.6,1.3-1.3c0-0.7-0.6-1.3-1.3-1.4c-0.7,0-1.4,0.6-1.4,1.3C28,28,28.6,28.6,29.4,28.6"
			/>
	</g>
</g>
<g id="Layer_2_copy" class="st0">
	<g class="st1">
		<defs>
			<rect id="SVGID_15_" x="0.5" y="0.5" width="70" height="70"/>
		</defs>
		<clipPath id="SVGID_16_">
			<use xlink:href="#SVGID_15_"  style="overflow:visible;"/>
		</clipPath>
		<path class="st18" d="M45.9,13.9c0.5,0.3,1,0.5,1.4,0.8c1,0.9,1.2,2.3,0.6,3.5c-0.6,1.2-1.9,1.8-3.2,1.5c-1.2-0.3-2.2-1.4-2.3-2.8
			c-0.1-1.2,0.8-2.5,2-2.9c0.1,0,0.3-0.1,0.4-0.2H45.9z"/>
		<path class="st18" d="M47.4,25.5c-0.9,0.8-1.8,1.6-2.7,2.3c-0.9,0.8-1.7,1.5-2.6,2.3c-1.6-1.8-3.6-2.9-6-3.2
			c0.2-1.8,0.4-3.6,0.7-5.4c0.2-1.5,0.1-3-1.2-4c-1.2-1-2.5-0.8-3.9-0.6c-1.1,0.2-2.2,0.4-3.3,0.6c-0.8,0.1-1.3-0.1-1.5-0.8
			c-0.2-0.7,0.1-1.4,0.8-1.6c1.1-0.3,2.2-0.6,3.3-0.7c3.5-0.3,6.9,0.3,10.1,1.9c0.4,0.2,0.7,0.5,0.7,1c0.2,2,2.3,3.5,4.3,3
			c0.5-0.1,0.8,0,1.1,0.4c1.8,2.2,3.2,4.5,4.3,7c0.8,1.8,0,3.2-1.9,3.6c-1.4,0.3-2.8,0.6-4.3,0.8c-0.8,0.2-1.5-0.3-1.6-1
			c-0.1-0.8,0.3-1.4,1.1-1.5c1.1-0.2,2.2-0.4,3.3-0.6c0.7-0.1,0.9-0.6,0.6-1.2C48.3,27.1,47.9,26.3,47.4,25.5"/>
		<path class="st18" d="M19.7,36.6c2.4-0.2,4.7-0.4,7-0.6c0.2,2.4,1.2,4.5,3,6.1c-1.4,1.5-2.7,2.9-4.1,4.3c-1.9,2-1.5,4.5,0.8,5.8
			c1.3,0.7,2.6,1.4,3.9,2c0.7,0.3,0.9,0.8,0.8,1.4c-0.2,0.7-0.6,1-1.4,1c-0.3,0-0.6-0.1-0.8-0.2c-4.3-1.7-7.5-4.7-9.5-8.8
			c-0.1-0.3-0.1-0.7,0-1c1-2,0.3-4.2-1.8-5.2c-0.2-0.1-0.5-0.4-0.5-0.7c-0.2-2.9,0-5.8,0.7-8.7c0.4-1.5,1.9-2.3,3.3-1.6
			c1.4,0.6,2.9,1.3,4.3,2c0.7,0.4,1,1.1,0.6,1.8c-0.3,0.6-1,0.8-1.8,0.5c-1-0.5-2-0.9-3-1.4c-0.7-0.3-1.1-0.1-1.3,0.6
			C19.9,34.8,19.8,35.6,19.7,36.6"/>
		<path class="st18" d="M29.5,21c0.9,2.2,1.8,4.3,2.8,6.5c-2.2,0.9-3.9,2.4-4.9,4.7c-1-0.5-1.9-0.9-2.8-1.3
			c-0.9-0.4-1.9-0.9-2.8-1.3c-2.2-1-4.4,0.1-4.9,2.4c-0.3,1.5-0.5,3.1-0.7,4.6c-0.1,0.7-0.5,1.2-1.1,1.2c-0.6,0-1.3-0.4-1.3-1.1
			c0-1.2,0.1-2.4,0.3-3.5c0.7-3.5,2.4-6.4,4.9-8.9c0.3-0.3,0.6-0.5,1.1-0.4c2.2,0.4,4-1,4.3-3.3c0-0.2,0.2-0.6,0.4-0.7
			c2.7-1.1,5.5-1.8,8.4-2c1.7-0.1,2.7,0.9,2.6,2.6c-0.1,1.6-0.4,3.2-0.6,4.8c-0.1,0.7-0.7,1.1-1.5,1c-0.7-0.1-1.1-0.6-1-1.4
			c0.1-1.1,0.3-2.2,0.4-3.3c0.1-0.8-0.3-1.2-1.1-1.1C31.2,20.6,30.5,20.8,29.5,21"/>
		<path class="st18" d="M31.5,50.8c0.3-1.2,0.5-2.4,0.8-3.5c0.3-1.1,0.5-2.2,0.8-3.4c1.5,0.3,3,0.4,4.5,0c0.6-0.2,1.1-0.4,1.6-0.6
			c0.5-0.2,0.7-0.2,1,0.3c0.8,1.5,1.6,3,2.4,4.5c1.4,2.6,3.8,3,6,1c1-0.9,2-1.9,2.9-2.9c0.6-0.6,1.1-0.7,1.7-0.3
			c0.6,0.5,0.8,1.3,0.2,1.9c-1.1,1.2-2.3,2.4-3.5,3.5c-2.2,1.7-4.8,2.7-7.6,3.2c-0.6,0.1-1.1,0-1.6-0.5c-1.4-1.5-3.8-1.4-5.2,0.2
			c-0.3,0.3-0.5,0.4-1,0.3c-2.7-0.7-5.3-1.7-7.7-3.2c-1.6-1-1.8-2.6-0.5-4c1-1,2-2.1,2.9-3.1c0.6-0.7,1.4-0.7,1.9-0.2
			c0.6,0.5,0.5,1.3-0.1,2c-0.7,0.8-1.4,1.5-2.2,2.3c-0.6,0.6-0.5,1.1,0.2,1.5C30,50.1,30.7,50.4,31.5,50.8"/>
		<path class="st18" d="M48.5,43.9c-1.9-1.2-3.9-2.3-5.9-3.5c0.1-0.2,0.1-0.3,0.2-0.4c1-1.7,1.4-3.6,1.1-5.6
			c-0.1-0.6,0.1-0.8,0.7-0.9c1.8-0.3,3.6-0.6,5.4-1c2.3-0.5,3.4-2.7,2.5-4.8c-0.6-1.4-1.3-2.7-2-4c-0.4-0.8-0.4-1.4,0.2-1.9
			c0.6-0.4,1.4-0.2,1.9,0.5c1.4,2.2,2.5,4.5,2.7,7.1c0.2,1.9,0,3.8,0,5.6c0,0.5-0.2,0.9-0.8,1.2c-1.9,0.9-2.6,3.2-1.5,5.1
			c0.2,0.4,0.2,0.6,0,1c-1.5,2.4-3.4,4.6-5.6,6.5c-1.2,1.1-2.9,0.8-3.7-0.6c-0.8-1.3-1.5-2.7-2.2-4c-0.4-0.8-0.2-1.5,0.4-1.9
			c0.7-0.4,1.4-0.1,1.8,0.7c0.5,0.9,1,1.9,1.5,2.8c0.4,0.7,0.8,0.8,1.4,0.2c0.6-0.6,1.3-1.1,1.9-1.6C48.7,44.1,48.6,44,48.5,43.9"/>
		<path class="st18" d="M13.4,44.8c0-1.6,1.3-2.9,2.9-2.9c1.6,0,2.9,1.4,2.9,3c0,1.6-1.4,2.9-3,2.9C14.6,47.7,13.4,46.4,13.4,44.8"
			/>
		<path class="st18" d="M23.6,20.3c0,1.6-1.3,2.9-2.9,2.9c-1.6,0-2.9-1.4-2.9-2.9c0-1.6,1.3-2.9,2.9-2.9
			C22.3,17.3,23.6,18.6,23.6,20.3"/>
		<path class="st18" d="M59.1,39.3c0,1.6-1.3,2.9-2.9,2.9c-1.6,0-2.9-1.4-2.9-2.9c0-1.6,1.3-2.9,3-2.9
			C57.9,36.4,59.1,37.7,59.1,39.3"/>
		<path class="st18" d="M41.2,56.6c0,1.6-1.3,2.9-2.9,2.9c-1.6,0-2.9-1.4-2.9-3c0-1.6,1.3-2.9,2.9-2.9C40,53.7,41.2,55,41.2,56.6"/>
	</g>
</g>
<g id="Layer_3_copy" class="st0">
	<g class="st1">
		<defs>
			<rect id="SVGID_17_" x="0.5" y="0.5" width="70" height="70"/>
		</defs>
		<clipPath id="SVGID_18_">
			<use xlink:href="#SVGID_17_"  style="overflow:visible;"/>
		</clipPath>
		<path class="st19" d="M36.6,39.3v6c0.6-0.4,1.2-0.8,1.8-1.2c1.1-0.7,1.2-1.7,0.7-2.9C38.6,40.2,37.7,39.7,36.6,39.3 M34.3,39.2
			c-1.1,0.4-2,0.8-2.6,1.8c-0.4,0.7-0.6,1.5-0.2,2.3c0.2,0.3,0.5,0.6,0.8,0.8c0.6,0.4,1.3,0.8,1.9,1.3V39.2z M13.6,24.6L13.6,24.6
			c1.3,0.1,2.7-0.1,3.9-0.5c2.4-0.7,4.4-2,6.3-3.6c1.1-0.9,2.1-2,3.2-2.9c0.5-0.5,1.1-0.9,1.8-0.7c0.6,0.1,0.9,0.6,1.2,1
			c0.4,0.5,0.7,1,1,1.5c0.7,1,1.7,1.5,3.1,1.4c-0.1-0.2-0.2-0.3-0.3-0.4c-0.2-0.2-0.4-0.3-0.6-0.4c-1.3-1.2-1.3-3.5,0.1-4.6
			c0.5-0.4,1.1-0.6,1.7-0.8h0.8c0.2,0.1,0.5,0.1,0.7,0.2c1.1,0.4,1.8,1.2,2,2.3c0.3,1.4-0.3,2.5-1.5,3.3c-0.1,0.1-0.2,0.2-0.3,0.4
			c1.6,0.1,2.6-0.5,3.3-1.8c0.3-0.5,0.7-1.1,1.1-1.6c0.2-0.3,0.6-0.5,0.9-0.6c0.6-0.2,1.1,0.1,1.5,0.4c0.6,0.5,1.2,1.1,1.8,1.6
			c1.7,1.7,3.6,3.2,5.8,4.3c2,1,4,1.5,6.2,1.3v0.1c0,0-0.1,0.1-0.1,0.1c-1,1.7-2.5,2.4-4.4,2.2c-0.3,0-0.5,0-0.7,0.2
			c-0.2,0.2-0.4,0.3-0.7,0.4c-1.3,0.6-2.5,0.5-3.8,0.1c-0.1,0-0.3-0.1-0.4,0c-1.2,0.8-2.5,0.7-3.8,0.2c-0.3-0.1-0.4-0.1-0.7,0
			c-1.1,0.6-2.3,0.7-3.5,0.1c-0.1,0-0.3,0-0.4,0c-0.6,0.3-1.2,0.6-1.9,0.5c-0.1,0-0.2,0-0.4,0v7.5c0.2,0,0.3-0.1,0.5-0.1
			c1.7-0.4,3.4-0.8,5.1-1.3c1.3-0.4,2.6-0.8,3.8-1.5c0.2-0.1,0.3-0.2,0.6-0.4c-0.5-0.1-0.8-0.3-1.2-0.4c-1.9-0.3-3.8-0.4-5.7-0.3
			c-0.9,0-1.5-0.3-1.7-1c-0.2-0.5,0-1,0.5-1.1c0.3-0.1,0.7-0.2,1.1-0.2c1.6,0,3.1,0,4.7,0.1c1.1,0.1,2.2,0.3,3.2,0.5
			c0.8,0.2,1.6,0.5,2.1,1.2c0.8,0.9,0.9,1.5,0.3,2.4c-0.3,0.4-0.7,0.8-1.1,1.1c-1,0.7-2.2,1.2-3.4,1.5c-1.7,0.5-3.5,0.9-5.3,1.3
			c-0.2,0-0.3,0.1-0.6,0.2c0.1,0.1,0.2,0.2,0.3,0.2c1,0.8,1.7,1.8,2.1,3.1c0.3,1.1,0.1,2.1-0.6,3.1c-0.6,0.9-1.5,1.6-2.4,2.2
			c-0.5,0.3-1,0.7-1.5,1c0,0,0,0.1,0,0.1c0,0,0.1,0.1,0.1,0.1c1.1,0.8,2.2,1.6,3,2.8c1,1.3,1.2,2.6,0.5,4.1
			c-0.7,1.3-1.7,2.3-2.9,3.1c-0.4,0.3-0.8,0.5-1.2,0.8H37c0.2-0.4,0.4-0.8,0.6-1.1c0.6-1.1,1.2-2.1,1.4-3.4c0.1-0.5,0.1-0.9-0.1-1.3
			c-0.4-1.1-1.1-1.8-1.9-2.5c-0.2-0.2-0.4-0.3-0.6-0.5c0,0.2,0,0.3,0,0.4c0,1.8,0,3.5-0.1,5.3c0,0.2,0,0.4-0.1,0.6
			c-0.1,0.4-0.4,0.7-0.8,0.7c-0.4,0-0.8-0.2-0.9-0.7c-0.1-0.2-0.1-0.4-0.1-0.6c0-1.8,0-3.7-0.1-5.5c0-0.1,0-0.2,0-0.3
			c0,0-0.1,0-0.1-0.1c-0.6,0.6-1.3,1.1-1.8,1.8c-1,1-1.2,2.3-0.7,3.6c0.4,0.9,0.8,1.7,1.2,2.6c0.2,0.4,0.4,0.7,0.6,1.1
			c-0.2-0.1-0.3-0.2-0.5-0.3c-1.5-0.9-2.8-2-3.6-3.6c-0.6-1.1-0.6-2.2,0-3.4c0.5-1,1.2-1.7,2-2.4c0.5-0.4,1.1-0.8,1.6-1.3
			c0,0,0-0.1,0-0.1c-0.2-0.1-0.3-0.2-0.5-0.3c-1.3-0.8-2.6-1.7-3.5-3c-0.5-0.7-0.8-1.5-0.6-2.4c0.3-1.5,1-2.7,2.2-3.6
			c0.1-0.1,0.2-0.2,0.3-0.3c-0.8-0.2-1.4-0.3-2.1-0.4c-2-0.4-3.9-0.9-5.8-1.7c-0.8-0.4-1.6-0.8-2.2-1.5c-0.4-0.5-0.7-1-0.6-1.7
			c0.1-0.6,0.5-1.1,1-1.5c0.9-0.7,2-1,3.2-1.1c2-0.2,3.9-0.3,5.9-0.3c0.5,0,1.1,0.1,1.6,0.3c0.5,0.1,0.7,0.7,0.5,1.2
			c-0.3,0.6-0.8,1-1.6,0.9c-1.9-0.1-3.8,0-5.7,0.3c-0.4,0.1-0.8,0.2-1.1,0.3c0,0.1,0,0.1,0,0.2c3.2,1.7,6.7,2.3,10.1,3.2v-7.6
			c-0.9,0.1-1.7-0.1-2.4-0.6c-0.1,0-0.2,0-0.3,0.1c-1.2,0.6-2.3,0.5-3.4-0.1c-0.3-0.1-0.5-0.2-0.8,0c-1.2,0.5-2.4,0.5-3.6-0.1
			c-0.2-0.1-0.4-0.1-0.6,0c-1.5,0.6-2.9,0.5-4.3-0.4c-0.4-0.3-0.7-0.3-1.2-0.3c-1.2,0.1-2.4-0.2-3.3-1.1
			C14.2,25.4,13.9,25,13.6,24.6"/>
	</g>
</g>
<g id="Layer_4_copy" class="st0">
	<g class="st1">
		<defs>
			<rect id="SVGID_19_" x="0.5" y="0.5" width="70" height="70"/>
		</defs>
		<clipPath id="SVGID_20_">
			<use xlink:href="#SVGID_19_"  style="overflow:visible;"/>
		</clipPath>
		<path class="st20" d="M43.3,30.7c0-7-5.6-12.6-12.6-12.6c-7.1,0-12.6,5.7-12.6,12.6c0,7,5.6,12.6,12.6,12.6
			C37.7,43.3,43.4,37.6,43.3,30.7 M40.3,42.8c-3.8,2.9-8.1,3.9-12.7,3c-3.9-0.8-7.1-2.9-9.4-6.2c-4.3-6.1-3.6-14.5,1.8-19.8
			c5.8-5.7,14.6-5.9,20.6-0.9c6,4.9,7.9,14.2,2.4,21.4c0.5,0.5,0.9,0.9,1.4,1.4c0.8-0.4,1.8-0.4,2.7,0.1c0.3,0.2,0.5,0.4,0.7,0.6
			c2.3,2.3,4.6,4.6,6.9,6.9c1.4,1.4,1.4,3,0,4.4c-0.6,0.6-1.2,1.2-1.9,1.7c-1,0.6-2.1,0.4-3-0.3c-0.2-0.1-0.3-0.3-0.4-0.4
			c-2.3-2.3-4.6-4.6-6.9-6.9c-1-1-1.3-2.1-0.8-3.4c0-0.1,0-0.2,0-0.3C41.2,43.7,40.7,43.3,40.3,42.8"/>
		<path class="st20" d="M22.7,26.9c0,3.4,1.1,6.2,3.6,8.5c2.4,2.3,5.3,3.2,8.6,3c-2.6,1.9-7,2.2-10.3-0.5
			C21.4,35.2,20.5,30.3,22.7,26.9"/>
	</g>
</g>
<g id="Layer_5_copy">
	<g>
		<g>
			<defs>
				<rect id="SVGID_21_" x="0.5" y="0.5" width="70" height="70"/>
			</defs>
			<clipPath id="SVGID_22_">
				<use xlink:href="#SVGID_21_"  style="overflow:visible;"/>
			</clipPath>
		</g>
		<polygon class="st11" points="55.4,29.9 41.1,29.9 41.1,15.6 29.9,15.6 29.9,29.9 15.6,29.9 15.6,41.1 29.9,41.1 29.9,55.4 
			41.1,55.4 41.1,41.1 55.4,41.1 		"/>
	</g>
</g>
<g id="Layer_6_copy" class="st0">
	<g class="st1">
		<defs>
			<rect id="SVGID_23_" x="0.5" y="0.5" width="70" height="70"/>
		</defs>
		<clipPath id="SVGID_24_">
			<use xlink:href="#SVGID_23_"  style="overflow:visible;"/>
		</clipPath>
		<path class="st21" d="M28.3,18c-4-0.1-6.7,6.2-4.7,10.5C23.9,24.4,25.6,21.1,28.3,18 M29.5,14.9c1.4,0.5,2.8,1,4.2,1.6
			c1.4,1,2.7,0.5,4-0.1c2.1-0.9,4.2-1.8,6.5-1.7c0.1,0,0.2,0,0.3,0c0.1,0.1,0.3,0.1,0.4,0.2c2,1,3.4,2.5,4.5,4.5
			c2.2,4.7,0.9,9.3-0.8,13.8c-0.1,0.2-0.1,0.3-0.2,0.5c-1.7,2.6-1.5,5.4-1.2,8.3c0.5,3.8,0.7,7.7-0.1,11.5c-0.2,0.9-0.6,1.9-1.1,2.7
			c-0.8,1.1-1.9,1-2.5-0.3c-0.8-1.9-1.3-3.9-2.1-5.8c-0.8-1.9-1.5-3.8-2.5-5.5c-2.1-3.2-5.3-3.3-7.2,0c-1.3,2.2-2.1,4.8-3.1,7.2
			c-0.6,1.4-0.9,2.8-1.6,4.1c-0.6,1.4-1.7,1.5-2.7,0.3c-1.4-1.6-1.6-3.7-1.6-5.7c0-3.1,0.3-6.2,0.5-9.3c0.1-1.2,0.4-2.4,0.5-3.5
			c0-0.3-0.1-0.6-0.2-0.8c-1.5-3.4-3-6.9-3.4-10.7c-0.4-4.2,0.7-7.8,4.1-10.4C26,14.4,27.8,14.6,29.5,14.9"/>
		<path class="st22" d="M45.1,14.9c-0.1-0.1-0.3-0.1-0.4-0.2C44.8,14.7,44.9,14.8,45.1,14.9"/>
	</g>
</g>
</svg>
