<?xml version="1.0" encoding="utf-8"?>
<!-- Generator: Adobe Illustrator 20.1.0, SVG Export Plug-In . SVG Version: 6.00 Build 0)  -->
<svg version="1.1" xmlns="http://www.w3.org/2000/svg" xmlns:xlink="http://www.w3.org/1999/xlink" x="0px" y="0px"
	 viewBox="0 0 50 50" style="enable-background:new 0 0 50 50;" xml:space="preserve">
<style type="text/css">
	.st0{display:none;}
	.st1{display:inline;fill:#C2B59B;}
	.st2{display:inline;}
	.st3{clip-path:url(#SVGID_2_);fill:#FFFFFF;}
	.st4{fill:#FFFFFF;}
	.st5{fill:none;}
	.st6{clip-path:url(#SVGID_4_);fill:#FFFFFF;}
	.st7{clip-path:url(#SVGID_6_);fill:#FFFFFF;}
	.st8{clip-path:url(#SVGID_8_);fill:#FFFFFF;}
</style>
<g id="Layer_7" class="st0">
	<rect x="0" class="st1" width="50" height="50"/>
</g>
<g id="Layer_1" class="st0">
	<g class="st2">
		<defs>
			<rect id="SVGID_1_" x="7.8" y="5.5" width="34.4" height="39"/>
		</defs>
		<clipPath id="SVGID_2_">
			<use xlink:href="#SVGID_1_"  style="overflow:visible;"/>
		</clipPath>
		<path class="st3" d="M26.9,15.2c2.2-0.9,4.5-1.7,6.8-2c1.6-0.3,3.3-0.4,4.9,0c1.6,0.4,2.9,1.3,3.4,2.9c0.4,1.3,0.2,2.5-0.3,3.7
			c-0.7,1.7-1.7,3.1-2.9,4.4c-2.9,3.2-6.3,5.7-10,7.8c-3.3,1.9-6.7,3.4-10.3,4.4c-1.9,0.5-3.8,0.8-5.8,0.7c-1.2-0.1-2.3-0.4-3.2-1.1
			c-1.5-1.1-2-2.8-1.5-4.7c0.4-1.4,1.1-2.7,2-3.9c1.6-2.1,3.5-3.9,5.6-5.6c0,0,0.1,0,0,0c0,0.9-0.1,1.9,0,2.8
			c0.1,0.8-0.2,1.3-0.8,1.8c-1.3,1.1-2.4,2.4-3.2,3.9c-0.4,0.6-0.6,1.3-0.8,2c-0.2,0.8,0.1,1.3,0.8,1.5c0.9,0.3,1.9,0.4,2.8,0.3
			c3-0.3,5.8-1.2,8.5-2.5c4.5-2,8.5-4.6,12.1-7.9c1.3-1.3,2.6-2.6,3.5-4.2c0.3-0.6,0.5-1.2,0.7-1.8c0.2-0.6-0.1-1.1-0.7-1.4
			c-0.7-0.3-1.5-0.4-2.3-0.3c-1.9,0-3.7,0.5-5.5,1.1c-0.3,0.1-0.5,0.1-0.8-0.1C28.9,16.3,27.9,15.8,26.9,15.2"/>
		<path class="st3" d="M17.6,31.9c-0.1-1-0.2-1.8-0.3-2.7c-0.2-2.4-0.2-4.9-0.1-7.3c0.3-3.9,0.8-7.7,2.3-11.4
			c0.6-1.4,1.3-2.8,2.5-3.8c1.9-1.7,4.2-1.6,6,0.2c1.1,1.1,1.8,2.4,2.4,3.8c0.2,0.5,0.3,0.9,0.5,1.4c-1,0.3-1.9,0.6-2.8,0.9
			c-0.4-0.8-0.7-1.7-1.1-2.4c-0.3-0.6-0.8-1.2-1.3-1.7c-0.5-0.5-1.2-0.5-1.7,0c-0.8,0.6-1.2,1.5-1.6,2.4c-0.9,2-1.4,4-1.8,6.1
			c-0.5,2.9-0.7,5.8-0.6,8.7c0,1.6,0.2,3.3,0.3,5C19.5,31.3,18.6,31.6,17.6,31.9"/>
		<path class="st3" d="M19,37.9c0.9-0.3,1.8-0.6,2.8-0.9c0.1,0.3,0.2,0.6,0.3,0.9c0.4,1,0.9,2,1.6,2.9c0.9,1,1.7,1,2.6,0
			c1-1.1,1.5-2.5,2-3.9c0.3-1,0.5-2,0.8-2.9c0-0.1,0.1-0.3,0.2-0.4c1-0.6,2.1-1.3,3.2-1.9c-0.1,0.5-0.1,0.9-0.2,1.3
			c-0.4,2.6-1.1,5.2-2.3,7.6c-0.5,1-1.1,1.9-1.9,2.6c-1.9,1.8-4.3,1.8-6.2,0c-1.3-1.2-2-2.8-2.7-4.4c-0.1-0.2-0.2-0.5-0.2-0.7
			C19,38,19,37.9,19,37.9"/>
		<path class="st3" d="M17,13.2c-0.2,1-0.4,2-0.7,2.9c-0.5-0.1-1-0.1-1.5-0.2c-1-0.1-1.9-0.1-2.9,0.1c-1.2,0.3-1.5,0.9-1.2,2.1
			c0.3,1.2,1,2.1,1.8,3.1c0.1,0.2,0.3,0.4,0.5,0.6c-0.7,0.7-1.4,1.3-2.2,2c-1.5-1.8-2.9-3.6-3.1-6c-0.2-1.8,0.7-3.6,2.9-4.4
			c1.3-0.5,2.6-0.5,4-0.4C15.4,13,16.2,13.1,17,13.2"/>
		<path class="st3" d="M39.1,26.2c1.4,1.8,2.8,3.5,3.1,5.8c0.3,2.1-0.7,3.8-2.7,4.6c-0.8,0.3-1.7,0.5-2.6,0.5
			c-1.3,0-2.6-0.1-3.9-0.4c0.2-1,0.4-1.9,0.7-2.9c0.7,0.1,1.3,0.2,1.9,0.2c0.8,0,1.6,0,2.3-0.1c1.2-0.2,1.6-0.9,1.2-2.1
			c-0.3-1-0.8-1.8-1.4-2.6c-0.3-0.3-0.5-0.7-0.8-1C37.6,27.5,38.3,26.9,39.1,26.2"/>
		<path class="st3" d="M22.8,15c4.3,1.8,8.2,4.1,11.9,6.9c-0.4,0.4-0.8,0.8-1.3,1.2c-0.3,0.3-0.6,0.7-1,0.7c-0.3,0-0.7-0.4-1-0.6
			c-2.8-2-5.7-3.7-8.9-5.1c-0.3-0.1-0.4-0.3-0.3-0.6C22.4,16.8,22.6,15.9,22.8,15"/>
		<path class="st3" d="M27.9,25c0,1.7-1.3,3-3,3c-1.6,0-3-1.3-3-2.9c0-1.8,1.3-3.1,3-3.1C26.5,22,27.9,23.3,27.9,25"/>
	</g>
</g>
<g id="Layer_2">
	<g>
		<path class="st4" d="M30.7,10.7c-0.1-0.1-0.2-0.2-0.4-0.2c-0.5-0.2-0.6-0.5-0.6-1c0-0.4-0.1-0.6-0.4-0.8c-0.9-0.8-1.9-0.9-3.1-0.8
			c-0.1,0-0.2,0-0.2,0.1c-0.3,0.2-0.6,0.1-0.9,0c-0.5-0.2-1.1-0.4-1.6-0.5c-0.5-0.1-1.1,0-1.6,0c-0.2,0-0.4,0.2-0.6,0.3
			c0,0-0.1,0.1-0.1,0.2c0.1,0.3,0.1,0.5,0.2,0.8c0.1,0.2,0.2,0.3,0.2,0.5c0,0.2,0,0.3-0.2,0.4c-0.2,0.1-0.3,0.1-0.5,0
			c-0.4-0.4-0.6-0.8-0.7-1.4c0-0.1,0-0.2,0-0.3c0-0.2-0.1-0.3-0.3-0.3c-0.7,0.1-1.4,0.3-2,0.7c0,0,0,0-0.1,0.1
			c0.3,0.1,0.6,0.1,0.8,0.2C18.9,8.8,19,8.9,19.1,9c0.2,0.2,0.1,0.5-0.2,0.5c-0.2,0-0.4,0-0.6-0.1c-0.4,0-0.8-0.1-1.1-0.1
			c-0.2,0-0.3-0.1-0.5-0.1c-0.1,0-0.3,0-0.4,0.1c-0.2,0.1-0.3,0.2-0.5,0.4c-0.4,0.4-0.9,0.8-1.3,1.2c0,0,0,0-0.1,0.1
			c0.2,0,0.3,0,0.5,0c0.5-0.1,0.9,0,1.4,0.1c0.1,0,0.3,0.2,0.4,0.3c0.1,0.1,0,0.3-0.1,0.2c-0.7-0.1-1.4,0-2,0.1c-0.2,0-0.4,0-0.6,0
			c-0.2,0-0.3,0.1-0.4,0.2c-0.2,0.5-0.5,0.9-0.6,1.4c-0.1,0.3-0.1,0.6-0.1,1c0,0.1,0.1,0.2,0.2,0.2c0.2,0.2,0.5,0.2,0.8,0.1
			c0.4-0.1,0.7-0.3,1-0.4c0.1,0,0.1,0,0.2,0c0,0.1,0,0.1,0,0.2c-0.2,0.5-0.6,1-1.2,1.1c-0.3,0-0.6,0-0.8,0c-0.2,0-0.3,0-0.3,0.2
			c0,0.3,0,0.6,0,0.9c0,0.2,0.1,0.2,0.2,0.2c0.1,0,0.3-0.1,0.4-0.1c0.4,0,0.8,0,1.1,0.1c0.5,0.1,0.9,0.7,0.9,1.1
			c0,0.2-0.1,0.4-0.3,0.4c-0.2,0-0.3-0.1-0.4-0.3c-0.1-0.3-0.3-0.4-0.6-0.4c-0.3,0-0.6,0-0.9,0c-0.2,0-0.2,0.1-0.1,0.3
			c0.2,0.4,0.4,0.9,0.6,1.3c0.3,0.6,0.8,1.1,1.4,1.5c0.6,0.3,1.2,0.5,1.9,0.6c1.2,0.2,2.3-0.2,3.4-0.5c0.1,0,0.2-0.1,0.3-0.2
			c0.4-0.2,0.7-0.5,1.1-0.8c0,0,0.1-0.1,0.1-0.1c-0.2-0.2-0.5-0.3-0.8-0.3c-0.7-0.1-1.3-0.1-1.9,0.2c-0.5,0.3-1.1,0.3-1.7,0.1
			c-0.5-0.2-0.8-0.5-1-1c-0.1-0.2,0-0.4,0.3-0.3c0.2,0.1,0.5,0.1,0.7,0.3c0.4,0.2,0.9,0.2,1.3,0.1c0.1,0,0.2-0.1,0.2-0.3
			c0-0.3-0.1-0.6-0.2-0.8c-0.1-0.1-0.2-0.2-0.2-0.3c0-0.1-0.1-0.2,0-0.3c0.1-0.1,0.2-0.2,0.3-0.1c0.2,0.1,0.4,0.1,0.5,0.3
			c0.2,0.3,0.3,0.5,0.4,0.9c0.1,0.3,0.1,0.3,0.4,0.3c0.4,0,0.8,0,1.2,0c0.4,0,0.8,0.2,1.1,0.6c0.1,0.2,0.2,0.2,0.4,0
			c0.3-0.3,0.6-0.5,0.6-1c0-0.1,0-0.2-0.1-0.3c-0.1-0.2,0-0.4,0.1-0.5c0.2-0.1,0.4-0.1,0.5,0c0.2,0.2,0.3,0.4,0.2,0.7
			c0,0.5,0.3,0.7,0.7,0.7c0.6,0,1-0.2,1.4-0.6c0.2-0.2,0.3-0.4,0.5-0.6c0.2-0.2,0.3-0.4,0.5-0.5c0.3-0.3,0.4-0.6,0-0.9
			c-0.7-0.5-1.3-0.5-2-0.2c-0.6,0.3-1.2,0.3-1.8,0c-0.7-0.3-1.4-0.7-1.7-1.5c0,0,0-0.1,0-0.1c0-0.2-0.1-0.3,0.1-0.4
			c0.2-0.1,0.3,0,0.4,0.1c0.5,0.4,0.9,0.9,1.5,1.1c0.2,0.1,0.4,0.1,0.6,0.1c0.2,0,0.4-0.1,0.3-0.3c-0.1-0.4-0.1-0.8-0.7-0.9
			c0,0,0,0,0,0c-0.2-0.1-0.4-0.1-0.4-0.3c0-0.2,0.2-0.3,0.5-0.3c0.4,0,0.7,0.1,0.9,0.4c0.2,0.3,0.4,0.6,0.4,0.9
			c0,0.2,0.1,0.3,0.3,0.3c0.4,0,0.9-0.1,1.3,0.2c0.4,0.2,0.7,0.4,1.1,0.7c0.2,0.1,0.3,0.4,0.4,0.6c0.1,0.2,0.1,0.3,0.3,0.2
			c0.5-0.1,0.9-0.2,1.2-0.6c0.1-0.1,0.2-0.3,0.2-0.5c0-0.3-0.1-0.5-0.1-0.8c-0.1-0.7-0.4-1.3-0.8-1.9c-0.2-0.3-0.6-0.5-1-0.4
			c-0.4,0.1-0.8,0.1-1.2,0.3c-1.1,0.4-2.1,0.2-2.9-1c-0.3-0.4-0.6-0.8-1.1-1c-0.1,0-0.2-0.2-0.2-0.3c0-0.1,0.1-0.2,0.2-0.3
			c0.4-0.1,0.7,0,1,0.3c0.4,0.3,0.8,0.6,1.1,0.9c0.5,0.5,1,0.6,1.6,0.4c0.4-0.1,0.8-0.2,1.2-0.3c0.2,0,0.2-0.1,0.1-0.2
			c-0.3-0.3-0.7-0.5-1.2-0.6c-0.3,0-0.6-0.1-0.8-0.3c-0.2-0.1-0.2-0.4,0-0.5c0.1-0.1,0.3-0.1,0.4-0.1c1,0.1,1.8,0.4,2.4,1.2
			c0.1,0.2,0.2,0.4,0.2,0.5c0.1,0.1,0.1,0.3,0.2,0.3c0.4,0.2,0.7,0.6,0.9,1c0.1,0.3,0.2,0.5,0.4,0.8c0.1,0.2,0.2,0.2,0.4,0.1
			c0.4-0.3,0.6-0.7,0.7-1.2C31.6,11.8,31.1,11.3,30.7,10.7z M21.5,13c-0.3,0-0.6-0.1-0.9-0.2c-0.4-0.1-0.8,0-1,0.4
			c-0.2,0.2-0.3,0.4-0.4,0.6c-0.1,0.2-0.1,0.4-0.1,0.6c0.1,0.1,0.1,0.3,0,0.4c0,0.5,0,0.5,0.4,0.7c0.4,0.2,0.7,0.5,1,0.9
			c0.1,0.2,0,0.3-0.1,0.4c-0.1,0-0.2,0-0.3-0.1c-0.3-0.2-0.7-0.4-1-0.6c-0.2-0.1-0.3-0.1-0.5,0.1c-0.1,0.1-0.3,0.3-0.5,0.4
			c-0.3,0.1-0.6,0-0.7-0.2c-0.1-0.2,0-0.4,0.2-0.6c0.4-0.2,0.5-0.6,0.5-1.1c0-0.2-0.1-0.3-0.2-0.3c-0.6-0.1-1.1-0.3-1.6-0.6
			c-0.2-0.1-0.3-0.2-0.4-0.4c-0.2-0.3,0-0.6,0.3-0.6c0.2,0,0.4,0.1,0.5,0.2c0.3,0.1,0.7,0.3,1,0.5c0.2,0.1,0.4,0,0.5-0.2
			c0.1-0.2,0.2-0.3,0.3-0.5c0.3-0.4,0.1-0.9-0.3-1.1c-0.2-0.1-0.4-0.2-0.5-0.3c-0.1,0-0.1-0.2-0.1-0.2c0-0.1,0.1-0.1,0.2-0.2
			c0.6-0.2,1.1,0.1,1.5,0.8c0.2,0.3,0.2,0.3,0.5,0.2c0.1,0,0.2,0,0.2,0c0,0,0,0,0,0c0.3,0.1,0.7,0.2,1,0.3c0.2,0.1,0.4,0.3,0.6,0.5
			c0.1,0,0.1,0.2,0.1,0.3C21.7,13,21.6,13,21.5,13z"/>
		<path class="st4" d="M42.1,23.8c-0.4-0.6-0.8-1.1-1.2-1.6c-0.6-0.8-1.3-1.6-1.9-2.4c-0.3-0.4-0.5-0.8-0.5-1.2c0-0.2,0-0.4-0.1-0.5
			c0-0.5-0.1-1-0.1-1.5c0-0.8-0.3-1.6-0.6-2.3c-0.4-0.7-0.7-1.4-0.9-2.1c-0.6-2.1-1.9-3.7-3.6-5c-1.7-1.3-3.7-2.1-5.8-2.5
			C25.3,4,23.2,3.9,21,4.1c-2,0.1-4,0.5-5.9,1.2c-2,0.8-3.6,2-4.8,3.8c-1,1.5-1.6,3.2-1.9,5C8,16.1,8,18.3,8.3,20.4
			c0.1,0.7,0.2,1.5,0.6,2.1c0.3,0.6,0.6,1.1,0.9,1.6c0.5,0.9,1.1,1.7,1.6,2.5c0.7,1.1,1.1,2.4,1,3.7c-0.1,0.7-0.1,1.4-0.2,2.1
			c-0.2,1.3-0.5,2.6-0.8,3.9c0,0.1,0,0.1,0,0.2c3.3,0.3,6.4,1.2,9.3,2.8c2.9,1.6,5.3,3.8,7.2,6.5c0-0.1,0-0.1,0-0.1
			c0.3-1.2,0.6-2.4,0.9-3.5c0.3-1,0.7-1.9,1.2-2.7c0.2-0.3,0.5-0.5,0.9-0.6c0.1,0,0.2,0,0.4-0.1c1.5-0.1,3.1-0.2,4.6-0.4
			c0.7-0.1,1.4-0.2,2-0.4c0.5-0.1,1-0.4,1.2-0.9c0.2-0.5,0.3-0.9,0.2-1.4c-0.1-0.7-0.3-1.3-0.5-2c-0.2-0.6-0.1-1.2,0.4-1.6
			c0.1-0.1,0.2-0.2,0.3-0.2c0.1-0.1,0.3-0.3,0.4-0.4c0.2-0.2,0.2-0.5,0-0.8c-0.1-0.1-0.2-0.3-0.3-0.4c0.2-0.2,0.5-0.4,0.7-0.6
			c0.1-0.1,0.1-0.2,0.1-0.4c-0.1-0.1-0.1-0.3-0.1-0.4c-0.2-0.5-0.2-1.1-0.2-1.7c0-0.4,0.2-0.7,0.6-0.9c0.5-0.2,0.9-0.5,1.2-0.9
			C42.4,24.9,42.5,24.4,42.1,23.8z M32.7,13.7c-0.2,0.4-0.5,0.8-0.7,1.2c-0.1,0.2-0.2,0.4-0.4,0.5c-0.2,0.2-0.3,0.3-0.3,0.6
			c0,0.2-0.1,0.5-0.2,0.6c-0.2,0.3-0.6,0.5-0.9,0.7c-0.3,0.2-0.7,0.3-1.1,0.5c-0.5,0.2-1,0.4-1.4,0.8c-0.5,0.3-0.9,0.6-1.4,0.9
			c-0.7,0.4-1.4,0.4-2.1,0.1c-0.3-0.1-0.4-0.1-0.5,0.2c-0.1,0.4-0.2,0.8-0.5,1c-0.6,0.5-1.3,1-2,1.4c-1.2,0.7-2.5,0.7-3.8,0.6
			c-0.3,0-0.7,0-1-0.1c-0.7-0.1-1.4-0.2-2-0.6c-0.6-0.5-1.1-0.9-1.7-1.4c-0.5-0.4-0.7-1-0.8-1.6c0-0.1,0-0.2,0-0.2
			c0-0.1,0-0.2,0-0.4c-0.3-0.7-0.4-1.4-0.4-2.1c0-0.6,0-1.2,0-2c0-0.3,0-0.8,0.2-1.2c0.4-1.4,1.3-2.5,2.5-3.3
			c0.8-0.6,1.6-1.1,2.3-1.7c1-0.7,2-1.2,3.2-1.1c0.1,0,0.2,0,0.3,0c0.3,0,0.5-0.1,0.7-0.2c0.4-0.4,1-0.5,1.5-0.5
			c0.6,0,1.2,0.1,1.8,0.2c0.6,0.1,1.3,0.2,1.8,0.6C25.6,7,25.7,7,25.8,7c0.5-0.2,1-0.1,1.5-0.1c1.4,0.1,2.5,0.8,3.2,2
			c0.3,0.5,0.7,0.9,1.1,1.3c0.2,0.1,0.3,0.3,0.5,0.5c0.3,0.5,0.5,1,0.6,1.5c0,0.2,0,0.4,0.1,0.6C32.8,13,32.8,13.4,32.7,13.7z"/>
	</g>
</g>
<g id="Layer_3" class="st0">
	<g class="st2">
		<path class="st5" d="M35.3,13.7c-2.2-2-5-3.4-8.1-3.8l1.4,7.8L35.3,13.7z"/>
		<path class="st5" d="M23.4,9.8c-3.1,0.4-5.9,1.6-8.1,3.5l6.4,4.2L23.4,9.8z"/>
		<path class="st5" d="M40.2,23.2c-0.3-2.9-1.5-5.6-3.2-7.8l-4.2,6.4L40.2,23.2z"/>
		<path class="st5" d="M13.5,15.2c-1.9,2.2-3.1,5-3.4,8.1l7.1-1.3L13.5,15.2z"/>
		<path class="st5" d="M15.2,36.3c2.2,1.9,4.9,3.2,8,3.6l-1.4-7.5L15.2,36.3z"/>
		<path class="st5" d="M36.8,34.7c1.9-2.2,3.1-5,3.5-8l-7.1,1.7L36.8,34.7z"/>
		<path class="st5" d="M27.1,39.9c3-0.4,5.7-1.6,7.8-3.4l-6.4-3.8L27.1,39.9z"/>
		<path class="st5" d="M10.1,26.7c0.3,2.9,1.5,5.5,3.2,7.6l3.7-6.2L10.1,26.7z"/>
		<path class="st5" d="M7.2,23.8c0.3-4.3,2-8.2,4.8-11.2l-1.2-2.1l2,1.3C15.8,9,19.7,7.3,24,7l1.5-6.8L26.7,7
			c4.3,0.4,8.2,2.3,11.2,5.2l2-1.2l-1.3,2c2.6,2.9,4.2,6.6,4.5,10.7l5.6,1V0.2H1.4v24.6l0.8-0.1L7.2,23.8z"/>
		<path class="st5" d="M43.1,26c-0.3,4.3-2.1,8.2-4.8,11.2l1.1,2l-0.6-0.3L37.4,38c-2.9,2.7-6.7,4.5-10.9,4.8l-1.4,7l-1.3-7
			c-4.3-0.3-8.1-2.2-11-5l-2.3,1.3l1.4-2.3C9.2,34,7.5,30.2,7.2,26.1l-5.9-1.3v24.9h47.3V24.7L43.1,26z"/>
		<path class="st4" d="M23.4,9.8l0.2-1.1c-3.5,0.3-6.7,1.8-9.2,4l0.9,0.6C17.6,11.5,20.3,10.2,23.4,9.8z"/>
		<path class="st4" d="M40.2,23.2l1.1,0.2C41,20,39.6,17,37.6,14.5L37,15.4C38.7,17.6,39.9,20.3,40.2,23.2z"/>
		<path class="st4" d="M12.6,13.6l-0.5-1c-2.8,3-4.5,6.9-4.8,11.2l1.1-0.2C8.6,19.8,10.2,16.3,12.6,13.6z"/>
		<path class="st4" d="M27.1,39.9L26.8,41c3.4-0.4,6.5-1.8,9-4l-0.9-0.6C32.7,38.3,30,39.6,27.1,39.9z"/>
		<path class="st4" d="M23.8,8L24,7c-4.3,0.3-8.2,2-11.1,4.8l0.9,0.6C16.5,9.9,20,8.4,23.8,8z"/>
		<path class="st4" d="M36.9,12.7l0.9-0.6C34.9,9.3,31,7.4,26.7,7l0.2,1.1C30.8,8.5,34.2,10.2,36.9,12.7z"/>
		<path class="st4" d="M15.2,36.3l-0.9,0.6c2.5,2.2,5.6,3.8,9.1,4.1l-0.2-1.1C20.2,39.5,17.4,38.2,15.2,36.3z"/>
		<path class="st4" d="M13.5,15.2l-0.5-1C10.8,16.8,9.3,20,9,23.5l1.1-0.2C10.4,20.2,11.6,17.5,13.5,15.2z"/>
		<path class="st4" d="M10.1,26.7L9,26.5c0.3,3.3,1.7,6.4,3.7,8.8l0.6-1C11.6,32.2,10.5,29.6,10.1,26.7z"/>
		<path class="st4" d="M35.3,13.7l0.9-0.6c-2.5-2.3-5.7-3.9-9.3-4.3l0.2,1.1C30.3,10.3,33.1,11.7,35.3,13.7z"/>
		<path class="st4" d="M37.7,36.2l0.6,0.9c2.8-3,4.6-6.9,4.8-11.2L42,26.3C41.7,30.1,40.1,33.6,37.7,36.2z"/>
		<path class="st4" d="M13.6,37.3l-0.9,0.6c2.9,2.8,6.8,4.6,11,5l-0.2-1.1C19.7,41.4,16.3,39.7,13.6,37.3z"/>
		<path class="st4" d="M42,23.5l1.1,0.2c-0.3-4.1-1.9-7.8-4.5-10.7L38,13.9C40.3,16.5,41.7,19.9,42,23.5z"/>
		<path class="st4" d="M26.7,41.7l-0.2,1.1c4.2-0.3,8-2.1,10.9-4.8l-0.9-0.6C33.8,39.8,30.4,41.4,26.7,41.7z"/>
		<path class="st4" d="M36.8,34.7l0.6,0.9c2.2-2.5,3.7-5.7,4-9.2l-1.1,0.3C39.9,29.7,38.6,32.4,36.8,34.7z"/>
		<path class="st4" d="M8.3,26.3l-1.1-0.2c0.3,4.1,2,7.9,4.6,10.8l0.6-0.9C10.1,33.3,8.6,30,8.3,26.3z"/>
		<path class="st4" d="M37.3,35.6l0.4,0.6c2.4-2.7,4-6.2,4.3-10l-0.7,0.2C41,29.9,39.5,33.1,37.3,35.6z"/>
		<path class="st4" d="M36.3,13.1l0.6-0.4c-2.7-2.6-6.1-4.3-10-4.7L27,8.8C30.6,9.2,33.8,10.8,36.3,13.1z"/>
		<path class="st4" d="M9,26.5l-0.7-0.2c0.3,3.7,1.8,7,4.1,9.6l0.4-0.6C10.7,32.9,9.4,29.8,9,26.5z"/>
		<path class="st4" d="M41.3,23.4l0.7,0.1c-0.3-3.7-1.8-7-4-9.6l-0.4,0.6C39.6,17,41,20,41.3,23.4z"/>
		<path class="st4" d="M26.8,41l-0.1,0.7c3.8-0.3,7.1-1.9,9.8-4.3l-0.6-0.4C33.4,39.2,30.3,40.7,26.8,41z"/>
		<path class="st4" d="M14.3,36.9l-0.6,0.4c2.7,2.5,6.1,4.1,9.9,4.5L23.4,41C19.9,40.6,16.8,39.1,14.3,36.9z"/>
		<path class="st4" d="M23.7,8.8L23.8,8c-3.8,0.3-7.3,1.9-10,4.4l0.6,0.4C16.9,10.6,20.1,9.1,23.7,8.8z"/>
		<path class="st4" d="M13,14.3l-0.4-0.7c-2.4,2.7-4,6.2-4.3,10L9,23.5C9.3,20,10.8,16.8,13,14.3z"/>
		<path class="st4" d="M43.1,24.9c0,0.3,0,0.5,0,0.8l3.7-0.9l-3.7,0C43.1,24.8,43.1,24.9,43.1,24.9z"/>
		<path class="st4" d="M40.3,24.8l-15,0L29,29l0,0l11.2-2.6C40.3,25.9,40.3,25.4,40.3,24.8C40.3,24.9,40.3,24.8,40.3,24.8z"/>
		<path class="st4" d="M41.4,24.8l-1.1,0c0,0,0,0.1,0,0.1c0,0.5,0,1-0.1,1.4l1.1-0.3C41.3,25.7,41.4,25.3,41.4,24.8
			C41.4,24.9,41.4,24.8,41.4,24.8z"/>
		<path class="st4" d="M43.1,24.8l-1,0c0,0,0,0.1,0,0.1c0,0.3,0,0.7-0.1,1l1.1-0.3c0-0.3,0-0.5,0-0.8C43.1,24.9,43.1,24.8,43.1,24.8
			z"/>
		<path class="st4" d="M42.1,24.8l-0.7,0c0,0,0,0.1,0,0.1c0,0.4,0,0.8-0.1,1.2l0.7-0.2C42.1,25.6,42.1,25.2,42.1,24.8
			C42.1,24.9,42.1,24.8,42.1,24.8z"/>
		<path class="st4" d="M38.3,12.7l0.3-0.5L38.3,12.7C38.3,12.7,38.3,12.7,38.3,12.7z"/>
		<path class="st4" d="M29.3,21.2l3.2,0.6l4.3-6.7c-0.2-0.2-0.4-0.4-0.5-0.6L29.3,21.2z"/>
		<path class="st4" d="M37.5,13.4c0.1,0.1,0.2,0.2,0.3,0.3l0.6-0.9c0,0-0.1-0.1-0.1-0.1L37.5,13.4z"/>
		<path class="st4" d="M36.2,14.6c0.2,0.2,0.4,0.4,0.5,0.6l0.6-0.9c-0.1-0.1-0.2-0.3-0.4-0.4L36.2,14.6z"/>
		<path class="st4" d="M37,13.8c0.1,0.1,0.3,0.3,0.4,0.4l0.4-0.6c-0.1-0.1-0.2-0.2-0.3-0.3L37,13.8z"/>
		<path class="st4" d="M29.2,29.4l-0.6,3l6.6,3.9c0.2-0.2,0.4-0.4,0.6-0.5L29.2,29.4z"/>
		<path class="st4" d="M37.7,37.8l0.5,0.3L37.7,37.8C37.7,37.7,37.7,37.7,37.7,37.8z"/>
		<path class="st4" d="M35.8,35.7c-0.2,0.2-0.4,0.4-0.6,0.5l0.9,0.6c0.1-0.1,0.3-0.2,0.4-0.4L35.8,35.7z"/>
		<path class="st4" d="M37,36.9c-0.1,0.1-0.2,0.2-0.3,0.3l0.9,0.6c0,0,0.1-0.1,0.1-0.1L37,36.9z"/>
		<path class="st4" d="M36.5,36.5c-0.1,0.1-0.3,0.3-0.4,0.4l0.6,0.4c0.1-0.1,0.2-0.2,0.3-0.3L36.5,36.5z"/>
		<path class="st4" d="M25.3,24.6l3.6-3.2l0,0l-2-11.6c-0.5-0.1-0.9-0.1-1.4-0.1L25.3,24.6z"/>
		<path class="st4" d="M26.4,7l-0.8-4.7l0,4.6C25.8,6.9,26.1,7,26.4,7z"/>
		<path class="st4" d="M25.5,8c0.4,0,0.7,0,1.1,0.1L26.4,7c-0.3,0-0.6,0-0.9,0L25.5,8z"/>
		<path class="st4" d="M25.5,9.7c0.5,0,0.9,0,1.4,0.1l-0.2-1.1c-0.4,0-0.8-0.1-1.2-0.1L25.5,9.7z"/>
		<path class="st4" d="M25.5,8.7c0.4,0,0.8,0,1.2,0.1L26.5,8c-0.3,0-0.7,0-1.1-0.1L25.5,8.7z"/>
		<path class="st4" d="M24.1,42.8l0.9,4.9l0-4.9C24.7,42.9,24.4,42.8,24.1,42.8z"/>
		<path class="st4" d="M25.2,24.9l-3.8,4l0,0L23.6,40c0.5,0.1,1,0.1,1.5,0.1L25.2,24.9z"/>
		<path class="st4" d="M25.1,41.8c-0.4,0-0.8,0-1.2-0.1l0.2,1.1c0.3,0,0.6,0,1,0L25.1,41.8z"/>
		<path class="st4" d="M25.1,40.1c-0.5,0-1,0-1.5-0.1l0.2,1.1c0.4,0,0.9,0.1,1.3,0.1L25.1,40.1z"/>
		<path class="st4" d="M25.1,41.1c-0.4,0-0.9,0-1.3-0.1l0.1,0.7c0.4,0,0.8,0.1,1.2,0.1L25.1,41.1z"/>
		<path class="st4" d="M25.1,24.7l-3.9-3.1l-0.1,0l-11.1,2c0,0.4-0.1,0.8-0.1,1.2L25.1,24.7z"/>
		<path class="st4" d="M7.2,24.1l-3.7,0.7l3.7,0C7.2,24.6,7.2,24.4,7.2,24.1z"/>
		<path class="st4" d="M8.2,24.8c0-0.3,0-0.6,0-0.8l-1.1,0.2c0,0.2,0,0.4,0,0.7L8.2,24.8z"/>
		<path class="st4" d="M10,24.8c0-0.4,0-0.8,0.1-1.2L9,23.8c0,0.3,0,0.6,0,1L10,24.8z"/>
		<path class="st4" d="M9,24.8c0-0.3,0-0.6,0-1l-0.7,0.1c0,0.3,0,0.6,0,0.8L9,24.8z"/>
		<path class="st4" d="M14.4,14.2l6.5,7l0.7-3.4l0,0.1l-0.1-0.1l-6.5-4.2C14.8,13.8,14.6,14,14.4,14.2z"/>
		<path class="st4" d="M12.6,12L12,11.6l0.5,0.5C12.5,12.1,12.6,12.1,12.6,12z"/>
		<path class="st4" d="M13.7,13.4l0.7,0.8c0.2-0.2,0.4-0.4,0.7-0.6L14.2,13C14,13.2,13.8,13.3,13.7,13.4z"/>
		<path class="st4" d="M13.2,12.9c0.1-0.1,0.2-0.2,0.3-0.3L12.6,12c0,0-0.1,0.1-0.1,0.1L13.2,12.9z"/>
		<path class="st4" d="M13.7,13.4c0.1-0.1,0.3-0.3,0.5-0.4l-0.6-0.4c-0.1,0.1-0.2,0.2-0.3,0.3L13.7,13.4z"/>
		<path class="st4" d="M12,37.1l-0.6,0.9l0.8-0.7C12.2,37.3,12.1,37.2,12,37.1z"/>
		<path class="st4" d="M21.1,29.1l-3.7-0.8l-3.8,6.4c0.2,0.3,0.5,0.5,0.7,0.8L21.1,29.1z"/>
		<path class="st4" d="M13,36.6c-0.1-0.1-0.3-0.3-0.4-0.4L12,37.1c0.1,0.1,0.1,0.1,0.2,0.2L13,36.6z"/>
		<path class="st4" d="M14.3,35.4c-0.3-0.3-0.5-0.5-0.7-0.8L13,35.6c0.2,0.2,0.3,0.4,0.5,0.6L14.3,35.4z"/>
		<path class="st4" d="M13.5,36.2c-0.2-0.2-0.4-0.4-0.5-0.6l-0.4,0.6c0.1,0.1,0.3,0.3,0.4,0.4L13.5,36.2z"/>
		<path class="st4" d="M33,28.3L33,28.3l7.2-1.6c0,0,0-0.1,0-0.1L33,28.3L33,28.3z"/>
		<polygon class="st4" points="1.4,24.9 1.4,24.9 1.4,24.9 		"/>
		<path class="st4" d="M21.8,17.6l-0.1,0.1l0.1,0l1.7-7.9c0,0-0.1,0-0.1,0L21.8,17.6L21.8,17.6z"/>
		<path class="st4" d="M17.2,22l-7.1,1.3c0,0,0,0.1,0,0.1L17.2,22L17.2,22z"/>
		<path class="st4" d="M21.8,32.4l1.4,7.5c0,0,0.1,0,0.1,0L21.8,32.4L21.8,32.4z"/>
		<path class="st4" d="M28.4,32.7l-1.5,7.3c0,0,0.1,0,0.1,0L28.4,32.7L28.4,32.7z"/>
		<path class="st4" d="M25.5,0.8L26.6,7c0,0,0.1,0,0.1,0l-1.2-6.8L24,7c0,0,0.1,0,0.1,0L25.5,0.8z"/>
		<polygon class="st4" points="48.6,24.7 48.6,24.7 48.6,24.7 		"/>
		<path class="st4" d="M43.1,23.8l5,0.9l-0.3,0.1l-4.7,1.1c0,0,0,0.1,0,0.1l5.6-1.3v0l-5.6-1C43.1,23.7,43.1,23.8,43.1,23.8z"/>
		<path class="st4" d="M32.8,22l7.5,1.3c0,0,0-0.1,0-0.1L32.8,22L32.8,22z"/>
		<path class="st4" d="M28.6,17.7l-1.4-7.8c0,0-0.1,0-0.1,0L28.6,17.7L28.6,17.7z"/>
		<path class="st4" d="M25.1,49.2l-1.2-6.4c0,0-0.1,0-0.1,0l1.3,7l1.4-7c0,0-0.1,0-0.1,0L25.1,49.2z"/>
		<path class="st4" d="M17.1,28.1l-7-1.5c0,0,0,0.1,0,0.1L17.1,28.1L17.1,28.1z"/>
		<path class="st4" d="M7.2,26l-5.3-1.1l0.3-0.1l5-0.9c0,0,0-0.1,0-0.1l-5,0.9l-0.8,0.1v0l5.9,1.3C7.2,26.1,7.2,26,7.2,26z"/>
		<path class="st4" d="M26.9,39.9L26.7,41c0,0,0.1,0,0.1,0l0.2-1.1C27,39.9,27,39.9,26.9,39.9z"/>
		<path class="st4" d="M8.3,26.2L7.2,26c0,0,0,0.1,0,0.1l1.1,0.2C8.3,26.3,8.3,26.3,8.3,26.2z"/>
		<path class="st4" d="M8.3,23.6l-1.1,0.2c0,0,0,0.1,0,0.1l1.1-0.2C8.3,23.7,8.3,23.6,8.3,23.6z"/>
		<path class="st4" d="M27.2,9.9L27,8.8c0,0-0.1,0-0.1,0l0.2,1.1C27.1,9.9,27.2,9.9,27.2,9.9z"/>
		<path class="st4" d="M23.5,9.8l0.2-1.1c0,0-0.1,0-0.1,0l-0.2,1.1C23.5,9.8,23.5,9.8,23.5,9.8z"/>
		<path class="st4" d="M23.2,39.9l0.2,1.1c0,0,0.1,0,0.1,0l-0.2-1.1C23.3,39.9,23.2,39.9,23.2,39.9z"/>
		<path class="st4" d="M40.2,23.3l1.1,0.2c0,0,0-0.1,0-0.1l-1.1-0.2C40.2,23.2,40.2,23.3,40.2,23.3z"/>
		<path class="st4" d="M42,23.6l1.1,0.2c0,0,0-0.1,0-0.1L42,23.5C42,23.6,42,23.6,42,23.6z"/>
		<path class="st4" d="M26.6,41.8l-0.2,1.1c0,0,0.1,0,0.1,0l0.2-1.1C26.7,41.7,26.6,41.7,26.6,41.8z"/>
		<path class="st4" d="M42,26.2c0,0,0,0.1,0,0.1l1.1-0.3c0,0,0-0.1,0-0.1L42,26.2z"/>
		<path class="st4" d="M26.8,8.1c0,0,0.1,0,0.1,0L26.7,7c0,0-0.1,0-0.1,0L26.8,8.1z"/>
		<path class="st4" d="M10.1,26.6L9,26.4c0,0,0,0.1,0,0.1l1.1,0.2C10.1,26.7,10.1,26.6,10.1,26.6z"/>
		<path class="st4" d="M10.1,23.3L9,23.5c0,0,0,0.1,0,0.1l1.1-0.2C10.1,23.4,10.1,23.3,10.1,23.3z"/>
		<path class="st4" d="M40.2,26.7l1.1-0.3c0,0,0-0.1,0-0.1l-1.1,0.3C40.2,26.6,40.2,26.6,40.2,26.7z"/>
		<path class="st4" d="M23.7,41.7c0,0-0.1,0-0.1,0l0.2,1.1c0,0,0.1,0,0.1,0L23.7,41.7z"/>
		<path class="st4" d="M23.9,8L24.1,7c0,0-0.1,0-0.1,0L23.8,8C23.8,8,23.9,8,23.9,8z"/>
		<path class="st4" d="M9,23.5l-0.7,0.1c0,0,0,0.1,0,0.1L9,23.6C9,23.5,9,23.5,9,23.5z"/>
		<path class="st4" d="M23.4,41l0.1,0.7c0,0,0.1,0,0.1,0L23.5,41C23.5,41,23.4,41,23.4,41z"/>
		<path class="st4" d="M9,26.4l-0.7-0.2c0,0,0,0.1,0,0.1L9,26.5C9,26.5,9,26.4,9,26.4z"/>
		<path class="st4" d="M26.7,41l-0.1,0.7c0,0,0.1,0,0.1,0l0.1-0.7C26.8,41,26.8,41,26.7,41z"/>
		<path class="st4" d="M41.3,26.4l0.7-0.2c0,0,0-0.1,0-0.1l-0.7,0.2C41.3,26.4,41.3,26.4,41.3,26.4z"/>
		<path class="st4" d="M41.3,23.5l0.7,0.1c0,0,0-0.1,0-0.1l-0.7-0.1C41.3,23.4,41.3,23.5,41.3,23.5z"/>
		<path class="st4" d="M27,8.8l-0.1-0.7c0,0-0.1,0-0.1,0l0.1,0.7C26.9,8.8,27,8.8,27,8.8z"/>
		<path class="st4" d="M23.8,8.8L23.9,8c0,0-0.1,0-0.1,0l-0.2,0.7C23.7,8.8,23.7,8.8,23.8,8.8z"/>
		<polygon class="st4" points="29.1,21.3 29.2,21.2 28.6,18 28.5,18.1 		"/>
		<path class="st4" d="M29,29L29,29L29,29l3.8-0.8l7.4-1.7c0,0,0-0.1,0-0.1L29,29z"/>
		<path class="st4" d="M43.1,25.7c0,0,0,0.1,0,0.1l4.2-1l-0.5,0L43.1,25.7z"/>
		<path class="st4" d="M42,25.9c0,0,0,0.1,0,0.1l1.1-0.3c0,0,0-0.1,0-0.1L42,25.9z"/>
		<path class="st4" d="M40.3,26.3c0,0,0,0.1,0,0.1l1.1-0.3c0,0,0-0.1,0-0.1L40.3,26.3z"/>
		<path class="st4" d="M41.3,26.1c0,0,0,0.1,0,0.1L42,26c0,0,0-0.1,0-0.1L41.3,26.1z"/>
		<polygon class="st4" points="29.2,21.3 32.4,21.9 32.4,21.9 32.5,21.8 29.3,21.2 		"/>
		<polygon class="st4" points="29.1,29.3 28.5,32.3 28.5,32.3 28.6,32.4 29.2,29.4 		"/>
		<polygon class="st4" points="32.8,28.3 29.2,29.2 29.3,29.3 32.7,28.4 32.7,28.4 		"/>
		<path class="st4" d="M32.6,22.2l7.6,1.4c0,0,0-0.1,0-0.1L32.6,22.2L32.6,22.2z"/>
		<polygon class="st4" points="29.1,21.4 29,21.5 32.6,22.2 32.4,22 		"/>
		<path class="st4" d="M46.6,24.7l0.6,0l-4.1-0.7c0,0,0,0.1,0,0.1L46.6,24.7z"/>
		<path class="st4" d="M43.1,24c0,0,0-0.1,0-0.1L42,23.7c0,0,0,0.1,0,0.1L43.1,24z"/>
		<path class="st4" d="M40.3,23.5l1.1,0.2c0,0,0-0.1,0-0.1l-1.1-0.2C40.3,23.5,40.3,23.5,40.3,23.5z"/>
		<path class="st4" d="M42,23.9c0,0,0-0.1,0-0.1l-0.7-0.1c0,0,0,0.1,0,0.1L42,23.9z"/>
		<path class="st4" d="M28.9,21.4L28.9,21.4L28.9,21.4L28.4,18l-0.1-0.2l0.1,0L27,9.9c0,0-0.1,0-0.1,0L28.9,21.4z"/>
		<path class="st4" d="M26.4,7c0,0,0.1,0,0.1,0l-0.9-5.2l0,0.6L26.4,7z"/>
		<path class="st4" d="M26.9,9.8c0,0,0.1,0,0.1,0l-0.2-1.1c0,0-0.1,0-0.1,0L26.9,9.8z"/>
		<path class="st4" d="M26.5,8c0,0,0.1,0,0.1,0L26.5,7c0,0-0.1,0-0.1,0L26.5,8z"/>
		<path class="st4" d="M26.7,8.8c0,0,0.1,0,0.1,0l-0.1-0.7c0,0-0.1,0-0.1,0L26.7,8.8z"/>
		<path class="st4" d="M28.2,32.6l0.1-0.2l0.6-3.2l-0.1-0.1L26.7,40c0,0,0.1,0,0.1,0L28.2,32.6L28.2,32.6z"/>
		<path class="st4" d="M25.2,47.7l0,0.6l1.1-5.4c0,0-0.1,0-0.1,0L25.2,47.7z"/>
		<path class="st4" d="M26.1,42.8c0,0,0.1,0,0.1,0l0.2-1.1c0,0-0.1,0-0.1,0L26.1,42.8z"/>
		<path class="st4" d="M26.5,41c0,0,0.1,0,0.1,0l0.2-1.1c0,0-0.1,0-0.1,0L26.5,41z"/>
		<path class="st4" d="M26.3,41.8c0,0,0.1,0,0.1,0l0.1-0.7c0,0-0.1,0-0.1,0L26.3,41.8z"/>
		<path class="st4" d="M21.2,21.5l2.5-11.7c0,0-0.1,0-0.1,0L21.2,21.5L21.2,21.5z"/>
		<path class="st4" d="M25.4,2.2l0-0.5L24.3,7c0,0,0.1,0,0.1,0L25.4,2.2z"/>
		<path class="st4" d="M24.4,7c0,0-0.1,0-0.1,0L24,8c0,0,0.1,0,0.1,0L24.4,7z"/>
		<path class="st4" d="M24,8.7c0,0-0.1,0-0.1,0l-0.2,1.1c0,0,0.1,0,0.1,0L24,8.7z"/>
		<path class="st4" d="M24.2,8c0,0-0.1,0-0.1,0l-0.2,0.7c0,0,0.1,0,0.1,0L24.2,8z"/>
		<path class="st4" d="M24.1,42.8c0,0-0.1,0-0.1,0l1,5.5l0-0.5L24.1,42.8z"/>
		<path class="st4" d="M21.4,28.9L21.4,28.9L21.4,28.9l2,11.1c0,0,0.1,0,0.1,0L21.4,28.9z"/>
		<path class="st4" d="M23.9,41.8c0,0-0.1,0-0.1,0l0.2,1.1c0,0,0.1,0,0.1,0L23.9,41.8z"/>
		<path class="st4" d="M23.6,40c0,0-0.1,0-0.1,0l0.2,1.1c0,0,0.1,0,0.1,0L23.6,40z"/>
		<path class="st4" d="M23.8,41c0,0-0.1,0-0.1,0l0.1,0.7c0,0,0.1,0,0.1,0L23.8,41z"/>
		<path class="st4" d="M3.3,24.9l-0.5,0l4.4,0.9c0,0,0-0.1,0-0.1L3.3,24.9z"/>
		<path class="st4" d="M17.2,28L17.2,28l4.1,0.9l0.1-0.1l-11.3-2.4c0,0,0,0.1,0,0.1L17.2,28L17.2,28z"/>
		<path class="st4" d="M7.2,25.8c0,0,0,0.1,0,0.1l1.1,0.2c0,0,0-0.1,0-0.1L7.2,25.8z"/>
		<path class="st4" d="M10.1,26.4L9,26.1c0,0,0,0.1,0,0.1l1.1,0.2C10.1,26.4,10.1,26.4,10.1,26.4z"/>
		<path class="st4" d="M8.3,26c0,0,0,0.1,0,0.1L9,26.3c0,0,0-0.1,0-0.1L8.3,26z"/>
		<path class="st4" d="M21.2,21.6l-0.1-0.1l-3.7,0.7l0,0l0,0l-7.3,1.3c0,0,0,0.1,0,0.1L21.2,21.6L21.2,21.6z"/>
		<path class="st4" d="M7.2,24.1c0,0,0-0.1,0-0.1l-4.3,0.8l0.6,0L7.2,24.1z"/>
		<path class="st4" d="M10.1,23.6c0,0,0-0.1,0-0.1L9,23.7c0,0,0,0.1,0,0.1L10.1,23.6z"/>
		<path class="st4" d="M8.3,23.9c0,0,0-0.1,0-0.1L7.2,24c0,0,0,0.1,0,0.1L8.3,23.9z"/>
		<path class="st4" d="M9,23.8c0,0,0-0.1,0-0.1l-0.7,0.1c0,0,0,0.1,0,0.1L9,23.8z"/>
		<polygon class="st4" points="21.8,32.2 21.2,29.1 21.2,29.1 21.7,32.1 21.8,32.1 		"/>
		<polygon class="st4" points="21,21.3 21.8,17.7 21.8,17.7 21.8,17.7 21.7,17.8 21,21.2 		"/>
		<polygon class="st4" points="21.2,29 17.4,28.2 17.4,28.2 17.4,28.3 21.1,29.1 		"/>
		<polygon class="st4" points="21,21.4 20.9,21.3 17.6,21.9 17.6,22 		"/>
		<path class="st4" d="M28.5,17.7l-1.4-7.8c0,0,0,0-0.1,0L28.5,17.7L28.5,17.7z"/>
		<path class="st4" d="M28.4,32.6L26.9,40c0,0,0,0,0.1,0L28.4,32.6L28.4,32.6z"/>
		<path class="st4" d="M47.5,24.7l0.2,0l0,0l0,0l0,0l0.2,0l-0.2,0l0,0l-0.1,0l-4.5,1.1c0,0,0,0,0,0.1l4.7-1.1l0.3-0.1l-5-0.9
			c0,0,0,0,0,0.1L47.5,24.7z"/>
		<path class="st4" d="M21.9,32.2l0.1,0.1l-0.1,0l1.4,7.6c0,0,0,0,0.1,0L21.9,32.2L21.9,32.2z"/>
		<circle class="st4" cx="29" cy="29.1" r="0"/>
		<path class="st4" d="M2.5,24.9l-0.3,0v-0.1v-0.1l0.3,0L7.2,24c0,0,0,0,0-0.1l-5,0.9l-0.3,0.1L7.2,26c0,0,0,0,0-0.1L2.5,24.9z"/>
		<polygon class="st4" points="29,29.2 28.6,31.4 29,29.2 		"/>
		<polygon class="st4" points="32.9,28.2 32.9,28.3 32.9,28.2 32.9,28.2 29.1,29.1 29.1,29.1 		"/>
		<polygon class="st4" points="21.1,21.4 21.8,18.3 21.1,21.4 		"/>
		<path class="st4" d="M21.9,17.7L21.9,17.7l1.7-7.9c0,0,0,0-0.1,0L21.9,17.7L21.9,17.7z"/>
		<path class="st4" d="M17.1,28l-7-1.5c0,0,0,0,0,0.1L17.1,28L17.1,28z"/>
		<polygon class="st4" points="17.3,28.1 17.3,28.1 18.8,28.4 		"/>
		<path class="st4" d="M25.1,48.6l0,0.3l-0.1,0v0v0l-0.1,0l0-0.3l-1.1-5.8c0,0,0,0-0.1,0l1.2,6.4l1.3-6.4c0,0,0,0-0.1,0L25.1,48.6z"
			/>
		<path class="st4" d="M32.7,22l7.5,1.3c0,0,0,0,0-0.1L32.7,22L32.7,22z"/>
		<path class="st4" d="M33,28.3l7.2-1.7c0,0,0,0,0-0.1L33,28.3L33,28.3z"/>
		<polygon class="st4" points="31.1,21.7 29.1,21.4 29.1,21.4 		"/>
		<path class="st4" d="M17.3,22.1l-7.2,1.3c0,0,0,0,0,0.1L17.3,22.1L17.3,22.1z"/>
		<polygon class="st4" points="17.6,22.1 20.6,21.6 17.6,22.1 		"/>
		<path class="st4" d="M25.4,1.4l0-0.3l0.1,0v0v0l0.1,0l0,0.3l1,5.6c0,0,0,0,0.1,0l-1.1-6.2L24.1,7c0,0,0,0,0.1,0L25.4,1.4z"/>
		<path class="st4" d="M8.3,26.2l-1.1-0.2c0,0,0,0,0,0.1L8.3,26.2C8.3,26.2,8.3,26.2,8.3,26.2z"/>
		<path class="st4" d="M10.1,23.4L9,23.6c0,0,0,0,0,0.1L10.1,23.4C10.1,23.4,10.1,23.4,10.1,23.4z"/>
		<path class="st4" d="M40.2,26.6l1.1-0.3c0,0,0,0,0-0.1L40.2,26.6C40.2,26.5,40.2,26.6,40.2,26.6z"/>
		<path class="st4" d="M10.1,26.5L9,26.3c0,0,0,0,0,0.1L10.1,26.5C10.1,26.6,10.1,26.6,10.1,26.5z"/>
		<path class="st4" d="M26.9,40L26.7,41c0,0,0,0,0.1,0L26.9,40C26.9,40,26.9,40,26.9,40z"/>
		<path class="st4" d="M42,26.1C42,26.1,42,26.1,42,26.1l1.1-0.2c0,0,0,0,0-0.1L42,26.1z"/>
		<path class="st4" d="M40.2,23.4l1.1,0.2c0,0,0,0,0-0.1L40.2,23.4C40.2,23.3,40.2,23.3,40.2,23.4z"/>
		<path class="st4" d="M8.3,23.8C8.3,23.8,8.3,23.7,8.3,23.8l-1.1,0.1c0,0,0,0,0,0.1L8.3,23.8z"/>
		<path class="st4" d="M27.1,9.9l-0.2-1.1c0,0,0,0-0.1,0L27.1,9.9C27,9.9,27.1,9.9,27.1,9.9z"/>
		<path class="st4" d="M23.6,9.8l0.2-1.1c0,0,0,0-0.1,0L23.6,9.8C23.6,9.8,23.6,9.8,23.6,9.8z"/>
		<path class="st4" d="M26.7,8.1C26.7,8.1,26.8,8.1,26.7,8.1L26.6,7c0,0,0,0-0.1,0L26.7,8.1z"/>
		<path class="st4" d="M26.3,42.8C26.3,42.8,26.4,42.8,26.3,42.8l0.3-1.1c0,0,0,0-0.1,0L26.3,42.8z"/>
		<path class="st4" d="M23.7,41.8C23.7,41.7,23.7,41.7,23.7,41.8l0.1,1.1c0,0,0,0,0.1,0L23.7,41.8z"/>
		<path class="st4" d="M23.3,39.9l0.2,1.1c0,0,0,0,0.1,0L23.3,39.9C23.4,39.9,23.3,39.9,23.3,39.9z"/>
		<path class="st4" d="M42,23.7l1.1,0.2c0,0,0,0,0-0.1L42,23.7C42,23.6,42,23.7,42,23.7z"/>
		<path class="st4" d="M24.2,7C24.2,7,24.2,7,24.2,7L23.9,8c0,0,0,0,0.1,0L24.2,7z"/>
		<path class="st4" d="M41.3,23.6l0.7,0.1c0,0,0,0,0-0.1L41.3,23.6C41.3,23.5,41.3,23.5,41.3,23.6z"/>
		<path class="st4" d="M9,26.3l-0.7-0.2c0,0,0,0,0,0.1L9,26.3C9,26.4,9,26.3,9,26.3z"/>
		<path class="st4" d="M23.6,41C23.6,41,23.5,41,23.6,41l0.1,0.7c0,0,0,0,0.1,0L23.6,41z"/>
		<path class="st4" d="M41.3,26.3C41.3,26.3,41.3,26.3,41.3,26.3l0.7-0.1c0,0,0,0,0-0.1L41.3,26.3z"/>
		<path class="st4" d="M23.8,8.8L24,8c0,0,0,0-0.1,0L23.8,8.8C23.8,8.8,23.8,8.8,23.8,8.8z"/>
		<path class="st4" d="M26.8,8.8C26.9,8.8,26.9,8.8,26.8,8.8l-0.1-0.7c0,0,0,0-0.1,0L26.8,8.8z"/>
		<path class="st4" d="M26.7,41l-0.1,0.7c0,0,0,0,0.1,0L26.7,41C26.7,41,26.7,41,26.7,41z"/>
		<path class="st4" d="M9,23.6l-0.7,0.1c0,0,0,0,0,0.1L9,23.6C9,23.6,9,23.6,9,23.6z"/>
		<polygon class="st4" points="29.1,21.3 29.1,21.3 28.5,18.1 28.5,18.1 		"/>
		<polygon class="st4" points="47.6,24.7 47.6,24.8 47.8,24.7 47.6,24.7 47.6,24.7 47.6,24.7 		"/>
		<path class="st4" d="M29.1,29.1L29.1,29.1L29.1,29.1l3.8-0.8l0.1,0l0,0l0,0l7.2-1.7c0,0,0,0,0-0.1l-7.4,1.7L29.1,29.1z"/>
		<path class="st4" d="M43.1,25.8C43.1,25.8,43.1,25.8,43.1,25.8l4.5-1l-0.3,0L43.1,25.8z"/>
		<polygon class="st4" points="29,29.1 29,29.1 29,29.1 		"/>
		<path class="st4" d="M42,26C42,26,42,26.1,42,26l1.1-0.2c0,0,0,0,0-0.1L42,26z"/>
		<path class="st4" d="M40.2,26.4C40.2,26.5,40.2,26.5,40.2,26.4l1.1-0.2c0,0,0,0,0-0.1L40.2,26.4z"/>
		<path class="st4" d="M41.3,26.2C41.3,26.2,41.3,26.2,41.3,26.2l0.7-0.1c0,0,0,0,0-0.1L41.3,26.2z"/>
		<polygon class="st4" points="31.1,21.7 32.4,22 32.4,21.9 29.2,21.3 29.1,21.4 		"/>
		<polygon class="st4" points="28.6,31.4 28.4,32.3 28.5,32.3 29.1,29.3 29,29.2 		"/>
		<polygon class="st4" points="32.8,28.3 32.9,28.3 32.9,28.2 29.1,29.1 29.2,29.2 		"/>
		<path class="st4" d="M47.1,24.7l0.3,0l-4.4-0.8c0,0,0,0,0,0.1L47.1,24.7z"/>
		<polygon class="st4" points="47.6,24.7 47.6,24.7 47.6,24.7 		"/>
		<path class="st4" d="M32.7,22.1l7.5,1.3c0,0,0,0,0-0.1L32.7,22.1L32.7,22.1z"/>
		<polygon class="st4" points="29.1,21.4 29.1,21.4 29.1,21.4 29.1,21.4 29.1,21.4 32.4,22 32.4,22 32.4,22 31.1,21.7 		"/>
		<path class="st4" d="M43.1,23.9C43.1,23.9,43.1,23.9,43.1,23.9L42,23.7c0,0,0,0,0,0.1L43.1,23.9z"/>
		<path class="st4" d="M40.3,23.4l1.1,0.2c0,0,0,0,0-0.1L40.3,23.4C40.3,23.4,40.2,23.4,40.3,23.4z"/>
		<path class="st4" d="M41.3,23.6l0.7,0.1c0,0,0,0,0-0.1L41.3,23.6C41.3,23.6,41.3,23.6,41.3,23.6z"/>
		<polygon class="st4" points="47.6,24.7 47.6,24.7 47.6,24.7 47.6,24.7 		"/>
		<polygon class="st4" points="31.1,21.7 32.4,22 32.4,22 		"/>
		<path class="st4" d="M28.4,17.8L28.4,17.8L27,9.9c0,0,0,0-0.1,0L28.4,17.8L28.4,17.8z"/>
		<polygon class="st4" points="29,21.3 29.1,21.3 28.5,18.1 28.5,18.1 28.4,18 29,21.4 29,21.3 		"/>
		<polygon class="st4" points="25.5,1.1 25.5,1.1 25.5,1.1 		"/>
		<path class="st4" d="M26.5,7C26.5,7,26.5,7,26.5,7l-0.9-5.6l0,0.3L26.5,7z"/>
		<path class="st4" d="M27,9.9C27,9.9,27,9.9,27,9.9l-0.1-1.1c0,0,0,0-0.1,0L27,9.9z"/>
		<path class="st4" d="M26.6,8.1C26.7,8.1,26.7,8.1,26.6,8.1L26.5,7c0,0,0,0-0.1,0L26.6,8.1z"/>
		<path class="st4" d="M26.8,8.8C26.8,8.8,26.8,8.8,26.8,8.8l-0.1-0.7c0,0,0,0-0.1,0L26.8,8.8z"/>
		<polygon class="st4" points="28.5,18.1 28.5,18.1 29.1,21.3 29.1,21.3 		"/>
		<polygon class="st4" points="28.4,32.3 28.6,31.4 29,29.2 29,29.2 29,29.1 29,29.1 29,29.1 29,29.1 29,29.1 29,29.2 29,29.2 
			28.3,32.3 28.4,32.3 		"/>
		<path class="st4" d="M28.3,32.6L26.8,40c0,0,0,0,0.1,0L28.3,32.6L28.3,32.6z"/>
		<path class="st4" d="M25.2,48.3l0,0.3l1.2-5.8c0,0,0,0-0.1,0L25.2,48.3z"/>
		<path class="st4" d="M26.2,42.8C26.3,42.8,26.3,42.8,26.2,42.8l0.3-1.1c0,0,0,0-0.1,0L26.2,42.8z"/>
		<path class="st4" d="M26.8,40L26.6,41c0,0,0,0,0.1,0L26.8,40C26.9,40,26.8,40,26.8,40z"/>
		<path class="st4" d="M26.5,41.8C26.5,41.8,26.5,41.8,26.5,41.8l0.2-0.7c0,0,0,0-0.1,0L26.5,41.8z"/>
		<polygon class="st4" points="28.6,31.4 28.4,32.3 28.4,32.3 		"/>
		<polygon class="st4" points="29,29.1 29,29.1 29,29.1 		"/>
		<path class="st4" d="M25.4,1.7l0-0.3L24.2,7c0,0,0,0,0.1,0L25.4,1.7z"/>
		<path class="st4" d="M21.9,17.7L21.9,17.7l-0.1,0.6l-0.7,3.1l0,0l0,0l0,0l2.5-11.6c0,0,0,0-0.1,0L21.9,17.7L21.9,17.7z"/>
		<polygon class="st4" points="21.1,21.5 21.1,21.5 21.1,21.5 		"/>
		<path class="st4" d="M24.3,7C24.2,7,24.2,7,24.3,7L24,8c0,0,0,0,0.1,0L24.3,7z"/>
		<path class="st4" d="M23.7,9.8l0.2-1.1c0,0,0,0-0.1,0L23.7,9.8C23.6,9.8,23.6,9.8,23.7,9.8z"/>
		<path class="st4" d="M24,8C24,8,24,8,24,8l-0.2,0.7c0,0,0,0,0.1,0L24,8z"/>
		<path class="st4" d="M24,42.8C24,42.8,23.9,42.8,24,42.8l1,5.8l0-0.3L24,42.8z"/>
		<polygon class="st4" points="25.1,48.9 25.1,48.9 25.1,48.9 		"/>
		<path class="st4" d="M21.3,29L21.3,29L21.3,29L21.3,29l0.6,3.2h0l1.5,7.7c0,0,0,0,0.1,0L21.3,29L21.3,29z"/>
		<path class="st4" d="M23.4,40C23.4,40,23.4,40,23.4,40l0.1,1.1c0,0,0,0,0.1,0L23.4,40z"/>
		<path class="st4" d="M23.8,41.8C23.8,41.8,23.7,41.8,23.8,41.8l0.1,1.1c0,0,0,0,0.1,0L23.8,41.8z"/>
		<path class="st4" d="M23.6,41C23.6,41,23.6,41,23.6,41l0.1,0.7c0,0,0,0,0.1,0L23.6,41z"/>
		<path class="st4" d="M2.8,24.9l-0.3,0l4.7,1c0,0,0,0,0-0.1L2.8,24.9z"/>
		<polygon class="st4" points="18.8,28.4 21.2,28.9 21.2,28.9 21.2,28.9 21.3,28.9 17.2,28 17.3,28.1 		"/>
		<path class="st4" d="M17.2,28l-7.1-1.5c0,0,0,0,0,0.1L17.2,28L17.2,28z"/>
		<path class="st4" d="M7.2,25.9C7.2,25.9,7.2,25.9,7.2,25.9l1.1,0.3c0,0,0,0,0-0.1L7.2,25.9z"/>
		<path class="st4" d="M10.1,26.5L9,26.3c0,0,0,0,0,0.1L10.1,26.5C10.1,26.5,10.1,26.5,10.1,26.5z"/>
		<path class="st4" d="M9,26.3l-0.7-0.2c0,0,0,0,0,0.1L9,26.3C9,26.3,9,26.3,9,26.3z"/>
		<path class="st4" d="M17.3,22.1l-7.2,1.3c0,0,0,0,0,0.1L17.3,22.1L17.3,22.1z"/>
		<path class="st4" d="M7.2,24C7.2,24,7.2,24,7.2,24l-4.7,0.8l0.4,0L7.2,24z"/>
		<polygon class="st4" points="21.1,21.5 21.1,21.5 21,21.5 21,21.5 20.6,21.6 17.6,22.1 17.4,22.2 21.1,21.5 21,21.5 		"/>
		<path class="st4" d="M8.3,23.8C8.3,23.8,8.3,23.8,8.3,23.8L7.2,24c0,0,0,0,0,0.1L8.3,23.8z"/>
		<path class="st4" d="M10.1,23.5L9,23.6c0,0,0,0,0,0.1L10.1,23.5C10.1,23.5,10.1,23.5,10.1,23.5z"/>
		<path class="st4" d="M9,23.7C9,23.7,9,23.7,9,23.7l-0.7,0.1c0,0,0,0,0,0.1L9,23.7z"/>
		<polygon class="st4" points="21.3,29 21.2,29.1 21.8,32.2 21.9,32.2 21.9,32.2 21.9,32.2 		"/>
		<polygon class="st4" points="21.9,32.2 21.9,32.2 21.9,32.2 21.3,29 21.3,29 		"/>
		<polygon class="st4" points="21,21.3 21.1,21.4 21.8,18.3 21.9,17.7 21.8,17.7 21.8,17.7 		"/>
		<polygon class="st4" points="21.9,17.7 21.9,17.7 21.8,18.3 		"/>
		<polygon class="st4" points="18.8,28.4 17.3,28.1 17.4,28.2 17.4,28.2 21.2,29 21.2,28.9 		"/>
		<polygon class="st4" points="21.2,28.9 18.8,28.4 21.2,28.9 		"/>
		<polygon class="st4" points="21,21.4 17.6,22 17.6,22.1 17.6,22.1 20.6,21.6 21,21.5 		"/>
		<polygon class="st4" points="21.1,21.5 21.1,21.5 21.1,21.5 		"/>
		<polygon class="st4" points="21.1,21.5 21.1,21.5 21.1,21.5 21.1,21.5 21.1,21.5 		"/>
		<polygon class="st4" points="21.1,21.5 21.1,21.5 21.1,21.5 21.1,21.5 21.1,21.5 		"/>
		<polygon class="st4" points="20.6,21.6 21,21.5 21,21.5 		"/>
		<polygon class="st4" points="21.1,21.5 21.1,21.5 21.1,21.5 		"/>
		<polygon class="st4" points="38.4,24.8 25.3,24.8 25.3,24.8 		"/>
		<path class="st4" d="M38.4,24.8l-13.1,0l0,0l0,0l15,0c0,0,0,0,0-0.1L38.4,24.8z"/>
		<path class="st4" d="M43.1,24.8l3.7,0l0.2,0l-0.1,0L43.1,24.8C43.1,24.8,43.1,24.8,43.1,24.8z"/>
		<path class="st4" d="M42.1,24.8l1,0c0,0,0,0,0-0.1L42.1,24.8C42.1,24.8,42.1,24.8,42.1,24.8z"/>
		<path class="st4" d="M40.3,24.7C40.3,24.8,40.3,24.8,40.3,24.7l1.1,0.1c0,0,0,0,0-0.1L40.3,24.7z"/>
		<path class="st4" d="M41.4,24.7C41.4,24.8,41.4,24.8,41.4,24.7l0.7,0.1c0,0,0,0,0-0.1L41.4,24.7z"/>
		<path class="st4" d="M25.3,24.8l13.1,0l1.9,0c0,0,0,0,0-0.1L25.3,24.8L25.3,24.8L25.3,24.8z"/>
		<path class="st4" d="M43.1,24.7l3.8,0l-0.3-0.1L43.1,24.7C43.1,24.7,43.1,24.7,43.1,24.7z"/>
		<path class="st4" d="M43.1,24.7C43.1,24.7,43.1,24.7,43.1,24.7l-1.1-0.1c0,0,0,0,0,0.1L43.1,24.7z"/>
		<path class="st4" d="M41.4,24.7C41.4,24.7,41.4,24.7,41.4,24.7l-1.1-0.1c0,0,0,0,0,0.1L41.4,24.7z"/>
		<path class="st4" d="M42.1,24.7C42.1,24.7,42.1,24.7,42.1,24.7l-0.7-0.1c0,0,0,0,0,0.1L42.1,24.7z"/>
		<polygon class="st4" points="40.3,24.7 38.4,24.8 40.3,24.7 		"/>
		<polygon class="st4" points="43.1,24.7 46.9,24.7 46.9,24.7 43.1,24.7 		"/>
		<polygon class="st4" points="42.1,24.7 43.1,24.7 43.1,24.7 42.1,24.7 		"/>
		<polygon class="st4" points="41.4,24.7 41.4,24.7 40.3,24.7 40.3,24.7 		"/>
		<polygon class="st4" points="42.1,24.7 42.1,24.7 41.4,24.7 41.4,24.7 		"/>
		<path class="st4" d="M25.1,24.8l-15.1,0c0,0,0,0,0,0.1c0,0,0,0,0,0L25.1,24.8L25.1,24.8L25.1,24.8z"/>
		<path class="st4" d="M7.2,24.9C7.2,24.9,7.2,24.9,7.2,24.9l-4,0l-0.1,0l0.2,0L7.2,24.9C7.2,24.9,7.2,24.9,7.2,24.9z"/>
		<path class="st4" d="M8.2,24.8l-1.1,0c0,0,0,0,0,0c0,0,0,0,0,0L8.2,24.8C8.2,24.9,8.2,24.9,8.2,24.8C8.2,24.9,8.2,24.9,8.2,24.8z"
			/>
		<path class="st4" d="M10,24.8l-1,0c0,0,0,0,0,0.1c0,0,0,0,0,0L10,24.8C10,24.9,10,24.9,10,24.8C10,24.9,10,24.9,10,24.8z"/>
		<path class="st4" d="M8.9,24.8l-0.7,0c0,0,0,0,0,0.1c0,0,0,0,0,0L8.9,24.8C8.9,24.9,8.9,24.9,8.9,24.8C8.9,24.9,8.9,24.9,8.9,24.8
			z"/>
		<path class="st4" d="M7.2,24.8l-3.7,0l-0.3,0.1L7.2,24.8C7.2,24.8,7.2,24.8,7.2,24.8z"/>
		<path class="st4" d="M25.1,24.8L25.1,24.8l-15.1,0c0,0,0,0,0,0.1L25.1,24.8z"/>
		<path class="st4" d="M10,24.8C10,24.8,10,24.8,10,24.8l-1-0.1c0,0,0,0,0,0.1L10,24.8z"/>
		<path class="st4" d="M8.2,24.8l-1.1,0c0,0,0,0,0,0.1L8.2,24.8C8.2,24.8,8.2,24.8,8.2,24.8z"/>
		<path class="st4" d="M8.9,24.8C8.9,24.8,9,24.8,8.9,24.8l-0.7-0.1c0,0,0,0,0,0.1L8.9,24.8z"/>
		<polygon class="st4" points="7.2,24.9 3.2,24.9 3.2,24.9 7.2,24.9 		"/>
		<polygon class="st4" points="10,24.8 10,24.8 25.1,24.8 25.1,24.8 		"/>
		<polygon class="st4" points="8.9,24.8 8.9,24.8 10,24.8 10,24.8 		"/>
		<polygon class="st4" points="8.2,24.8 7.2,24.9 7.2,24.9 8.2,24.8 		"/>
		<polygon class="st4" points="8.2,24.8 8.2,24.8 8.9,24.8 8.9,24.8 		"/>
		<polygon class="st4" points="47,24.7 46.8,24.8 47.3,24.8 47.5,24.7 47.5,24.7 46.9,24.7 		"/>
		<polygon class="st4" points="46.9,24.7 47.5,24.7 47.1,24.7 46.6,24.7 		"/>
		<polygon class="st4" points="46.9,24.7 47.5,24.7 47.5,24.7 46.9,24.7 		"/>
		<polygon class="st4" points="3.1,24.9 3.2,24.9 2.6,24.9 2.5,24.9 2.8,24.9 3.3,24.9 		"/>
		<polygon class="st4" points="3.5,24.8 2.9,24.8 2.6,24.9 3.2,24.9 		"/>
		<polygon class="st4" points="3.2,24.9 2.6,24.9 2.6,24.9 3.2,24.9 		"/>
		<polygon class="st4" points="47.6,24.7 47.5,24.7 47.6,24.7 		"/>
		<polygon class="st4" points="2.6,24.8 2.2,24.8 2.2,24.9 2.2,24.9 		"/>
		<polygon class="st4" points="2.2,24.9 2.2,24.9 2.2,24.9 2.2,24.9 2.5,24.9 2.2,24.9 		"/>
		<polygon class="st4" points="47.6,24.8 47.6,24.8 47.6,24.8 		"/>
		<polygon class="st4" points="47.6,24.7 47.5,24.7 47.5,24.7 47.3,24.8 47.6,24.8 47.6,24.8 47.6,24.7 		"/>
		<polygon class="st4" points="47.5,24.7 47.6,24.7 47.6,24.7 47.6,24.7 47.5,24.7 47.1,24.7 		"/>
		<polygon class="st4" points="47.6,24.7 47.6,24.7 47.6,24.7 47.6,24.7 47.5,24.7 47.5,24.7 		"/>
		<polygon class="st4" points="2.2,24.9 2.2,24.9 2.2,24.9 		"/>
		<polygon class="st4" points="2.5,24.9 2.6,24.9 2.2,24.9 2.5,24.9 2.8,24.9 		"/>
		<polygon class="st4" points="2.6,24.9 2.9,24.8 2.6,24.8 2.2,24.9 		"/>
		<polygon class="st4" points="2.2,24.9 2.2,24.9 2.2,24.9 		"/>
		<polygon class="st4" points="2.2,24.9 2.2,24.9 2.2,24.9 2.6,24.9 2.6,24.9 		"/>
		<polygon class="st4" points="25.1,42.9 25.1,48 25.1,48 25.1,42.9 		"/>
		<polygon class="st4" points="25.2,40.1 25.2,36.9 25.2,40.1 		"/>
		<polygon class="st4" points="25.4,9.7 25.4,9.7 25.3,24.7 25.3,24.7 		"/>
		<polygon class="st4" points="25.1,41.1 25.1,41.1 25.2,40.1 25.2,40.1 		"/>
		<polygon class="st4" points="25.1,41.8 25.1,42.9 25.1,42.9 25.1,41.8 		"/>
		<polygon class="st4" points="25.4,8.7 25.4,8.7 25.4,9.7 25.4,9.7 		"/>
		<polygon class="st4" points="25.4,8.1 25.4,8.7 25.4,8.7 		"/>
		<polygon class="st4" points="25.1,41.8 25.1,41.8 25.1,41.1 25.1,41.1 		"/>
		<path class="st4" d="M25.5,6.9l0-4.6L25.5,2L25.5,6.9C25.4,6.9,25.5,6.9,25.5,6.9z"/>
		<path class="st4" d="M25.3,24.7L25.3,24.7l0.2-14.9c0,0,0,0-0.1,0L25.3,24.7z"/>
		<path class="st4" d="M25.4,9.7C25.4,9.7,25.4,9.7,25.4,9.7l0.1-1c0,0,0,0-0.1,0L25.4,9.7z"/>
		<path class="st4" d="M25.5,8l0-1c0,0,0,0-0.1,0L25.5,8C25.4,8,25.5,8,25.5,8z"/>
		<path class="st4" d="M25.4,8.1l0,0.6c0,0,0,0,0.1,0L25.4,8.1C25.5,8,25.4,8,25.4,8.1L25.4,8.1z"/>
		<path class="st4" d="M25.2,36.9l0,3.1c0,0,0,0,0,0c0,0,0,0,0.1,0l0.1-15l-0.1-0.1L25.2,36.9z"/>
		<path class="st4" d="M25.2,42.9C25.2,42.9,25.1,42.9,25.2,42.9L25.1,48l0.1-0.3L25.2,42.9C25.2,42.9,25.2,42.9,25.2,42.9z"/>
		<path class="st4" d="M25.2,40.1l0,1c0,0,0,0,0,0c0,0,0,0,0,0L25.2,40.1C25.2,40.1,25.2,40.1,25.2,40.1
			C25.2,40.1,25.2,40.1,25.2,40.1z"/>
		<path class="st4" d="M25.1,41.8l0,1c0,0,0,0,0,0c0,0,0,0,0,0L25.1,41.8C25.2,41.8,25.2,41.8,25.1,41.8
			C25.2,41.8,25.1,41.8,25.1,41.8z"/>
		<path class="st4" d="M25.1,41.1l0,0.7c0,0,0,0,0,0c0,0,0,0,0,0L25.1,41.1C25.2,41.1,25.2,41.1,25.1,41.1
			C25.2,41.1,25.2,41.1,25.1,41.1z"/>
		<path class="st4" d="M25.4,6.9l0-4.9l0,0l-0.1,0.3L25.4,6.9C25.4,6.9,25.4,6.9,25.4,6.9z"/>
		<path class="st4" d="M25.2,24.7L25.2,24.7l0.2-15c0,0,0,0-0.1,0L25.2,24.7L25.2,24.7L25.2,24.7z"/>
		<path class="st4" d="M25.4,8.7C25.4,8.7,25.4,8.7,25.4,8.7l-0.1,1c0,0,0,0,0.1,0L25.4,8.7z"/>
		<path class="st4" d="M25.4,6.9C25.4,6.9,25.4,6.9,25.4,6.9l-0.1,1c0,0,0,0,0.1,0L25.4,6.9z"/>
		<path class="st4" d="M25.4,8.1L25.4,8.1C25.4,8,25.4,8,25.4,8.1l-0.1,0.6c0,0,0,0,0.1,0L25.4,8.1z"/>
		<polygon class="st4" points="25.4,6.9 25.5,2 25.5,2 25.4,6.9 		"/>
		<polygon class="st4" points="25.4,8 25.4,6.9 25.4,6.9 25.4,8 		"/>
		<polygon class="st4" points="25.4,8 25.4,8.1 25.4,8 		"/>
		<path class="st4" d="M25.2,36.9l0.1-12l-0.1-0.1l0,0l-0.1,15.2c0,0,0,0,0.1,0L25.2,36.9z"/>
		<path class="st4" d="M25.1,42.9l0,4.9l0.1,0.3l0,0L25.1,42.9C25.1,42.9,25.1,42.9,25.1,42.9z"/>
		<path class="st4" d="M25.1,41.8l0,1c0,0,0,0,0.1,0L25.1,41.8C25.1,41.8,25.1,41.8,25.1,41.8z"/>
		<path class="st4" d="M25.2,40.1C25.1,40.1,25.1,40.1,25.2,40.1l-0.1,1c0,0,0,0,0.1,0L25.2,40.1z"/>
		<path class="st4" d="M25.1,41.1C25.1,41.1,25.1,41.1,25.1,41.1l-0.1,0.7c0,0,0,0,0.1,0L25.1,41.1z"/>
		<polygon class="st4" points="25.2,36.9 25.3,24.9 25.3,24.9 		"/>
		<polygon class="st4" points="25.1,48 25.1,48.6 25.1,48.6 25.1,48 		"/>
		<polygon class="st4" points="25.5,2.3 25.5,1.8 25.5,1.4 25.5,2 		"/>
		<polygon class="st4" points="25.1,48 25.1,48.6 25.2,48.3 25.2,47.7 		"/>
		<polygon class="st4" points="25.5,1.9 25.5,2 25.5,1.4 25.5,1.4 25.4,1.7 25.4,2.2 		"/>
		<polygon class="st4" points="25.5,2 25.5,1.4 25.5,1.4 25.5,2 		"/>
		<polygon class="st4" points="25.1,48 25,47.7 25,48.3 25.1,48.6 25.1,48.6 25.1,48 		"/>
		<polygon class="st4" points="25.5,1.1 25.4,1.1 25.4,1.4 25.5,1.1 		"/>
		<polygon class="st4" points="25.5,1.1 25.5,1.1 25.5,1.4 25.5,1.1 25.5,1.1 25.5,1.1 		"/>
		<polygon class="st4" points="25.1,48.6 25.1,48.6 25.1,48.9 25.1,48.9 25.1,48.6 25.1,48.9 		"/>
		<polygon class="st4" points="25,48.9 25.1,48.9 25,48.6 		"/>
		<ellipse transform="matrix(0.9744 -0.2249 0.2249 0.9744 0.4084 5.7563)" class="st4" cx="25.5" cy="1.1" rx="0" ry="0"/>
		<polygon class="st4" points="25.5,1.4 25.5,1.8 25.5,1.4 25.5,1.1 		"/>
		<polygon class="st4" points="25.1,48.6 25.1,48.9 25.1,48.6 25.2,48.3 		"/>
		<polygon class="st4" points="25.5,1.4 25.5,1.4 25.5,1.1 25.4,1.4 25.4,1.7 		"/>
		<polygon class="st4" points="25.5,1.1 25.5,1.1 25.5,1.1 		"/>
		<polygon class="st4" points="25.5,1.1 25.5,1.1 25.5,1.1 25.5,1.4 25.5,1.4 		"/>
		<polygon class="st4" points="25.1,48.6 25,48.3 25,48.6 25.1,48.9 25.1,48.9 25.1,48.6 		"/>
		<polygon class="st4" points="25.3,24.8 25.3,24.8 25.3,24.8 25.3,24.8 		"/>
		<polygon class="st4" points="25.3,24.8 25.3,24.8 25.3,24.8 25.3,24.8 25.3,24.8 		"/>
		<polygon class="st4" points="25.3,24.8 25.3,24.8 25.3,24.8 		"/>
		<polygon class="st4" points="25.2,24.7 25.2,24.7 25.2,24.7 25.2,24.7 21.2,21.5 21.2,21.6 		"/>
		<polygon class="st4" points="21.2,21.6 21.2,21.6 21.2,21.6 25.1,24.7 25.2,24.7 		"/>
		<polygon class="st4" points="21.2,21.6 21.2,21.6 25.2,24.7 25.2,24.7 		"/>
		<polygon class="st4" points="21.2,21.6 21.2,21.5 21.2,21.4 21.1,21.5 		"/>
		<polygon class="st4" points="21.2,21.6 21.1,21.5 21.1,21.5 21.1,21.5 21.1,21.5 21.2,21.6 21.2,21.6 		"/>
		<polygon class="st4" points="21.1,21.5 21.1,21.5 21.2,21.6 21.2,21.6 		"/>
		<polygon class="st4" points="21.1,21.5 21.1,21.5 21.1,21.5 21.1,21.5 21.1,21.5 21.2,21.4 21.1,21.4 21.1,21.4 21.1,21.4 		"/>
		<polygon class="st4" points="21.1,21.5 21.1,21.5 21.1,21.5 21.1,21.5 21,21.5 21.1,21.5 21.1,21.5 		"/>
		<polygon class="st4" points="21.1,21.5 21.1,21.5 21.1,21.5 21.1,21.5 		"/>
		<polygon class="st4" points="21.1,21.5 21.1,21.5 21.1,21.5 21.1,21.5 21.1,21.5 		"/>
		<polygon class="st4" points="21.1,21.5 21.1,21.5 21.1,21.5 		"/>
		<polygon class="st4" points="21.1,21.5 21.1,21.5 21.1,21.5 21.1,21.5 21.1,21.5 		"/>
		<polygon class="st4" points="25.2,24.8 25.2,24.8 25.2,24.8 25.2,24.8 25.2,24.7 25.2,24.7 25.2,24.8 		"/>
		<polygon class="st4" points="25.1,24.8 25.1,24.8 25.1,24.8 		"/>
		<polygon class="st4" points="25.1,24.8 25.2,24.8 25.2,24.7 25.1,24.7 25.1,24.8 		"/>
		<polygon class="st4" points="25.2,24.7 25.2,24.7 25.2,24.8 25.2,24.8 		"/>
		<polygon class="st4" points="25.1,24.8 25.1,24.8 25.1,24.8 25.1,24.8 		"/>
		<polygon class="st4" points="25.2,24.7 25.2,24.7 25.2,24.7 		"/>
		<polygon class="st4" points="25.2,24.8 25.2,24.8 25.2,24.8 25.2,24.8 		"/>
		<polygon class="st4" points="28.9,21.5 27.8,22.5 28.9,21.5 		"/>
		<polygon class="st4" points="28.9,21.5 27.8,22.5 25.3,24.7 25.3,24.7 25.4,24.7 29,21.5 28.9,21.5 		"/>
		<polygon class="st4" points="25.3,24.7 27.8,22.5 28.9,21.5 28.9,21.4 25.3,24.6 		"/>
		<polygon class="st4" points="27.8,22.5 25.3,24.7 25.3,24.7 		"/>
		<polygon class="st4" points="29,21.4 29,21.4 28.9,21.5 28.9,21.5 		"/>
		<polygon class="st4" points="29,21.4 29,21.4 28.9,21.5 28.9,21.5 29,21.5 29.1,21.4 		"/>
		<polygon class="st4" points="29,21.4 29,21.4 29,21.4 28.9,21.4 28.9,21.5 		"/>
		<polygon class="st4" points="29.1,21.4 29.1,21.4 29.1,21.4 29,21.4 29,21.4 		"/>
		<polygon class="st4" points="29.1,21.4 29.1,21.4 29,21.4 29,21.4 29.1,21.4 29.1,21.4 		"/>
		<polygon class="st4" points="29,21.4 29.1,21.4 29.1,21.4 29,21.3 29,21.4 29,21.4 		"/>
		<polygon class="st4" points="25.3,24.8 25.4,24.7 25.3,24.7 		"/>
		<polygon class="st4" points="25.3,24.7 25.3,24.7 25.3,24.7 25.3,24.7 		"/>
		<polygon class="st4" points="25.3,24.7 25.3,24.7 25.3,24.7 		"/>
		<polygon class="st4" points="25.3,24.7 25.3,24.7 25.3,24.7 25.3,24.6 25.3,24.7 		"/>
		<polygon class="st4" points="25.3,24.7 25.3,24.7 25.3,24.7 25.3,24.7 		"/>
		<polygon class="st4" points="25.3,24.7 25.2,24.7 25.2,24.7 25.3,24.7 25.3,24.7 		"/>
		<polygon class="st4" points="25.3,24.8 25.3,24.8 25.3,24.8 25.3,24.8 		"/>
		<polygon class="st4" points="25.3,24.7 25.2,24.8 25.2,24.8 25.3,24.8 25.3,24.8 25.3,24.7 25.3,24.7 25.3,24.7 25.3,24.7 		"/>
		<polygon class="st4" points="25.3,24.8 25.3,24.8 25.3,24.8 		"/>
		<polygon class="st4" points="25.3,24.7 25.3,24.7 25.3,24.7 25.3,24.8 25.3,24.8 25.3,24.8 25.3,24.8 25.3,24.7 25.3,24.7 		"/>
		<polygon class="st4" points="25.3,24.7 25.3,24.7 25.3,24.7 		"/>
		<polygon class="st4" points="25.3,24.7 25.3,24.7 25.3,24.7 25.3,24.7 		"/>
		<polygon class="st4" points="25.2,24.8 25.3,24.7 25.3,24.7 25.3,24.7 25.3,24.7 		"/>
		<polygon class="st4" points="25.2,24.7 25.2,24.7 25.2,24.7 		"/>
		<polygon class="st4" points="25.2,24.8 25.2,24.7 25.2,24.7 25.2,24.8 		"/>
		<polygon class="st4" points="25.3,24.7 25.2,24.7 25.2,24.7 25.2,24.7 		"/>
		<polygon class="st4" points="25.2,24.8 25.2,24.8 25.2,24.8 		"/>
		<polygon class="st4" points="25.2,24.8 25.2,24.8 25.3,24.7 25.3,24.7 25.2,24.7 25.2,24.8 25.2,24.8 		"/>
		<polygon class="st4" points="25.2,24.9 25.2,24.9 25.2,24.9 21.4,28.8 21.4,28.8 21.4,28.9 25.2,24.9 		"/>
		<polygon class="st4" points="25.2,24.9 25.1,24.9 21.3,28.8 21.4,28.8 		"/>
		<polygon class="st4" points="21.4,28.8 21.4,28.8 25.2,24.9 25.2,24.9 		"/>
		<polygon class="st4" points="21.4,28.8 21.3,28.9 21.3,28.9 21.3,28.9 21.4,28.9 21.4,28.8 		"/>
		<polygon class="st4" points="21.4,28.8 21.3,28.8 21.3,28.9 21.3,28.9 		"/>
		<polygon class="st4" points="21.3,28.9 21.3,28.9 21.4,28.8 21.4,28.8 		"/>
		<polygon class="st4" points="21.3,28.9 21.3,28.9 21.3,28.9 21.3,29 21.3,28.9 21.3,28.9 		"/>
		<polygon class="st4" points="21.2,28.9 21.2,28.9 21.3,28.9 21.3,28.9 21.3,28.9 21.2,28.9 		"/>
		<polygon class="st4" points="21.3,28.9 21.3,28.9 21.3,28.9 21.3,28.9 		"/>
		<polygon class="st4" points="25.2,24.9 25.2,24.9 25.2,24.8 		"/>
		<polygon class="st4" points="25.2,24.8 25.2,24.8 25.1,24.8 25.1,24.9 25.2,24.9 		"/>
		<polygon class="st4" points="25.2,24.8 25.2,24.9 25.2,24.9 25.2,24.8 		"/>
		<polygon class="st4" points="25.2,24.9 25.2,24.9 25.2,24.9 		"/>
		<polygon class="st4" points="25.2,24.8 25.2,24.8 25.2,24.8 25.2,24.8 		"/>
		<polygon class="st4" points="25.2,24.8 25.2,24.8 25.1,24.8 25.1,24.8 25.2,24.8 25.2,24.8 		"/>
		<polygon class="st4" points="25.2,24.8 25.2,24.8 25.1,24.8 25.2,24.8 		"/>
		<polygon class="st4" points="25.2,24.8 25.2,24.8 25.2,24.8 25.2,24.8 		"/>
		<polygon class="st4" points="25.2,24.8 25.2,24.8 25.1,24.8 25.1,24.8 		"/>
		<polygon class="st4" points="25.2,24.8 25.2,24.8 25.2,24.8 25.2,24.8 		"/>
		<polygon class="st4" points="25.2,24.8 25.2,24.8 25.2,24.8 		"/>
		<polygon class="st4" points="25.2,24.8 25.2,24.8 25.2,24.8 25.2,24.8 		"/>
		<polygon class="st4" points="25.2,24.8 25.2,24.8 25.2,24.8 25.2,24.8 		"/>
		<polygon class="st4" points="25.2,24.8 25.2,24.8 25.2,24.8 25.2,24.8 		"/>
		<polygon class="st4" points="26,25.7 25.3,24.9 25.3,24.9 		"/>
		<polygon class="st4" points="25.3,24.9 25.3,24.9 26,25.7 28.9,29 29,29 25.4,24.9 		"/>
		<polygon class="st4" points="28.9,29 26,25.7 25.3,24.9 25.3,25 28.9,29.1 28.9,29 		"/>
		<polygon class="st4" points="28.9,29 26,25.7 28.9,29 		"/>
		<polygon class="st4" points="29,29.1 29,29.1 29.1,29.1 29,29 28.9,29 		"/>
		<polygon class="st4" points="29,29.1 28.9,29 28.9,29 28.9,29.1 29,29.2 29,29.1 		"/>
		<polygon class="st4" points="29,29.1 29,29.1 28.9,29 28.9,29 		"/>
		<polygon class="st4" points="29,29.1 29,29.1 29,29.1 		"/>
		<polygon class="st4" points="29,29.1 29,29.1 29,29.1 29,29.1 29.1,29.1 29.1,29.1 29.1,29.1 29,29.1 		"/>
		<polygon class="st4" points="29,29.1 29,29.1 29,29.1 29,29.1 29,29.1 29,29.2 29,29.2 		"/>
		<polygon class="st4" points="29,29.1 29,29.1 29,29.1 29,29.1 		"/>
		<polygon class="st4" points="25.3,24.9 25.4,24.9 25.3,24.8 		"/>
		<polygon class="st4" points="25.3,24.9 25.3,24.9 25.3,24.9 25.3,24.9 		"/>
		<polygon class="st4" points="25.3,24.9 25.3,24.9 25.3,24.9 		"/>
		<polygon class="st4" points="25.3,24.9 25.3,24.9 25.3,25 25.3,24.9 25.3,24.9 		"/>
		<polygon class="st4" points="25.3,24.9 25.2,24.9 25.3,24.9 25.3,24.9 		"/>
		<polygon class="st4" points="25.3,24.9 25.3,24.9 25.3,24.9 25.3,24.9 		"/>
		<polygon class="st4" points="25.2,24.8 25.2,24.8 25.2,24.8 		"/>
		<polygon class="st4" points="25.3,24.8 25.3,24.8 25.3,24.9 25.3,24.8 25.3,24.8 		"/>
		<polygon class="st4" points="25.2,24.8 25.2,24.8 25.2,24.8 		"/>
		<ellipse transform="matrix(0.779 -0.627 0.627 0.779 -9.9972 21.3443)" class="st4" cx="25.3" cy="24.9" rx="0" ry="0"/>
		<polygon class="st4" points="25.3,24.8 25.3,24.8 25.3,24.8 25.3,24.9 25.3,24.9 25.3,24.9 25.3,24.9 25.3,24.9 25.3,24.8 		"/>
		<polygon class="st4" points="25.3,24.9 25.3,24.9 25.3,24.9 		"/>
		<polygon class="st4" points="25.3,24.9 25.3,24.9 25.3,24.9 25.3,24.9 25.3,24.9 25.3,24.9 25.3,24.9 25.3,24.8 		"/>
		<ellipse transform="matrix(0.8742 -0.4856 0.4856 0.8742 -8.888 15.4043)" class="st4" cx="25.3" cy="24.9" rx="0" ry="0"/>
		<rect x="25.3" y="24.9" class="st4" width="0" height="0"/>
		<polygon class="st4" points="25.2,24.8 25.2,24.8 25.2,24.8 25.2,24.8 25.2,24.8 25.2,24.8 25.2,24.8 		"/>
		<ellipse transform="matrix(0.7071 -0.7071 0.7071 0.7071 -10.1425 25.1029)" class="st4" cx="25.2" cy="24.8" rx="0" ry="0"/>
		<polygon class="st4" points="25.2,24.8 25.2,24.8 25.2,24.8 25.2,24.8 25.2,24.8 25.2,24.8 		"/>
		<rect x="25.2" y="24.8" transform="matrix(0.7071 -0.7071 0.7071 0.7071 -10.1424 25.1027)" class="st4" width="0" height="0"/>
		<polygon class="st4" points="25.2,24.8 25.2,24.8 25.2,24.8 		"/>
		<polygon class="st4" points="25.2,24.8 25.2,24.8 25.2,24.8 		"/>
		<circle class="st4" cx="25.2" cy="24.8" r="0"/>
		<polygon class="st4" points="25.3,24.8 25.3,24.8 25.3,24.8 25.3,24.8 25.3,24.8 25.2,24.8 25.2,24.8 25.2,24.8 25.2,24.8 
			25.2,24.8 25.2,24.8 25.3,24.8 25.3,24.8 25.3,24.8 25.3,24.8 25.3,24.8 		"/>
		<polygon class="st4" points="25.3,24.8 25.3,24.8 25.3,24.8 25.3,24.8 		"/>
		<polygon class="st4" points="25.3,24.8 25.3,24.8 25.3,24.8 		"/>
		<polygon class="st4" points="25.2,24.8 25.2,24.8 25.2,24.8 		"/>
		<ellipse transform="matrix(0.727 -0.6866 0.6866 0.727 -10.1367 24.0924)" class="st4" cx="25.2" cy="24.8" rx="0" ry="0"/>
		<polygon class="st4" points="25.2,24.8 25.2,24.8 25.2,24.8 		"/>
		<polygon class="st4" points="25.2,24.9 25.2,24.9 25.2,24.9 		"/>
		<polygon class="st4" points="25.2,24.8 25.2,24.8 25.2,24.8 25.2,24.8 25.2,24.9 25.2,24.9 		"/>
		<polygon class="st4" points="25.2,24.8 25.2,24.8 25.2,24.8 		"/>
		<rect x="25.2" y="24.8" class="st4" width="0" height="0"/>
		<polygon class="st4" points="25.3,24.9 25.2,24.9 25.2,24.9 25.2,24.9 		"/>
		<polygon class="st4" points="25.2,24.8 25.3,24.8 25.3,24.8 25.2,24.8 25.2,24.8 		"/>
		<polygon class="st4" points="25.2,24.8 25.2,24.8 25.2,24.8 25.2,24.9 25.3,24.9 25.3,24.8 		"/>
		<polygon class="st4" points="25.2,24.8 25.2,24.8 25.2,24.8 25.2,24.8 25.2,24.8 25.2,24.8 		"/>
		<ellipse transform="matrix(0.7071 -0.7071 0.7071 0.7071 -10.1452 25.1021)" class="st4" cx="25.2" cy="24.8" rx="0" ry="0"/>
		<polygon class="st4" points="25.2,24.8 25.2,24.8 25.2,24.8 		"/>
		<polygon class="st4" points="25.2,24.8 25.2,24.8 25.2,24.8 25.2,24.8 		"/>
		<polygon class="st4" points="25.2,24.8 25.2,24.8 25.2,24.8 25.2,24.8 25.2,24.8 		"/>
		<polygon class="st4" points="25.2,24.8 25.2,24.8 25.2,24.8 25.2,24.8 		"/>
		<polygon class="st4" points="25.2,24.8 25.2,24.8 25.2,24.8 		"/>
		<ellipse transform="matrix(0.7071 -0.7071 0.7071 0.7071 -10.1425 25.1027)" class="st4" cx="25.2" cy="24.8" rx="0" ry="0"/>
		<polygon class="st4" points="25.2,24.8 25.2,24.8 25.2,24.8 		"/>
		<polygon class="st4" points="25.2,24.8 25.2,24.8 25.2,24.8 25.2,24.8 25.2,24.8 		"/>
		<polygon class="st4" points="25.2,24.8 25.2,24.8 25.2,24.8 25.2,24.8 		"/>
		<polygon class="st4" points="25.2,24.8 25.2,24.8 25.2,24.8 25.2,24.8 25.2,24.8 25.2,24.8 		"/>
		<rect x="25.2" y="24.8" transform="matrix(0.7071 -0.7071 0.7071 0.7071 -10.1425 25.1026)" class="st4" width="0" height="0"/>
		<polygon class="st4" points="25.2,24.8 25.2,24.8 25.2,24.8 25.2,24.8 25.2,24.8 		"/>
		<polygon class="st4" points="25.3,24.8 25.2,24.8 25.3,24.8 		"/>
		<path class="st4" d="M28.6,17.8l6.8-4c0,0-0.1,0-0.1-0.1l-6.7,4L28.6,17.8z"/>
		<path class="st4" d="M37.9,12.3l1.6-0.9l-1,1.6c0,0,0,0.1,0.1,0.1l1.3-2L37.9,12.3C37.9,12.2,37.9,12.2,37.9,12.3z"/>
		<path class="st4" d="M32.8,21.9l4.2-6.4c0,0,0-0.1-0.1-0.1l-4.2,6.5L32.8,21.9z"/>
		<path class="st4" d="M35.4,13.7l0.9-0.6c0,0-0.1,0-0.1-0.1L35.4,13.7C35.3,13.7,35.4,13.7,35.4,13.7z"/>
		<path class="st4" d="M37,15.4l0.6-0.9c0,0,0-0.1-0.1-0.1L37,15.4C36.9,15.4,37,15.4,37,15.4z"/>
		<path class="st4" d="M37.9,13.8C37.9,13.8,38,13.9,37.9,13.8l0.7-0.8c0,0,0-0.1-0.1-0.1L37.9,13.8z"/>
		<path class="st4" d="M37,12.8l0.9-0.6c0,0,0-0.1-0.1-0.1L37,12.8C36.9,12.8,37,12.8,37,12.8z"/>
		<path class="st4" d="M37.6,14.5l0.4-0.6c0,0,0-0.1-0.1-0.1L37.6,14.5C37.5,14.5,37.6,14.5,37.6,14.5z"/>
		<path class="st4" d="M36.3,13.2l0.6-0.4c0,0-0.1,0-0.1-0.1L36.3,13.2C36.3,13.1,36.3,13.2,36.3,13.2z"/>
		<path class="st4" d="M28.6,18l6.9-4.1c0,0-0.1,0-0.1-0.1l-6.9,4.1L28.6,18z"/>
		<path class="st4" d="M38.6,12.1l0.3-0.3L38,12.4c0,0,0,0.1,0.1,0.1L38.6,12.1z"/>
		<path class="st4" d="M37.2,13l0.9-0.5c0,0,0-0.1-0.1-0.1L37.2,13C37.1,12.9,37.1,13,37.2,13z"/>
		<path class="st4" d="M36.5,13.4C36.5,13.3,36.5,13.3,36.5,13.4l-1,0.5c0,0,0.1,0,0.1,0.1L36.5,13.4z"/>
		<path class="st4" d="M37.2,13C37.1,13,37.1,12.9,37.2,13l-0.7,0.3c0,0,0.1,0,0.1,0.1L37.2,13z"/>
		<path class="st4" d="M32.5,21.8l0.1,0l0,0l4.2-6.6c0,0,0-0.1-0.1-0.1L32.5,21.8z"/>
		<path class="st4" d="M38.3,12.7C38.4,12.8,38.4,12.8,38.3,12.7l0.6-0.8l-0.3,0.3L38.3,12.7z"/>
		<path class="st4" d="M37.8,13.6C37.8,13.7,37.8,13.7,37.8,13.6l0.7-0.8c0,0,0-0.1-0.1-0.1L37.8,13.6z"/>
		<path class="st4" d="M36.8,15.2C36.8,15.2,36.8,15.2,36.8,15.2l0.7-0.8c0,0,0-0.1-0.1-0.1L36.8,15.2z"/>
		<path class="st4" d="M37.4,14.3C37.4,14.3,37.4,14.3,37.4,14.3l0.5-0.5c0,0,0-0.1-0.1-0.1L37.4,14.3z"/>
		<polygon class="st4" points="32.6,22.2 32.6,22.2 32.6,22.2 		"/>
		<polygon class="st4" points="32.8,22 32.8,21.9 32.7,21.9 32.7,22 		"/>
		<polygon class="st4" points="28.6,17.8 28.6,17.7 28.5,17.7 28.5,17.8 		"/>
		<polygon class="st4" points="28.5,18.1 28.6,18 28.6,17.9 28.5,17.9 		"/>
		<polygon class="st4" points="32.4,21.9 32.5,21.9 32.6,21.8 32.6,21.8 32.5,21.8 32.4,21.9 		"/>
		<polygon class="st4" points="32.6,22.2 32.6,22.2 32.7,22.1 32.4,22 		"/>
		<polygon class="st4" points="28.3,17.8 28.4,18 28.4,17.8 		"/>
		<polygon class="st4" points="32.6,22 32.7,22 32.8,22 32.7,22 		"/>
		<polygon class="st4" points="28.5,17.9 28.5,17.9 28.5,17.9 28.4,17.8 28.5,17.8 28.5,17.7 28.4,17.7 28.5,17.9 		"/>
		<polygon class="st4" points="28.5,18.1 28.5,17.9 28.5,18 28.5,17.9 28.5,17.9 28.5,17.9 28.5,18.1 		"/>
		<polygon class="st4" points="32.5,22 32.5,22 32.5,21.9 32.4,21.9 32.4,22 		"/>
		<polygon class="st4" points="32.6,22.1 32.5,22 32.5,22 32.4,22 32.4,22 32.4,22 32.7,22.1 32.7,22 32.6,22 		"/>
		<polygon class="st4" points="32.4,22 32.4,22 32.5,22 32.5,22 		"/>
		<polygon class="st4" points="28.5,18.1 28.5,17.9 28.5,17.9 28.5,17.9 28.4,17.7 28.4,17.8 28.4,17.8 28.4,18 28.5,18.1 		"/>
		<polygon class="st4" points="28.5,17.9 28.5,17.9 28.5,18.1 28.5,18.1 		"/>
		<path class="st4" d="M32.7,21.9l4.2-6.5c0,0,0,0,0-0.1L32.7,21.9L32.7,21.9z"/>
		<path class="st4" d="M39.1,11.6l0.2-0.2l0,0l0,0l0,0l0,0L39.1,11.6l-0.6,1.2c0,0,0,0,0,0l1-1.6l-1.6,0.9c0,0,0,0,0,0L39.1,11.6z"
			/>
		<path class="st4" d="M28.6,17.8l6.8-4c0,0,0,0,0,0L28.6,17.8L28.6,17.8z"/>
		<path class="st4" d="M35.5,13.8l0.9-0.6c0,0,0,0,0,0L35.5,13.8C35.4,13.8,35.4,13.8,35.5,13.8z"/>
		<path class="st4" d="M36.9,15.3l0.6-0.9c0,0,0,0,0,0L36.9,15.3C36.9,15.3,36.9,15.3,36.9,15.3z"/>
		<path class="st4" d="M37.9,13.8C37.9,13.8,37.9,13.8,37.9,13.8l0.6-0.9c0,0,0,0,0,0L37.9,13.8z"/>
		<path class="st4" d="M38,12.3C38,12.3,37.9,12.3,38,12.3l-1,0.5c0,0,0,0,0,0L38,12.3z"/>
		<path class="st4" d="M37.5,14.4C37.5,14.4,37.5,14.4,37.5,14.4l0.4-0.6c0,0,0,0,0,0L37.5,14.4z"/>
		<path class="st4" d="M36.4,13.2l0.6-0.4c0,0,0,0,0,0L36.4,13.2C36.4,13.2,36.4,13.2,36.4,13.2z"/>
		<polygon class="st4" points="39.3,11.5 39.3,11.5 39.3,11.5 		"/>
		<path class="st4" d="M28.6,17.9l6.9-4.1c0,0,0,0,0,0L28.6,17.9L28.6,17.9z"/>
		<path class="st4" d="M38.9,11.8l0.2-0.2L38,12.3c0,0,0,0,0,0L38.9,11.8z"/>
		<path class="st4" d="M38,12.4C38,12.3,38,12.3,38,12.4l-1,0.5c0,0,0,0,0,0L38,12.4z"/>
		<path class="st4" d="M35.5,13.8l0.9-0.6c0,0,0,0,0,0L35.5,13.8C35.5,13.8,35.5,13.8,35.5,13.8z"/>
		<path class="st4" d="M37.1,12.9C37.1,12.9,37.1,12.9,37.1,12.9l-0.7,0.3c0,0,0,0,0,0L37.1,12.9z"/>
		<path class="st4" d="M32.7,21.8l4.2-6.6c0,0,0,0,0-0.1L32.7,21.8L32.7,21.8z"/>
		<polygon class="st4" points="39.3,11.5 39.3,11.5 39.3,11.5 		"/>
		<path class="st4" d="M38.4,12.8C38.4,12.8,38.4,12.8,38.4,12.8l0.8-1.1L39,11.9L38.4,12.8z"/>
		<path class="st4" d="M37.8,13.7C37.8,13.7,37.9,13.7,37.8,13.7l0.6-0.9c0,0,0,0,0,0L37.8,13.7z"/>
		<path class="st4" d="M36.8,15.2C36.9,15.3,36.9,15.3,36.8,15.2l0.6-0.9c0,0,0,0,0,0L36.8,15.2z"/>
		<path class="st4" d="M37.4,14.3C37.4,14.3,37.5,14.4,37.4,14.3l0.4-0.6c0,0,0,0,0,0L37.4,14.3z"/>
		<polygon class="st4" points="28.5,17.9 28.6,17.8 28.6,17.8 28.5,17.8 		"/>
		<polygon class="st4" points="32.7,22 32.7,21.9 32.7,21.8 32.6,21.9 		"/>
		<polygon class="st4" points="28.5,17.9 28.6,17.9 28.6,17.8 28.5,17.9 		"/>
		<polygon class="st4" points="32.6,21.9 32.6,21.9 32.7,21.8 32.6,21.8 32.5,21.9 		"/>
		<polygon class="st4" points="28.5,17.8 28.4,17.8 28.5,17.9 28.5,17.9 		"/>
		<polygon class="st4" points="32.6,22 32.7,22 32.6,21.9 32.6,22 		"/>
		<polygon class="st4" points="28.5,17.9 28.5,17.9 28.5,17.9 28.5,18 		"/>
		<polygon class="st4" points="32.5,22 32.6,22 32.6,22 32.6,21.9 32.6,21.9 32.5,21.9 32.5,22 		"/>
		<polygon class="st4" points="32.6,22 32.5,22 32.5,22 32.6,22.1 32.6,22 32.6,22 		"/>
		<polygon class="st4" points="32.6,22 32.6,22 32.5,22 32.5,22 32.6,22 		"/>
		<path class="st4" d="M33,28.4l3.7,6.3c0,0,0.1-0.1,0.1-0.1l-3.7-6.3L33,28.4z"/>
		<path class="st4" d="M28.5,32.7l6.4,3.8c0,0,0.1-0.1,0.1-0.1l-6.5-3.8L28.5,32.7z"/>
		<path class="st4" d="M39.1,38.9l-0.2-0.1l-1.4-0.8c0,0-0.1,0-0.1,0.1l1.4,0.8l0.6,0.3l-1.1-2c0,0,0,0.1-0.1,0.1L39.1,38.9z"/>
		<path class="st4" d="M36.7,34.7l0.6,0.9c0,0,0-0.1,0.1-0.1L36.7,34.7C36.7,34.7,36.7,34.7,36.7,34.7z"/>
		<path class="st4" d="M36.6,37.4C36.5,37.4,36.5,37.4,36.6,37.4l0.9,0.6c0,0,0.1,0,0.1-0.1L36.6,37.4z"/>
		<path class="st4" d="M34.9,36.5l0.9,0.6c0,0,0.1,0,0.1-0.1L34.9,36.5C35,36.5,34.9,36.5,34.9,36.5z"/>
		<path class="st4" d="M37.6,36.3l0.6,0.9c0,0,0-0.1,0.1-0.1L37.6,36.3C37.7,36.3,37.6,36.3,37.6,36.3z"/>
		<path class="st4" d="M37.2,35.7l0.4,0.6c0,0,0-0.1,0.1-0.1L37.2,35.7C37.3,35.6,37.3,35.7,37.2,35.7z"/>
		<path class="st4" d="M35.8,37.1l0.6,0.4c0,0,0.1,0,0.1-0.1L35.8,37.1C35.9,37,35.9,37,35.8,37.1z"/>
		<path class="st4" d="M37.7,37.8C37.7,37.8,37.6,37.8,37.7,37.8l0.8,0.6l-0.3-0.3L37.7,37.8z"/>
		<path class="st4" d="M28.6,32.4l0,0.1l6.5,3.9c0,0,0.1,0,0.1-0.1L28.6,32.4z"/>
		<path class="st4" d="M36.7,37.2C36.7,37.2,36.7,37.3,36.7,37.2l0.9,0.6c0,0,0.1,0,0.1-0.1L36.7,37.2z"/>
		<path class="st4" d="M35.2,36.3C35.1,36.3,35.1,36.3,35.2,36.3l0.9,0.6c0,0,0.1,0,0.1-0.1L35.2,36.3z"/>
		<path class="st4" d="M36.1,36.8C36.1,36.9,36,36.9,36.1,36.8l0.6,0.5c0,0,0.1,0,0.1-0.1L36.1,36.8z"/>
		<path class="st4" d="M38.4,38.1l0.3,0.3l-0.6-1c0,0,0,0.1-0.1,0.1L38.4,38.1z"/>
		<path class="st4" d="M32.7,28.4l3.8,6.5c0,0,0-0.1,0.1-0.1l-3.7-6.4L32.7,28.4z"/>
		<path class="st4" d="M38,37.5C38,37.4,38,37.4,38,37.5l-0.5-1c0,0,0,0.1-0.1,0.1L38,37.5z"/>
		<path class="st4" d="M37.1,35.9C37.1,35.8,37.1,35.8,37.1,35.9l-0.5-1c0,0,0,0.1-0.1,0.1L37.1,35.9z"/>
		<path class="st4" d="M37.4,36.5C37.5,36.5,37.5,36.5,37.4,36.5l-0.3-0.7c0,0,0,0.1-0.1,0.1L37.4,36.5z"/>
		<polygon class="st4" points="32.9,28.4 32.9,28.3 33,28.4 33.1,28.4 33,28.3 33,28.3 32.9,28.3 		"/>
		<polygon class="st4" points="28.4,32.7 28.5,32.7 28.5,32.6 28.4,32.6 		"/>
		<polygon class="st4" points="28.5,32.3 28.5,32.4 28.6,32.5 28.6,32.4 28.5,32.3 		"/>
		<polygon class="st4" points="32.9,28.4 32.9,28.3 32.8,28.3 32.7,28.4 32.7,28.4 32.8,28.4 32.8,28.4 		"/>
		<polygon class="st4" points="28.2,32.6 28.3,32.6 28.3,32.3 		"/>
		<polygon class="st4" points="28.4,32.5 28.4,32.6 28.4,32.7 28.4,32.6 		"/>
		<polygon class="st4" points="28.4,32.5 28.4,32.5 28.4,32.5 28.4,32.5 		"/>
		<polygon class="st4" points="32.9,28.3 33,28.3 33,28.2 32.9,28.2 32.9,28.3 		"/>
		<polygon class="st4" points="33,28.2 32.9,28.2 33,28.2 		"/>
		<polygon class="st4" points="28.4,32.5 28.4,32.5 28.4,32.4 28.5,32.4 28.5,32.3 28.4,32.3 		"/>
		<polygon class="st4" points="32.9,28.3 32.9,28.3 32.8,28.3 		"/>
		<polygon class="st4" points="28.4,32.5 28.4,32.5 28.4,32.5 28.4,32.5 28.4,32.5 28.4,32.3 28.4,32.3 28.3,32.3 28.3,32.6 
			28.4,32.6 28.4,32.5 		"/>
		<polygon class="st4" points="28.4,32.3 28.4,32.5 28.4,32.5 28.4,32.3 		"/>
		<path class="st4" d="M28.5,32.6l6.5,3.8c0,0,0,0,0,0L28.5,32.6L28.5,32.6z"/>
		<path class="st4" d="M38.8,38.5l0.2,0.2l0,0l0,0l0,0l0,0l0,0l0,0l0,0l-0.2-0.2l-1.1-0.7c0,0,0,0,0,0l1.4,0.8l0.2,0.1l-0.9-1.6
			c0,0,0,0,0,0L38.8,38.5z"/>
		<path class="st4" d="M32.9,28.4l3.7,6.4c0,0,0,0,0,0L32.9,28.4L32.9,28.4z"/>
		<path class="st4" d="M35,36.4l0.9,0.6c0,0,0,0,0,0L35,36.4C35,36.4,35,36.4,35,36.4z"/>
		<path class="st4" d="M36.6,34.8l0.6,0.9c0,0,0,0,0,0L36.6,34.8C36.7,34.8,36.6,34.8,36.6,34.8z"/>
		<path class="st4" d="M36.6,37.3C36.6,37.3,36.6,37.4,36.6,37.3l0.9,0.6c0,0,0,0,0,0L36.6,37.3z"/>
		<path class="st4" d="M38.1,37.3C38.1,37.3,38.1,37.3,38.1,37.3l-0.5-1c0,0,0,0,0,0L38.1,37.3z"/>
		<path class="st4" d="M36,36.9C36,37,35.9,37,36,36.9l0.6,0.4c0,0,0,0,0,0L36,36.9z"/>
		<path class="st4" d="M37.2,35.7l0.4,0.6c0,0,0,0,0,0L37.2,35.7C37.2,35.7,37.2,35.7,37.2,35.7z"/>
		<path class="st4" d="M37.6,37.8C37.6,37.9,37.6,37.9,37.6,37.8l1.1,0.7l-0.2-0.2L37.6,37.8z"/>
		<path class="st4" d="M28.5,32.5L28.5,32.5l6.5,3.9c0,0,0,0,0,0L28.5,32.5L28.5,32.5z"/>
		<polygon class="st4" points="38.9,38.7 38.9,38.7 38.9,38.7 		"/>
		<path class="st4" d="M35.1,36.3C35.1,36.4,35,36.4,35.1,36.3l0.9,0.6c0,0,0,0,0,0L35.1,36.3z"/>
		<path class="st4" d="M36.7,37.3C36.6,37.3,36.6,37.3,36.7,37.3l0.9,0.6c0,0,0,0,0,0L36.7,37.3z"/>
		<path class="st4" d="M36,36.9C36,36.9,36,36.9,36,36.9l0.6,0.4c0,0,0,0,0,0L36,36.9z"/>
		<path class="st4" d="M32.8,28.4l3.7,6.4c0,0,0,0,0,0L32.8,28.4L32.8,28.4z"/>
		<path class="st4" d="M38.6,38.3l0.2,0.2l-0.7-1.2c0,0,0,0,0,0L38.6,38.3z"/>
		<polygon class="st4" points="38.9,38.7 38.9,38.7 38.9,38.7 		"/>
		<path class="st4" d="M38.1,37.4C38.1,37.4,38.1,37.3,38.1,37.4l-0.5-1c0,0,0,0,0,0L38.1,37.4z"/>
		<path class="st4" d="M36.6,34.8l0.6,0.9c0,0,0,0,0,0L36.6,34.8C36.6,34.8,36.6,34.8,36.6,34.8z"/>
		<path class="st4" d="M37.5,36.4C37.5,36.4,37.5,36.4,37.5,36.4l-0.3-0.7c0,0,0,0,0,0L37.5,36.4z"/>
		<polygon class="st4" points="32.9,28.4 32.9,28.4 32.9,28.4 33,28.4 32.9,28.3 		"/>
		<polygon class="st4" points="28.4,32.6 28.5,32.6 28.5,32.5 28.4,32.5 		"/>
		<polygon class="st4" points="28.4,32.5 28.4,32.5 28.5,32.5 28.5,32.5 28.6,32.5 28.5,32.4 		"/>
		<polygon class="st4" points="32.9,28.4 32.8,28.4 32.8,28.4 32.9,28.4 32.9,28.4 		"/>
		<polygon class="st4" points="28.4,32.5 28.4,32.5 28.4,32.5 28.4,32.6 28.4,32.5 28.4,32.5 		"/>
		<polygon class="st4" points="28.4,32.5 28.4,32.5 28.4,32.5 28.4,32.5 28.5,32.4 28.4,32.4 		"/>
		<polygon class="st4" points="28.4,32.5 28.4,32.5 28.4,32.5 		"/>
		<path class="st4" d="M17,28.2l-3.7,6.2c0,0,0,0.1,0.1,0.1l3.7-6.2L17,28.2z"/>
		<path class="st4" d="M10.7,38.9l0.1-0.2l1-1.7c0,0,0-0.1-0.1-0.1l-1.4,2.3l2.3-1.3c0,0-0.1,0-0.1-0.1L10.7,38.9z"/>
		<path class="st4" d="M21.8,32.3l-6.6,3.9c0,0,0.1,0,0.1,0.1l6.6-3.9L21.8,32.3z"/>
		<path class="st4" d="M13.3,34.4l-0.6,1c0,0,0.1,0.1,0.1,0.1L13.3,34.4C13.4,34.4,13.4,34.4,13.3,34.4z"/>
		<path class="st4" d="M12.4,36C12.4,36,12.4,36,12.4,36l-0.6,0.9c0,0,0,0.1,0.1,0.1L12.4,36z"/>
		<path class="st4" d="M13.6,37.2l-0.9,0.6c0,0,0.1,0,0.1,0.1L13.6,37.2C13.6,37.2,13.6,37.2,13.6,37.2z"/>
		<path class="st4" d="M15.1,36.3l-0.9,0.6c0,0,0.1,0,0.1,0.1L15.1,36.3C15.2,36.3,15.2,36.3,15.1,36.3z"/>
		<path class="st4" d="M12.8,35.3L12.4,36c0,0,0.1,0.1,0.1,0.1L12.8,35.3C12.8,35.4,12.8,35.3,12.8,35.3z"/>
		<path class="st4" d="M14.2,36.8l-0.6,0.4c0,0,0.1,0,0.1,0.1L14.2,36.8C14.3,36.9,14.2,36.8,14.2,36.8z"/>
		<path class="st4" d="M21.7,32.2l0-0.2l-6.7,4c0,0,0.1,0,0.1,0.1L21.7,32.2L21.7,32.2z"/>
		<path class="st4" d="M12.4,37.6L11.7,38l-0.4,0.3L12.4,37.6C12.5,37.6,12.5,37.6,12.4,37.6z"/>
		<path class="st4" d="M12.4,37.6C12.5,37.6,12.5,37.6,12.4,37.6l1-0.5c0,0-0.1,0-0.1-0.1L12.4,37.6z"/>
		<path class="st4" d="M14,36.7C14.1,36.7,14.1,36.7,14,36.7l1-0.5c0,0-0.1,0-0.1-0.1L14,36.7z"/>
		<path class="st4" d="M13.4,37C13.4,37.1,13.4,37.1,13.4,37l0.7-0.3c0,0-0.1,0-0.1-0.1L13.4,37z"/>
		<path class="st4" d="M17.4,28.3l-0.1,0l-3.8,6.3c0,0,0.1,0.1,0.1,0.1L17.4,28.3z"/>
		<path class="st4" d="M12,37.1C12,37.1,12,37.1,12,37.1l-0.8,1.2l0.3-0.3L12,37.1z"/>
		<path class="st4" d="M13.6,34.6C13.5,34.6,13.5,34.6,13.6,34.6l-0.6,0.9c0,0,0,0.1,0.1,0.1L13.6,34.6z"/>
		<path class="st4" d="M12.6,36.2C12.6,36.2,12.6,36.2,12.6,36.2L12,37.1c0,0,0,0.1,0.1,0.1L12.6,36.2z"/>
		<path class="st4" d="M13,35.6C13,35.5,12.9,35.5,13,35.6l-0.5,0.6c0,0,0,0.1,0.1,0.1L13,35.6z"/>
		<polygon class="st4" points="17.3,28.2 17.3,28.1 17.3,28.1 17.1,28.1 17,28.2 17.1,28.2 17.2,28.1 		"/>
		<polygon class="st4" points="21.7,32.3 21.8,32.3 21.8,32.3 21.8,32.4 21.9,32.4 21.8,32.2 		"/>
		<polygon class="st4" points="17.2,28 17.2,28 17.2,28 		"/>
		<polygon class="st4" points="21.8,32.2 21.8,32.2 21.8,32.1 21.7,32.1 21.7,32.2 21.7,32.3 		"/>
		<polygon class="st4" points="17.4,28.2 17.3,28.1 17.3,28.2 17.3,28.2 17.3,28.2 17.4,28.3 17.4,28.2 		"/>
		<polygon class="st4" points="21.9,32.4 21.9,32.3 21.9,32.2 21.8,32.2 		"/>
		<polygon class="st4" points="17.3,28.1 17.3,28.1 17.3,28.1 17.3,28.1 17.3,28.1 17.1,28 17.1,28.1 17.3,28.1 		"/>
		<polygon class="st4" points="17.3,28.1 17.2,28 17.2,28 17.1,28 17.3,28.1 		"/>
		<polygon class="st4" points="21.8,32.2 21.9,32.2 21.8,32.2 		"/>
		<polygon class="st4" points="17.3,28.1 17.3,28.1 17.3,28.1 17.4,28.2 17.4,28.2 		"/>
		<path class="st4" d="M11.2,38.5L11,38.7l-0.1-0.1l0.2-0.1l0.9-1.5c0,0,0,0,0,0l-1,1.7l-0.1,0.2l1.9-1.1c0,0,0,0,0,0L11.2,38.5z"/>
		<path class="st4" d="M21.7,32.3l-6.6,4c0,0,0,0,0,0L21.7,32.3L21.7,32.3z"/>
		<path class="st4" d="M17.1,28.2l-3.7,6.2c0,0,0,0,0,0.1L17.1,28.2L17.1,28.2z"/>
		<path class="st4" d="M12.6,37.7C12.6,37.7,12.6,37.7,12.6,37.7l1-0.5c0,0,0,0,0,0L12.6,37.7z"/>
		<path class="st4" d="M12.5,36.1C12.5,36.1,12.5,36.1,12.5,36.1L11.9,37c0,0,0,0,0,0L12.5,36.1z"/>
		<path class="st4" d="M15.1,36.2l-0.9,0.6c0,0,0,0,0,0L15.1,36.2C15.1,36.2,15.1,36.2,15.1,36.2z"/>
		<path class="st4" d="M13.4,34.5l-0.6,0.9c0,0,0,0,0,0L13.4,34.5C13.4,34.5,13.4,34.5,13.4,34.5z"/>
		<path class="st4" d="M12.9,35.4C12.9,35.4,12.8,35.4,12.9,35.4L12.4,36c0,0,0,0,0,0L12.9,35.4z"/>
		<path class="st4" d="M14.2,36.8l-0.6,0.4c0,0,0,0,0,0L14.2,36.8C14.2,36.8,14.2,36.8,14.2,36.8z"/>
		<path class="st4" d="M11.4,38.4l-0.2,0.2l1.4-0.8c0,0,0,0,0,0L11.4,38.4z"/>
		<path class="st4" d="M21.7,32.2L21.7,32.2L15,36.2c0,0,0,0,0,0L21.7,32.2L21.7,32.2z"/>
		<path class="st4" d="M15,36.2l-0.9,0.6c0,0,0,0,0,0L15,36.2C15.1,36.2,15.1,36.2,15,36.2z"/>
		<path class="st4" d="M12.5,37.7C12.5,37.7,12.6,37.7,12.5,37.7l1-0.5c0,0,0,0,0,0L12.5,37.7z"/>
		<path class="st4" d="M13.5,37.1C13.5,37.1,13.5,37.1,13.5,37.1l0.7-0.3c0,0,0,0,0,0L13.5,37.1z"/>
		<path class="st4" d="M12,37.1C12,37.1,11.9,37,12,37.1L11,38.5l0.2-0.2L12,37.1z"/>
		<path class="st4" d="M17.2,28.2l-3.8,6.3c0,0,0,0,0,0.1L17.2,28.2L17.2,28.2z"/>
		<path class="st4" d="M13.5,34.6C13.5,34.5,13.5,34.5,13.5,34.6l-0.6,0.9c0,0,0,0,0,0L13.5,34.6z"/>
		<path class="st4" d="M12.5,36.1C12.5,36.1,12.5,36.1,12.5,36.1L11.9,37c0,0,0,0,0,0L12.5,36.1z"/>
		<path class="st4" d="M12.9,35.5C12.9,35.5,12.9,35.5,12.9,35.5l-0.4,0.6c0,0,0,0,0,0L12.9,35.5z"/>
		<polygon class="st4" points="21.7,32.3 21.7,32.3 21.7,32.3 21.8,32.3 21.8,32.3 		"/>
		<polygon class="st4" points="17.2,28.1 17.1,28.2 17.2,28.2 17.3,28.2 		"/>
		<polygon class="st4" points="21.7,32.3 21.7,32.2 21.7,32.3 21.7,32.3 		"/>
		<polygon class="st4" points="17.3,28.2 17.2,28.2 17.3,28.2 17.3,28.2 		"/>
		<path class="st4" d="M21.7,17.7L21.7,17.7L21.7,17.7l0.1-0.1l-6.4-4.2c0,0-0.1,0-0.1,0.1L21.7,17.7L21.7,17.7z"/>
		<path class="st4" d="M17.3,22l-3.8-6.8c0,0-0.1,0.1-0.1,0.1l3.7,6.8L17.3,22z"/>
		<path class="st4" d="M11.2,10.8l1.6,1.1c0,0,0.1,0,0.1-0.1l-2-1.3l1.2,2.1c0,0,0-0.1,0.1-0.1L11.2,10.8z"/>
		<path class="st4" d="M12.7,13.5l-0.5-1c0,0,0,0.1-0.1,0.1L12.7,13.5C12.6,13.6,12.6,13.6,12.7,13.5z"/>
		<path class="st4" d="M15.3,13.4l-0.9-0.6c0,0-0.1,0-0.1,0.1L15.3,13.4C15.3,13.4,15.3,13.4,15.3,13.4z"/>
		<path class="st4" d="M13.7,12.5C13.7,12.4,13.8,12.4,13.7,12.5l-0.8-0.7c0,0-0.1,0-0.1,0.1L13.7,12.5z"/>
		<path class="st4" d="M13.6,15.1l-0.5-1c0,0-0.1,0.1-0.1,0.1L13.6,15.1C13.5,15.2,13.5,15.2,13.6,15.1z"/>
		<path class="st4" d="M13,14.2l-0.4-0.7c0,0,0,0.1-0.1,0.1L13,14.2C13,14.2,13,14.2,13,14.2z"/>
		<path class="st4" d="M14.4,12.8l-0.6-0.4c0,0-0.1,0-0.1,0.1L14.4,12.8C14.4,12.8,14.4,12.8,14.4,12.8z"/>
		<path class="st4" d="M12.6,12C12.7,12,12.7,12,12.6,12l-0.9-0.7l0.3,0.3L12.6,12z"/>
		<path class="st4" d="M21.6,17.8L21.6,17.8l0.1,0l0-0.1l0,0l-0.1,0l0,0L21.6,17.8l-6.4-4.3c0,0-0.1,0-0.1,0.1L21.6,17.8z"/>
		<path class="st4" d="M13.5,12.6C13.6,12.6,13.6,12.6,13.5,12.6L12.7,12c0,0-0.1,0-0.1,0.1L13.5,12.6z"/>
		<path class="st4" d="M15.1,13.6C15.1,13.6,15.1,13.6,15.1,13.6L14.2,13c0,0-0.1,0-0.1,0.1L15.1,13.6z"/>
		<path class="st4" d="M14.2,13C14.2,13,14.2,13,14.2,13l-0.5-0.5c0,0-0.1,0-0.1,0.1L14.2,13z"/>
		<path class="st4" d="M17.6,21.9l-3.8-7c0,0-0.1,0.1-0.1,0.1l3.8,6.9L17.6,21.9z"/>
		<path class="st4" d="M11.9,11.7l-0.3-0.3l0.6,1c0,0,0-0.1,0.1-0.1L11.9,11.7z"/>
		<path class="st4" d="M13.2,14C13.2,14,13.1,14.1,13.2,14l0.5,1.1c0,0,0.1-0.1,0.1-0.1L13.2,14z"/>
		<path class="st4" d="M12.3,12.4C12.3,12.4,12.2,12.4,12.3,12.4l0.5,1.1c0,0,0-0.1,0.1-0.1L12.3,12.4z"/>
		<path class="st4" d="M12.8,13.3C12.8,13.4,12.8,13.4,12.8,13.3l0.3,0.7c0,0,0-0.1,0.1-0.1L12.8,13.3z"/>
		<polygon class="st4" points="21.8,17.6 21.8,17.5 21.7,17.7 21.8,17.7 		"/>
		<polygon class="st4" points="17.3,22 17.2,22 17.3,22.1 17.4,22.1 		"/>
		<polygon class="st4" points="17.4,22.1 17.4,22.1 17.4,22 		"/>
		<polygon class="st4" points="17.3,22.2 17.4,22.2 17.3,22.2 		"/>
		<polygon class="st4" points="21.7,17.7 21.7,17.7 21.7,17.8 21.8,17.7 		"/>
		<polygon class="st4" points="17.4,22 17.4,22.1 17.6,22 17.6,21.9 17.5,22 17.5,22 		"/>
		<polygon class="st4" points="17.6,22.1 17.6,22.1 17.5,22.1 17.4,22.1 17.4,22.1 17.4,22.1 17.4,22.1 17.3,22.1 17.3,22.1 
			17.5,22.1 		"/>
		<polygon class="st4" points="17.5,22.1 17.3,22.1 17.3,22.2 17.4,22.2 17.6,22.1 		"/>
		<polygon class="st4" points="17.6,22 17.4,22.1 17.5,22.1 17.6,22.1 17.6,22.1 		"/>
		<path class="st4" d="M11.5,11.2l-0.2-0.2l0,0l0,0l0,0l0,0L11.5,11.2l1.3,0.7c0,0,0,0,0,0l-1.6-1.1l1,1.7c0,0,0,0,0,0L11.5,11.2z"
			/>
		<path class="st4" d="M21.7,17.6l-6.5-4.2c0,0,0,0,0,0L21.7,17.6L21.7,17.6z"/>
		<path class="st4" d="M17.4,22l-3.8-6.9c0,0,0,0,0,0L17.4,22L17.4,22z"/>
		<path class="st4" d="M12.2,12.5C12.2,12.5,12.1,12.5,12.2,12.5l0.5,1c0,0,0,0,0,0L12.2,12.5z"/>
		<path class="st4" d="M13.7,12.5C13.7,12.5,13.7,12.5,13.7,12.5l-0.9-0.6c0,0,0,0,0,0L13.7,12.5z"/>
		<path class="st4" d="M13.6,15.1l-0.5-1c0,0,0,0,0,0L13.6,15.1C13.6,15.1,13.6,15.1,13.6,15.1z"/>
		<path class="st4" d="M15.2,13.5l-0.9-0.6c0,0,0,0,0,0L15.2,13.5C15.2,13.5,15.2,13.5,15.2,13.5z"/>
		<path class="st4" d="M14.3,12.9C14.3,12.9,14.3,12.9,14.3,12.9l-0.6-0.4c0,0,0,0,0,0L14.3,12.9z"/>
		<path class="st4" d="M13.1,14.1l-0.4-0.7c0,0,0,0,0,0L13.1,14.1C13,14.2,13.1,14.1,13.1,14.1z"/>
		<path class="st4" d="M12.7,12C12.7,12,12.7,11.9,12.7,12l-1.2-0.8l0.2,0.2L12.7,12z"/>
		<polygon class="st4" points="11.3,11 11.3,11 11.3,11 		"/>
		<path class="st4" d="M21.7,17.7l-6.5-4.2c0,0,0,0,0,0L21.7,17.7L21.7,17.7z"/>
		<path class="st4" d="M13.6,12.6C13.6,12.5,13.7,12.5,13.6,12.6l-0.9-0.6c0,0,0,0,0,0L13.6,12.6z"/>
		<path class="st4" d="M15.1,13.5C15.2,13.5,15.2,13.5,15.1,13.5l-0.9-0.6c0,0,0,0,0,0L15.1,13.5z"/>
		<path class="st4" d="M14.2,13C14.3,12.9,14.3,12.9,14.2,13l-0.6-0.4c0,0,0,0,0,0L14.2,13z"/>
		<path class="st4" d="M17.5,22l-3.8-6.9c0,0,0,0,0,0L17.5,22L17.5,22z"/>
		<path class="st4" d="M11.6,11.4l-0.2-0.2l0.7,1.3c0,0,0,0,0,0L11.6,11.4z"/>
		<path class="st4" d="M13.6,15.1l-0.5-1c0,0,0,0,0,0L13.6,15.1C13.6,15.1,13.6,15.1,13.6,15.1z"/>
		<path class="st4" d="M12.2,12.5C12.2,12.5,12.2,12.5,12.2,12.5l0.5,1c0,0,0,0,0,0L12.2,12.5z"/>
		<path class="st4" d="M12.8,13.4C12.7,13.4,12.7,13.5,12.8,13.4l0.3,0.7c0,0,0,0,0,0L12.8,13.4z"/>
		<polygon class="st4" points="17.4,22.1 17.4,22 17.4,22 17.4,22 17.3,22 17.4,22.1 		"/>
		<polygon class="st4" points="17.4,22 17.5,22 17.5,22 17.4,22 17.4,22 		"/>
		<polygon class="st4" points="17.4,22.1 17.4,22.1 17.4,22.1 		"/>
		<path class="st4" d="M38.2,12.6l0.6-0.6l0,0l-0.2,0.1L38.2,12.6C38.2,12.5,38.2,12.6,38.2,12.6z"/>
		<path class="st4" d="M29.2,21.2l7-6.7c0,0,0,0,0,0L29.2,21.2L29.2,21.2L29.2,21.2z"/>
		<path class="st4" d="M36.9,13.8C36.9,13.8,36.9,13.8,36.9,13.8l-0.8,0.7c0,0,0,0,0,0L36.9,13.8z"/>
		<path class="st4" d="M38.2,12.6C38.2,12.6,38.2,12.5,38.2,12.6l-0.8,0.7c0,0,0,0,0,0L38.2,12.6z"/>
		<path class="st4" d="M37.5,13.3C37.4,13.3,37.4,13.3,37.5,13.3l-0.6,0.4c0,0,0,0,0,0L37.5,13.3z"/>
		<path class="st4" d="M38.3,12.6l0.4-0.4l0.1-0.2L38.3,12.6C38.2,12.6,38.2,12.6,38.3,12.6z"/>
		<path class="st4" d="M29.2,21.2L29.2,21.2l7-6.7c0,0,0,0,0,0L29.2,21.2z"/>
		<path class="st4" d="M36.2,14.5C36.2,14.5,36.2,14.6,36.2,14.5l0.8-0.7c0,0,0,0,0,0L36.2,14.5z"/>
		<path class="st4" d="M37.5,13.4l0.8-0.7c0,0,0,0,0,0L37.5,13.4C37.5,13.3,37.5,13.3,37.5,13.4z"/>
		<path class="st4" d="M36.9,13.8C37,13.8,37,13.8,36.9,13.8l0.6-0.4c0,0,0,0,0,0L36.9,13.8z"/>
		<polygon class="st4" points="29.1,21.3 29.2,21.2 29.2,21.2 29.2,21.2 29.1,21.3 29.1,21.3 		"/>
		<polygon class="st4" points="29.1,21.3 29.2,21.3 29.3,21.2 29.2,21.2 		"/>
		<polygon class="st4" points="29.1,21.4 29.1,21.4 29.1,21.4 29.1,21.4 		"/>
		<polygon class="st4" points="29.1,21.4 29.1,21.4 29.1,21.3 29.1,21.3 29.1,21.3 29.1,21.3 		"/>
		<polygon class="st4" points="29.1,21.4 29.1,21.4 29.1,21.4 29.2,21.3 29.1,21.3 		"/>
		<polygon class="st4" points="29.1,21.4 29.1,21.4 29.1,21.4 29.1,21.4 		"/>
		<polygon class="st4" points="29.1,21.4 29.1,21.3 29,21.3 29,21.3 29,21.3 		"/>
		<polygon class="st4" points="29.1,21.4 29.1,21.3 29.1,21.3 29.1,21.4 		"/>
		<polygon class="st4" points="29.1,21.4 29.1,21.4 29.1,21.4 29.1,21.4 29.1,21.4 29.1,21.4 		"/>
		<polygon class="st4" points="29.1,21.4 29.1,21.4 29.1,21.4 		"/>
		<ellipse transform="matrix(0.5547 -0.8321 0.8321 0.5547 -4.8438 33.7023)" class="st4" cx="29.1" cy="21.4" rx="0" ry="0"/>
		<polygon class="st4" points="29.1,21.4 29.1,21.4 29.1,21.4 29.1,21.4 		"/>
		<polygon class="st4" points="29.1,21.4 29.1,21.4 29,21.3 29,21.3 29.1,21.4 29.1,21.4 		"/>
		<circle class="st4" cx="29.1" cy="21.4" r="0"/>
		<polygon class="st4" points="29.1,21.4 29.1,21.4 29.1,21.4 		"/>
		<polygon class="st4" points="38.8,12 38.8,12 39.1,11.7 39.1,11.7 38.9,11.8 38.6,12.1 		"/>
		<polygon class="st4" points="38.7,12.2 39,11.9 39.1,11.7 38.8,12 		"/>
		<polygon class="st4" points="39.4,11.6 39.3,11.5 39.2,11.7 		"/>
		<polygon class="st4" points="39.3,11.5 39.1,11.6 39.3,11.5 		"/>
		<polygon class="st4" points="39.1,11.7 39.1,11.7 39.3,11.5 39.3,11.5 39.1,11.6 38.9,11.8 		"/>
		<polygon class="st4" points="39.1,11.7 39,11.9 39.2,11.7 39.3,11.5 39.3,11.5 		"/>
		<path class="st4" d="M21.1,29.1l-6.8,6.4c0,0,0,0,0,0L21.1,29.1L21.1,29.1L21.1,29.1z"/>
		<path class="st4" d="M12.3,37.4l-0.8,0.8l0.2-0.1L12.3,37.4C12.3,37.4,12.3,37.4,12.3,37.4z"/>
		<path class="st4" d="M13.6,36.2C13.6,36.2,13.6,36.2,13.6,36.2l0.8-0.7c0,0,0,0,0,0L13.6,36.2z"/>
		<path class="st4" d="M12.3,37.4C12.3,37.4,12.3,37.4,12.3,37.4l0.8-0.7c0,0,0,0,0,0L12.3,37.4z"/>
		<path class="st4" d="M13,36.7C13.1,36.7,13.1,36.7,13,36.7l0.6-0.4c0,0,0,0,0,0L13,36.7z"/>
		<path class="st4" d="M12.2,37.4l-0.8,0.7l-0.1,0.1l0.1,0L12.2,37.4C12.3,37.4,12.3,37.4,12.2,37.4z"/>
		<path class="st4" d="M21.1,29.1L21.1,29.1l-6.9,6.4c0,0,0,0,0,0L21.1,29.1z"/>
		<path class="st4" d="M14.3,35.5C14.3,35.5,14.3,35.5,14.3,35.5l-0.8,0.7c0,0,0,0,0,0L14.3,35.5z"/>
		<path class="st4" d="M13,36.6l-0.8,0.7c0,0,0,0,0,0L13,36.6C13,36.7,13,36.7,13,36.6z"/>
		<path class="st4" d="M13.6,36.2C13.5,36.2,13.5,36.2,13.6,36.2L13,36.6c0,0,0,0,0,0L13.6,36.2z"/>
		<polygon class="st4" points="21.2,29 21.1,29.1 21.1,29.1 21.2,29.1 21.2,29.1 21.2,29 		"/>
		<polygon class="st4" points="21.2,29 21.2,29 21.1,29.1 21.1,29.1 		"/>
		<polygon class="st4" points="21.3,29 21.3,29 21.3,28.9 21.3,28.9 		"/>
		<polygon class="st4" points="21.2,28.9 21.2,28.9 21.3,28.9 		"/>
		<polygon class="st4" points="21.3,28.9 21.3,28.9 21.2,29 21.2,29 21.2,29.1 21.3,29 21.3,28.9 21.3,28.9 		"/>
		<polygon class="st4" points="21.3,28.9 21.3,28.9 21.3,29 21.3,29 21.3,28.9 		"/>
		<polygon class="st4" points="21.3,28.9 21.3,28.9 21.3,28.9 		"/>
		<polygon class="st4" points="21.3,28.9 21.2,28.9 21.2,29 21.2,29 		"/>
		<polygon class="st4" points="21.3,28.9 21.3,28.9 21.3,28.9 		"/>
		<rect x="21.3" y="28.9" class="st4" width="0" height="0"/>
		<polygon class="st4" points="21.3,28.9 21.3,28.9 21.3,28.9 21.3,28.9 21.3,28.9 21.3,28.9 21.2,28.9 21.2,28.9 		"/>
		<rect x="21.3" y="28.9" class="st4" width="0" height="0"/>
		<polygon class="st4" points="21.3,28.9 21.3,28.9 21.3,28.9 21.3,28.9 21.3,28.9 		"/>
		<polygon class="st4" points="21.3,28.9 21.3,28.9 21.2,28.9 21.2,28.9 21.3,28.9 		"/>
		<rect x="21.3" y="28.9" class="st4" width="0" height="0"/>
		<polygon class="st4" points="21.3,28.9 21.3,28.9 21.3,28.9 		"/>
		<ellipse transform="matrix(0.7071 -0.7071 0.7071 0.7071 -14.2241 23.522)" class="st4" cx="21.3" cy="28.9" rx="0" ry="0"/>
		<polygon class="st4" points="21.3,28.9 21.3,28.9 21.3,28.9 		"/>
		<rect x="21.3" y="28.9" transform="matrix(0.7071 -0.7071 0.7071 0.7071 -14.2241 23.522)" class="st4" width="0" height="0"/>
		<polygon class="st4" points="11.5,38.2 11.1,38.5 11.4,38.4 11.7,38 		"/>
		<polygon class="st4" points="11.4,38.2 11.5,38.1 11.2,38.3 11.1,38.5 11.1,38.5 11.5,38.2 		"/>
		<polygon class="st4" points="11,38.5 10.9,38.6 11,38.7 11.2,38.5 10.9,38.7 		"/>
		<polygon class="st4" points="11.1,38.5 10.9,38.7 11.2,38.5 11.4,38.4 		"/>
		<polygon class="st4" points="11.1,38.5 11.1,38.5 11.2,38.3 11,38.5 10.9,38.7 		"/>
		<polygon class="st4" points="37.8,37.6 38.4,38.2 38.4,38.2 37.8,37.6 		"/>
		<polygon class="st4" points="36.6,36.4 35.8,35.7 36.6,36.4 		"/>
		<polygon class="st4" points="37.1,36.9 37.8,37.6 37.8,37.6 37.1,36.9 		"/>
		<polygon class="st4" points="37.1,36.9 37.1,36.9 36.6,36.4 36.6,36.4 		"/>
		<path class="st4" d="M29.2,29.3L29.2,29.3l6.6,6.4c0,0,0,0,0,0L29.2,29.3z"/>
		<path class="st4" d="M37.8,37.7l0.4,0.4l0.2,0.1L37.8,37.7C37.8,37.7,37.8,37.7,37.8,37.7z"/>
		<path class="st4" d="M35.8,35.7L35.8,35.7C35.8,35.7,35.8,35.7,35.8,35.7l0.7,0.7c0,0,0,0,0,0L35.8,35.7z"/>
		<path class="st4" d="M37,36.9l0.8,0.7c0,0,0,0,0,0L37,36.9C37.1,36.9,37,36.9,37,36.9z"/>
		<path class="st4" d="M36.6,36.4C36.5,36.4,36.5,36.4,36.6,36.4l0.5,0.5c0,0,0,0,0,0L36.6,36.4z"/>
		<path class="st4" d="M37.8,37.6l0.6,0.6l0,0l-0.1-0.2L37.8,37.6C37.9,37.6,37.8,37.6,37.8,37.6z"/>
		<path class="st4" d="M35.8,35.7C35.8,35.7,35.8,35.7,35.8,35.7l-6.5-6.4l-0.1,0L35.8,35.7z"/>
		<path class="st4" d="M37.8,37.6C37.8,37.6,37.9,37.6,37.8,37.6l-0.7-0.8c0,0,0,0,0,0L37.8,37.6z"/>
		<path class="st4" d="M35.8,35.7l0.7,0.7c0,0,0,0,0,0L35.8,35.7C35.8,35.7,35.8,35.7,35.8,35.7L35.8,35.7z"/>
		<path class="st4" d="M37.1,36.9C37.1,36.9,37.1,36.9,37.1,36.9l-0.5-0.5c0,0,0,0,0,0L37.1,36.9z"/>
		<polygon class="st4" points="29.2,29.3 35.8,35.7 35.8,35.7 29.2,29.3 29.2,29.3 		"/>
		<polygon class="st4" points="35.8,35.7 35.8,35.7 35.8,35.7 		"/>
		<polygon class="st4" points="29.1,29.2 29.1,29.3 29.2,29.4 29.2,29.3 		"/>
		<polygon class="st4" points="29.2,29.3 29.3,29.3 29.2,29.2 29.1,29.2 		"/>
		<polygon class="st4" points="29.1,29.2 29.2,29.3 29.2,29.3 29.2,29.3 29.1,29.2 29.1,29.2 		"/>
		<polygon class="st4" points="29,29.1 29,29.1 29,29.2 29,29.2 		"/>
		<polygon class="st4" points="29,29.1 29,29.1 29,29.1 29.1,29.1 29.1,29.1 29,29.1 		"/>
		<polygon class="st4" points="29,29.1 29,29.1 29.1,29.1 29.1,29.1 29.1,29.1 		"/>
		<polygon class="st4" points="29,29.1 29,29.2 29.1,29.3 29.1,29.2 		"/>
		<polygon class="st4" points="29,29.1 29,29.1 29.1,29.2 29.2,29.2 29.1,29.1 29,29.1 29,29.1 		"/>
		<polygon class="st4" points="29.1,29.2 29.1,29.2 29,29.1 29,29.1 29.1,29.2 		"/>
		<polygon class="st4" points="29,29.1 29,29.2 29,29.2 29,29.1 		"/>
		<ellipse transform="matrix(0.2425 -0.9701 0.9701 0.2425 -6.2703 50.2572)" class="st4" cx="29" cy="29.1" rx="0" ry="0"/>
		<rect x="29" y="29.1" transform="matrix(0.7071 -0.7071 0.7071 0.7071 -12.0999 29.0767)" class="st4" width="0" height="0"/>
		<polygon class="st4" points="29,29.1 29.1,29.1 29.1,29.1 29.1,29.1 		"/>
		<polygon class="st4" points="38.4,38.2 38.7,38.5 38.7,38.5 38.4,38.2 		"/>
		<polygon class="st4" points="38.2,38.1 38.5,38.4 38.7,38.5 38.4,38.2 		"/>
		<polygon class="st4" points="38.5,38.2 38.4,38.2 38.7,38.5 38.7,38.5 38.6,38.3 38.4,38.1 		"/>
		<polygon class="st4" points="39,38.6 38.8,38.5 38.9,38.7 		"/>
		<polygon class="st4" points="38.9,38.7 38.9,38.7 38.7,38.6 		"/>
		<polygon class="st4" points="38.7,38.5 38.9,38.7 38.9,38.7 38.7,38.5 		"/>
		<polygon class="st4" points="38.5,38.4 38.7,38.6 38.9,38.7 38.9,38.7 38.7,38.5 		"/>
		<polygon class="st4" points="38.7,38.5 38.7,38.5 38.9,38.7 38.9,38.7 38.8,38.5 38.6,38.3 		"/>
		<polygon class="st4" points="14.4,14.3 16.5,16.5 14.4,14.3 		"/>
		<polygon class="st4" points="12.5,12.2 11.8,11.5 11.8,11.5 12.5,12.2 		"/>
		<polygon class="st4" points="13.7,13.5 13.7,13.5 14.4,14.3 14.4,14.3 		"/>
		<polygon class="st4" points="13.2,13 12.5,12.2 12.5,12.2 13.2,13 		"/>
		<polygon class="st4" points="13.2,13 13.2,13 13.7,13.5 13.7,13.5 		"/>
		<path class="st4" d="M12.5,12.2L12,11.6l-0.2-0.1l0,0L12.5,12.2C12.5,12.2,12.5,12.2,12.5,12.2z"/>
		<path class="st4" d="M16.5,16.5l4.5,4.8l0-0.1l-6.5-7c0,0,0,0,0,0L16.5,16.5z"/>
		<path class="st4" d="M14.4,14.3C14.4,14.2,14.4,14.2,14.4,14.3l-0.7-0.8c0,0,0,0,0,0L14.4,14.3z"/>
		<path class="st4" d="M13.2,12.9l-0.7-0.8c0,0,0,0,0,0L13.2,12.9C13.2,13,13.2,12.9,13.2,12.9z"/>
		<path class="st4" d="M13.2,13l0.5,0.5c0,0,0,0,0,0L13.2,13C13.2,12.9,13.2,13,13.2,13z"/>
		<path class="st4" d="M20.9,21.3l-4.5-4.8l-2.1-2.3c0,0,0,0,0,0L20.9,21.3L20.9,21.3L20.9,21.3z"/>
		<path class="st4" d="M12.5,12.2l-0.6-0.7l0.1,0.2L12.5,12.2C12.4,12.2,12.4,12.2,12.5,12.2z"/>
		<path class="st4" d="M13.7,13.5C13.6,13.5,13.6,13.5,13.7,13.5l0.7,0.8c0,0,0,0,0,0L13.7,13.5z"/>
		<path class="st4" d="M12.5,12.2C12.4,12.2,12.4,12.2,12.5,12.2l0.7,0.8c0,0,0,0,0,0L12.5,12.2z"/>
		<path class="st4" d="M13.2,13C13.2,13,13.1,13,13.2,13l0.4,0.6c0,0,0,0,0,0L13.2,13z"/>
		<polygon class="st4" points="16.5,16.5 20.9,21.3 20.9,21.3 		"/>
		<polygon class="st4" points="21,21.4 21,21.3 21,21.2 20.9,21.3 		"/>
		<polygon class="st4" points="21,21.4 20.9,21.3 20.9,21.3 20.9,21.3 21,21.4 21,21.4 		"/>
		<polygon class="st4" points="20.9,21.3 20.9,21.3 21,21.4 21,21.4 		"/>
		<polygon class="st4" points="21.1,21.5 21.1,21.5 21.1,21.4 21.1,21.4 		"/>
		<polygon class="st4" points="21.1,21.5 21.1,21.5 21.1,21.4 21.1,21.4 21.1,21.5 		"/>
		<polygon class="st4" points="21,21.5 21.1,21.5 21,21.5 		"/>
		<polygon class="st4" points="21.1,21.5 21.1,21.4 21,21.3 21,21.4 		"/>
		<polygon class="st4" points="21.1,21.5 21.1,21.5 21.1,21.5 21.1,21.5 21.1,21.5 21.1,21.5 21,21.4 21,21.4 21,21.4 21,21.5 		"/>
		<rect x="21.1" y="21.5" transform="matrix(0.7071 -0.7071 0.7071 0.7071 -9.0032 21.1969)" class="st4" width="0" height="0"/>
		<polygon class="st4" points="21,21.5 21,21.5 21.1,21.5 21.1,21.5 		"/>
		<polygon class="st4" points="21,21.4 21.1,21.5 21.1,21.5 21,21.4 		"/>
		<polygon class="st4" points="21.1,21.4 21.1,21.4 21.1,21.5 		"/>
		<polygon class="st4" points="11.8,11.5 11.5,11.2 11.5,11.2 11.8,11.5 		"/>
		<polygon class="st4" points="11.8,11.5 12,11.6 11.7,11.3 11.5,11.2 11.5,11.2 11.8,11.5 		"/>
		<polygon class="st4" points="11.8,11.5 11.5,11.2 11.6,11.4 11.9,11.7 		"/>
		<polygon class="st4" points="11.4,11 11.3,11 11.6,11.1 		"/>
		<polygon class="st4" points="11.5,11.2 11.5,11.2 11.3,11 11.3,11.1 11.5,11.2 11.3,11 		"/>
		<polygon class="st4" points="11.5,11.2 11.7,11.3 11.6,11.1 11.3,11 11.3,11 11.5,11.2 		"/>
		<polygon class="st4" points="11.5,11.2 11.3,11 11.5,11.2 11.6,11.4 		"/>
	</g>
</g>
<g id="Layer_4" class="st0">
	<g class="st2">
		<defs>
			<rect id="SVGID_3_" x="4.7" y="6.8" width="40.7" height="34.4"/>
		</defs>
		<clipPath id="SVGID_4_">
			<use xlink:href="#SVGID_3_"  style="overflow:visible;"/>
		</clipPath>
		<path class="st6" d="M9.3,27.4c-0.7,0.7-1.4,1.2-2,1.9c-0.8,0.9-1,1.9-0.6,3c0.1,0.4,0.5,0.8,0.8,1.1c0.4,0.3,0.9,0.5,1.4,0.1
			c0.5-0.3,0.7-0.8,0.6-1.4c-0.3-1.4-0.2-2.8,0.2-4.3C9.6,27.8,9.5,27.7,9.3,27.4 M27.3,30.7c-0.2,0.1-0.4,0.3-0.6,0.5
			c-2.4,2.4-4.8,4.8-7.3,7.2C16,41.9,10.8,42,7.3,38.7c-3.2-3-3.5-8.5-0.5-11.8c2.7-2.9,5.6-5.6,8.3-8.3
			C19.1,22.6,23.1,26.6,27.3,30.7"/>
		<path class="st6" d="M28.4,27.3c0,0,0.1-0.1,0.2-0.1c2.3-2.3,4.7-4.6,7-7c1.7-1.7,2.2-3.9,1.7-6.2c-0.6-2.8-2.3-4.6-5-5.4
			c-2.7-0.8-5-0.1-7,1.9c-2.2,2.1-4.3,4.3-6.4,6.4c-0.2,0.2-0.3,0.4-0.4,0.5C21.8,20.6,25.1,23.9,28.4,27.3 M28.4,29.4
			c-4-4-8-8-12.1-12.1c0.1-0.1,0.2-0.2,0.3-0.4c2.5-2.6,5.1-5.1,7.6-7.6c3.1-3,7.7-3.4,11.1-0.8c4.1,3,4.7,9.2,1.1,12.8
			c-2.6,2.6-5.2,5.2-7.8,7.8C28.6,29.2,28.5,29.3,28.4,29.4"/>
		<path class="st6" d="M43.3,27.8c-4.2,3.3-8.3,6.6-12.5,9.9c-2.4-3-1.7-7.5,1.8-10.7C35.6,24.3,41,25,43.3,27.8"/>
		<path class="st6" d="M31.5,38.8c4.2-3.3,8.3-6.6,12.5-9.9c1.8,2.1,2.1,6.9-1.5,10.1C39.3,42,34.2,41.9,31.5,38.8"/>
	</g>
</g>
<g id="Layer_5" class="st0">
	<g class="st2">
		<defs>
			<rect id="SVGID_5_" x="8.5" y="4" width="33" height="41.9"/>
		</defs>
		<clipPath id="SVGID_6_">
			<use xlink:href="#SVGID_5_"  style="overflow:visible;"/>
		</clipPath>
		<path class="st7" d="M17.9,19.6c-0.7,0-1.2-0.5-1.2-1.2c0-0.7,0.6-1.2,1.2-1.2c0.7,0,1.2,0.6,1.2,1.2
			C19.1,19.1,18.5,19.6,17.9,19.6 M25,24.1c1.2-1.2,2.4-2.4,3.5-3.6c0.6,0.6,1.3,1.3,1.9,1.9c0.2,0.2,0.2,0.6,0,0.8
			c-0.9,0.9-1.8,1.8-2.7,2.7c-0.3,0.2-0.6,0.2-0.8,0C26.3,25.4,25.7,24.7,25,24.1 M12.6,11.6C12.6,11.6,12.5,11.6,12.6,11.6
			c-1.3-1.3-2.6-2.5-3.8-3.8c-0.3-0.3-0.3-0.6,0-1c0.8-0.8,1.7-1.7,2.5-2.5c0.4-0.4,0.7-0.4,1.1,0c0.8,0.7,1.5,1.5,2.3,2.2
			c0.5,0.5,1,1,1.5,1.5C14.9,9.3,13.8,10.5,12.6,11.6 M37.4,43.9c0,0.6,0,1.1,0,1.6c0,0.4-0.1,0.5-0.5,0.5c-8,0-16,0-24.1,0h-0.5
			c0-0.5,0-1,0-1.4c0-0.7-0.1-0.6,0.6-0.6c7.8,0,15.7,0,23.5,0H37.4z M19.2,19.5c0-0.1,0.1-0.1,0.1-0.2c0.4-0.8,0.3-1.5-0.2-2.1
			c-0.5-0.5-1.2-0.6-2-0.2c-0.2,0.1-0.3,0-0.5-0.1c-1.1-1.1-2.1-2.1-3.2-3.2c-0.5-0.5-0.5-0.7,0-1.2c1.2-1.2,2.4-2.4,3.6-3.6
			c0.5-0.5,0.7-0.5,1.3,0c2.8,2.8,5.7,5.7,8.5,8.5c0.4,0.4,0.8,0.7,1.1,1.1c0.3,0.3,0.3,0.6,0,0.9c-1.3,1.3-2.6,2.6-3.9,3.9
			c-0.3,0.3-0.6,0.3-0.9,0C21.8,22.1,20.5,20.8,19.2,19.5 M37.4,43H12.3c1.5-2.2,3.3-3.8,5.6-5c-3.9-2.1-6.4-5.1-6.9-9.6
			c-0.5-4.4,1.4-7.9,4.9-10.8c0.1,0.3,0.3,0.5,0.3,0.8c0.1,1,0.8,1.7,1.8,1.7c0.2,0,0.3,0.1,0.6,0.2c-0.2,0.2-0.3,0.3-0.4,0.3
			c-4,3.2-4.3,8.8-0.7,12.4c2.9,2.9,7.7,3.6,11.5,1.8c0.6-0.3,1.1-0.6,1.7-0.9c0,0,0-0.1,0-0.1h-4.8v-2.9h15.7v2.9
			c-0.2,0-0.3,0-0.5,0c-1.5,0-3,0-4.6,0c-0.3,0-0.4,0.1-0.6,0.3c-1,1.4-2.3,2.5-3.7,3.3c-0.2,0.1-0.4,0.2-0.6,0.4
			C33.9,39,35.9,40.7,37.4,43"/>
		<path class="st7" d="M37.4,43c-1.5-2.3-3.5-4-5.9-5.2c0.2-0.1,0.4-0.3,0.6-0.4c1.5-0.9,2.7-2,3.7-3.3c0.2-0.2,0.3-0.3,0.6-0.3
			c1.5,0,3,0,4.6,0c0.2,0,0.3,0,0.5,0v-2.9H25.8v2.9h4.8c0,0,0,0.1,0,0.1c-0.6,0.3-1.1,0.7-1.7,0.9c-3.8,1.8-8.6,1-11.5-1.8
			c-3.6-3.6-3.3-9.2,0.7-12.4c0.1-0.1,0.2-0.2,0.4-0.3c-0.2-0.1-0.4-0.2-0.6-0.2c-1,0-1.8-0.7-1.8-1.7c0-0.2-0.2-0.5-0.3-0.8
			c-3.5,2.8-5.4,6.3-4.9,10.8c0.5,4.4,3.1,7.4,6.9,9.6c-2.3,1.2-4.1,2.9-5.6,5H37.4z"/>
		<path class="st7" d="M19.2,19.5c1.3,1.3,2.6,2.6,3.9,3.9c0.3,0.3,0.6,0.3,0.9,0c1.3-1.3,2.6-2.6,3.9-3.9c0.3-0.3,0.3-0.6,0-0.9
			c-0.4-0.4-0.7-0.8-1.1-1.1c-2.8-2.8-5.7-5.7-8.5-8.5c-0.5-0.5-0.7-0.5-1.3,0c-1.2,1.2-2.4,2.4-3.6,3.6c-0.5,0.5-0.5,0.7,0,1.2
			c1.1,1.1,2.1,2.1,3.2,3.2c0.1,0.1,0.2,0.3,0.5,0.1c0.8-0.4,1.5-0.3,2,0.2c0.6,0.6,0.6,1.3,0.2,2.1C19.3,19.4,19.2,19.4,19.2,19.5"
			/>
		<path class="st7" d="M37.4,43.9h-0.9c-7.8,0-15.7,0-23.5,0c-0.7,0-0.6,0-0.6,0.6c0,0.5,0,0.9,0,1.4h0.5c8,0,16,0,24.1,0
			c0.4,0,0.5-0.1,0.5-0.5C37.4,45,37.4,44.4,37.4,43.9"/>
		<path class="st7" d="M12.6,11.6c1.2-1.2,2.3-2.4,3.6-3.6c-0.5-0.5-1-1-1.5-1.5c-0.8-0.7-1.5-1.5-2.3-2.2c-0.4-0.4-0.7-0.4-1.1,0
			C10.4,5.2,9.6,6,8.8,6.8c-0.3,0.3-0.4,0.7,0,1C10,9.1,11.2,10.3,12.6,11.6C12.5,11.6,12.6,11.6,12.6,11.6"/>
		<path class="st7" d="M25,24.1c0.6,0.6,1.2,1.3,1.9,1.9c0.3,0.2,0.6,0.2,0.8,0c0.9-0.9,1.8-1.8,2.7-2.7c0.2-0.2,0.3-0.6,0-0.8
			c-0.6-0.7-1.3-1.3-1.9-1.9C27.4,21.7,26.2,22.9,25,24.1"/>
		<path class="st7" d="M17.9,19.6c0.7,0,1.2-0.5,1.2-1.2c0-0.7-0.5-1.2-1.2-1.2c-0.7,0-1.2,0.5-1.2,1.2
			C16.7,19.1,17.2,19.6,17.9,19.6"/>
	</g>
</g>
<g id="Layer_6" class="st0">
	<g class="st2">
		<defs>
			<rect id="SVGID_7_" x="3.9" y="3.9" width="42.3" height="42.3"/>
		</defs>
		<clipPath id="SVGID_8_">
			<use xlink:href="#SVGID_7_"  style="overflow:visible;"/>
		</clipPath>
		<path class="st8" d="M26.1,27.7v5.8c0.6-0.4,1.2-0.7,1.7-1.1c1-0.7,1.1-1.6,0.7-2.8C28,28.6,27.1,28.1,26.1,27.7 M23.9,27.6
			c-1,0.4-1.9,0.8-2.5,1.7c-0.4,0.7-0.6,1.5-0.2,2.2c0.2,0.3,0.5,0.6,0.8,0.8c0.6,0.4,1.2,0.8,1.9,1.2V27.6z M3.9,13.5L3.9,13.5
			c1.3,0,2.6-0.1,3.8-0.5c2.3-0.7,4.2-1.9,6-3.5c1.1-0.9,2.1-1.9,3.1-2.8c0.5-0.4,1-0.9,1.8-0.7c0.5,0.1,0.9,0.5,1.2,1
			c0.3,0.5,0.6,1,1,1.5c0.7,1,1.7,1.4,3,1.4c-0.1-0.2-0.2-0.3-0.3-0.4c-0.2-0.2-0.4-0.3-0.6-0.4c-1.3-1.1-1.2-3.3,0.1-4.4
			c0.5-0.4,1-0.6,1.6-0.8h0.8c0.2,0.1,0.5,0.1,0.7,0.2c1,0.4,1.7,1.2,1.9,2.2c0.2,1.4-0.3,2.4-1.4,3.2c-0.1,0.1-0.2,0.2-0.3,0.4
			c1.5,0.1,2.5-0.5,3.2-1.7c0.3-0.5,0.7-1,1.1-1.5c0.2-0.3,0.6-0.5,0.9-0.6c0.5-0.2,1,0.1,1.4,0.4C33.4,7,34,7.5,34.6,8
			c1.7,1.6,3.5,3.1,5.6,4.1c1.9,1,3.9,1.5,6,1.3v0.1c0,0-0.1,0.1-0.1,0.1c-1,1.6-2.4,2.3-4.3,2.1c-0.3,0-0.5,0-0.7,0.2
			c-0.2,0.2-0.4,0.3-0.7,0.4c-1.2,0.6-2.4,0.5-3.7,0c-0.1,0-0.3-0.1-0.4,0c-1.2,0.7-2.4,0.7-3.6,0.2c-0.2-0.1-0.4-0.1-0.7,0
			c-1.1,0.6-2.2,0.7-3.3,0.1c-0.1,0-0.3,0-0.4,0c-0.6,0.3-1.2,0.5-1.8,0.5c-0.1,0-0.2,0-0.4,0v7.2c0.2,0,0.3-0.1,0.5-0.1
			c1.6-0.4,3.3-0.8,4.9-1.2c1.3-0.3,2.5-0.8,3.7-1.4c0.2-0.1,0.3-0.2,0.5-0.4C35.3,21.2,35,21,34.6,21c-1.8-0.3-3.6-0.4-5.5-0.3
			c-0.8,0-1.4-0.3-1.6-1c-0.2-0.4,0-0.9,0.5-1.1c0.3-0.1,0.7-0.2,1-0.2c1.5,0,3,0,4.5,0.1c1,0.1,2.1,0.3,3.1,0.5
			c0.8,0.2,1.5,0.5,2.1,1.1c0.7,0.8,0.9,1.5,0.3,2.3c-0.3,0.4-0.7,0.8-1.1,1.1c-1,0.7-2.1,1.2-3.2,1.5c-1.7,0.5-3.4,0.8-5.1,1.3
			c-0.2,0-0.3,0.1-0.5,0.1c0.1,0.1,0.2,0.2,0.3,0.2c1,0.8,1.6,1.8,2,3c0.3,1.1,0.1,2.1-0.6,3c-0.6,0.9-1.4,1.5-2.3,2.1
			c-0.5,0.3-1,0.6-1.5,0.9c0,0,0,0,0,0.1c0,0,0.1,0.1,0.1,0.1c1.1,0.8,2.1,1.6,2.9,2.7c0.9,1.2,1.2,2.5,0.4,3.9
			c-0.6,1.3-1.6,2.2-2.8,3c-0.4,0.3-0.8,0.5-1.2,0.7h-0.1c0.2-0.4,0.4-0.7,0.6-1.1c0.6-1,1.1-2.1,1.4-3.2c0.1-0.4,0.1-0.9,0-1.3
			c-0.3-1-1.1-1.8-1.8-2.4c-0.2-0.2-0.4-0.3-0.6-0.5c0,0.2,0,0.3,0,0.4c0,1.7,0,3.4-0.1,5.1c0,0.2,0,0.4-0.1,0.5
			c-0.1,0.4-0.4,0.7-0.8,0.7c-0.4,0-0.7-0.2-0.9-0.6c-0.1-0.2-0.1-0.4-0.1-0.6c0-1.8,0-3.5-0.1-5.3c0-0.1,0-0.2,0-0.3
			c0,0-0.1,0-0.1-0.1c-0.6,0.6-1.2,1.1-1.8,1.7c-0.9,1-1.2,2.2-0.6,3.5c0.4,0.8,0.8,1.7,1.2,2.5c0.2,0.3,0.4,0.7,0.5,1
			c-0.2-0.1-0.3-0.2-0.5-0.3c-1.5-0.8-2.7-1.9-3.5-3.5c-0.5-1.1-0.6-2.1,0-3.2c0.5-0.9,1.2-1.6,2-2.3c0.5-0.4,1-0.8,1.5-1.2
			c0,0,0-0.1,0-0.1c-0.2-0.1-0.3-0.2-0.5-0.3c-1.3-0.8-2.5-1.6-3.3-2.8c-0.5-0.7-0.7-1.5-0.6-2.3c0.3-1.4,1-2.6,2.1-3.5
			c0.1-0.1,0.2-0.2,0.3-0.3c-0.7-0.2-1.4-0.3-2-0.4c-1.9-0.4-3.8-0.9-5.5-1.7c-0.8-0.4-1.5-0.8-2.1-1.4c-0.4-0.5-0.7-1-0.6-1.6
			c0.1-0.6,0.5-1.1,1-1.5c0.9-0.7,2-1,3-1.1c1.9-0.2,3.8-0.2,5.7-0.3c0.5,0,1.1,0.1,1.6,0.3c0.5,0.1,0.7,0.7,0.5,1.1
			c-0.3,0.6-0.8,0.9-1.6,0.9c-1.8-0.1-3.7,0-5.5,0.3c-0.4,0.1-0.7,0.2-1.1,0.3c0,0.1,0,0.1,0,0.2c3,1.7,6.4,2.2,9.7,3.1v-7.3
			c-0.9,0.1-1.6-0.1-2.3-0.5c-0.1,0-0.2,0-0.3,0c-1.1,0.6-2.2,0.5-3.3-0.1c-0.3-0.1-0.5-0.2-0.7,0c-1.2,0.5-2.3,0.5-3.4-0.1
			c-0.2-0.1-0.3-0.1-0.6,0c-1.4,0.5-2.8,0.5-4.1-0.3c-0.4-0.3-0.7-0.3-1.1-0.3c-1.2,0.1-2.3-0.2-3.1-1.1C4.5,14.3,4.2,13.9,3.9,13.5
			"/>
	</g>
</g>
</svg>
